ISO-10303-21;
HEADER;
FILE_DESCRIPTION(('FreeCAD Model'),'2;1');
FILE_NAME('Open CASCADE Shape Model','2025-03-02T22:31:27',('Author'),(
    ''),'Open CASCADE STEP processor 7.8','FreeCAD','Unknown');
FILE_SCHEMA(('AUTOMOTIVE_DESIGN { 1 0 10303 214 1 1 1 1 }'));
ENDSEC;
DATA;
#1 = APPLICATION_PROTOCOL_DEFINITION('international standard',
  'automotive_design',2000,#2);
#2 = APPLICATION_CONTEXT(
  'core data for automotive mechanical design processes');
#3 = SHAPE_DEFINITION_REPRESENTATION(#4,#10);
#4 = PRODUCT_DEFINITION_SHAPE('','',#5);
#5 = PRODUCT_DEFINITION('design','',#6,#9);
#6 = PRODUCT_DEFINITION_FORMATION('','',#7);
#7 = PRODUCT('E92 trim hanger','E92 trim hanger','',(#8));
#8 = PRODUCT_CONTEXT('',#2,'mechanical');
#9 = PRODUCT_DEFINITION_CONTEXT('part definition',#2,'design');
#10 = ADVANCED_BREP_SHAPE_REPRESENTATION('',(#11,#15),#1149);
#11 = AXIS2_PLACEMENT_3D('',#12,#13,#14);
#12 = CARTESIAN_POINT('',(0.,0.,0.));
#13 = DIRECTION('',(0.,0.,1.));
#14 = DIRECTION('',(1.,0.,-0.));
#15 = MANIFOLD_SOLID_BREP('',#16);
#16 = CLOSED_SHELL('',(#17,#143,#314,#339,#364,#527,#551,#576,#601,#625,
    #649,#674,#699,#723,#747,#765,#792,#809,#826,#843,#860,#877,#894,
    #911,#928,#945,#962,#979,#996,#1013,#1025,#1050,#1075,#1100,#1125,
    #1137));
#17 = ADVANCED_FACE('',(#18),#138,.F.);
#18 = FACE_BOUND('',#19,.F.);
#19 = EDGE_LOOP('',(#20,#30,#39,#47,#56,#64,#73,#81,#90,#98,#107,#115,
    #124,#132));
#20 = ORIENTED_EDGE('',*,*,#21,.T.);
#21 = EDGE_CURVE('',#22,#24,#26,.T.);
#22 = VERTEX_POINT('',#23);
#23 = CARTESIAN_POINT('',(47.655896366637,53.,-8.881784197001E-16));
#24 = VERTEX_POINT('',#25);
#25 = CARTESIAN_POINT('',(53.5,53.,0.));
#26 = LINE('',#27,#28);
#27 = CARTESIAN_POINT('',(41.,53.,0.));
#28 = VECTOR('',#29,1.);
#29 = DIRECTION('',(1.,0.,0.));
#30 = ORIENTED_EDGE('',*,*,#31,.T.);
#31 = EDGE_CURVE('',#24,#32,#34,.T.);
#32 = VERTEX_POINT('',#33);
#33 = CARTESIAN_POINT('',(56.,55.5,0.));
#34 = CIRCLE('',#35,2.5);
#35 = AXIS2_PLACEMENT_3D('',#36,#37,#38);
#36 = CARTESIAN_POINT('',(53.5,55.5,0.));
#37 = DIRECTION('',(-0.,0.,1.));
#38 = DIRECTION('',(0.,-1.,0.));
#39 = ORIENTED_EDGE('',*,*,#40,.T.);
#40 = EDGE_CURVE('',#32,#41,#43,.T.);
#41 = VERTEX_POINT('',#42);
#42 = CARTESIAN_POINT('',(56.,60.5,0.));
#43 = LINE('',#44,#45);
#44 = CARTESIAN_POINT('',(56.,53.,0.));
#45 = VECTOR('',#46,1.);
#46 = DIRECTION('',(0.,1.,0.));
#47 = ORIENTED_EDGE('',*,*,#48,.T.);
#48 = EDGE_CURVE('',#41,#49,#51,.T.);
#49 = VERTEX_POINT('',#50);
#50 = CARTESIAN_POINT('',(58.5,63.,0.));
#51 = CIRCLE('',#52,2.5);
#52 = AXIS2_PLACEMENT_3D('',#53,#54,#55);
#53 = CARTESIAN_POINT('',(58.5,60.5,0.));
#54 = DIRECTION('',(-0.,-0.,-1.));
#55 = DIRECTION('',(0.,-1.,0.));
#56 = ORIENTED_EDGE('',*,*,#57,.T.);
#57 = EDGE_CURVE('',#49,#58,#60,.T.);
#58 = VERTEX_POINT('',#59);
#59 = CARTESIAN_POINT('',(99.76,63.,0.));
#60 = LINE('',#61,#62);
#61 = CARTESIAN_POINT('',(56.,63.,0.));
#62 = VECTOR('',#63,1.);
#63 = DIRECTION('',(1.,0.,0.));
#64 = ORIENTED_EDGE('',*,*,#65,.T.);
#65 = EDGE_CURVE('',#58,#66,#68,.T.);
#66 = VERTEX_POINT('',#67);
#67 = CARTESIAN_POINT('',(101.,64.24,0.));
#68 = CIRCLE('',#69,1.24);
#69 = AXIS2_PLACEMENT_3D('',#70,#71,#72);
#70 = CARTESIAN_POINT('',(99.76,64.24,0.));
#71 = DIRECTION('',(-0.,0.,1.));
#72 = DIRECTION('',(0.,-1.,0.));
#73 = ORIENTED_EDGE('',*,*,#74,.T.);
#74 = EDGE_CURVE('',#66,#75,#77,.T.);
#75 = VERTEX_POINT('',#76);
#76 = CARTESIAN_POINT('',(101.,64.26,0.));
#77 = LINE('',#78,#79);
#78 = CARTESIAN_POINT('',(101.,63.,0.));
#79 = VECTOR('',#80,1.);
#80 = DIRECTION('',(0.,1.,0.));
#81 = ORIENTED_EDGE('',*,*,#82,.T.);
#82 = EDGE_CURVE('',#75,#83,#85,.T.);
#83 = VERTEX_POINT('',#84);
#84 = CARTESIAN_POINT('',(99.76,65.5,0.));
#85 = CIRCLE('',#86,1.24);
#86 = AXIS2_PLACEMENT_3D('',#87,#88,#89);
#87 = CARTESIAN_POINT('',(99.76,64.26,0.));
#88 = DIRECTION('',(-0.,0.,1.));
#89 = DIRECTION('',(0.,-1.,0.));
#90 = ORIENTED_EDGE('',*,*,#91,.F.);
#91 = EDGE_CURVE('',#92,#83,#94,.T.);
#92 = VERTEX_POINT('',#93);
#93 = CARTESIAN_POINT('',(56.,65.5,0.));
#94 = LINE('',#95,#96);
#95 = CARTESIAN_POINT('',(53.5,65.5,0.));
#96 = VECTOR('',#97,1.);
#97 = DIRECTION('',(1.,0.,0.));
#98 = ORIENTED_EDGE('',*,*,#99,.T.);
#99 = EDGE_CURVE('',#92,#100,#102,.T.);
#100 = VERTEX_POINT('',#101);
#101 = CARTESIAN_POINT('',(53.5,63.,0.));
#102 = CIRCLE('',#103,2.5);
#103 = AXIS2_PLACEMENT_3D('',#104,#105,#106);
#104 = CARTESIAN_POINT('',(56.,63.,0.));
#105 = DIRECTION('',(-0.,0.,1.));
#106 = DIRECTION('',(0.,-1.,0.));
#107 = ORIENTED_EDGE('',*,*,#108,.F.);
#108 = EDGE_CURVE('',#109,#100,#111,.T.);
#109 = VERTEX_POINT('',#110);
#110 = CARTESIAN_POINT('',(53.5,60.5,0.));
#111 = LINE('',#112,#113);
#112 = CARTESIAN_POINT('',(53.5,58.,0.));
#113 = VECTOR('',#114,1.);
#114 = DIRECTION('',(0.,1.,0.));
#115 = ORIENTED_EDGE('',*,*,#116,.F.);
#116 = EDGE_CURVE('',#117,#109,#119,.T.);
#117 = VERTEX_POINT('',#118);
#118 = CARTESIAN_POINT('',(51.,58.,0.));
#119 = CIRCLE('',#120,2.5);
#120 = AXIS2_PLACEMENT_3D('',#121,#122,#123);
#121 = CARTESIAN_POINT('',(51.,60.5,0.));
#122 = DIRECTION('',(-0.,0.,1.));
#123 = DIRECTION('',(0.,-1.,0.));
#124 = ORIENTED_EDGE('',*,*,#125,.F.);
#125 = EDGE_CURVE('',#126,#117,#128,.T.);
#126 = VERTEX_POINT('',#127);
#127 = CARTESIAN_POINT('',(47.655896366637,58.,-8.881784197001E-16));
#128 = LINE('',#129,#130);
#129 = CARTESIAN_POINT('',(41.,58.,0.));
#130 = VECTOR('',#131,1.);
#131 = DIRECTION('',(1.,0.,0.));
#132 = ORIENTED_EDGE('',*,*,#133,.F.);
#133 = EDGE_CURVE('',#22,#126,#134,.T.);
#134 = LINE('',#135,#136);
#135 = CARTESIAN_POINT('',(47.655896366637,53.,-8.881784197001E-16));
#136 = VECTOR('',#137,1.);
#137 = DIRECTION('',(0.,1.,0.));
#138 = PLANE('',#139);
#139 = AXIS2_PLACEMENT_3D('',#140,#141,#142);
#140 = CARTESIAN_POINT('',(68.543103448276,61.706896551724,0.));
#141 = DIRECTION('',(0.,0.,1.));
#142 = DIRECTION('',(1.,0.,0.));
#143 = ADVANCED_FACE('',(#144,#287,#298),#309,.F.);
#144 = FACE_BOUND('',#145,.F.);
#145 = EDGE_LOOP('',(#146,#156,#162,#163,#172,#180,#189,#197,#206,#214,
    #222,#230,#238,#246,#255,#263,#272,#280));
#146 = ORIENTED_EDGE('',*,*,#147,.T.);
#147 = EDGE_CURVE('',#148,#150,#152,.T.);
#148 = VERTEX_POINT('',#149);
#149 = CARTESIAN_POINT('',(47.655896366637,53.,54.92));
#150 = VERTEX_POINT('',#151);
#151 = CARTESIAN_POINT('',(53.5,53.,54.92));
#152 = LINE('',#153,#154);
#153 = CARTESIAN_POINT('',(41.,53.,54.92));
#154 = VECTOR('',#155,1.);
#155 = DIRECTION('',(1.,0.,0.));
#156 = ORIENTED_EDGE('',*,*,#157,.F.);
#157 = EDGE_CURVE('',#24,#150,#158,.T.);
#158 = LINE('',#159,#160);
#159 = CARTESIAN_POINT('',(53.5,53.,0.));
#160 = VECTOR('',#161,1.);
#161 = DIRECTION('',(0.,0.,1.));
#162 = ORIENTED_EDGE('',*,*,#21,.F.);
#163 = ORIENTED_EDGE('',*,*,#164,.T.);
#164 = EDGE_CURVE('',#22,#165,#167,.T.);
#165 = VERTEX_POINT('',#166);
#166 = CARTESIAN_POINT('',(45.935167057584,53.,0.542543867133));
#167 = CIRCLE('',#168,3.);
#168 = AXIS2_PLACEMENT_3D('',#169,#170,#171);
#169 = CARTESIAN_POINT('',(47.655896366637,53.,3.));
#170 = DIRECTION('',(0.,1.,0.));
#171 = DIRECTION('',(0.,0.,1.));
#172 = ORIENTED_EDGE('',*,*,#173,.T.);
#173 = EDGE_CURVE('',#165,#174,#176,.T.);
#174 = VERTEX_POINT('',#175);
#175 = CARTESIAN_POINT('',(42.279270690947,53.,3.102430061966));
#176 = LINE('',#177,#178);
#177 = CARTESIAN_POINT('',(43.366766245403,53.,2.340957476966));
#178 = VECTOR('',#179,1.);
#179 = DIRECTION('',(-0.819152044289,0.,0.573576436351));
#180 = ORIENTED_EDGE('',*,*,#181,.T.);
#181 = EDGE_CURVE('',#174,#182,#184,.T.);
#182 = VERTEX_POINT('',#183);
#183 = CARTESIAN_POINT('',(41.,53.,5.559886194833));
#184 = CIRCLE('',#185,3.);
#185 = AXIS2_PLACEMENT_3D('',#186,#187,#188);
#186 = CARTESIAN_POINT('',(44.,53.,5.559886194833));
#187 = DIRECTION('',(0.,1.,0.));
#188 = DIRECTION('',(0.,0.,1.));
#189 = ORIENTED_EDGE('',*,*,#190,.T.);
#190 = EDGE_CURVE('',#182,#191,#193,.T.);
#191 = VERTEX_POINT('',#192);
#192 = CARTESIAN_POINT('',(41.,53.,12.804103633363));
#193 = LINE('',#194,#195);
#194 = CARTESIAN_POINT('',(41.,53.,0.));
#195 = VECTOR('',#196,1.);
#196 = DIRECTION('',(0.,0.,1.));
#197 = ORIENTED_EDGE('',*,*,#198,.T.);
#198 = EDGE_CURVE('',#191,#199,#201,.T.);
#199 = VERTEX_POINT('',#200);
#200 = CARTESIAN_POINT('',(41.542543867133,53.,14.524832942416));
#201 = CIRCLE('',#202,3.);
#202 = AXIS2_PLACEMENT_3D('',#203,#204,#205);
#203 = CARTESIAN_POINT('',(44.,53.,12.804103633363));
#204 = DIRECTION('',(0.,1.,-2.22044604925E-16));
#205 = DIRECTION('',(0.,-2.22044604925E-16,-1.));
#206 = ORIENTED_EDGE('',*,*,#207,.T.);
#207 = EDGE_CURVE('',#199,#208,#210,.T.);
#208 = VERTEX_POINT('',#209);
#209 = CARTESIAN_POINT('',(44.998185043177,53.,19.46));
#210 = LINE('',#211,#212);
#211 = CARTESIAN_POINT('',(38.769352876843,53.,10.564305757318));
#212 = VECTOR('',#213,1.);
#213 = DIRECTION('',(0.573576436351,0.,0.819152044289));
#214 = ORIENTED_EDGE('',*,*,#215,.T.);
#215 = EDGE_CURVE('',#208,#216,#218,.T.);
#216 = VERTEX_POINT('',#217);
#217 = CARTESIAN_POINT('',(45.,53.,19.46));
#218 = LINE('',#219,#220);
#219 = CARTESIAN_POINT('',(37.,53.,19.46));
#220 = VECTOR('',#221,1.);
#221 = DIRECTION('',(1.,0.,0.));
#222 = ORIENTED_EDGE('',*,*,#223,.T.);
#223 = EDGE_CURVE('',#216,#224,#226,.T.);
#224 = VERTEX_POINT('',#225);
#225 = CARTESIAN_POINT('',(45.,53.,35.46));
#226 = LINE('',#227,#228);
#227 = CARTESIAN_POINT('',(45.,53.,19.46));
#228 = VECTOR('',#229,1.);
#229 = DIRECTION('',(0.,2.22044604925E-16,1.));
#230 = ORIENTED_EDGE('',*,*,#231,.T.);
#231 = EDGE_CURVE('',#224,#232,#234,.T.);
#232 = VERTEX_POINT('',#233);
#233 = CARTESIAN_POINT('',(44.998185043177,53.,35.46));
#234 = LINE('',#235,#236);
#235 = CARTESIAN_POINT('',(45.,53.,35.46));
#236 = VECTOR('',#237,1.);
#237 = DIRECTION('',(-1.,0.,0.));
#238 = ORIENTED_EDGE('',*,*,#239,.F.);
#239 = EDGE_CURVE('',#240,#232,#242,.T.);
#240 = VERTEX_POINT('',#241);
#241 = CARTESIAN_POINT('',(41.542543867133,53.,40.395167057584));
#242 = LINE('',#243,#244);
#243 = CARTESIAN_POINT('',(51.671332560233,53.,25.929757674821));
#244 = VECTOR('',#245,1.);
#245 = DIRECTION('',(0.573576436351,0.,-0.819152044289));
#246 = ORIENTED_EDGE('',*,*,#247,.F.);
#247 = EDGE_CURVE('',#248,#240,#250,.T.);
#248 = VERTEX_POINT('',#249);
#249 = CARTESIAN_POINT('',(41.,53.,42.115896366637));
#250 = CIRCLE('',#251,3.);
#251 = AXIS2_PLACEMENT_3D('',#252,#253,#254);
#252 = CARTESIAN_POINT('',(44.,53.,42.115896366637));
#253 = DIRECTION('',(0.,-1.,2.22044604925E-16));
#254 = DIRECTION('',(0.,2.22044604925E-16,1.));
#255 = ORIENTED_EDGE('',*,*,#256,.T.);
#256 = EDGE_CURVE('',#248,#257,#259,.T.);
#257 = VERTEX_POINT('',#258);
#258 = CARTESIAN_POINT('',(41.,53.,49.360113805167));
#259 = LINE('',#260,#261);
#260 = CARTESIAN_POINT('',(41.,53.,0.));
#261 = VECTOR('',#262,1.);
#262 = DIRECTION('',(0.,0.,1.));
#263 = ORIENTED_EDGE('',*,*,#264,.F.);
#264 = EDGE_CURVE('',#265,#257,#267,.T.);
#265 = VERTEX_POINT('',#266);
#266 = CARTESIAN_POINT('',(42.279270690947,53.,51.817569938034));
#267 = CIRCLE('',#268,3.);
#268 = AXIS2_PLACEMENT_3D('',#269,#270,#271);
#269 = CARTESIAN_POINT('',(44.,53.,49.360113805167));
#270 = DIRECTION('',(0.,-1.,0.));
#271 = DIRECTION('',(0.,0.,1.));
#272 = ORIENTED_EDGE('',*,*,#273,.F.);
#273 = EDGE_CURVE('',#274,#265,#276,.T.);
#274 = VERTEX_POINT('',#275);
#275 = CARTESIAN_POINT('',(45.935167057584,53.,54.377456132867));
#276 = LINE('',#277,#278);
#277 = CARTESIAN_POINT('',(30.464786562012,53.,43.544979090895));
#278 = VECTOR('',#279,1.);
#279 = DIRECTION('',(-0.819152044289,0.,-0.573576436351));
#280 = ORIENTED_EDGE('',*,*,#281,.F.);
#281 = EDGE_CURVE('',#148,#274,#282,.T.);
#282 = CIRCLE('',#283,3.);
#283 = AXIS2_PLACEMENT_3D('',#284,#285,#286);
#284 = CARTESIAN_POINT('',(47.655896366637,53.,51.92));
#285 = DIRECTION('',(0.,-1.,0.));
#286 = DIRECTION('',(0.,0.,1.));
#287 = FACE_BOUND('',#288,.F.);
#288 = EDGE_LOOP('',(#289));
#289 = ORIENTED_EDGE('',*,*,#290,.T.);
#290 = EDGE_CURVE('',#291,#291,#293,.T.);
#291 = VERTEX_POINT('',#292);
#292 = CARTESIAN_POINT('',(46.75,53.,43.46));
#293 = CIRCLE('',#294,1.75);
#294 = AXIS2_PLACEMENT_3D('',#295,#296,#297);
#295 = CARTESIAN_POINT('',(45.,53.,43.46));
#296 = DIRECTION('',(0.,-1.,2.22044604925E-16));
#297 = DIRECTION('',(1.,0.,0.));
#298 = FACE_BOUND('',#299,.F.);
#299 = EDGE_LOOP('',(#300));
#300 = ORIENTED_EDGE('',*,*,#301,.T.);
#301 = EDGE_CURVE('',#302,#302,#304,.T.);
#302 = VERTEX_POINT('',#303);
#303 = CARTESIAN_POINT('',(46.75,53.,11.46));
#304 = CIRCLE('',#305,1.75);
#305 = AXIS2_PLACEMENT_3D('',#306,#307,#308);
#306 = CARTESIAN_POINT('',(45.,53.,11.46));
#307 = DIRECTION('',(0.,-1.,2.22044604925E-16));
#308 = DIRECTION('',(1.,0.,0.));
#309 = PLANE('',#310);
#310 = AXIS2_PLACEMENT_3D('',#311,#312,#313);
#311 = CARTESIAN_POINT('',(41.,53.,0.));
#312 = DIRECTION('',(0.,1.,0.));
#313 = DIRECTION('',(1.,0.,0.));
#314 = ADVANCED_FACE('',(#315),#334,.T.);
#315 = FACE_BOUND('',#316,.T.);
#316 = EDGE_LOOP('',(#317,#318,#326,#333));
#317 = ORIENTED_EDGE('',*,*,#164,.T.);
#318 = ORIENTED_EDGE('',*,*,#319,.T.);
#319 = EDGE_CURVE('',#165,#320,#322,.T.);
#320 = VERTEX_POINT('',#321);
#321 = CARTESIAN_POINT('',(45.935167057584,58.,0.542543867133));
#322 = LINE('',#323,#324);
#323 = CARTESIAN_POINT('',(45.935167057584,53.,0.542543867133));
#324 = VECTOR('',#325,1.);
#325 = DIRECTION('',(0.,1.,0.));
#326 = ORIENTED_EDGE('',*,*,#327,.F.);
#327 = EDGE_CURVE('',#126,#320,#328,.T.);
#328 = CIRCLE('',#329,3.);
#329 = AXIS2_PLACEMENT_3D('',#330,#331,#332);
#330 = CARTESIAN_POINT('',(47.655896366637,58.,3.));
#331 = DIRECTION('',(0.,1.,0.));
#332 = DIRECTION('',(0.,0.,1.));
#333 = ORIENTED_EDGE('',*,*,#133,.F.);
#334 = CYLINDRICAL_SURFACE('',#335,3.);
#335 = AXIS2_PLACEMENT_3D('',#336,#337,#338);
#336 = CARTESIAN_POINT('',(47.655896366637,53.,3.));
#337 = DIRECTION('',(0.,1.,0.));
#338 = DIRECTION('',(0.,0.,-1.));
#339 = ADVANCED_FACE('',(#340),#359,.T.);
#340 = FACE_BOUND('',#341,.T.);
#341 = EDGE_LOOP('',(#342,#343,#351,#358));
#342 = ORIENTED_EDGE('',*,*,#31,.T.);
#343 = ORIENTED_EDGE('',*,*,#344,.T.);
#344 = EDGE_CURVE('',#32,#345,#347,.T.);
#345 = VERTEX_POINT('',#346);
#346 = CARTESIAN_POINT('',(56.,55.5,54.92));
#347 = LINE('',#348,#349);
#348 = CARTESIAN_POINT('',(56.,55.5,0.));
#349 = VECTOR('',#350,1.);
#350 = DIRECTION('',(0.,0.,1.));
#351 = ORIENTED_EDGE('',*,*,#352,.F.);
#352 = EDGE_CURVE('',#150,#345,#353,.T.);
#353 = CIRCLE('',#354,2.5);
#354 = AXIS2_PLACEMENT_3D('',#355,#356,#357);
#355 = CARTESIAN_POINT('',(53.5,55.5,54.92));
#356 = DIRECTION('',(-0.,0.,1.));
#357 = DIRECTION('',(0.,-1.,0.));
#358 = ORIENTED_EDGE('',*,*,#157,.F.);
#359 = CYLINDRICAL_SURFACE('',#360,2.5);
#360 = AXIS2_PLACEMENT_3D('',#361,#362,#363);
#361 = CARTESIAN_POINT('',(53.5,55.5,0.));
#362 = DIRECTION('',(0.,0.,1.));
#363 = DIRECTION('',(0.,-1.,0.));
#364 = ADVANCED_FACE('',(#365,#500,#511),#522,.T.);
#365 = FACE_BOUND('',#366,.T.);
#366 = EDGE_LOOP('',(#367,#377,#383,#384,#385,#393,#402,#410,#419,#427,
    #435,#443,#451,#459,#468,#476,#485,#493));
#367 = ORIENTED_EDGE('',*,*,#368,.T.);
#368 = EDGE_CURVE('',#369,#371,#373,.T.);
#369 = VERTEX_POINT('',#370);
#370 = CARTESIAN_POINT('',(47.655896366637,58.,54.92));
#371 = VERTEX_POINT('',#372);
#372 = CARTESIAN_POINT('',(51.,58.,54.92));
#373 = LINE('',#374,#375);
#374 = CARTESIAN_POINT('',(41.,58.,54.92));
#375 = VECTOR('',#376,1.);
#376 = DIRECTION('',(1.,0.,0.));
#377 = ORIENTED_EDGE('',*,*,#378,.F.);
#378 = EDGE_CURVE('',#117,#371,#379,.T.);
#379 = LINE('',#380,#381);
#380 = CARTESIAN_POINT('',(51.,58.,0.));
#381 = VECTOR('',#382,1.);
#382 = DIRECTION('',(0.,0.,1.));
#383 = ORIENTED_EDGE('',*,*,#125,.F.);
#384 = ORIENTED_EDGE('',*,*,#327,.T.);
#385 = ORIENTED_EDGE('',*,*,#386,.T.);
#386 = EDGE_CURVE('',#320,#387,#389,.T.);
#387 = VERTEX_POINT('',#388);
#388 = CARTESIAN_POINT('',(42.279270690947,58.,3.102430061966));
#389 = LINE('',#390,#391);
#390 = CARTESIAN_POINT('',(43.366766245403,58.,2.340957476966));
#391 = VECTOR('',#392,1.);
#392 = DIRECTION('',(-0.819152044289,0.,0.573576436351));
#393 = ORIENTED_EDGE('',*,*,#394,.T.);
#394 = EDGE_CURVE('',#387,#395,#397,.T.);
#395 = VERTEX_POINT('',#396);
#396 = CARTESIAN_POINT('',(41.,58.,5.559886194833));
#397 = CIRCLE('',#398,3.);
#398 = AXIS2_PLACEMENT_3D('',#399,#400,#401);
#399 = CARTESIAN_POINT('',(44.,58.,5.559886194833));
#400 = DIRECTION('',(0.,1.,0.));
#401 = DIRECTION('',(0.,0.,1.));
#402 = ORIENTED_EDGE('',*,*,#403,.T.);
#403 = EDGE_CURVE('',#395,#404,#406,.T.);
#404 = VERTEX_POINT('',#405);
#405 = CARTESIAN_POINT('',(41.,58.,12.804103633363));
#406 = LINE('',#407,#408);
#407 = CARTESIAN_POINT('',(41.,58.,0.));
#408 = VECTOR('',#409,1.);
#409 = DIRECTION('',(0.,0.,1.));
#410 = ORIENTED_EDGE('',*,*,#411,.T.);
#411 = EDGE_CURVE('',#404,#412,#414,.T.);
#412 = VERTEX_POINT('',#413);
#413 = CARTESIAN_POINT('',(41.542543867133,58.,14.524832942416));
#414 = CIRCLE('',#415,3.);
#415 = AXIS2_PLACEMENT_3D('',#416,#417,#418);
#416 = CARTESIAN_POINT('',(44.,58.,12.804103633363));
#417 = DIRECTION('',(0.,1.,-2.22044604925E-16));
#418 = DIRECTION('',(0.,-2.22044604925E-16,-1.));
#419 = ORIENTED_EDGE('',*,*,#420,.T.);
#420 = EDGE_CURVE('',#412,#421,#423,.T.);
#421 = VERTEX_POINT('',#422);
#422 = CARTESIAN_POINT('',(44.998185043177,58.,19.46));
#423 = LINE('',#424,#425);
#424 = CARTESIAN_POINT('',(38.769352876843,58.,10.564305757318));
#425 = VECTOR('',#426,1.);
#426 = DIRECTION('',(0.573576436351,0.,0.819152044289));
#427 = ORIENTED_EDGE('',*,*,#428,.T.);
#428 = EDGE_CURVE('',#421,#429,#431,.T.);
#429 = VERTEX_POINT('',#430);
#430 = CARTESIAN_POINT('',(45.,58.,19.46));
#431 = LINE('',#432,#433);
#432 = CARTESIAN_POINT('',(39.,58.,19.46));
#433 = VECTOR('',#434,1.);
#434 = DIRECTION('',(1.,0.,0.));
#435 = ORIENTED_EDGE('',*,*,#436,.T.);
#436 = EDGE_CURVE('',#429,#437,#439,.T.);
#437 = VERTEX_POINT('',#438);
#438 = CARTESIAN_POINT('',(45.,58.,35.46));
#439 = LINE('',#440,#441);
#440 = CARTESIAN_POINT('',(45.,58.,9.73));
#441 = VECTOR('',#442,1.);
#442 = DIRECTION('',(0.,0.,1.));
#443 = ORIENTED_EDGE('',*,*,#444,.T.);
#444 = EDGE_CURVE('',#437,#445,#447,.T.);
#445 = VERTEX_POINT('',#446);
#446 = CARTESIAN_POINT('',(44.998185043177,58.,35.46));
#447 = LINE('',#448,#449);
#448 = CARTESIAN_POINT('',(43.,58.,35.46));
#449 = VECTOR('',#450,1.);
#450 = DIRECTION('',(-1.,0.,0.));
#451 = ORIENTED_EDGE('',*,*,#452,.F.);
#452 = EDGE_CURVE('',#453,#445,#455,.T.);
#453 = VERTEX_POINT('',#454);
#454 = CARTESIAN_POINT('',(41.542543867133,58.,40.395167057584));
#455 = LINE('',#456,#457);
#456 = CARTESIAN_POINT('',(51.671332560233,58.,25.929757674821));
#457 = VECTOR('',#458,1.);
#458 = DIRECTION('',(0.573576436351,0.,-0.819152044289));
#459 = ORIENTED_EDGE('',*,*,#460,.F.);
#460 = EDGE_CURVE('',#461,#453,#463,.T.);
#461 = VERTEX_POINT('',#462);
#462 = CARTESIAN_POINT('',(41.,58.,42.115896366637));
#463 = CIRCLE('',#464,3.);
#464 = AXIS2_PLACEMENT_3D('',#465,#466,#467);
#465 = CARTESIAN_POINT('',(44.,58.,42.115896366637));
#466 = DIRECTION('',(0.,-1.,2.22044604925E-16));
#467 = DIRECTION('',(0.,2.22044604925E-16,1.));
#468 = ORIENTED_EDGE('',*,*,#469,.T.);
#469 = EDGE_CURVE('',#461,#470,#472,.T.);
#470 = VERTEX_POINT('',#471);
#471 = CARTESIAN_POINT('',(41.,58.,49.360113805167));
#472 = LINE('',#473,#474);
#473 = CARTESIAN_POINT('',(41.,58.,0.));
#474 = VECTOR('',#475,1.);
#475 = DIRECTION('',(0.,0.,1.));
#476 = ORIENTED_EDGE('',*,*,#477,.F.);
#477 = EDGE_CURVE('',#478,#470,#480,.T.);
#478 = VERTEX_POINT('',#479);
#479 = CARTESIAN_POINT('',(42.279270690947,58.,51.817569938034));
#480 = CIRCLE('',#481,3.);
#481 = AXIS2_PLACEMENT_3D('',#482,#483,#484);
#482 = CARTESIAN_POINT('',(44.,58.,49.360113805167));
#483 = DIRECTION('',(0.,-1.,0.));
#484 = DIRECTION('',(0.,0.,1.));
#485 = ORIENTED_EDGE('',*,*,#486,.F.);
#486 = EDGE_CURVE('',#487,#478,#489,.T.);
#487 = VERTEX_POINT('',#488);
#488 = CARTESIAN_POINT('',(45.935167057584,58.,54.377456132867));
#489 = LINE('',#490,#491);
#490 = CARTESIAN_POINT('',(30.464786562012,58.,43.544979090895));
#491 = VECTOR('',#492,1.);
#492 = DIRECTION('',(-0.819152044289,0.,-0.573576436351));
#493 = ORIENTED_EDGE('',*,*,#494,.F.);
#494 = EDGE_CURVE('',#369,#487,#495,.T.);
#495 = CIRCLE('',#496,3.);
#496 = AXIS2_PLACEMENT_3D('',#497,#498,#499);
#497 = CARTESIAN_POINT('',(47.655896366637,58.,51.92));
#498 = DIRECTION('',(0.,-1.,0.));
#499 = DIRECTION('',(0.,0.,1.));
#500 = FACE_BOUND('',#501,.T.);
#501 = EDGE_LOOP('',(#502));
#502 = ORIENTED_EDGE('',*,*,#503,.F.);
#503 = EDGE_CURVE('',#504,#504,#506,.T.);
#504 = VERTEX_POINT('',#505);
#505 = CARTESIAN_POINT('',(42.,58.,43.46));
#506 = CIRCLE('',#507,3.);
#507 = AXIS2_PLACEMENT_3D('',#508,#509,#510);
#508 = CARTESIAN_POINT('',(45.,58.,43.46));
#509 = DIRECTION('',(0.,1.,-2.22044604925E-16));
#510 = DIRECTION('',(-1.,0.,0.));
#511 = FACE_BOUND('',#512,.T.);
#512 = EDGE_LOOP('',(#513));
#513 = ORIENTED_EDGE('',*,*,#514,.F.);
#514 = EDGE_CURVE('',#515,#515,#517,.T.);
#515 = VERTEX_POINT('',#516);
#516 = CARTESIAN_POINT('',(42.,58.,11.46));
#517 = CIRCLE('',#518,3.);
#518 = AXIS2_PLACEMENT_3D('',#519,#520,#521);
#519 = CARTESIAN_POINT('',(45.,58.,11.46));
#520 = DIRECTION('',(0.,1.,-2.22044604925E-16));
#521 = DIRECTION('',(-1.,0.,0.));
#522 = PLANE('',#523);
#523 = AXIS2_PLACEMENT_3D('',#524,#525,#526);
#524 = CARTESIAN_POINT('',(41.,58.,0.));
#525 = DIRECTION('',(0.,1.,0.));
#526 = DIRECTION('',(1.,0.,0.));
#527 = ADVANCED_FACE('',(#528),#546,.F.);
#528 = FACE_BOUND('',#529,.F.);
#529 = EDGE_LOOP('',(#530,#531,#532,#540));
#530 = ORIENTED_EDGE('',*,*,#40,.F.);
#531 = ORIENTED_EDGE('',*,*,#344,.T.);
#532 = ORIENTED_EDGE('',*,*,#533,.T.);
#533 = EDGE_CURVE('',#345,#534,#536,.T.);
#534 = VERTEX_POINT('',#535);
#535 = CARTESIAN_POINT('',(56.,60.5,54.92));
#536 = LINE('',#537,#538);
#537 = CARTESIAN_POINT('',(56.,53.,54.92));
#538 = VECTOR('',#539,1.);
#539 = DIRECTION('',(0.,1.,0.));
#540 = ORIENTED_EDGE('',*,*,#541,.F.);
#541 = EDGE_CURVE('',#41,#534,#542,.T.);
#542 = LINE('',#543,#544);
#543 = CARTESIAN_POINT('',(56.,60.5,0.));
#544 = VECTOR('',#545,1.);
#545 = DIRECTION('',(0.,0.,1.));
#546 = PLANE('',#547);
#547 = AXIS2_PLACEMENT_3D('',#548,#549,#550);
#548 = CARTESIAN_POINT('',(56.,53.,0.));
#549 = DIRECTION('',(-1.,0.,0.));
#550 = DIRECTION('',(0.,1.,0.));
#551 = ADVANCED_FACE('',(#552),#571,.F.);
#552 = FACE_BOUND('',#553,.F.);
#553 = EDGE_LOOP('',(#554,#555,#563,#570));
#554 = ORIENTED_EDGE('',*,*,#116,.T.);
#555 = ORIENTED_EDGE('',*,*,#556,.T.);
#556 = EDGE_CURVE('',#109,#557,#559,.T.);
#557 = VERTEX_POINT('',#558);
#558 = CARTESIAN_POINT('',(53.5,60.5,54.92));
#559 = LINE('',#560,#561);
#560 = CARTESIAN_POINT('',(53.5,60.5,0.));
#561 = VECTOR('',#562,1.);
#562 = DIRECTION('',(0.,0.,1.));
#563 = ORIENTED_EDGE('',*,*,#564,.F.);
#564 = EDGE_CURVE('',#371,#557,#565,.T.);
#565 = CIRCLE('',#566,2.5);
#566 = AXIS2_PLACEMENT_3D('',#567,#568,#569);
#567 = CARTESIAN_POINT('',(51.,60.5,54.92));
#568 = DIRECTION('',(-0.,0.,1.));
#569 = DIRECTION('',(0.,-1.,0.));
#570 = ORIENTED_EDGE('',*,*,#378,.F.);
#571 = CYLINDRICAL_SURFACE('',#572,2.5);
#572 = AXIS2_PLACEMENT_3D('',#573,#574,#575);
#573 = CARTESIAN_POINT('',(51.,60.5,0.));
#574 = DIRECTION('',(0.,0.,1.));
#575 = DIRECTION('',(0.,-1.,0.));
#576 = ADVANCED_FACE('',(#577),#596,.F.);
#577 = FACE_BOUND('',#578,.T.);
#578 = EDGE_LOOP('',(#579,#580,#588,#595));
#579 = ORIENTED_EDGE('',*,*,#48,.T.);
#580 = ORIENTED_EDGE('',*,*,#581,.T.);
#581 = EDGE_CURVE('',#49,#582,#584,.T.);
#582 = VERTEX_POINT('',#583);
#583 = CARTESIAN_POINT('',(58.5,63.,54.92));
#584 = LINE('',#585,#586);
#585 = CARTESIAN_POINT('',(58.5,63.,0.));
#586 = VECTOR('',#587,1.);
#587 = DIRECTION('',(0.,0.,1.));
#588 = ORIENTED_EDGE('',*,*,#589,.F.);
#589 = EDGE_CURVE('',#534,#582,#590,.T.);
#590 = CIRCLE('',#591,2.5);
#591 = AXIS2_PLACEMENT_3D('',#592,#593,#594);
#592 = CARTESIAN_POINT('',(58.5,60.5,54.92));
#593 = DIRECTION('',(-0.,-0.,-1.));
#594 = DIRECTION('',(0.,-1.,0.));
#595 = ORIENTED_EDGE('',*,*,#541,.F.);
#596 = CYLINDRICAL_SURFACE('',#597,2.5);
#597 = AXIS2_PLACEMENT_3D('',#598,#599,#600);
#598 = CARTESIAN_POINT('',(58.5,60.5,0.));
#599 = DIRECTION('',(0.,0.,1.));
#600 = DIRECTION('',(-1.,0.,0.));
#601 = ADVANCED_FACE('',(#602),#620,.T.);
#602 = FACE_BOUND('',#603,.T.);
#603 = EDGE_LOOP('',(#604,#605,#606,#614));
#604 = ORIENTED_EDGE('',*,*,#108,.F.);
#605 = ORIENTED_EDGE('',*,*,#556,.T.);
#606 = ORIENTED_EDGE('',*,*,#607,.T.);
#607 = EDGE_CURVE('',#557,#608,#610,.T.);
#608 = VERTEX_POINT('',#609);
#609 = CARTESIAN_POINT('',(53.5,63.,54.92));
#610 = LINE('',#611,#612);
#611 = CARTESIAN_POINT('',(53.5,58.,54.92));
#612 = VECTOR('',#613,1.);
#613 = DIRECTION('',(0.,1.,0.));
#614 = ORIENTED_EDGE('',*,*,#615,.F.);
#615 = EDGE_CURVE('',#100,#608,#616,.T.);
#616 = LINE('',#617,#618);
#617 = CARTESIAN_POINT('',(53.5,63.,0.));
#618 = VECTOR('',#619,1.);
#619 = DIRECTION('',(0.,0.,1.));
#620 = PLANE('',#621);
#621 = AXIS2_PLACEMENT_3D('',#622,#623,#624);
#622 = CARTESIAN_POINT('',(53.5,58.,0.));
#623 = DIRECTION('',(-1.,0.,0.));
#624 = DIRECTION('',(0.,1.,0.));
#625 = ADVANCED_FACE('',(#626),#644,.F.);
#626 = FACE_BOUND('',#627,.F.);
#627 = EDGE_LOOP('',(#628,#629,#630,#638));
#628 = ORIENTED_EDGE('',*,*,#57,.F.);
#629 = ORIENTED_EDGE('',*,*,#581,.T.);
#630 = ORIENTED_EDGE('',*,*,#631,.T.);
#631 = EDGE_CURVE('',#582,#632,#634,.T.);
#632 = VERTEX_POINT('',#633);
#633 = CARTESIAN_POINT('',(99.76,63.,54.92));
#634 = LINE('',#635,#636);
#635 = CARTESIAN_POINT('',(56.,63.,54.92));
#636 = VECTOR('',#637,1.);
#637 = DIRECTION('',(1.,0.,0.));
#638 = ORIENTED_EDGE('',*,*,#639,.F.);
#639 = EDGE_CURVE('',#58,#632,#640,.T.);
#640 = LINE('',#641,#642);
#641 = CARTESIAN_POINT('',(99.76,63.,0.));
#642 = VECTOR('',#643,1.);
#643 = DIRECTION('',(0.,0.,1.));
#644 = PLANE('',#645);
#645 = AXIS2_PLACEMENT_3D('',#646,#647,#648);
#646 = CARTESIAN_POINT('',(56.,63.,0.));
#647 = DIRECTION('',(0.,1.,0.));
#648 = DIRECTION('',(1.,0.,0.));
#649 = ADVANCED_FACE('',(#650),#669,.T.);
#650 = FACE_BOUND('',#651,.T.);
#651 = EDGE_LOOP('',(#652,#653,#654,#663));
#652 = ORIENTED_EDGE('',*,*,#99,.T.);
#653 = ORIENTED_EDGE('',*,*,#615,.T.);
#654 = ORIENTED_EDGE('',*,*,#655,.F.);
#655 = EDGE_CURVE('',#656,#608,#658,.T.);
#656 = VERTEX_POINT('',#657);
#657 = CARTESIAN_POINT('',(56.,65.5,54.92));
#658 = CIRCLE('',#659,2.5);
#659 = AXIS2_PLACEMENT_3D('',#660,#661,#662);
#660 = CARTESIAN_POINT('',(56.,63.,54.92));
#661 = DIRECTION('',(-0.,0.,1.));
#662 = DIRECTION('',(0.,-1.,0.));
#663 = ORIENTED_EDGE('',*,*,#664,.F.);
#664 = EDGE_CURVE('',#92,#656,#665,.T.);
#665 = LINE('',#666,#667);
#666 = CARTESIAN_POINT('',(56.,65.5,0.));
#667 = VECTOR('',#668,1.);
#668 = DIRECTION('',(0.,0.,1.));
#669 = CYLINDRICAL_SURFACE('',#670,2.5);
#670 = AXIS2_PLACEMENT_3D('',#671,#672,#673);
#671 = CARTESIAN_POINT('',(56.,63.,0.));
#672 = DIRECTION('',(0.,0.,1.));
#673 = DIRECTION('',(0.,1.,0.));
#674 = ADVANCED_FACE('',(#675),#694,.T.);
#675 = FACE_BOUND('',#676,.T.);
#676 = EDGE_LOOP('',(#677,#678,#686,#693));
#677 = ORIENTED_EDGE('',*,*,#65,.T.);
#678 = ORIENTED_EDGE('',*,*,#679,.T.);
#679 = EDGE_CURVE('',#66,#680,#682,.T.);
#680 = VERTEX_POINT('',#681);
#681 = CARTESIAN_POINT('',(101.,64.24,54.92));
#682 = LINE('',#683,#684);
#683 = CARTESIAN_POINT('',(101.,64.24,0.));
#684 = VECTOR('',#685,1.);
#685 = DIRECTION('',(0.,0.,1.));
#686 = ORIENTED_EDGE('',*,*,#687,.F.);
#687 = EDGE_CURVE('',#632,#680,#688,.T.);
#688 = CIRCLE('',#689,1.24);
#689 = AXIS2_PLACEMENT_3D('',#690,#691,#692);
#690 = CARTESIAN_POINT('',(99.76,64.24,54.92));
#691 = DIRECTION('',(-0.,0.,1.));
#692 = DIRECTION('',(0.,-1.,0.));
#693 = ORIENTED_EDGE('',*,*,#639,.F.);
#694 = CYLINDRICAL_SURFACE('',#695,1.24);
#695 = AXIS2_PLACEMENT_3D('',#696,#697,#698);
#696 = CARTESIAN_POINT('',(99.76,64.24,0.));
#697 = DIRECTION('',(0.,0.,1.));
#698 = DIRECTION('',(0.,-1.,0.));
#699 = ADVANCED_FACE('',(#700),#718,.T.);
#700 = FACE_BOUND('',#701,.T.);
#701 = EDGE_LOOP('',(#702,#703,#704,#712));
#702 = ORIENTED_EDGE('',*,*,#91,.F.);
#703 = ORIENTED_EDGE('',*,*,#664,.T.);
#704 = ORIENTED_EDGE('',*,*,#705,.T.);
#705 = EDGE_CURVE('',#656,#706,#708,.T.);
#706 = VERTEX_POINT('',#707);
#707 = CARTESIAN_POINT('',(99.76,65.5,54.92));
#708 = LINE('',#709,#710);
#709 = CARTESIAN_POINT('',(53.5,65.5,54.92));
#710 = VECTOR('',#711,1.);
#711 = DIRECTION('',(1.,0.,0.));
#712 = ORIENTED_EDGE('',*,*,#713,.F.);
#713 = EDGE_CURVE('',#83,#706,#714,.T.);
#714 = LINE('',#715,#716);
#715 = CARTESIAN_POINT('',(99.76,65.5,0.));
#716 = VECTOR('',#717,1.);
#717 = DIRECTION('',(0.,0.,1.));
#718 = PLANE('',#719);
#719 = AXIS2_PLACEMENT_3D('',#720,#721,#722);
#720 = CARTESIAN_POINT('',(53.5,65.5,0.));
#721 = DIRECTION('',(0.,1.,0.));
#722 = DIRECTION('',(1.,0.,0.));
#723 = ADVANCED_FACE('',(#724),#742,.F.);
#724 = FACE_BOUND('',#725,.F.);
#725 = EDGE_LOOP('',(#726,#727,#728,#736));
#726 = ORIENTED_EDGE('',*,*,#74,.F.);
#727 = ORIENTED_EDGE('',*,*,#679,.T.);
#728 = ORIENTED_EDGE('',*,*,#729,.T.);
#729 = EDGE_CURVE('',#680,#730,#732,.T.);
#730 = VERTEX_POINT('',#731);
#731 = CARTESIAN_POINT('',(101.,64.26,54.92));
#732 = LINE('',#733,#734);
#733 = CARTESIAN_POINT('',(101.,63.,54.92));
#734 = VECTOR('',#735,1.);
#735 = DIRECTION('',(0.,1.,0.));
#736 = ORIENTED_EDGE('',*,*,#737,.F.);
#737 = EDGE_CURVE('',#75,#730,#738,.T.);
#738 = LINE('',#739,#740);
#739 = CARTESIAN_POINT('',(101.,64.26,0.));
#740 = VECTOR('',#741,1.);
#741 = DIRECTION('',(0.,0.,1.));
#742 = PLANE('',#743);
#743 = AXIS2_PLACEMENT_3D('',#744,#745,#746);
#744 = CARTESIAN_POINT('',(101.,63.,0.));
#745 = DIRECTION('',(-1.,0.,0.));
#746 = DIRECTION('',(0.,1.,0.));
#747 = ADVANCED_FACE('',(#748),#760,.T.);
#748 = FACE_BOUND('',#749,.T.);
#749 = EDGE_LOOP('',(#750,#751,#752,#759));
#750 = ORIENTED_EDGE('',*,*,#82,.T.);
#751 = ORIENTED_EDGE('',*,*,#713,.T.);
#752 = ORIENTED_EDGE('',*,*,#753,.F.);
#753 = EDGE_CURVE('',#730,#706,#754,.T.);
#754 = CIRCLE('',#755,1.24);
#755 = AXIS2_PLACEMENT_3D('',#756,#757,#758);
#756 = CARTESIAN_POINT('',(99.76,64.26,54.92));
#757 = DIRECTION('',(-0.,0.,1.));
#758 = DIRECTION('',(0.,-1.,0.));
#759 = ORIENTED_EDGE('',*,*,#737,.F.);
#760 = CYLINDRICAL_SURFACE('',#761,1.24);
#761 = AXIS2_PLACEMENT_3D('',#762,#763,#764);
#762 = CARTESIAN_POINT('',(99.76,64.26,0.));
#763 = DIRECTION('',(0.,0.,1.));
#764 = DIRECTION('',(1.,0.,0.));
#765 = ADVANCED_FACE('',(#766),#787,.T.);
#766 = FACE_BOUND('',#767,.T.);
#767 = EDGE_LOOP('',(#768,#769,#770,#771,#772,#773,#774,#775,#776,#777,
    #778,#779,#780,#781));
#768 = ORIENTED_EDGE('',*,*,#147,.T.);
#769 = ORIENTED_EDGE('',*,*,#352,.T.);
#770 = ORIENTED_EDGE('',*,*,#533,.T.);
#771 = ORIENTED_EDGE('',*,*,#589,.T.);
#772 = ORIENTED_EDGE('',*,*,#631,.T.);
#773 = ORIENTED_EDGE('',*,*,#687,.T.);
#774 = ORIENTED_EDGE('',*,*,#729,.T.);
#775 = ORIENTED_EDGE('',*,*,#753,.T.);
#776 = ORIENTED_EDGE('',*,*,#705,.F.);
#777 = ORIENTED_EDGE('',*,*,#655,.T.);
#778 = ORIENTED_EDGE('',*,*,#607,.F.);
#779 = ORIENTED_EDGE('',*,*,#564,.F.);
#780 = ORIENTED_EDGE('',*,*,#368,.F.);
#781 = ORIENTED_EDGE('',*,*,#782,.F.);
#782 = EDGE_CURVE('',#148,#369,#783,.T.);
#783 = LINE('',#784,#785);
#784 = CARTESIAN_POINT('',(47.655896366637,53.,54.92));
#785 = VECTOR('',#786,1.);
#786 = DIRECTION('',(0.,1.,0.));
#787 = PLANE('',#788);
#788 = AXIS2_PLACEMENT_3D('',#789,#790,#791);
#789 = CARTESIAN_POINT('',(68.543103448276,61.706896551724,54.92));
#790 = DIRECTION('',(0.,0.,1.));
#791 = DIRECTION('',(1.,0.,0.));
#792 = ADVANCED_FACE('',(#793),#804,.T.);
#793 = FACE_BOUND('',#794,.F.);
#794 = EDGE_LOOP('',(#795,#796,#802,#803));
#795 = ORIENTED_EDGE('',*,*,#281,.T.);
#796 = ORIENTED_EDGE('',*,*,#797,.T.);
#797 = EDGE_CURVE('',#274,#487,#798,.T.);
#798 = LINE('',#799,#800);
#799 = CARTESIAN_POINT('',(45.935167057584,53.,54.377456132867));
#800 = VECTOR('',#801,1.);
#801 = DIRECTION('',(0.,1.,0.));
#802 = ORIENTED_EDGE('',*,*,#494,.F.);
#803 = ORIENTED_EDGE('',*,*,#782,.F.);
#804 = CYLINDRICAL_SURFACE('',#805,3.);
#805 = AXIS2_PLACEMENT_3D('',#806,#807,#808);
#806 = CARTESIAN_POINT('',(47.655896366637,53.,51.92));
#807 = DIRECTION('',(0.,1.,0.));
#808 = DIRECTION('',(0.,0.,1.));
#809 = ADVANCED_FACE('',(#810),#821,.T.);
#810 = FACE_BOUND('',#811,.T.);
#811 = EDGE_LOOP('',(#812,#813,#814,#815));
#812 = ORIENTED_EDGE('',*,*,#273,.F.);
#813 = ORIENTED_EDGE('',*,*,#797,.T.);
#814 = ORIENTED_EDGE('',*,*,#486,.T.);
#815 = ORIENTED_EDGE('',*,*,#816,.F.);
#816 = EDGE_CURVE('',#265,#478,#817,.T.);
#817 = LINE('',#818,#819);
#818 = CARTESIAN_POINT('',(42.279270690947,53.,51.817569938034));
#819 = VECTOR('',#820,1.);
#820 = DIRECTION('',(0.,1.,0.));
#821 = PLANE('',#822);
#822 = AXIS2_PLACEMENT_3D('',#823,#824,#825);
#823 = CARTESIAN_POINT('',(43.855,53.,52.920907478411));
#824 = DIRECTION('',(-0.573576436351,-6.766660961571E-17,0.819152044289)
  );
#825 = DIRECTION('',(-3.881197280334E-17,1.,5.542924159682E-17));
#826 = ADVANCED_FACE('',(#827),#838,.T.);
#827 = FACE_BOUND('',#828,.F.);
#828 = EDGE_LOOP('',(#829,#830,#836,#837));
#829 = ORIENTED_EDGE('',*,*,#264,.T.);
#830 = ORIENTED_EDGE('',*,*,#831,.T.);
#831 = EDGE_CURVE('',#257,#470,#832,.T.);
#832 = LINE('',#833,#834);
#833 = CARTESIAN_POINT('',(41.,53.,49.360113805167));
#834 = VECTOR('',#835,1.);
#835 = DIRECTION('',(0.,1.,0.));
#836 = ORIENTED_EDGE('',*,*,#477,.F.);
#837 = ORIENTED_EDGE('',*,*,#816,.F.);
#838 = CYLINDRICAL_SURFACE('',#839,3.);
#839 = AXIS2_PLACEMENT_3D('',#840,#841,#842);
#840 = CARTESIAN_POINT('',(44.,53.,49.360113805167));
#841 = DIRECTION('',(0.,1.,0.));
#842 = DIRECTION('',(-0.573576436351,0.,0.819152044289));
#843 = ADVANCED_FACE('',(#844),#855,.T.);
#844 = FACE_BOUND('',#845,.T.);
#845 = EDGE_LOOP('',(#846,#847,#853,#854));
#846 = ORIENTED_EDGE('',*,*,#469,.F.);
#847 = ORIENTED_EDGE('',*,*,#848,.F.);
#848 = EDGE_CURVE('',#248,#461,#849,.T.);
#849 = LINE('',#850,#851);
#850 = CARTESIAN_POINT('',(41.,53.,42.115896366637));
#851 = VECTOR('',#852,1.);
#852 = DIRECTION('',(0.,1.,-2.22044604925E-16));
#853 = ORIENTED_EDGE('',*,*,#256,.T.);
#854 = ORIENTED_EDGE('',*,*,#831,.T.);
#855 = PLANE('',#856);
#856 = AXIS2_PLACEMENT_3D('',#857,#858,#859);
#857 = CARTESIAN_POINT('',(41.,53.,0.));
#858 = DIRECTION('',(-1.,0.,0.));
#859 = DIRECTION('',(0.,1.,0.));
#860 = ADVANCED_FACE('',(#861),#872,.F.);
#861 = FACE_BOUND('',#862,.F.);
#862 = EDGE_LOOP('',(#863,#864,#865,#866));
#863 = ORIENTED_EDGE('',*,*,#173,.F.);
#864 = ORIENTED_EDGE('',*,*,#319,.T.);
#865 = ORIENTED_EDGE('',*,*,#386,.T.);
#866 = ORIENTED_EDGE('',*,*,#867,.F.);
#867 = EDGE_CURVE('',#174,#387,#868,.T.);
#868 = LINE('',#869,#870);
#869 = CARTESIAN_POINT('',(42.279270690947,53.,3.102430061966));
#870 = VECTOR('',#871,1.);
#871 = DIRECTION('',(0.,1.,0.));
#872 = PLANE('',#873);
#873 = AXIS2_PLACEMENT_3D('',#874,#875,#876);
#874 = CARTESIAN_POINT('',(43.855,53.,1.999092521589));
#875 = DIRECTION('',(0.573576436351,0.,0.819152044289));
#876 = DIRECTION('',(0.,1.,0.));
#877 = ADVANCED_FACE('',(#878),#889,.T.);
#878 = FACE_BOUND('',#879,.F.);
#879 = EDGE_LOOP('',(#880,#881,#887,#888));
#880 = ORIENTED_EDGE('',*,*,#247,.T.);
#881 = ORIENTED_EDGE('',*,*,#882,.T.);
#882 = EDGE_CURVE('',#240,#453,#883,.T.);
#883 = LINE('',#884,#885);
#884 = CARTESIAN_POINT('',(41.542543867133,53.,40.395167057584));
#885 = VECTOR('',#886,1.);
#886 = DIRECTION('',(0.,1.,-2.22044604925E-16));
#887 = ORIENTED_EDGE('',*,*,#460,.F.);
#888 = ORIENTED_EDGE('',*,*,#848,.F.);
#889 = CYLINDRICAL_SURFACE('',#890,3.);
#890 = AXIS2_PLACEMENT_3D('',#891,#892,#893);
#891 = CARTESIAN_POINT('',(44.,53.,42.115896366637));
#892 = DIRECTION('',(0.,1.,-2.22044604925E-16));
#893 = DIRECTION('',(-1.,0.,0.));
#894 = ADVANCED_FACE('',(#895),#906,.T.);
#895 = FACE_BOUND('',#896,.T.);
#896 = EDGE_LOOP('',(#897,#898,#904,#905));
#897 = ORIENTED_EDGE('',*,*,#181,.T.);
#898 = ORIENTED_EDGE('',*,*,#899,.T.);
#899 = EDGE_CURVE('',#182,#395,#900,.T.);
#900 = LINE('',#901,#902);
#901 = CARTESIAN_POINT('',(41.,53.,5.559886194833));
#902 = VECTOR('',#903,1.);
#903 = DIRECTION('',(0.,1.,0.));
#904 = ORIENTED_EDGE('',*,*,#394,.F.);
#905 = ORIENTED_EDGE('',*,*,#867,.F.);
#906 = CYLINDRICAL_SURFACE('',#907,3.);
#907 = AXIS2_PLACEMENT_3D('',#908,#909,#910);
#908 = CARTESIAN_POINT('',(44.,53.,5.559886194833));
#909 = DIRECTION('',(0.,1.,0.));
#910 = DIRECTION('',(-0.573576436351,0.,-0.819152044289));
#911 = ADVANCED_FACE('',(#912),#923,.F.);
#912 = FACE_BOUND('',#913,.T.);
#913 = EDGE_LOOP('',(#914,#915,#916,#917));
#914 = ORIENTED_EDGE('',*,*,#239,.F.);
#915 = ORIENTED_EDGE('',*,*,#882,.T.);
#916 = ORIENTED_EDGE('',*,*,#452,.T.);
#917 = ORIENTED_EDGE('',*,*,#918,.F.);
#918 = EDGE_CURVE('',#232,#445,#919,.T.);
#919 = LINE('',#920,#921);
#920 = CARTESIAN_POINT('',(44.998185043177,53.,35.46));
#921 = VECTOR('',#922,1.);
#922 = DIRECTION('',(0.,1.,-2.22044604925E-16));
#923 = PLANE('',#924);
#924 = AXIS2_PLACEMENT_3D('',#925,#926,#927);
#925 = CARTESIAN_POINT('',(42.999092521589,53.,38.315));
#926 = DIRECTION('',(0.819152044289,0.,0.573576436351));
#927 = DIRECTION('',(-1.043268383667E-16,-1.,1.489941662631E-16));
#928 = ADVANCED_FACE('',(#929),#940,.T.);
#929 = FACE_BOUND('',#930,.T.);
#930 = EDGE_LOOP('',(#931,#932,#933,#934));
#931 = ORIENTED_EDGE('',*,*,#403,.F.);
#932 = ORIENTED_EDGE('',*,*,#899,.F.);
#933 = ORIENTED_EDGE('',*,*,#190,.T.);
#934 = ORIENTED_EDGE('',*,*,#935,.F.);
#935 = EDGE_CURVE('',#404,#191,#936,.T.);
#936 = LINE('',#937,#938);
#937 = CARTESIAN_POINT('',(41.,58.,12.804103633363));
#938 = VECTOR('',#939,1.);
#939 = DIRECTION('',(0.,-1.,2.22044604925E-16));
#940 = PLANE('',#941);
#941 = AXIS2_PLACEMENT_3D('',#942,#943,#944);
#942 = CARTESIAN_POINT('',(41.,53.,0.));
#943 = DIRECTION('',(-1.,0.,0.));
#944 = DIRECTION('',(0.,1.,0.));
#945 = ADVANCED_FACE('',(#946),#957,.F.);
#946 = FACE_BOUND('',#947,.F.);
#947 = EDGE_LOOP('',(#948,#949,#955,#956));
#948 = ORIENTED_EDGE('',*,*,#231,.F.);
#949 = ORIENTED_EDGE('',*,*,#950,.T.);
#950 = EDGE_CURVE('',#224,#437,#951,.T.);
#951 = LINE('',#952,#953);
#952 = CARTESIAN_POINT('',(45.,53.,35.46));
#953 = VECTOR('',#954,1.);
#954 = DIRECTION('',(0.,1.,-2.22044604925E-16));
#955 = ORIENTED_EDGE('',*,*,#444,.T.);
#956 = ORIENTED_EDGE('',*,*,#918,.F.);
#957 = PLANE('',#958);
#958 = AXIS2_PLACEMENT_3D('',#959,#960,#961);
#959 = CARTESIAN_POINT('',(45.,53.,35.46));
#960 = DIRECTION('',(0.,2.22044604925E-16,1.));
#961 = DIRECTION('',(-1.,0.,0.));
#962 = ADVANCED_FACE('',(#963),#974,.T.);
#963 = FACE_BOUND('',#964,.F.);
#964 = EDGE_LOOP('',(#965,#966,#972,#973));
#965 = ORIENTED_EDGE('',*,*,#411,.T.);
#966 = ORIENTED_EDGE('',*,*,#967,.T.);
#967 = EDGE_CURVE('',#412,#199,#968,.T.);
#968 = LINE('',#969,#970);
#969 = CARTESIAN_POINT('',(41.542543867133,58.,14.524832942416));
#970 = VECTOR('',#971,1.);
#971 = DIRECTION('',(0.,-1.,2.22044604925E-16));
#972 = ORIENTED_EDGE('',*,*,#198,.F.);
#973 = ORIENTED_EDGE('',*,*,#935,.F.);
#974 = CYLINDRICAL_SURFACE('',#975,3.);
#975 = AXIS2_PLACEMENT_3D('',#976,#977,#978);
#976 = CARTESIAN_POINT('',(44.,58.,12.804103633363));
#977 = DIRECTION('',(0.,-1.,2.22044604925E-16));
#978 = DIRECTION('',(-1.,0.,0.));
#979 = ADVANCED_FACE('',(#980),#991,.F.);
#980 = FACE_BOUND('',#981,.F.);
#981 = EDGE_LOOP('',(#982,#983,#989,#990));
#982 = ORIENTED_EDGE('',*,*,#223,.F.);
#983 = ORIENTED_EDGE('',*,*,#984,.T.);
#984 = EDGE_CURVE('',#216,#429,#985,.T.);
#985 = LINE('',#986,#987);
#986 = CARTESIAN_POINT('',(45.,53.,19.46));
#987 = VECTOR('',#988,1.);
#988 = DIRECTION('',(0.,1.,-2.22044604925E-16));
#989 = ORIENTED_EDGE('',*,*,#436,.T.);
#990 = ORIENTED_EDGE('',*,*,#950,.F.);
#991 = PLANE('',#992);
#992 = AXIS2_PLACEMENT_3D('',#993,#994,#995);
#993 = CARTESIAN_POINT('',(45.,53.,19.46));
#994 = DIRECTION('',(1.,0.,0.));
#995 = DIRECTION('',(0.,2.22044604925E-16,1.));
#996 = ADVANCED_FACE('',(#997),#1008,.F.);
#997 = FACE_BOUND('',#998,.T.);
#998 = EDGE_LOOP('',(#999,#1000,#1001,#1002));
#999 = ORIENTED_EDGE('',*,*,#420,.F.);
#1000 = ORIENTED_EDGE('',*,*,#967,.T.);
#1001 = ORIENTED_EDGE('',*,*,#207,.T.);
#1002 = ORIENTED_EDGE('',*,*,#1003,.F.);
#1003 = EDGE_CURVE('',#421,#208,#1004,.T.);
#1004 = LINE('',#1005,#1006);
#1005 = CARTESIAN_POINT('',(44.998185043177,58.,19.46));
#1006 = VECTOR('',#1007,1.);
#1007 = DIRECTION('',(0.,-1.,2.22044604925E-16));
#1008 = PLANE('',#1009);
#1009 = AXIS2_PLACEMENT_3D('',#1010,#1011,#1012);
#1010 = CARTESIAN_POINT('',(42.999092521589,58.,16.605));
#1011 = DIRECTION('',(0.819152044289,0.,-0.573576436351));
#1012 = DIRECTION('',(-1.043268383667E-16,1.,-1.489941662631E-16));
#1013 = ADVANCED_FACE('',(#1014),#1020,.F.);
#1014 = FACE_BOUND('',#1015,.F.);
#1015 = EDGE_LOOP('',(#1016,#1017,#1018,#1019));
#1016 = ORIENTED_EDGE('',*,*,#215,.F.);
#1017 = ORIENTED_EDGE('',*,*,#1003,.F.);
#1018 = ORIENTED_EDGE('',*,*,#428,.T.);
#1019 = ORIENTED_EDGE('',*,*,#984,.F.);
#1020 = PLANE('',#1021);
#1021 = AXIS2_PLACEMENT_3D('',#1022,#1023,#1024);
#1022 = CARTESIAN_POINT('',(37.,53.,19.46));
#1023 = DIRECTION('',(0.,-2.22044604925E-16,-1.));
#1024 = DIRECTION('',(1.,0.,0.));
#1025 = ADVANCED_FACE('',(#1026),#1045,.F.);
#1026 = FACE_BOUND('',#1027,.F.);
#1027 = EDGE_LOOP('',(#1028,#1029,#1037,#1044));
#1028 = ORIENTED_EDGE('',*,*,#290,.F.);
#1029 = ORIENTED_EDGE('',*,*,#1030,.T.);
#1030 = EDGE_CURVE('',#291,#1031,#1033,.T.);
#1031 = VERTEX_POINT('',#1032);
#1032 = CARTESIAN_POINT('',(46.75,55.,43.46));
#1033 = LINE('',#1034,#1035);
#1034 = CARTESIAN_POINT('',(46.75,53.,43.46));
#1035 = VECTOR('',#1036,1.);
#1036 = DIRECTION('',(0.,1.,-2.22044604925E-16));
#1037 = ORIENTED_EDGE('',*,*,#1038,.T.);
#1038 = EDGE_CURVE('',#1031,#1031,#1039,.T.);
#1039 = CIRCLE('',#1040,1.75);
#1040 = AXIS2_PLACEMENT_3D('',#1041,#1042,#1043);
#1041 = CARTESIAN_POINT('',(45.,55.,43.46));
#1042 = DIRECTION('',(0.,-1.,2.22044604925E-16));
#1043 = DIRECTION('',(1.,0.,0.));
#1044 = ORIENTED_EDGE('',*,*,#1030,.F.);
#1045 = CYLINDRICAL_SURFACE('',#1046,1.75);
#1046 = AXIS2_PLACEMENT_3D('',#1047,#1048,#1049);
#1047 = CARTESIAN_POINT('',(45.,53.,43.46));
#1048 = DIRECTION('',(0.,-1.,2.22044604925E-16));
#1049 = DIRECTION('',(1.,0.,0.));
#1050 = ADVANCED_FACE('',(#1051),#1070,.F.);
#1051 = FACE_BOUND('',#1052,.F.);
#1052 = EDGE_LOOP('',(#1053,#1054,#1062,#1069));
#1053 = ORIENTED_EDGE('',*,*,#301,.F.);
#1054 = ORIENTED_EDGE('',*,*,#1055,.T.);
#1055 = EDGE_CURVE('',#302,#1056,#1058,.T.);
#1056 = VERTEX_POINT('',#1057);
#1057 = CARTESIAN_POINT('',(46.75,55.,11.46));
#1058 = LINE('',#1059,#1060);
#1059 = CARTESIAN_POINT('',(46.75,53.,11.46));
#1060 = VECTOR('',#1061,1.);
#1061 = DIRECTION('',(0.,1.,-2.22044604925E-16));
#1062 = ORIENTED_EDGE('',*,*,#1063,.T.);
#1063 = EDGE_CURVE('',#1056,#1056,#1064,.T.);
#1064 = CIRCLE('',#1065,1.75);
#1065 = AXIS2_PLACEMENT_3D('',#1066,#1067,#1068);
#1066 = CARTESIAN_POINT('',(45.,55.,11.46));
#1067 = DIRECTION('',(0.,-1.,2.22044604925E-16));
#1068 = DIRECTION('',(1.,0.,0.));
#1069 = ORIENTED_EDGE('',*,*,#1055,.F.);
#1070 = CYLINDRICAL_SURFACE('',#1071,1.75);
#1071 = AXIS2_PLACEMENT_3D('',#1072,#1073,#1074);
#1072 = CARTESIAN_POINT('',(45.,53.,11.46));
#1073 = DIRECTION('',(0.,-1.,2.22044604925E-16));
#1074 = DIRECTION('',(1.,0.,0.));
#1075 = ADVANCED_FACE('',(#1076),#1095,.F.);
#1076 = FACE_BOUND('',#1077,.F.);
#1077 = EDGE_LOOP('',(#1078,#1086,#1093,#1094));
#1078 = ORIENTED_EDGE('',*,*,#1079,.T.);
#1079 = EDGE_CURVE('',#504,#1080,#1082,.T.);
#1080 = VERTEX_POINT('',#1081);
#1081 = CARTESIAN_POINT('',(42.,55.,43.46));
#1082 = LINE('',#1083,#1084);
#1083 = CARTESIAN_POINT('',(42.,58.,43.46));
#1084 = VECTOR('',#1085,1.);
#1085 = DIRECTION('',(0.,-1.,2.22044604925E-16));
#1086 = ORIENTED_EDGE('',*,*,#1087,.T.);
#1087 = EDGE_CURVE('',#1080,#1080,#1088,.T.);
#1088 = CIRCLE('',#1089,3.);
#1089 = AXIS2_PLACEMENT_3D('',#1090,#1091,#1092);
#1090 = CARTESIAN_POINT('',(45.,55.,43.46));
#1091 = DIRECTION('',(0.,1.,-2.22044604925E-16));
#1092 = DIRECTION('',(-1.,0.,0.));
#1093 = ORIENTED_EDGE('',*,*,#1079,.F.);
#1094 = ORIENTED_EDGE('',*,*,#503,.F.);
#1095 = CYLINDRICAL_SURFACE('',#1096,3.);
#1096 = AXIS2_PLACEMENT_3D('',#1097,#1098,#1099);
#1097 = CARTESIAN_POINT('',(45.,58.,43.46));
#1098 = DIRECTION('',(0.,1.,-2.22044604925E-16));
#1099 = DIRECTION('',(-1.,0.,0.));
#1100 = ADVANCED_FACE('',(#1101),#1120,.F.);
#1101 = FACE_BOUND('',#1102,.F.);
#1102 = EDGE_LOOP('',(#1103,#1111,#1118,#1119));
#1103 = ORIENTED_EDGE('',*,*,#1104,.T.);
#1104 = EDGE_CURVE('',#515,#1105,#1107,.T.);
#1105 = VERTEX_POINT('',#1106);
#1106 = CARTESIAN_POINT('',(42.,55.,11.46));
#1107 = LINE('',#1108,#1109);
#1108 = CARTESIAN_POINT('',(42.,58.,11.46));
#1109 = VECTOR('',#1110,1.);
#1110 = DIRECTION('',(0.,-1.,2.22044604925E-16));
#1111 = ORIENTED_EDGE('',*,*,#1112,.T.);
#1112 = EDGE_CURVE('',#1105,#1105,#1113,.T.);
#1113 = CIRCLE('',#1114,3.);
#1114 = AXIS2_PLACEMENT_3D('',#1115,#1116,#1117);
#1115 = CARTESIAN_POINT('',(45.,55.,11.46));
#1116 = DIRECTION('',(0.,1.,-2.22044604925E-16));
#1117 = DIRECTION('',(-1.,0.,0.));
#1118 = ORIENTED_EDGE('',*,*,#1104,.F.);
#1119 = ORIENTED_EDGE('',*,*,#514,.F.);
#1120 = CYLINDRICAL_SURFACE('',#1121,3.);
#1121 = AXIS2_PLACEMENT_3D('',#1122,#1123,#1124);
#1122 = CARTESIAN_POINT('',(45.,58.,11.46));
#1123 = DIRECTION('',(0.,1.,-2.22044604925E-16));
#1124 = DIRECTION('',(-1.,0.,0.));
#1125 = ADVANCED_FACE('',(#1126,#1129),#1132,.T.);
#1126 = FACE_BOUND('',#1127,.T.);
#1127 = EDGE_LOOP('',(#1128));
#1128 = ORIENTED_EDGE('',*,*,#1087,.T.);
#1129 = FACE_BOUND('',#1130,.T.);
#1130 = EDGE_LOOP('',(#1131));
#1131 = ORIENTED_EDGE('',*,*,#1038,.T.);
#1132 = PLANE('',#1133);
#1133 = AXIS2_PLACEMENT_3D('',#1134,#1135,#1136);
#1134 = CARTESIAN_POINT('',(45.,55.,27.46));
#1135 = DIRECTION('',(0.,1.,-2.24114353205E-16));
#1136 = DIRECTION('',(0.,2.24114353205E-16,1.));
#1137 = ADVANCED_FACE('',(#1138,#1141),#1144,.T.);
#1138 = FACE_BOUND('',#1139,.T.);
#1139 = EDGE_LOOP('',(#1140));
#1140 = ORIENTED_EDGE('',*,*,#1112,.T.);
#1141 = FACE_BOUND('',#1142,.T.);
#1142 = EDGE_LOOP('',(#1143));
#1143 = ORIENTED_EDGE('',*,*,#1063,.T.);
#1144 = PLANE('',#1145);
#1145 = AXIS2_PLACEMENT_3D('',#1146,#1147,#1148);
#1146 = CARTESIAN_POINT('',(45.,55.,27.46));
#1147 = DIRECTION('',(0.,1.,-2.24114353205E-16));
#1148 = DIRECTION('',(0.,2.24114353205E-16,1.));
#1149 = ( GEOMETRIC_REPRESENTATION_CONTEXT(3) 
GLOBAL_UNCERTAINTY_ASSIGNED_CONTEXT((#1153)) 
GLOBAL_UNIT_ASSIGNED_CONTEXT((#1150,#1151,#1152)) REPRESENTATION_CONTEXT
('Context #1','3D Context with UNIT and UNCERTAINTY') );
#1150 = ( LENGTH_UNIT() NAMED_UNIT(*) SI_UNIT(.MILLI.,.METRE.) );
#1151 = ( NAMED_UNIT(*) PLANE_ANGLE_UNIT() SI_UNIT($,.RADIAN.) );
#1152 = ( NAMED_UNIT(*) SI_UNIT($,.STERADIAN.) SOLID_ANGLE_UNIT() );
#1153 = UNCERTAINTY_MEASURE_WITH_UNIT(LENGTH_MEASURE(5.E-06),#1150,
  'distance_accuracy_value','confusion accuracy');
#1154 = PRODUCT_RELATED_PRODUCT_CATEGORY('part',$,(#7));
#1155 = MECHANICAL_DESIGN_GEOMETRIC_PRESENTATION_REPRESENTATION('',(
    #1156),#1149);
#1156 = STYLED_ITEM('color',(#1157),#15);
#1157 = PRESENTATION_STYLE_ASSIGNMENT((#1158,#1164));
#1158 = SURFACE_STYLE_USAGE(.BOTH.,#1159);
#1159 = SURFACE_SIDE_STYLE('',(#1160));
#1160 = SURFACE_STYLE_FILL_AREA(#1161);
#1161 = FILL_AREA_STYLE('',(#1162));
#1162 = FILL_AREA_STYLE_COLOUR('',#1163);
#1163 = COLOUR_RGB('',0.447059003357,0.474510015008,0.501960993452);
#1164 = CURVE_STYLE('',#1165,POSITIVE_LENGTH_MEASURE(0.1),#1166);
#1165 = DRAUGHTING_PRE_DEFINED_CURVE_FONT('continuous');
#1166 = COLOUR_RGB('',9.803921802644E-02,9.803921802644E-02,
  9.803921802644E-02);
ENDSEC;
END-ISO-10303-21;
