ISO-10303-21;
HEADER;
FILE_DESCRIPTION(('FreeCAD Model'),'2;1');
FILE_NAME('Open CASCADE Shape Model','2025-02-28T20:00:24',('Author'),(
    ''),'Open CASCADE STEP processor 7.8','FreeCAD','Unknown');
FILE_SCHEMA(('AUTOMOTIVE_DESIGN { 1 0 10303 214 1 1 1 1 }'));
ENDSEC;
DATA;
#1 = APPLICATION_PROTOCOL_DEFINITION('international standard',
  'automotive_design',2000,#2);
#2 = APPLICATION_CONTEXT(
  'core data for automotive mechanical design processes');
#3 = SHAPE_DEFINITION_REPRESENTATION(#4,#10);
#4 = PRODUCT_DEFINITION_SHAPE('','',#5);
#5 = PRODUCT_DEFINITION('design','',#6,#9);
#6 = PRODUCT_DEFINITION_FORMATION('','',#7);
#7 = PRODUCT('SD cover','SD cover','',(#8));
#8 = PRODUCT_CONTEXT('',#2,'mechanical');
#9 = PRODUCT_DEFINITION_CONTEXT('part definition',#2,'design');
#10 = ADVANCED_BREP_SHAPE_REPRESENTATION('',(#11,#15),#1536);
#11 = AXIS2_PLACEMENT_3D('',#12,#13,#14);
#12 = CARTESIAN_POINT('',(0.,0.,0.));
#13 = DIRECTION('',(0.,0.,1.));
#14 = DIRECTION('',(1.,0.,-0.));
#15 = MANIFOLD_SOLID_BREP('',#16);
#16 = CLOSED_SHELL('',(#17,#265,#312,#337,#362,#386,#436,#461,#495,#519,
    #556,#581,#630,#654,#687,#712,#736,#760,#785,#810,#834,#858,#883,
    #908,#925,#950,#975,#1095,#1135,#1168,#1193,#1217,#1250,#1268,#1287,
    #1305,#1316,#1341,#1366,#1382,#1416,#1433,#1458,#1483,#1500,#1512,
    #1524));
#17 = ADVANCED_FACE('',(#18,#238,#249),#260,.T.);
#18 = FACE_BOUND('',#19,.T.);
#19 = EDGE_LOOP('',(#20,#30,#39,#47,#56,#64,#95,#104,#112,#121,#129,#138
    ,#146,#155,#163,#172,#180,#189,#197,#206,#214,#223,#231));
#20 = ORIENTED_EDGE('',*,*,#21,.T.);
#21 = EDGE_CURVE('',#22,#24,#26,.T.);
#22 = VERTEX_POINT('',#23);
#23 = CARTESIAN_POINT('',(169.,32.3,-9.));
#24 = VERTEX_POINT('',#25);
#25 = CARTESIAN_POINT('',(169.,-4.067478722947,-9.));
#26 = LINE('',#27,#28);
#27 = CARTESIAN_POINT('',(169.,34.3,-9.));
#28 = VECTOR('',#29,1.);
#29 = DIRECTION('',(0.,-1.,0.));
#30 = ORIENTED_EDGE('',*,*,#31,.T.);
#31 = EDGE_CURVE('',#24,#32,#34,.T.);
#32 = VERTEX_POINT('',#33);
#33 = CARTESIAN_POINT('',(167.,-6.5,-9.));
#34 = ELLIPSE('',#35,2.432521277053,2.);
#35 = AXIS2_PLACEMENT_3D('',#36,#37,#38);
#36 = CARTESIAN_POINT('',(167.,-4.067478722947,-9.));
#37 = DIRECTION('',(1.224646799147E-16,0.,-1.));
#38 = DIRECTION('',(0.,-1.,-0.));
#39 = ORIENTED_EDGE('',*,*,#40,.T.);
#40 = EDGE_CURVE('',#32,#41,#43,.T.);
#41 = VERTEX_POINT('',#42);
#42 = CARTESIAN_POINT('',(115.08438438328,-6.5,-9.));
#43 = LINE('',#44,#45);
#44 = CARTESIAN_POINT('',(169.,-6.5,-9.));
#45 = VECTOR('',#46,1.);
#46 = DIRECTION('',(-1.,0.,-1.224646799147E-16));
#47 = ORIENTED_EDGE('',*,*,#48,.T.);
#48 = EDGE_CURVE('',#41,#49,#51,.T.);
#49 = VERTEX_POINT('',#50);
#50 = CARTESIAN_POINT('',(113.44,-4.855615616712,-9.));
#51 = ELLIPSE('',#52,2.798985445948,2.);
#52 = AXIS2_PLACEMENT_3D('',#53,#54,#55);
#53 = CARTESIAN_POINT('',(115.87252127705,-4.067478722947,-9.));
#54 = DIRECTION('',(1.224646799147E-16,-1.232595164408E-32,-1.));
#55 = DIRECTION('',(-0.707106781187,-0.707106781187,-8.659560562355E-17)
  );
#56 = ORIENTED_EDGE('',*,*,#57,.T.);
#57 = EDGE_CURVE('',#49,#58,#60,.T.);
#58 = VERTEX_POINT('',#59);
#59 = CARTESIAN_POINT('',(113.44,32.398463186482,-9.));
#60 = LINE('',#61,#62);
#61 = CARTESIAN_POINT('',(113.44,-11.,-9.));
#62 = VECTOR('',#63,1.);
#63 = DIRECTION('',(0.,1.,0.));
#64 = ORIENTED_EDGE('',*,*,#65,.T.);
#65 = EDGE_CURVE('',#58,#66,#68,.T.);
#66 = VERTEX_POINT('',#67);
#67 = CARTESIAN_POINT('',(115.32426165094,34.486895452955,-9.));
#68 = B_SPLINE_CURVE_WITH_KNOTS('',7,(#69,#70,#71,#72,#73,#74,#75,#76,
    #77,#78,#79,#80,#81,#82,#83,#84,#85,#86,#87,#88,#89,#90,#91,#92,#93,
    #94),.UNSPECIFIED.,.F.,.F.,(8,6,6,6,8),(0.,7.841868199327E-02,
    0.455946347932,0.731047441033,1.),.UNSPECIFIED.);
#69 = CARTESIAN_POINT('',(113.44,32.398459671915,-9.));
#70 = CARTESIAN_POINT('',(113.44,32.430934435921,-9.));
#71 = CARTESIAN_POINT('',(113.44074819069,32.463565371629,-9.));
#72 = CARTESIAN_POINT('',(113.44225404885,32.496326538307,-9.));
#73 = CARTESIAN_POINT('',(113.44452477062,32.529191509572,-9.));
#74 = CARTESIAN_POINT('',(113.44756527155,32.56213337339,-9.));
#75 = CARTESIAN_POINT('',(113.45137818656,32.595124732077,-9.));
#76 = CARTESIAN_POINT('',(113.47804052695,32.787070615681,-9.));
#77 = CARTESIAN_POINT('',(113.51803532401,32.946570703451,-9.));
#78 = CARTESIAN_POINT('',(113.57597355868,33.103309138174,-9.));
#79 = CARTESIAN_POINT('',(113.65051271919,33.254462369376,-9.));
#80 = CARTESIAN_POINT('',(113.73955677086,33.398023374432,-9.));
#81 = CARTESIAN_POINT('',(113.84078498229,33.532660042089,-9.));
#82 = CARTESIAN_POINT('',(114.03287095228,33.74864422344,-9.));
#83 = CARTESIAN_POINT('',(114.11915578849,33.834611541709,-9.));
#84 = CARTESIAN_POINT('',(114.20996114261,33.915277383518,-9.));
#85 = CARTESIAN_POINT('',(114.3045294691,33.990541883434,-9.));
#86 = CARTESIAN_POINT('',(114.40216814703,34.06039384007,-9.));
#87 = CARTESIAN_POINT('',(114.50226279245,34.124882451537,-9.));
#88 = CARTESIAN_POINT('',(114.70400955182,34.241989558714,-9.));
#89 = CARTESIAN_POINT('',(114.80556392283,34.294833503457,-9.));
#90 = CARTESIAN_POINT('',(114.90843182269,34.342713164684,-9.));
#91 = CARTESIAN_POINT('',(115.01214658436,34.385731927021,-9.));
#92 = CARTESIAN_POINT('',(115.11627968739,34.42401020094,-9.));
#93 = CARTESIAN_POINT('',(115.22043810497,34.45768265581,-9.));
#94 = CARTESIAN_POINT('',(115.32426165094,34.486895452955,-9.));
#95 = ORIENTED_EDGE('',*,*,#96,.T.);
#96 = EDGE_CURVE('',#66,#97,#99,.T.);
#97 = VERTEX_POINT('',#98);
#98 = CARTESIAN_POINT('',(118.97,39.3,-9.));
#99 = CIRCLE('',#100,5.);
#100 = AXIS2_PLACEMENT_3D('',#101,#102,#103);
#101 = CARTESIAN_POINT('',(113.97,39.3,-9.));
#102 = DIRECTION('',(-1.224646799147E-16,0.,1.));
#103 = DIRECTION('',(0.,-1.,0.));
#104 = ORIENTED_EDGE('',*,*,#105,.T.);
#105 = EDGE_CURVE('',#97,#106,#108,.T.);
#106 = VERTEX_POINT('',#107);
#107 = CARTESIAN_POINT('',(118.97,39.8,-9.));
#108 = LINE('',#109,#110);
#109 = CARTESIAN_POINT('',(118.97,34.3,-9.));
#110 = VECTOR('',#111,1.);
#111 = DIRECTION('',(0.,1.,0.));
#112 = ORIENTED_EDGE('',*,*,#113,.F.);
#113 = EDGE_CURVE('',#114,#106,#116,.T.);
#114 = VERTEX_POINT('',#115);
#115 = CARTESIAN_POINT('',(121.47,42.3,-9.));
#116 = CIRCLE('',#117,2.5);
#117 = AXIS2_PLACEMENT_3D('',#118,#119,#120);
#118 = CARTESIAN_POINT('',(121.47,39.8,-9.));
#119 = DIRECTION('',(-1.224646799147E-16,0.,1.));
#120 = DIRECTION('',(0.,-1.,0.));
#121 = ORIENTED_EDGE('',*,*,#122,.T.);
#122 = EDGE_CURVE('',#114,#123,#125,.T.);
#123 = VERTEX_POINT('',#124);
#124 = CARTESIAN_POINT('',(124.47,42.3,-9.));
#125 = LINE('',#126,#127);
#126 = CARTESIAN_POINT('',(118.97,42.3,-9.));
#127 = VECTOR('',#128,1.);
#128 = DIRECTION('',(1.,0.,1.224646799147E-16));
#129 = ORIENTED_EDGE('',*,*,#130,.F.);
#130 = EDGE_CURVE('',#131,#123,#133,.T.);
#131 = VERTEX_POINT('',#132);
#132 = CARTESIAN_POINT('',(126.97,39.8,-9.));
#133 = CIRCLE('',#134,2.5);
#134 = AXIS2_PLACEMENT_3D('',#135,#136,#137);
#135 = CARTESIAN_POINT('',(124.47,39.8,-9.));
#136 = DIRECTION('',(-1.224646799147E-16,0.,1.));
#137 = DIRECTION('',(0.,-1.,0.));
#138 = ORIENTED_EDGE('',*,*,#139,.T.);
#139 = EDGE_CURVE('',#131,#140,#142,.T.);
#140 = VERTEX_POINT('',#141);
#141 = CARTESIAN_POINT('',(126.97,39.3,-9.));
#142 = LINE('',#143,#144);
#143 = CARTESIAN_POINT('',(126.97,42.3,-9.));
#144 = VECTOR('',#145,1.);
#145 = DIRECTION('',(0.,-1.,0.));
#146 = ORIENTED_EDGE('',*,*,#147,.T.);
#147 = EDGE_CURVE('',#140,#148,#150,.T.);
#148 = VERTEX_POINT('',#149);
#149 = CARTESIAN_POINT('',(131.97,34.3,-9.));
#150 = CIRCLE('',#151,5.);
#151 = AXIS2_PLACEMENT_3D('',#152,#153,#154);
#152 = CARTESIAN_POINT('',(131.97,39.3,-9.));
#153 = DIRECTION('',(-1.224646799147E-16,0.,1.));
#154 = DIRECTION('',(0.,-1.,0.));
#155 = ORIENTED_EDGE('',*,*,#156,.F.);
#156 = EDGE_CURVE('',#157,#148,#159,.T.);
#157 = VERTEX_POINT('',#158);
#158 = CARTESIAN_POINT('',(145.97,34.3,-9.));
#159 = LINE('',#160,#161);
#160 = CARTESIAN_POINT('',(150.97,34.3,-9.));
#161 = VECTOR('',#162,1.);
#162 = DIRECTION('',(-1.,-2.960594732334E-16,-1.224646799147E-16));
#163 = ORIENTED_EDGE('',*,*,#164,.F.);
#164 = EDGE_CURVE('',#165,#157,#167,.T.);
#165 = VERTEX_POINT('',#166);
#166 = CARTESIAN_POINT('',(150.97,39.3,-9.));
#167 = CIRCLE('',#168,5.);
#168 = AXIS2_PLACEMENT_3D('',#169,#170,#171);
#169 = CARTESIAN_POINT('',(145.97,39.3,-9.));
#170 = DIRECTION('',(1.224646799147E-16,0.,-1.));
#171 = DIRECTION('',(0.,-1.,0.));
#172 = ORIENTED_EDGE('',*,*,#173,.T.);
#173 = EDGE_CURVE('',#165,#174,#176,.T.);
#174 = VERTEX_POINT('',#175);
#175 = CARTESIAN_POINT('',(150.97,39.8,-9.));
#176 = LINE('',#177,#178);
#177 = CARTESIAN_POINT('',(150.97,34.3,-9.));
#178 = VECTOR('',#179,1.);
#179 = DIRECTION('',(0.,1.,0.));
#180 = ORIENTED_EDGE('',*,*,#181,.T.);
#181 = EDGE_CURVE('',#174,#182,#184,.T.);
#182 = VERTEX_POINT('',#183);
#183 = CARTESIAN_POINT('',(153.47,42.3,-9.));
#184 = CIRCLE('',#185,2.5);
#185 = AXIS2_PLACEMENT_3D('',#186,#187,#188);
#186 = CARTESIAN_POINT('',(153.47,39.8,-9.));
#187 = DIRECTION('',(1.224646799147E-16,0.,-1.));
#188 = DIRECTION('',(0.,-1.,0.));
#189 = ORIENTED_EDGE('',*,*,#190,.T.);
#190 = EDGE_CURVE('',#182,#191,#193,.T.);
#191 = VERTEX_POINT('',#192);
#192 = CARTESIAN_POINT('',(156.47,42.3,-9.));
#193 = LINE('',#194,#195);
#194 = CARTESIAN_POINT('',(150.97,42.3,-9.));
#195 = VECTOR('',#196,1.);
#196 = DIRECTION('',(1.,0.,1.224646799147E-16));
#197 = ORIENTED_EDGE('',*,*,#198,.T.);
#198 = EDGE_CURVE('',#191,#199,#201,.T.);
#199 = VERTEX_POINT('',#200);
#200 = CARTESIAN_POINT('',(158.97,39.8,-9.));
#201 = CIRCLE('',#202,2.5);
#202 = AXIS2_PLACEMENT_3D('',#203,#204,#205);
#203 = CARTESIAN_POINT('',(156.47,39.8,-9.));
#204 = DIRECTION('',(1.224646799147E-16,0.,-1.));
#205 = DIRECTION('',(0.,-1.,0.));
#206 = ORIENTED_EDGE('',*,*,#207,.T.);
#207 = EDGE_CURVE('',#199,#208,#210,.T.);
#208 = VERTEX_POINT('',#209);
#209 = CARTESIAN_POINT('',(158.97,39.3,-9.));
#210 = LINE('',#211,#212);
#211 = CARTESIAN_POINT('',(158.97,42.3,-9.));
#212 = VECTOR('',#213,1.);
#213 = DIRECTION('',(0.,-1.,0.));
#214 = ORIENTED_EDGE('',*,*,#215,.T.);
#215 = EDGE_CURVE('',#208,#216,#218,.T.);
#216 = VERTEX_POINT('',#217);
#217 = CARTESIAN_POINT('',(163.97,34.3,-9.));
#218 = CIRCLE('',#219,5.);
#219 = AXIS2_PLACEMENT_3D('',#220,#221,#222);
#220 = CARTESIAN_POINT('',(163.97,39.3,-9.));
#221 = DIRECTION('',(-1.224646799147E-16,0.,1.));
#222 = DIRECTION('',(0.,-1.,0.));
#223 = ORIENTED_EDGE('',*,*,#224,.F.);
#224 = EDGE_CURVE('',#225,#216,#227,.T.);
#225 = VERTEX_POINT('',#226);
#226 = CARTESIAN_POINT('',(167.,34.3,-9.));
#227 = LINE('',#228,#229);
#228 = CARTESIAN_POINT('',(169.,34.3,-9.));
#229 = VECTOR('',#230,1.);
#230 = DIRECTION('',(-1.,-1.41683496662E-15,-1.224646799147E-16));
#231 = ORIENTED_EDGE('',*,*,#232,.F.);
#232 = EDGE_CURVE('',#22,#225,#233,.T.);
#233 = CIRCLE('',#234,2.);
#234 = AXIS2_PLACEMENT_3D('',#235,#236,#237);
#235 = CARTESIAN_POINT('',(167.,32.3,-9.));
#236 = DIRECTION('',(-1.224646799147E-16,-0.,1.));
#237 = DIRECTION('',(0.,-1.,-0.));
#238 = FACE_BOUND('',#239,.T.);
#239 = EDGE_LOOP('',(#240));
#240 = ORIENTED_EDGE('',*,*,#241,.F.);
#241 = EDGE_CURVE('',#242,#242,#244,.T.);
#242 = VERTEX_POINT('',#243);
#243 = CARTESIAN_POINT('',(151.97,38.3,-9.));
#244 = CIRCLE('',#245,3.);
#245 = AXIS2_PLACEMENT_3D('',#246,#247,#248);
#246 = CARTESIAN_POINT('',(154.97,38.3,-9.));
#247 = DIRECTION('',(1.224646799147E-16,0.,-1.));
#248 = DIRECTION('',(-1.,0.,-1.224646799147E-16));
#249 = FACE_BOUND('',#250,.T.);
#250 = EDGE_LOOP('',(#251));
#251 = ORIENTED_EDGE('',*,*,#252,.F.);
#252 = EDGE_CURVE('',#253,#253,#255,.T.);
#253 = VERTEX_POINT('',#254);
#254 = CARTESIAN_POINT('',(119.97,38.3,-9.));
#255 = CIRCLE('',#256,3.);
#256 = AXIS2_PLACEMENT_3D('',#257,#258,#259);
#257 = CARTESIAN_POINT('',(122.97,38.3,-9.));
#258 = DIRECTION('',(1.224646799147E-16,0.,-1.));
#259 = DIRECTION('',(-1.,0.,-1.224646799147E-16));
#260 = PLANE('',#261);
#261 = AXIS2_PLACEMENT_3D('',#262,#263,#264);
#262 = CARTESIAN_POINT('',(138.97,17.266843310454,-9.));
#263 = DIRECTION('',(1.224646799147E-16,0.,-1.));
#264 = DIRECTION('',(-1.,0.,-1.224646799147E-16));
#265 = ADVANCED_FACE('',(#266),#307,.F.);
#266 = FACE_BOUND('',#267,.F.);
#267 = EDGE_LOOP('',(#268,#269,#277,#285,#293,#301));
#268 = ORIENTED_EDGE('',*,*,#21,.T.);
#269 = ORIENTED_EDGE('',*,*,#270,.T.);
#270 = EDGE_CURVE('',#24,#271,#273,.T.);
#271 = VERTEX_POINT('',#272);
#272 = CARTESIAN_POINT('',(169.,-6.836709492178,-5.));
#273 = LINE('',#274,#275);
#274 = CARTESIAN_POINT('',(169.,-4.855615616712,-7.861580042339));
#275 = VECTOR('',#276,1.);
#276 = DIRECTION('',(-1.006895035781E-16,-0.56920997883,0.822192191644)
  );
#277 = ORIENTED_EDGE('',*,*,#278,.T.);
#278 = EDGE_CURVE('',#271,#279,#281,.T.);
#279 = VERTEX_POINT('',#280);
#280 = CARTESIAN_POINT('',(169.,30.3,-5.));
#281 = LINE('',#282,#283);
#282 = CARTESIAN_POINT('',(169.,-7.,-5.));
#283 = VECTOR('',#284,1.);
#284 = DIRECTION('',(0.,1.,-0.));
#285 = ORIENTED_EDGE('',*,*,#286,.F.);
#286 = EDGE_CURVE('',#287,#279,#289,.T.);
#287 = VERTEX_POINT('',#288);
#288 = CARTESIAN_POINT('',(169.,30.3,0.));
#289 = LINE('',#290,#291);
#290 = CARTESIAN_POINT('',(169.,30.3,0.));
#291 = VECTOR('',#292,1.);
#292 = DIRECTION('',(1.224646799147E-16,0.,-1.));
#293 = ORIENTED_EDGE('',*,*,#294,.F.);
#294 = EDGE_CURVE('',#295,#287,#297,.T.);
#295 = VERTEX_POINT('',#296);
#296 = CARTESIAN_POINT('',(169.,32.3,0.));
#297 = LINE('',#298,#299);
#298 = CARTESIAN_POINT('',(169.,34.3,0.));
#299 = VECTOR('',#300,1.);
#300 = DIRECTION('',(0.,-1.,0.));
#301 = ORIENTED_EDGE('',*,*,#302,.T.);
#302 = EDGE_CURVE('',#295,#22,#303,.T.);
#303 = LINE('',#304,#305);
#304 = CARTESIAN_POINT('',(169.,32.3,0.));
#305 = VECTOR('',#306,1.);
#306 = DIRECTION('',(1.224646799147E-16,0.,-1.));
#307 = PLANE('',#308);
#308 = AXIS2_PLACEMENT_3D('',#309,#310,#311);
#309 = CARTESIAN_POINT('',(169.,34.3,0.));
#310 = DIRECTION('',(-1.,0.,-1.224646799147E-16));
#311 = DIRECTION('',(0.,-1.,0.));
#312 = ADVANCED_FACE('',(#313),#332,.T.);
#313 = FACE_BOUND('',#314,.F.);
#314 = EDGE_LOOP('',(#315,#324,#330,#331));
#315 = ORIENTED_EDGE('',*,*,#316,.T.);
#316 = EDGE_CURVE('',#295,#317,#319,.T.);
#317 = VERTEX_POINT('',#318);
#318 = CARTESIAN_POINT('',(167.,34.3,-2.449293598295E-16));
#319 = CIRCLE('',#320,2.);
#320 = AXIS2_PLACEMENT_3D('',#321,#322,#323);
#321 = CARTESIAN_POINT('',(167.,32.3,-2.449293598295E-16));
#322 = DIRECTION('',(-1.224646799147E-16,-0.,1.));
#323 = DIRECTION('',(0.,-1.,-0.));
#324 = ORIENTED_EDGE('',*,*,#325,.T.);
#325 = EDGE_CURVE('',#317,#225,#326,.T.);
#326 = LINE('',#327,#328);
#327 = CARTESIAN_POINT('',(167.,34.3,-2.449293598295E-16));
#328 = VECTOR('',#329,1.);
#329 = DIRECTION('',(1.224646799147E-16,0.,-1.));
#330 = ORIENTED_EDGE('',*,*,#232,.F.);
#331 = ORIENTED_EDGE('',*,*,#302,.F.);
#332 = CYLINDRICAL_SURFACE('',#333,2.);
#333 = AXIS2_PLACEMENT_3D('',#334,#335,#336);
#334 = CARTESIAN_POINT('',(167.,32.3,-2.449293598295E-16));
#335 = DIRECTION('',(1.224646799147E-16,0.,-1.));
#336 = DIRECTION('',(1.,0.,1.224646799147E-16));
#337 = ADVANCED_FACE('',(#338),#357,.T.);
#338 = FACE_BOUND('',#339,.F.);
#339 = EDGE_LOOP('',(#340,#341,#349,#356));
#340 = ORIENTED_EDGE('',*,*,#31,.T.);
#341 = ORIENTED_EDGE('',*,*,#342,.T.);
#342 = EDGE_CURVE('',#32,#343,#345,.T.);
#343 = VERTEX_POINT('',#344);
#344 = CARTESIAN_POINT('',(167.,-8.481093875466,-6.138419957661));
#345 = LINE('',#346,#347);
#346 = CARTESIAN_POINT('',(167.,-6.5,-9.));
#347 = VECTOR('',#348,1.);
#348 = DIRECTION('',(-1.006895035781E-16,-0.56920997883,0.822192191644)
  );
#349 = ORIENTED_EDGE('',*,*,#350,.F.);
#350 = EDGE_CURVE('',#271,#343,#351,.T.);
#351 = CIRCLE('',#352,2.);
#352 = AXIS2_PLACEMENT_3D('',#353,#354,#355);
#353 = CARTESIAN_POINT('',(167.,-6.836709492178,-5.));
#354 = DIRECTION('',(1.006895035781E-16,0.56920997883,-0.822192191644));
#355 = DIRECTION('',(1.,0.,1.224646799147E-16));
#356 = ORIENTED_EDGE('',*,*,#270,.F.);
#357 = CYLINDRICAL_SURFACE('',#358,2.);
#358 = AXIS2_PLACEMENT_3D('',#359,#360,#361);
#359 = CARTESIAN_POINT('',(167.,-4.855615616712,-7.861580042339));
#360 = DIRECTION('',(-1.006895035781E-16,-0.56920997883,0.822192191644)
  );
#361 = DIRECTION('',(1.,0.,1.224646799147E-16));
#362 = ADVANCED_FACE('',(#363),#381,.T.);
#363 = FACE_BOUND('',#364,.T.);
#364 = EDGE_LOOP('',(#365,#373,#374,#375));
#365 = ORIENTED_EDGE('',*,*,#366,.F.);
#366 = EDGE_CURVE('',#317,#367,#369,.T.);
#367 = VERTEX_POINT('',#368);
#368 = CARTESIAN_POINT('',(163.97,34.3,-6.159973399711E-16));
#369 = LINE('',#370,#371);
#370 = CARTESIAN_POINT('',(169.,34.3,0.));
#371 = VECTOR('',#372,1.);
#372 = DIRECTION('',(-1.,-1.41683496662E-15,-1.224646799147E-16));
#373 = ORIENTED_EDGE('',*,*,#325,.T.);
#374 = ORIENTED_EDGE('',*,*,#224,.T.);
#375 = ORIENTED_EDGE('',*,*,#376,.F.);
#376 = EDGE_CURVE('',#367,#216,#377,.T.);
#377 = LINE('',#378,#379);
#378 = CARTESIAN_POINT('',(163.97,34.3,-6.159973399711E-16));
#379 = VECTOR('',#380,1.);
#380 = DIRECTION('',(1.224646799147E-16,0.,-1.));
#381 = PLANE('',#382);
#382 = AXIS2_PLACEMENT_3D('',#383,#384,#385);
#383 = CARTESIAN_POINT('',(169.,34.3,0.));
#384 = DIRECTION('',(-1.41683496662E-15,1.,-1.735122406792E-31));
#385 = DIRECTION('',(-1.,-1.41683496662E-15,-1.224646799147E-16));
#386 = ADVANCED_FACE('',(#387),#431,.F.);
#387 = FACE_BOUND('',#388,.F.);
#388 = EDGE_LOOP('',(#389,#390,#398,#406,#414,#423,#430));
#389 = ORIENTED_EDGE('',*,*,#40,.T.);
#390 = ORIENTED_EDGE('',*,*,#391,.T.);
#391 = EDGE_CURVE('',#41,#392,#394,.T.);
#392 = VERTEX_POINT('',#393);
#393 = CARTESIAN_POINT('',(110.58438438328,-11.,-2.5));
#394 = LINE('',#395,#396);
#395 = CARTESIAN_POINT('',(114.6819821626,-6.902402220684,
    -8.418752347901));
#396 = VECTOR('',#397,1.);
#397 = DIRECTION('',(-0.494684738936,-0.494684738936,0.714544622908));
#398 = ORIENTED_EDGE('',*,*,#399,.F.);
#399 = EDGE_CURVE('',#400,#392,#402,.T.);
#400 = VERTEX_POINT('',#401);
#401 = CARTESIAN_POINT('',(167.,-11.,-2.5));
#402 = LINE('',#403,#404);
#403 = CARTESIAN_POINT('',(169.,-11.,-2.5));
#404 = VECTOR('',#405,1.);
#405 = DIRECTION('',(-1.,0.,-1.224646799147E-16));
#406 = ORIENTED_EDGE('',*,*,#407,.F.);
#407 = EDGE_CURVE('',#408,#400,#410,.T.);
#408 = VERTEX_POINT('',#409);
#409 = CARTESIAN_POINT('',(167.,-8.644384383288,-5.902555890807));
#410 = LINE('',#411,#412);
#411 = CARTESIAN_POINT('',(167.,-6.5,-9.));
#412 = VECTOR('',#413,1.);
#413 = DIRECTION('',(-1.006895035781E-16,-0.56920997883,0.822192191644)
  );
#414 = ORIENTED_EDGE('',*,*,#415,.F.);
#415 = EDGE_CURVE('',#416,#408,#418,.T.);
#416 = VERTEX_POINT('',#417);
#417 = CARTESIAN_POINT('',(167.00451126833,-8.534,-6.062));
#418 = ( BOUNDED_CURVE() B_SPLINE_CURVE(3,(#419,#420,#421,#422),
.UNSPECIFIED.,.F.,.F.) B_SPLINE_CURVE_WITH_KNOTS((4,4),(3.57337375599,
3.767299350047),.PIECEWISE_BEZIER_KNOTS.) CURVE() 
GEOMETRIC_REPRESENTATION_ITEM() RATIONAL_B_SPLINE_CURVE((1.,1.,1.,1.)) 
REPRESENTATION_ITEM('') );
#419 = CARTESIAN_POINT('',(167.00451126838,-8.534,-6.062));
#420 = CARTESIAN_POINT('',(167.00150035653,-8.570794794429,
    -6.008851963602));
#421 = CARTESIAN_POINT('',(167.,-8.607589588858,-5.955703927205));
#422 = CARTESIAN_POINT('',(167.,-8.644384383288,-5.902555890807));
#423 = ORIENTED_EDGE('',*,*,#424,.F.);
#424 = EDGE_CURVE('',#343,#416,#425,.T.);
#425 = ( BOUNDED_CURVE() B_SPLINE_CURVE(3,(#426,#427,#428,#429),
.UNSPECIFIED.,.F.,.F.) B_SPLINE_CURVE_WITH_KNOTS((4,4),(3.48042716949,
3.57337375599),.PIECEWISE_BEZIER_KNOTS.) CURVE() 
GEOMETRIC_REPRESENTATION_ITEM() RATIONAL_B_SPLINE_CURVE((1.,1.,1.,1.)) 
REPRESENTATION_ITEM('') );
#426 = CARTESIAN_POINT('',(167.,-8.481093875466,-6.138419957661));
#427 = CARTESIAN_POINT('',(167.,-8.49872925031,-6.11294663844));
#428 = CARTESIAN_POINT('',(167.00150035653,-8.516364625155,
    -6.08747331922));
#429 = CARTESIAN_POINT('',(167.00451126833,-8.534,-6.062));
#430 = ORIENTED_EDGE('',*,*,#342,.F.);
#431 = PLANE('',#432);
#432 = AXIS2_PLACEMENT_3D('',#433,#434,#435);
#433 = CARTESIAN_POINT('',(169.,-8.75,-5.75));
#434 = DIRECTION('',(-1.404712286993E-16,0.822192191644,0.56920997883));
#435 = DIRECTION('',(-1.,-5.818087718705E-17,-1.627437487365E-16));
#436 = ADVANCED_FACE('',(#437),#456,.F.);
#437 = FACE_BOUND('',#438,.T.);
#438 = EDGE_LOOP('',(#439,#448,#449,#450));
#439 = ORIENTED_EDGE('',*,*,#440,.T.);
#440 = EDGE_CURVE('',#441,#367,#443,.T.);
#441 = VERTEX_POINT('',#442);
#442 = CARTESIAN_POINT('',(158.97,39.3,-1.228320739545E-15));
#443 = CIRCLE('',#444,5.);
#444 = AXIS2_PLACEMENT_3D('',#445,#446,#447);
#445 = CARTESIAN_POINT('',(163.97,39.3,-6.159973399711E-16));
#446 = DIRECTION('',(-1.224646799147E-16,0.,1.));
#447 = DIRECTION('',(0.,-1.,0.));
#448 = ORIENTED_EDGE('',*,*,#376,.T.);
#449 = ORIENTED_EDGE('',*,*,#215,.F.);
#450 = ORIENTED_EDGE('',*,*,#451,.F.);
#451 = EDGE_CURVE('',#441,#208,#452,.T.);
#452 = LINE('',#453,#454);
#453 = CARTESIAN_POINT('',(158.97,39.3,-1.228320739545E-15));
#454 = VECTOR('',#455,1.);
#455 = DIRECTION('',(1.224646799147E-16,0.,-1.));
#456 = CYLINDRICAL_SURFACE('',#457,5.);
#457 = AXIS2_PLACEMENT_3D('',#458,#459,#460);
#458 = CARTESIAN_POINT('',(163.97,39.3,-6.159973399711E-16));
#459 = DIRECTION('',(1.224646799147E-16,0.,-1.));
#460 = DIRECTION('',(-1.,0.,-1.224646799147E-16));
#461 = ADVANCED_FACE('',(#462),#490,.T.);
#462 = FACE_BOUND('',#463,.F.);
#463 = EDGE_LOOP('',(#464,#473,#474,#475,#483));
#464 = ORIENTED_EDGE('',*,*,#465,.F.);
#465 = EDGE_CURVE('',#392,#466,#468,.T.);
#466 = VERTEX_POINT('',#467);
#467 = CARTESIAN_POINT('',(108.94,-11.,-1.845176006539));
#468 = ELLIPSE('',#469,4.04297897748,2.);
#469 = AXIS2_PLACEMENT_3D('',#470,#471,#472);
#470 = CARTESIAN_POINT('',(108.94,-11.,1.013641844632));
#471 = DIRECTION('',(0.,1.,-0.));
#472 = DIRECTION('',(-0.56920997883,0.,0.822192191644));
#473 = ORIENTED_EDGE('',*,*,#391,.F.);
#474 = ORIENTED_EDGE('',*,*,#48,.T.);
#475 = ORIENTED_EDGE('',*,*,#476,.T.);
#476 = EDGE_CURVE('',#49,#477,#479,.T.);
#477 = VERTEX_POINT('',#478);
#478 = CARTESIAN_POINT('',(108.94,-9.355615616712,-2.5));
#479 = LINE('',#480,#481);
#480 = CARTESIAN_POINT('',(113.03759777931,-5.258017837396,
    -8.418752347901));
#481 = VECTOR('',#482,1.);
#482 = DIRECTION('',(-0.494684738936,-0.494684738936,0.714544622908));
#483 = ORIENTED_EDGE('',*,*,#484,.F.);
#484 = EDGE_CURVE('',#466,#477,#485,.T.);
#485 = ELLIPSE('',#486,4.04297897748,2.);
#486 = AXIS2_PLACEMENT_3D('',#487,#488,#489);
#487 = CARTESIAN_POINT('',(108.94,-11.,1.013641844632));
#488 = DIRECTION('',(1.,0.,1.224646799147E-16));
#489 = DIRECTION('',(-1.006895035781E-16,-0.56920997883,0.822192191644)
  );
#490 = CYLINDRICAL_SURFACE('',#491,2.);
#491 = AXIS2_PLACEMENT_3D('',#492,#493,#494);
#492 = CARTESIAN_POINT('',(114.6819821626,-5.258017837396,
    -7.280332390241));
#493 = DIRECTION('',(-0.494684738936,-0.494684738936,0.714544622908));
#494 = DIRECTION('',(1.807304203242E-16,-0.822192191644,-0.56920997883)
  );
#495 = ADVANCED_FACE('',(#496),#514,.F.);
#496 = FACE_BOUND('',#497,.F.);
#497 = EDGE_LOOP('',(#498,#506,#512,#513));
#498 = ORIENTED_EDGE('',*,*,#499,.F.);
#499 = EDGE_CURVE('',#500,#441,#502,.T.);
#500 = VERTEX_POINT('',#501);
#501 = CARTESIAN_POINT('',(158.97,39.8,-1.228320739545E-15));
#502 = LINE('',#503,#504);
#503 = CARTESIAN_POINT('',(158.97,42.3,-1.228320739545E-15));
#504 = VECTOR('',#505,1.);
#505 = DIRECTION('',(0.,-1.,0.));
#506 = ORIENTED_EDGE('',*,*,#507,.T.);
#507 = EDGE_CURVE('',#500,#199,#508,.T.);
#508 = LINE('',#509,#510);
#509 = CARTESIAN_POINT('',(158.97,39.8,-1.228320739545E-15));
#510 = VECTOR('',#511,1.);
#511 = DIRECTION('',(1.224646799147E-16,0.,-1.));
#512 = ORIENTED_EDGE('',*,*,#207,.T.);
#513 = ORIENTED_EDGE('',*,*,#451,.F.);
#514 = PLANE('',#515);
#515 = AXIS2_PLACEMENT_3D('',#516,#517,#518);
#516 = CARTESIAN_POINT('',(158.97,42.3,-1.228320739545E-15));
#517 = DIRECTION('',(-1.,0.,-1.224646799147E-16));
#518 = DIRECTION('',(0.,-1.,0.));
#519 = ADVANCED_FACE('',(#520),#551,.F.);
#520 = FACE_BOUND('',#521,.F.);
#521 = EDGE_LOOP('',(#522,#523,#536,#544,#550));
#522 = ORIENTED_EDGE('',*,*,#57,.T.);
#523 = ORIENTED_EDGE('',*,*,#524,.T.);
#524 = EDGE_CURVE('',#58,#525,#527,.T.);
#525 = VERTEX_POINT('',#526);
#526 = CARTESIAN_POINT('',(112.32561561671,32.3,-7.390333668585));
#527 = B_SPLINE_CURVE_WITH_KNOTS('',4,(#528,#529,#530,#531,#532,#533,
    #534,#535),.UNSPECIFIED.,.F.,.F.,(5,3,5),(-1.247340222833,
    -1.072540534444,1.957773800062),.UNSPECIFIED.);
#528 = CARTESIAN_POINT('',(114.1511588201,32.566679123322,
    -10.02722940681));
#529 = CARTESIAN_POINT('',(114.12570422923,32.559516973422,
    -9.990461664451));
#530 = CARTESIAN_POINT('',(114.10044302474,32.552409236584,
    -9.953973257968));
#531 = CARTESIAN_POINT('',(114.07537520663,32.545355912807,
    -9.917764187365));
#532 = CARTESIAN_POINT('',(113.61927948535,32.417024409003,
    -9.258959256627));
#533 = CARTESIAN_POINT('',(113.1880581958,32.339064703373,
    -8.636084060613));
#534 = CARTESIAN_POINT('',(112.75683690626,32.3,-8.013208864599));
#535 = CARTESIAN_POINT('',(112.32561561671,32.3,-7.390333668585));
#536 = ORIENTED_EDGE('',*,*,#537,.T.);
#537 = EDGE_CURVE('',#525,#538,#540,.T.);
#538 = VERTEX_POINT('',#539);
#539 = CARTESIAN_POINT('',(108.94,32.3,-2.5));
#540 = LINE('',#541,#542);
#541 = CARTESIAN_POINT('',(113.44,32.3,-9.));
#542 = VECTOR('',#543,1.);
#543 = DIRECTION('',(-0.56920997883,1.209714902034E-15,0.822192191644));
#544 = ORIENTED_EDGE('',*,*,#545,.F.);
#545 = EDGE_CURVE('',#477,#538,#546,.T.);
#546 = LINE('',#547,#548);
#547 = CARTESIAN_POINT('',(108.94,-11.,-2.5));
#548 = VECTOR('',#549,1.);
#549 = DIRECTION('',(0.,1.,0.));
#550 = ORIENTED_EDGE('',*,*,#476,.F.);
#551 = PLANE('',#552);
#552 = AXIS2_PLACEMENT_3D('',#553,#554,#555);
#553 = CARTESIAN_POINT('',(111.19,-11.,-5.75));
#554 = DIRECTION('',(0.822192191644,7.076311083755E-17,0.56920997883));
#555 = DIRECTION('',(-5.818087718705E-17,1.,-4.027906882181E-17));
#556 = ADVANCED_FACE('',(#557),#576,.T.);
#557 = FACE_BOUND('',#558,.T.);
#558 = EDGE_LOOP('',(#559,#568,#569,#570));
#559 = ORIENTED_EDGE('',*,*,#560,.T.);
#560 = EDGE_CURVE('',#561,#500,#563,.T.);
#561 = VERTEX_POINT('',#562);
#562 = CARTESIAN_POINT('',(156.47,42.3,-1.534482439332E-15));
#563 = CIRCLE('',#564,2.5);
#564 = AXIS2_PLACEMENT_3D('',#565,#566,#567);
#565 = CARTESIAN_POINT('',(156.47,39.8,-1.534482439332E-15));
#566 = DIRECTION('',(1.224646799147E-16,0.,-1.));
#567 = DIRECTION('',(0.,-1.,0.));
#568 = ORIENTED_EDGE('',*,*,#507,.T.);
#569 = ORIENTED_EDGE('',*,*,#198,.F.);
#570 = ORIENTED_EDGE('',*,*,#571,.F.);
#571 = EDGE_CURVE('',#561,#191,#572,.T.);
#572 = LINE('',#573,#574);
#573 = CARTESIAN_POINT('',(156.47,42.3,-1.534482439332E-15));
#574 = VECTOR('',#575,1.);
#575 = DIRECTION('',(1.224646799147E-16,0.,-1.));
#576 = CYLINDRICAL_SURFACE('',#577,2.5);
#577 = AXIS2_PLACEMENT_3D('',#578,#579,#580);
#578 = CARTESIAN_POINT('',(156.47,39.8,-1.534482439332E-15));
#579 = DIRECTION('',(1.224646799147E-16,0.,-1.));
#580 = DIRECTION('',(0.,1.,0.));
#581 = ADVANCED_FACE('',(#582),#605,.F.);
#582 = FACE_BOUND('',#583,.F.);
#583 = EDGE_LOOP('',(#584,#585,#598,#604));
#584 = ORIENTED_EDGE('',*,*,#65,.T.);
#585 = ORIENTED_EDGE('',*,*,#586,.T.);
#586 = EDGE_CURVE('',#66,#587,#589,.T.);
#587 = VERTEX_POINT('',#588);
#588 = CARTESIAN_POINT('',(113.97,34.3,-6.251913710924));
#589 = B_SPLINE_CURVE_WITH_KNOTS('',4,(#590,#591,#592,#593,#594,#595,
    #596,#597),.UNSPECIFIED.,.F.,.F.,(5,3,5),(-1.247340222833,
    -1.072540534444,1.957773800062),.UNSPECIFIED.);
#590 = CARTESIAN_POINT('',(115.40238755234,34.508877712259,
    -9.159646487961));
#591 = CARTESIAN_POINT('',(115.38275266238,34.503353049699,
    -9.119523543236));
#592 = CARTESIAN_POINT('',(115.36318671549,34.497847785628,
    -9.079541480335));
#593 = CARTESIAN_POINT('',(115.34368971168,34.492361920046,
    -9.039700299256));
#594 = CARTESIAN_POINT('',(114.98745824186,34.392129187987,
    -8.311758579047));
#595 = CARTESIAN_POINT('',(114.64887177761,34.33074429882,-7.6247515809)
  );
#596 = CARTESIAN_POINT('',(114.30943741305,34.3,-6.938331590663));
#597 = CARTESIAN_POINT('',(113.97,34.3,-6.251913710924));
#598 = ORIENTED_EDGE('',*,*,#599,.F.);
#599 = EDGE_CURVE('',#525,#587,#600,.T.);
#600 = ( BOUNDED_CURVE() B_SPLINE_CURVE(2,(#601,#602,#603),
.UNSPECIFIED.,.F.,.F.) B_SPLINE_CURVE_WITH_KNOTS((3,3),(0.,
3.030314334506),.PIECEWISE_BEZIER_KNOTS.) CURVE() 
GEOMETRIC_REPRESENTATION_ITEM() RATIONAL_B_SPLINE_CURVE((1.,
0.707106781187,1.)) REPRESENTATION_ITEM('') );
#601 = CARTESIAN_POINT('',(112.32561561671,32.3,-7.390333668585));
#602 = CARTESIAN_POINT('',(112.32561561671,34.3,-7.390333668585));
#603 = CARTESIAN_POINT('',(113.97,34.3,-6.251913710924));
#604 = ORIENTED_EDGE('',*,*,#524,.F.);
#605 = ( BOUNDED_SURFACE() B_SPLINE_SURFACE(2,4,(
    (#606,#607,#608,#609,#610,#611,#612,#613)
    ,(#614,#615,#616,#617,#618,#619,#620,#621)
    ,(#622,#623,#624,#625,#626,#627,#628,#629
)),.UNSPECIFIED.,.F.,.F.,.F.) B_SPLINE_SURFACE_WITH_KNOTS((3,3),(5,3,5),
  (0.,3.030314334506),(-1.247340222833,-1.072540534444,1.957773800062),
.UNSPECIFIED.) GEOMETRIC_REPRESENTATION_ITEM() RATIONAL_B_SPLINE_SURFACE
((
    (1.,1.,1.,1.,1.,1.,1.,1.)
    ,(0.782747530111,0.783805375458,0.784157990573,0.783805375458
      ,0.764408802238,0.745842536713,0.726840914559,0.707106781187)
,(1.,1.,1.,1.,1.,1.,1.,1.))) REPRESENTATION_ITEM('') SURFACE() );
#606 = CARTESIAN_POINT('',(114.1511588201,32.566679123322,
    -10.02722940681));
#607 = CARTESIAN_POINT('',(114.12570422923,32.559516973422,
    -9.990461664451));
#608 = CARTESIAN_POINT('',(114.10044302474,32.552409236584,
    -9.953973257968));
#609 = CARTESIAN_POINT('',(114.07537520663,32.545355912807,
    -9.917764187365));
#610 = CARTESIAN_POINT('',(113.61927948535,32.417024409003,
    -9.258959256627));
#611 = CARTESIAN_POINT('',(113.1880581958,32.339064703373,
    -8.636084060613));
#612 = CARTESIAN_POINT('',(112.75683690626,32.3,-8.013208864599));
#613 = CARTESIAN_POINT('',(112.32561561671,32.3,-7.390333668585));
#614 = CARTESIAN_POINT('',(114.15238552528,34.134438292478,
    -10.0290013143));
#615 = CARTESIAN_POINT('',(114.12621525737,34.132912401639,
    -9.991199816207));
#616 = CARTESIAN_POINT('',(114.10055727703,34.131416380381,
    -9.954138289043));
#617 = CARTESIAN_POINT('',(114.07534163541,34.129946150246,
    -9.917715695604));
#618 = CARTESIAN_POINT('',(113.60893417031,34.102751668309,
    -9.244016023785));
#619 = CARTESIAN_POINT('',(113.17367536033,34.12541131925,
    -8.615308853817));
#620 = CARTESIAN_POINT('',(112.74512900942,34.191397784704,
    -7.996297458064));
#621 = CARTESIAN_POINT('',(112.32561561671,34.3,-7.390333668585));
#622 = CARTESIAN_POINT('',(115.40238755234,34.508877712259,
    -9.159646487961));
#623 = CARTESIAN_POINT('',(115.38275266238,34.503353049699,
    -9.119523543236));
#624 = CARTESIAN_POINT('',(115.36318671549,34.497847785628,
    -9.079541480335));
#625 = CARTESIAN_POINT('',(115.34368971168,34.492361920046,
    -9.039700299256));
#626 = CARTESIAN_POINT('',(114.98745824186,34.392129187987,
    -8.311758579047));
#627 = CARTESIAN_POINT('',(114.64887177761,34.33074429882,-7.6247515809)
  );
#628 = CARTESIAN_POINT('',(114.30943741305,34.3,-6.938331590663));
#629 = CARTESIAN_POINT('',(113.97,34.3,-6.251913710924));
#630 = ADVANCED_FACE('',(#631),#649,.F.);
#631 = FACE_BOUND('',#632,.F.);
#632 = EDGE_LOOP('',(#633,#641,#647,#648));
#633 = ORIENTED_EDGE('',*,*,#634,.F.);
#634 = EDGE_CURVE('',#635,#561,#637,.T.);
#635 = VERTEX_POINT('',#636);
#636 = CARTESIAN_POINT('',(153.47,42.3,-1.901876479076E-15));
#637 = LINE('',#638,#639);
#638 = CARTESIAN_POINT('',(150.97,42.3,-2.208038178863E-15));
#639 = VECTOR('',#640,1.);
#640 = DIRECTION('',(1.,0.,1.224646799147E-16));
#641 = ORIENTED_EDGE('',*,*,#642,.T.);
#642 = EDGE_CURVE('',#635,#182,#643,.T.);
#643 = LINE('',#644,#645);
#644 = CARTESIAN_POINT('',(153.47,42.3,-1.901876479076E-15));
#645 = VECTOR('',#646,1.);
#646 = DIRECTION('',(1.224646799147E-16,0.,-1.));
#647 = ORIENTED_EDGE('',*,*,#190,.T.);
#648 = ORIENTED_EDGE('',*,*,#571,.F.);
#649 = PLANE('',#650);
#650 = AXIS2_PLACEMENT_3D('',#651,#652,#653);
#651 = CARTESIAN_POINT('',(150.97,42.3,-2.208038178863E-15));
#652 = DIRECTION('',(0.,-1.,0.));
#653 = DIRECTION('',(1.,0.,1.224646799147E-16));
#654 = ADVANCED_FACE('',(#655),#682,.F.);
#655 = FACE_BOUND('',#656,.T.);
#656 = EDGE_LOOP('',(#657,#665,#674,#680,#681));
#657 = ORIENTED_EDGE('',*,*,#658,.F.);
#658 = EDGE_CURVE('',#659,#587,#661,.T.);
#659 = VERTEX_POINT('',#660);
#660 = CARTESIAN_POINT('',(113.97,34.3,-6.739231335708E-15));
#661 = LINE('',#662,#663);
#662 = CARTESIAN_POINT('',(113.97,34.3,-6.739231335708E-15));
#663 = VECTOR('',#664,1.);
#664 = DIRECTION('',(1.224646799147E-16,0.,-1.));
#665 = ORIENTED_EDGE('',*,*,#666,.T.);
#666 = EDGE_CURVE('',#659,#667,#669,.T.);
#667 = VERTEX_POINT('',#668);
#668 = CARTESIAN_POINT('',(118.97,39.3,-6.126907936134E-15));
#669 = CIRCLE('',#670,5.);
#670 = AXIS2_PLACEMENT_3D('',#671,#672,#673);
#671 = CARTESIAN_POINT('',(113.97,39.3,-6.739231335708E-15));
#672 = DIRECTION('',(-1.224646799147E-16,0.,1.));
#673 = DIRECTION('',(0.,-1.,0.));
#674 = ORIENTED_EDGE('',*,*,#675,.T.);
#675 = EDGE_CURVE('',#667,#97,#676,.T.);
#676 = LINE('',#677,#678);
#677 = CARTESIAN_POINT('',(118.97,39.3,-6.126907936134E-15));
#678 = VECTOR('',#679,1.);
#679 = DIRECTION('',(1.224646799147E-16,0.,-1.));
#680 = ORIENTED_EDGE('',*,*,#96,.F.);
#681 = ORIENTED_EDGE('',*,*,#586,.T.);
#682 = CYLINDRICAL_SURFACE('',#683,5.);
#683 = AXIS2_PLACEMENT_3D('',#684,#685,#686);
#684 = CARTESIAN_POINT('',(113.97,39.3,-6.739231335708E-15));
#685 = DIRECTION('',(1.224646799147E-16,0.,-1.));
#686 = DIRECTION('',(-2.125252449931E-15,-1.,-2.602683610187E-31));
#687 = ADVANCED_FACE('',(#688),#707,.T.);
#688 = FACE_BOUND('',#689,.T.);
#689 = EDGE_LOOP('',(#690,#699,#700,#701));
#690 = ORIENTED_EDGE('',*,*,#691,.T.);
#691 = EDGE_CURVE('',#692,#635,#694,.T.);
#692 = VERTEX_POINT('',#693);
#693 = CARTESIAN_POINT('',(150.97,39.8,-2.208038178863E-15));
#694 = CIRCLE('',#695,2.5);
#695 = AXIS2_PLACEMENT_3D('',#696,#697,#698);
#696 = CARTESIAN_POINT('',(153.47,39.8,-1.901876479076E-15));
#697 = DIRECTION('',(1.224646799147E-16,0.,-1.));
#698 = DIRECTION('',(0.,-1.,0.));
#699 = ORIENTED_EDGE('',*,*,#642,.T.);
#700 = ORIENTED_EDGE('',*,*,#181,.F.);
#701 = ORIENTED_EDGE('',*,*,#702,.F.);
#702 = EDGE_CURVE('',#692,#174,#703,.T.);
#703 = LINE('',#704,#705);
#704 = CARTESIAN_POINT('',(150.97,39.8,-2.208038178863E-15));
#705 = VECTOR('',#706,1.);
#706 = DIRECTION('',(1.224646799147E-16,0.,-1.));
#707 = CYLINDRICAL_SURFACE('',#708,2.5);
#708 = AXIS2_PLACEMENT_3D('',#709,#710,#711);
#709 = CARTESIAN_POINT('',(153.47,39.8,-1.901876479076E-15));
#710 = DIRECTION('',(1.224646799147E-16,0.,-1.));
#711 = DIRECTION('',(-1.,0.,-1.224646799147E-16));
#712 = ADVANCED_FACE('',(#713),#731,.F.);
#713 = FACE_BOUND('',#714,.F.);
#714 = EDGE_LOOP('',(#715,#723,#724,#725));
#715 = ORIENTED_EDGE('',*,*,#716,.F.);
#716 = EDGE_CURVE('',#667,#717,#719,.T.);
#717 = VERTEX_POINT('',#718);
#718 = CARTESIAN_POINT('',(118.97,39.8,-6.126907936134E-15));
#719 = LINE('',#720,#721);
#720 = CARTESIAN_POINT('',(118.97,34.3,-6.126907936134E-15));
#721 = VECTOR('',#722,1.);
#722 = DIRECTION('',(0.,1.,0.));
#723 = ORIENTED_EDGE('',*,*,#675,.T.);
#724 = ORIENTED_EDGE('',*,*,#105,.T.);
#725 = ORIENTED_EDGE('',*,*,#726,.F.);
#726 = EDGE_CURVE('',#717,#106,#727,.T.);
#727 = LINE('',#728,#729);
#728 = CARTESIAN_POINT('',(118.97,39.8,-6.126907936134E-15));
#729 = VECTOR('',#730,1.);
#730 = DIRECTION('',(1.224646799147E-16,0.,-1.));
#731 = PLANE('',#732);
#732 = AXIS2_PLACEMENT_3D('',#733,#734,#735);
#733 = CARTESIAN_POINT('',(118.97,34.3,-6.126907936134E-15));
#734 = DIRECTION('',(1.,0.,1.224646799147E-16));
#735 = DIRECTION('',(0.,1.,0.));
#736 = ADVANCED_FACE('',(#737),#755,.F.);
#737 = FACE_BOUND('',#738,.F.);
#738 = EDGE_LOOP('',(#739,#747,#753,#754));
#739 = ORIENTED_EDGE('',*,*,#740,.F.);
#740 = EDGE_CURVE('',#741,#692,#743,.T.);
#741 = VERTEX_POINT('',#742);
#742 = CARTESIAN_POINT('',(150.97,39.3,-2.208038178863E-15));
#743 = LINE('',#744,#745);
#744 = CARTESIAN_POINT('',(150.97,34.3,-2.208038178863E-15));
#745 = VECTOR('',#746,1.);
#746 = DIRECTION('',(0.,1.,0.));
#747 = ORIENTED_EDGE('',*,*,#748,.T.);
#748 = EDGE_CURVE('',#741,#165,#749,.T.);
#749 = LINE('',#750,#751);
#750 = CARTESIAN_POINT('',(150.97,39.3,-2.208038178863E-15));
#751 = VECTOR('',#752,1.);
#752 = DIRECTION('',(1.224646799147E-16,0.,-1.));
#753 = ORIENTED_EDGE('',*,*,#173,.T.);
#754 = ORIENTED_EDGE('',*,*,#702,.F.);
#755 = PLANE('',#756);
#756 = AXIS2_PLACEMENT_3D('',#757,#758,#759);
#757 = CARTESIAN_POINT('',(150.97,34.3,-2.208038178863E-15));
#758 = DIRECTION('',(1.,0.,1.224646799147E-16));
#759 = DIRECTION('',(0.,1.,0.));
#760 = ADVANCED_FACE('',(#761),#780,.T.);
#761 = FACE_BOUND('',#762,.F.);
#762 = EDGE_LOOP('',(#763,#772,#773,#774));
#763 = ORIENTED_EDGE('',*,*,#764,.T.);
#764 = EDGE_CURVE('',#765,#717,#767,.T.);
#765 = VERTEX_POINT('',#766);
#766 = CARTESIAN_POINT('',(121.47,42.3,-5.820746236347E-15));
#767 = CIRCLE('',#768,2.5);
#768 = AXIS2_PLACEMENT_3D('',#769,#770,#771);
#769 = CARTESIAN_POINT('',(121.47,39.8,-5.820746236347E-15));
#770 = DIRECTION('',(-1.224646799147E-16,0.,1.));
#771 = DIRECTION('',(0.,-1.,0.));
#772 = ORIENTED_EDGE('',*,*,#726,.T.);
#773 = ORIENTED_EDGE('',*,*,#113,.F.);
#774 = ORIENTED_EDGE('',*,*,#775,.F.);
#775 = EDGE_CURVE('',#765,#114,#776,.T.);
#776 = LINE('',#777,#778);
#777 = CARTESIAN_POINT('',(121.47,42.3,-5.820746236347E-15));
#778 = VECTOR('',#779,1.);
#779 = DIRECTION('',(1.224646799147E-16,0.,-1.));
#780 = CYLINDRICAL_SURFACE('',#781,2.5);
#781 = AXIS2_PLACEMENT_3D('',#782,#783,#784);
#782 = CARTESIAN_POINT('',(121.47,39.8,-5.820746236347E-15));
#783 = DIRECTION('',(1.224646799147E-16,0.,-1.));
#784 = DIRECTION('',(0.,1.,0.));
#785 = ADVANCED_FACE('',(#786),#805,.F.);
#786 = FACE_BOUND('',#787,.F.);
#787 = EDGE_LOOP('',(#788,#797,#803,#804));
#788 = ORIENTED_EDGE('',*,*,#789,.T.);
#789 = EDGE_CURVE('',#741,#790,#792,.T.);
#790 = VERTEX_POINT('',#791);
#791 = CARTESIAN_POINT('',(145.97,34.3,-2.820361578436E-15));
#792 = CIRCLE('',#793,5.);
#793 = AXIS2_PLACEMENT_3D('',#794,#795,#796);
#794 = CARTESIAN_POINT('',(145.97,39.3,-2.820361578436E-15));
#795 = DIRECTION('',(1.224646799147E-16,0.,-1.));
#796 = DIRECTION('',(0.,-1.,0.));
#797 = ORIENTED_EDGE('',*,*,#798,.T.);
#798 = EDGE_CURVE('',#790,#157,#799,.T.);
#799 = LINE('',#800,#801);
#800 = CARTESIAN_POINT('',(145.97,34.3,-2.820361578436E-15));
#801 = VECTOR('',#802,1.);
#802 = DIRECTION('',(1.224646799147E-16,0.,-1.));
#803 = ORIENTED_EDGE('',*,*,#164,.F.);
#804 = ORIENTED_EDGE('',*,*,#748,.F.);
#805 = CYLINDRICAL_SURFACE('',#806,5.);
#806 = AXIS2_PLACEMENT_3D('',#807,#808,#809);
#807 = CARTESIAN_POINT('',(145.97,39.3,-2.820361578436E-15));
#808 = DIRECTION('',(1.224646799147E-16,0.,-1.));
#809 = DIRECTION('',(1.,0.,1.224646799147E-16));
#810 = ADVANCED_FACE('',(#811),#829,.F.);
#811 = FACE_BOUND('',#812,.F.);
#812 = EDGE_LOOP('',(#813,#821,#822,#823));
#813 = ORIENTED_EDGE('',*,*,#814,.F.);
#814 = EDGE_CURVE('',#765,#815,#817,.T.);
#815 = VERTEX_POINT('',#816);
#816 = CARTESIAN_POINT('',(124.47,42.3,-5.453352196603E-15));
#817 = LINE('',#818,#819);
#818 = CARTESIAN_POINT('',(118.97,42.3,-6.126907936134E-15));
#819 = VECTOR('',#820,1.);
#820 = DIRECTION('',(1.,0.,1.224646799147E-16));
#821 = ORIENTED_EDGE('',*,*,#775,.T.);
#822 = ORIENTED_EDGE('',*,*,#122,.T.);
#823 = ORIENTED_EDGE('',*,*,#824,.F.);
#824 = EDGE_CURVE('',#815,#123,#825,.T.);
#825 = LINE('',#826,#827);
#826 = CARTESIAN_POINT('',(124.47,42.3,-5.453352196603E-15));
#827 = VECTOR('',#828,1.);
#828 = DIRECTION('',(1.224646799147E-16,0.,-1.));
#829 = PLANE('',#830);
#830 = AXIS2_PLACEMENT_3D('',#831,#832,#833);
#831 = CARTESIAN_POINT('',(118.97,42.3,-6.126907936134E-15));
#832 = DIRECTION('',(0.,-1.,0.));
#833 = DIRECTION('',(1.,0.,1.224646799147E-16));
#834 = ADVANCED_FACE('',(#835),#853,.T.);
#835 = FACE_BOUND('',#836,.T.);
#836 = EDGE_LOOP('',(#837,#845,#846,#847));
#837 = ORIENTED_EDGE('',*,*,#838,.F.);
#838 = EDGE_CURVE('',#790,#839,#841,.T.);
#839 = VERTEX_POINT('',#840);
#840 = CARTESIAN_POINT('',(131.97,34.3,-4.534867097243E-15));
#841 = LINE('',#842,#843);
#842 = CARTESIAN_POINT('',(150.97,34.3,-2.208038178863E-15));
#843 = VECTOR('',#844,1.);
#844 = DIRECTION('',(-1.,-2.960594732334E-16,-1.224646799147E-16));
#845 = ORIENTED_EDGE('',*,*,#798,.T.);
#846 = ORIENTED_EDGE('',*,*,#156,.T.);
#847 = ORIENTED_EDGE('',*,*,#848,.F.);
#848 = EDGE_CURVE('',#839,#148,#849,.T.);
#849 = LINE('',#850,#851);
#850 = CARTESIAN_POINT('',(131.97,34.3,-4.534867097243E-15));
#851 = VECTOR('',#852,1.);
#852 = DIRECTION('',(1.224646799147E-16,0.,-1.));
#853 = PLANE('',#854);
#854 = AXIS2_PLACEMENT_3D('',#855,#856,#857);
#855 = CARTESIAN_POINT('',(150.97,34.3,-2.208038178863E-15));
#856 = DIRECTION('',(-2.960594732334E-16,1.,-3.625682862525E-32));
#857 = DIRECTION('',(-1.,-2.960594732334E-16,-1.224646799147E-16));
#858 = ADVANCED_FACE('',(#859),#878,.T.);
#859 = FACE_BOUND('',#860,.F.);
#860 = EDGE_LOOP('',(#861,#870,#871,#872));
#861 = ORIENTED_EDGE('',*,*,#862,.T.);
#862 = EDGE_CURVE('',#863,#815,#865,.T.);
#863 = VERTEX_POINT('',#864);
#864 = CARTESIAN_POINT('',(126.97,39.8,-5.147190496816E-15));
#865 = CIRCLE('',#866,2.5);
#866 = AXIS2_PLACEMENT_3D('',#867,#868,#869);
#867 = CARTESIAN_POINT('',(124.47,39.8,-5.453352196603E-15));
#868 = DIRECTION('',(-1.224646799147E-16,0.,1.));
#869 = DIRECTION('',(0.,-1.,0.));
#870 = ORIENTED_EDGE('',*,*,#824,.T.);
#871 = ORIENTED_EDGE('',*,*,#130,.F.);
#872 = ORIENTED_EDGE('',*,*,#873,.F.);
#873 = EDGE_CURVE('',#863,#131,#874,.T.);
#874 = LINE('',#875,#876);
#875 = CARTESIAN_POINT('',(126.97,39.8,-5.147190496816E-15));
#876 = VECTOR('',#877,1.);
#877 = DIRECTION('',(1.224646799147E-16,0.,-1.));
#878 = CYLINDRICAL_SURFACE('',#879,2.5);
#879 = AXIS2_PLACEMENT_3D('',#880,#881,#882);
#880 = CARTESIAN_POINT('',(124.47,39.8,-5.453352196603E-15));
#881 = DIRECTION('',(1.224646799147E-16,0.,-1.));
#882 = DIRECTION('',(1.,0.,1.224646799147E-16));
#883 = ADVANCED_FACE('',(#884),#903,.F.);
#884 = FACE_BOUND('',#885,.T.);
#885 = EDGE_LOOP('',(#886,#895,#896,#897));
#886 = ORIENTED_EDGE('',*,*,#887,.T.);
#887 = EDGE_CURVE('',#888,#839,#890,.T.);
#888 = VERTEX_POINT('',#889);
#889 = CARTESIAN_POINT('',(126.97,39.3,-5.147190496816E-15));
#890 = CIRCLE('',#891,5.);
#891 = AXIS2_PLACEMENT_3D('',#892,#893,#894);
#892 = CARTESIAN_POINT('',(131.97,39.3,-4.534867097243E-15));
#893 = DIRECTION('',(-1.224646799147E-16,0.,1.));
#894 = DIRECTION('',(0.,-1.,0.));
#895 = ORIENTED_EDGE('',*,*,#848,.T.);
#896 = ORIENTED_EDGE('',*,*,#147,.F.);
#897 = ORIENTED_EDGE('',*,*,#898,.F.);
#898 = EDGE_CURVE('',#888,#140,#899,.T.);
#899 = LINE('',#900,#901);
#900 = CARTESIAN_POINT('',(126.97,39.3,-5.147190496816E-15));
#901 = VECTOR('',#902,1.);
#902 = DIRECTION('',(1.224646799147E-16,0.,-1.));
#903 = CYLINDRICAL_SURFACE('',#904,5.);
#904 = AXIS2_PLACEMENT_3D('',#905,#906,#907);
#905 = CARTESIAN_POINT('',(131.97,39.3,-4.534867097243E-15));
#906 = DIRECTION('',(1.224646799147E-16,0.,-1.));
#907 = DIRECTION('',(-1.,0.,-1.224646799147E-16));
#908 = ADVANCED_FACE('',(#909),#920,.F.);
#909 = FACE_BOUND('',#910,.F.);
#910 = EDGE_LOOP('',(#911,#917,#918,#919));
#911 = ORIENTED_EDGE('',*,*,#912,.F.);
#912 = EDGE_CURVE('',#863,#888,#913,.T.);
#913 = LINE('',#914,#915);
#914 = CARTESIAN_POINT('',(126.97,42.3,-5.147190496816E-15));
#915 = VECTOR('',#916,1.);
#916 = DIRECTION('',(0.,-1.,0.));
#917 = ORIENTED_EDGE('',*,*,#873,.T.);
#918 = ORIENTED_EDGE('',*,*,#139,.T.);
#919 = ORIENTED_EDGE('',*,*,#898,.F.);
#920 = PLANE('',#921);
#921 = AXIS2_PLACEMENT_3D('',#922,#923,#924);
#922 = CARTESIAN_POINT('',(126.97,42.3,-5.147190496816E-15));
#923 = DIRECTION('',(-1.,0.,-1.224646799147E-16));
#924 = DIRECTION('',(0.,-1.,0.));
#925 = ADVANCED_FACE('',(#926),#945,.F.);
#926 = FACE_BOUND('',#927,.F.);
#927 = EDGE_LOOP('',(#928,#936,#943,#944));
#928 = ORIENTED_EDGE('',*,*,#929,.T.);
#929 = EDGE_CURVE('',#242,#930,#932,.T.);
#930 = VERTEX_POINT('',#931);
#931 = CARTESIAN_POINT('',(151.97,38.3,-6.5));
#932 = LINE('',#933,#934);
#933 = CARTESIAN_POINT('',(151.97,38.3,-9.));
#934 = VECTOR('',#935,1.);
#935 = DIRECTION('',(-1.224646799147E-16,0.,1.));
#936 = ORIENTED_EDGE('',*,*,#937,.T.);
#937 = EDGE_CURVE('',#930,#930,#938,.T.);
#938 = CIRCLE('',#939,3.);
#939 = AXIS2_PLACEMENT_3D('',#940,#941,#942);
#940 = CARTESIAN_POINT('',(154.97,38.3,-6.5));
#941 = DIRECTION('',(1.224646799147E-16,0.,-1.));
#942 = DIRECTION('',(-1.,0.,-1.224646799147E-16));
#943 = ORIENTED_EDGE('',*,*,#929,.F.);
#944 = ORIENTED_EDGE('',*,*,#241,.F.);
#945 = CYLINDRICAL_SURFACE('',#946,3.);
#946 = AXIS2_PLACEMENT_3D('',#947,#948,#949);
#947 = CARTESIAN_POINT('',(154.97,38.3,-9.));
#948 = DIRECTION('',(1.224646799147E-16,0.,-1.));
#949 = DIRECTION('',(-1.,0.,-1.224646799147E-16));
#950 = ADVANCED_FACE('',(#951),#970,.F.);
#951 = FACE_BOUND('',#952,.F.);
#952 = EDGE_LOOP('',(#953,#961,#968,#969));
#953 = ORIENTED_EDGE('',*,*,#954,.T.);
#954 = EDGE_CURVE('',#253,#955,#957,.T.);
#955 = VERTEX_POINT('',#956);
#956 = CARTESIAN_POINT('',(119.97,38.3,-6.5));
#957 = LINE('',#958,#959);
#958 = CARTESIAN_POINT('',(119.97,38.3,-9.));
#959 = VECTOR('',#960,1.);
#960 = DIRECTION('',(-1.224646799147E-16,0.,1.));
#961 = ORIENTED_EDGE('',*,*,#962,.T.);
#962 = EDGE_CURVE('',#955,#955,#963,.T.);
#963 = CIRCLE('',#964,3.);
#964 = AXIS2_PLACEMENT_3D('',#965,#966,#967);
#965 = CARTESIAN_POINT('',(122.97,38.3,-6.5));
#966 = DIRECTION('',(1.224646799147E-16,0.,-1.));
#967 = DIRECTION('',(-1.,0.,-1.224646799147E-16));
#968 = ORIENTED_EDGE('',*,*,#954,.F.);
#969 = ORIENTED_EDGE('',*,*,#252,.F.);
#970 = CYLINDRICAL_SURFACE('',#971,3.);
#971 = AXIS2_PLACEMENT_3D('',#972,#973,#974);
#972 = CARTESIAN_POINT('',(122.97,38.3,-9.));
#973 = DIRECTION('',(1.224646799147E-16,0.,-1.));
#974 = DIRECTION('',(-1.,0.,-1.224646799147E-16));
#975 = ADVANCED_FACE('',(#976,#1068,#1079),#1090,.F.);
#976 = FACE_BOUND('',#977,.F.);
#977 = EDGE_LOOP('',(#978,#986,#987,#988,#989,#990,#991,#992,#993,#994,
    #995,#996,#997,#998,#999,#1000,#1001,#1002,#1003,#1004,#1012,#1020,
    #1028,#1036,#1045,#1053,#1061));
#978 = ORIENTED_EDGE('',*,*,#979,.F.);
#979 = EDGE_CURVE('',#659,#980,#982,.T.);
#980 = VERTEX_POINT('',#981);
#981 = CARTESIAN_POINT('',(109.64175204628,34.3,-7.269288835951E-15));
#982 = LINE('',#983,#984);
#983 = CARTESIAN_POINT('',(118.97,34.3,-6.126907936134E-15));
#984 = VECTOR('',#985,1.);
#985 = DIRECTION('',(-1.,2.125252449931E-15,-1.224646799147E-16));
#986 = ORIENTED_EDGE('',*,*,#666,.T.);
#987 = ORIENTED_EDGE('',*,*,#716,.T.);
#988 = ORIENTED_EDGE('',*,*,#764,.F.);
#989 = ORIENTED_EDGE('',*,*,#814,.T.);
#990 = ORIENTED_EDGE('',*,*,#862,.F.);
#991 = ORIENTED_EDGE('',*,*,#912,.T.);
#992 = ORIENTED_EDGE('',*,*,#887,.T.);
#993 = ORIENTED_EDGE('',*,*,#838,.F.);
#994 = ORIENTED_EDGE('',*,*,#789,.F.);
#995 = ORIENTED_EDGE('',*,*,#740,.T.);
#996 = ORIENTED_EDGE('',*,*,#691,.T.);
#997 = ORIENTED_EDGE('',*,*,#634,.T.);
#998 = ORIENTED_EDGE('',*,*,#560,.T.);
#999 = ORIENTED_EDGE('',*,*,#499,.T.);
#1000 = ORIENTED_EDGE('',*,*,#440,.T.);
#1001 = ORIENTED_EDGE('',*,*,#366,.F.);
#1002 = ORIENTED_EDGE('',*,*,#316,.F.);
#1003 = ORIENTED_EDGE('',*,*,#294,.T.);
#1004 = ORIENTED_EDGE('',*,*,#1005,.T.);
#1005 = EDGE_CURVE('',#287,#1006,#1008,.T.);
#1006 = VERTEX_POINT('',#1007);
#1007 = CARTESIAN_POINT('',(120.94,30.3,-5.885652516702E-15));
#1008 = LINE('',#1009,#1010);
#1009 = CARTESIAN_POINT('',(169.,30.3,0.));
#1010 = VECTOR('',#1011,1.);
#1011 = DIRECTION('',(-1.,0.,-1.224646799147E-16));
#1012 = ORIENTED_EDGE('',*,*,#1013,.T.);
#1013 = EDGE_CURVE('',#1006,#1014,#1016,.T.);
#1014 = VERTEX_POINT('',#1015);
#1015 = CARTESIAN_POINT('',(120.94,-7.,-5.885652516702E-15));
#1016 = LINE('',#1017,#1018);
#1017 = CARTESIAN_POINT('',(120.94,30.3,-5.885652516702E-15));
#1018 = VECTOR('',#1019,1.);
#1019 = DIRECTION('',(0.,-1.,0.));
#1020 = ORIENTED_EDGE('',*,*,#1021,.T.);
#1021 = EDGE_CURVE('',#1014,#1022,#1024,.T.);
#1022 = VERTEX_POINT('',#1023);
#1023 = CARTESIAN_POINT('',(169.,-7.,0.));
#1024 = LINE('',#1025,#1026);
#1025 = CARTESIAN_POINT('',(120.94,-7.,-5.885652516702E-15));
#1026 = VECTOR('',#1027,1.);
#1027 = DIRECTION('',(1.,0.,1.224646799147E-16));
#1028 = ORIENTED_EDGE('',*,*,#1029,.T.);
#1029 = EDGE_CURVE('',#1022,#1030,#1032,.T.);
#1030 = VERTEX_POINT('',#1031);
#1031 = CARTESIAN_POINT('',(169.,-10.29824795371,5.438524293788E-32));
#1032 = LINE('',#1033,#1034);
#1033 = CARTESIAN_POINT('',(169.,34.3,0.));
#1034 = VECTOR('',#1035,1.);
#1035 = DIRECTION('',(0.,-1.,0.));
#1036 = ORIENTED_EDGE('',*,*,#1037,.T.);
#1037 = EDGE_CURVE('',#1030,#1038,#1040,.T.);
#1038 = VERTEX_POINT('',#1039);
#1039 = CARTESIAN_POINT('',(168.91496730737,-11.,-1.041350148499E-17));
#1040 = ELLIPSE('',#1041,2.432521277053,2.);
#1041 = AXIS2_PLACEMENT_3D('',#1042,#1043,#1044);
#1042 = CARTESIAN_POINT('',(167.,-10.29824795371,-2.449293598295E-16));
#1043 = DIRECTION('',(1.224646799147E-16,0.,-1.));
#1044 = DIRECTION('',(0.,-1.,-0.));
#1045 = ORIENTED_EDGE('',*,*,#1046,.T.);
#1046 = EDGE_CURVE('',#1038,#1047,#1049,.T.);
#1047 = VERTEX_POINT('',#1048);
#1048 = CARTESIAN_POINT('',(108.94,-11.,-7.355228675679E-15));
#1049 = LINE('',#1050,#1051);
#1050 = CARTESIAN_POINT('',(169.,-11.,0.));
#1051 = VECTOR('',#1052,1.);
#1052 = DIRECTION('',(-1.,0.,-1.224646799147E-16));
#1053 = ORIENTED_EDGE('',*,*,#1054,.T.);
#1054 = EDGE_CURVE('',#1047,#1055,#1057,.T.);
#1055 = VERTEX_POINT('',#1056);
#1056 = CARTESIAN_POINT('',(108.94,34.214967307372,1.81799008907E-14));
#1057 = LINE('',#1058,#1059);
#1058 = CARTESIAN_POINT('',(108.94,-11.,-7.355228675679E-15));
#1059 = VECTOR('',#1060,1.);
#1060 = DIRECTION('',(0.,1.,0.));
#1061 = ORIENTED_EDGE('',*,*,#1062,.T.);
#1062 = EDGE_CURVE('',#1055,#980,#1063,.T.);
#1063 = ELLIPSE('',#1064,2.432521277053,2.);
#1064 = AXIS2_PLACEMENT_3D('',#1065,#1066,#1067);
#1065 = CARTESIAN_POINT('',(109.64175204628,32.3,-7.269288835951E-15));
#1066 = DIRECTION('',(1.224646799147E-16,0.,-1.));
#1067 = DIRECTION('',(-1.,2.125252449931E-15,-1.224646799147E-16));
#1068 = FACE_BOUND('',#1069,.F.);
#1069 = EDGE_LOOP('',(#1070));
#1070 = ORIENTED_EDGE('',*,*,#1071,.F.);
#1071 = EDGE_CURVE('',#1072,#1072,#1074,.T.);
#1072 = VERTEX_POINT('',#1073);
#1073 = CARTESIAN_POINT('',(153.22,38.3,-1.932492649055E-15));
#1074 = CIRCLE('',#1075,1.75);
#1075 = AXIS2_PLACEMENT_3D('',#1076,#1077,#1078);
#1076 = CARTESIAN_POINT('',(154.97,38.3,-1.718179459204E-15));
#1077 = DIRECTION('',(1.224646799147E-16,0.,-1.));
#1078 = DIRECTION('',(-1.,0.,-1.224646799147E-16));
#1079 = FACE_BOUND('',#1080,.F.);
#1080 = EDGE_LOOP('',(#1081));
#1081 = ORIENTED_EDGE('',*,*,#1082,.F.);
#1082 = EDGE_CURVE('',#1083,#1083,#1085,.T.);
#1083 = VERTEX_POINT('',#1084);
#1084 = CARTESIAN_POINT('',(121.22,38.3,-5.851362406326E-15));
#1085 = CIRCLE('',#1086,1.75);
#1086 = AXIS2_PLACEMENT_3D('',#1087,#1088,#1089);
#1087 = CARTESIAN_POINT('',(122.97,38.3,-5.637049216475E-15));
#1088 = DIRECTION('',(1.224646799147E-16,0.,-1.));
#1089 = DIRECTION('',(-1.,0.,-1.224646799147E-16));
#1090 = PLANE('',#1091);
#1091 = AXIS2_PLACEMENT_3D('',#1092,#1093,#1094);
#1092 = CARTESIAN_POINT('',(138.97,17.266843310454,-3.67761433784E-15));
#1093 = DIRECTION('',(1.224646799147E-16,0.,-1.));
#1094 = DIRECTION('',(-1.,0.,-1.224646799147E-16));
#1095 = ADVANCED_FACE('',(#1096),#1130,.F.);
#1096 = FACE_BOUND('',#1097,.F.);
#1097 = EDGE_LOOP('',(#1098,#1099,#1108,#1116,#1124));
#1098 = ORIENTED_EDGE('',*,*,#278,.F.);
#1099 = ORIENTED_EDGE('',*,*,#1100,.T.);
#1100 = EDGE_CURVE('',#271,#1101,#1103,.T.);
#1101 = VERTEX_POINT('',#1102);
#1102 = CARTESIAN_POINT('',(169.,-7.,-5.));
#1103 = ( BOUNDED_CURVE() B_SPLINE_CURVE(3,(#1104,#1105,#1106,#1107),
.UNSPECIFIED.,.F.,.F.) B_SPLINE_CURVE_WITH_KNOTS((4,4),(3.48042716949,
3.57337375599),.PIECEWISE_BEZIER_KNOTS.) CURVE() 
GEOMETRIC_REPRESENTATION_ITEM() RATIONAL_B_SPLINE_CURVE((1.,1.,1.,1.)) 
REPRESENTATION_ITEM('') );
#1104 = CARTESIAN_POINT('',(169.,-6.836709492178,-5.));
#1105 = CARTESIAN_POINT('',(169.,-6.891139661452,-5.));
#1106 = CARTESIAN_POINT('',(169.,-6.945569830726,-5.));
#1107 = CARTESIAN_POINT('',(169.,-7.,-5.));
#1108 = ORIENTED_EDGE('',*,*,#1109,.F.);
#1109 = EDGE_CURVE('',#1110,#1101,#1112,.T.);
#1110 = VERTEX_POINT('',#1111);
#1111 = CARTESIAN_POINT('',(130.94,-7.,-5.));
#1112 = LINE('',#1113,#1114);
#1113 = CARTESIAN_POINT('',(120.94,-7.,-5.));
#1114 = VECTOR('',#1115,1.);
#1115 = DIRECTION('',(1.,0.,1.224646799147E-16));
#1116 = ORIENTED_EDGE('',*,*,#1117,.T.);
#1117 = EDGE_CURVE('',#1110,#1118,#1120,.T.);
#1118 = VERTEX_POINT('',#1119);
#1119 = CARTESIAN_POINT('',(130.94,30.299999999972,-5.));
#1120 = LINE('',#1121,#1122);
#1121 = CARTESIAN_POINT('',(130.94,-7.,-5.));
#1122 = VECTOR('',#1123,1.);
#1123 = DIRECTION('',(0.,1.,-0.));
#1124 = ORIENTED_EDGE('',*,*,#1125,.F.);
#1125 = EDGE_CURVE('',#279,#1118,#1126,.T.);
#1126 = LINE('',#1127,#1128);
#1127 = CARTESIAN_POINT('',(169.,30.3,-5.));
#1128 = VECTOR('',#1129,1.);
#1129 = DIRECTION('',(-1.,0.,-1.224646799147E-16));
#1130 = PLANE('',#1131);
#1131 = AXIS2_PLACEMENT_3D('',#1132,#1133,#1134);
#1132 = CARTESIAN_POINT('',(144.97,11.65,-5.));
#1133 = DIRECTION('',(1.224646799147E-16,0.,-1.));
#1134 = DIRECTION('',(-1.,0.,-1.224646799147E-16));
#1135 = ADVANCED_FACE('',(#1136),#1163,.T.);
#1136 = FACE_BOUND('',#1137,.T.);
#1137 = EDGE_LOOP('',(#1138,#1139,#1140,#1148,#1156,#1162));
#1138 = ORIENTED_EDGE('',*,*,#286,.F.);
#1139 = ORIENTED_EDGE('',*,*,#1005,.T.);
#1140 = ORIENTED_EDGE('',*,*,#1141,.T.);
#1141 = EDGE_CURVE('',#1006,#1142,#1144,.T.);
#1142 = VERTEX_POINT('',#1143);
#1143 = CARTESIAN_POINT('',(120.94,30.299999999972,-7.));
#1144 = LINE('',#1145,#1146);
#1145 = CARTESIAN_POINT('',(120.94,30.3,-5.885652516702E-15));
#1146 = VECTOR('',#1147,1.);
#1147 = DIRECTION('',(1.224646799147E-16,0.,-1.));
#1148 = ORIENTED_EDGE('',*,*,#1149,.F.);
#1149 = EDGE_CURVE('',#1150,#1142,#1152,.T.);
#1150 = VERTEX_POINT('',#1151);
#1151 = CARTESIAN_POINT('',(130.94,30.299999999972,-7.));
#1152 = LINE('',#1153,#1154);
#1153 = CARTESIAN_POINT('',(130.94,30.299999999972,-7.));
#1154 = VECTOR('',#1155,1.);
#1155 = DIRECTION('',(-1.,0.,-1.224646799147E-16));
#1156 = ORIENTED_EDGE('',*,*,#1157,.F.);
#1157 = EDGE_CURVE('',#1118,#1150,#1158,.T.);
#1158 = LINE('',#1159,#1160);
#1159 = CARTESIAN_POINT('',(130.94,30.299999999972,-5.));
#1160 = VECTOR('',#1161,1.);
#1161 = DIRECTION('',(1.224646799147E-16,0.,-1.));
#1162 = ORIENTED_EDGE('',*,*,#1125,.F.);
#1163 = PLANE('',#1164);
#1164 = AXIS2_PLACEMENT_3D('',#1165,#1166,#1167);
#1165 = CARTESIAN_POINT('',(144.27875408645,30.299999999996,
    -2.808754086451));
#1166 = DIRECTION('',(1.126589914695E-13,-1.,1.706159387385E-12));
#1167 = DIRECTION('',(-1.224646799147E-16,1.706159387385E-12,1.));
#1168 = ADVANCED_FACE('',(#1169),#1180,.T.);
#1169 = FACE_BOUND('',#1170,.T.);
#1170 = EDGE_LOOP('',(#1171,#1172,#1173,#1179));
#1171 = ORIENTED_EDGE('',*,*,#350,.F.);
#1172 = ORIENTED_EDGE('',*,*,#1100,.T.);
#1173 = ORIENTED_EDGE('',*,*,#1174,.T.);
#1174 = EDGE_CURVE('',#1101,#416,#1175,.T.);
#1175 = ( BOUNDED_CURVE() B_SPLINE_CURVE(2,(#1176,#1177,#1178),
.UNSPECIFIED.,.F.,.F.) B_SPLINE_CURVE_WITH_KNOTS((3,3),(0.,
9.294658650046E-02),.PIECEWISE_BEZIER_KNOTS.) CURVE() 
GEOMETRIC_REPRESENTATION_ITEM() RATIONAL_B_SPLINE_CURVE((1.,
0.730454683827,1.)) REPRESENTATION_ITEM('') );
#1176 = CARTESIAN_POINT('',(169.,-7.,-5.));
#1177 = CARTESIAN_POINT('',(168.87447303759,-8.534,-6.062));
#1178 = CARTESIAN_POINT('',(167.00451126833,-8.534,-6.062));
#1179 = ORIENTED_EDGE('',*,*,#424,.F.);
#1180 = ( BOUNDED_SURFACE() B_SPLINE_SURFACE(2,3,(
    (#1181,#1182,#1183,#1184)
    ,(#1185,#1186,#1187,#1188)
    ,(#1189,#1190,#1191,#1192
)),.UNSPECIFIED.,.F.,.F.,.F.) B_SPLINE_SURFACE_WITH_KNOTS((3,3),(4,4),(
    0.,9.294658650046E-02),(3.48042716949,3.57337375599),
.PIECEWISE_BEZIER_KNOTS.) GEOMETRIC_REPRESENTATION_ITEM() 
RATIONAL_B_SPLINE_SURFACE((
    (1.,1.,1.,1.)
    ,(0.707106781187,0.715017902491,0.722796429804,0.730454683827)
,(1.,1.,1.,1.))) REPRESENTATION_ITEM('') SURFACE() );
#1181 = CARTESIAN_POINT('',(167.,-8.481093875466,-6.138419957661));
#1182 = CARTESIAN_POINT('',(167.,-8.49872925031,-6.11294663844));
#1183 = CARTESIAN_POINT('',(167.00150035653,-8.516364625155,
    -6.08747331922));
#1184 = CARTESIAN_POINT('',(167.00451126833,-8.534,-6.062));
#1185 = CARTESIAN_POINT('',(169.,-8.481093875466,-6.138419957661));
#1186 = CARTESIAN_POINT('',(168.95574308684,-8.498534128497,
    -6.11322848106));
#1187 = CARTESIAN_POINT('',(168.91390728676,-8.516177772848,
    -6.087743216997));
#1188 = CARTESIAN_POINT('',(168.87447303759,-8.534,-6.062));
#1189 = CARTESIAN_POINT('',(169.,-6.836709492178,-5.));
#1190 = CARTESIAN_POINT('',(169.,-6.891139661452,-5.));
#1191 = CARTESIAN_POINT('',(169.,-6.945569830726,-5.));
#1192 = CARTESIAN_POINT('',(169.,-7.,-5.));
#1193 = ADVANCED_FACE('',(#1194),#1212,.F.);
#1194 = FACE_BOUND('',#1195,.F.);
#1195 = EDGE_LOOP('',(#1196,#1197,#1198,#1204,#1205));
#1196 = ORIENTED_EDGE('',*,*,#399,.T.);
#1197 = ORIENTED_EDGE('',*,*,#465,.T.);
#1198 = ORIENTED_EDGE('',*,*,#1199,.F.);
#1199 = EDGE_CURVE('',#1047,#466,#1200,.T.);
#1200 = LINE('',#1201,#1202);
#1201 = CARTESIAN_POINT('',(108.94,-11.,-7.355228675679E-15));
#1202 = VECTOR('',#1203,1.);
#1203 = DIRECTION('',(1.224646799147E-16,0.,-1.));
#1204 = ORIENTED_EDGE('',*,*,#1046,.F.);
#1205 = ORIENTED_EDGE('',*,*,#1206,.T.);
#1206 = EDGE_CURVE('',#1038,#400,#1207,.T.);
#1207 = ELLIPSE('',#1208,3.513641844632,2.);
#1208 = AXIS2_PLACEMENT_3D('',#1209,#1210,#1211);
#1209 = CARTESIAN_POINT('',(167.,-11.,1.013641844632));
#1210 = DIRECTION('',(0.,1.,-0.));
#1211 = DIRECTION('',(-1.224646799147E-16,0.,1.));
#1212 = PLANE('',#1213);
#1213 = AXIS2_PLACEMENT_3D('',#1214,#1215,#1216);
#1214 = CARTESIAN_POINT('',(169.,-11.,0.));
#1215 = DIRECTION('',(0.,1.,0.));
#1216 = DIRECTION('',(-1.,0.,-1.224646799147E-16));
#1217 = ADVANCED_FACE('',(#1218),#1237,.T.);
#1218 = FACE_BOUND('',#1219,.T.);
#1219 = EDGE_LOOP('',(#1220,#1221,#1230,#1236));
#1220 = ORIENTED_EDGE('',*,*,#1174,.F.);
#1221 = ORIENTED_EDGE('',*,*,#1222,.T.);
#1222 = EDGE_CURVE('',#1101,#1223,#1225,.T.);
#1223 = VERTEX_POINT('',#1224);
#1224 = CARTESIAN_POINT('',(169.,-7.,-4.764135933146));
#1225 = ( BOUNDED_CURVE() B_SPLINE_CURVE(3,(#1226,#1227,#1228,#1229),
.UNSPECIFIED.,.F.,.F.) B_SPLINE_CURVE_WITH_KNOTS((4,4),(3.57337375599,
3.767299350047),.PIECEWISE_BEZIER_KNOTS.) CURVE() 
GEOMETRIC_REPRESENTATION_ITEM() RATIONAL_B_SPLINE_CURVE((1.,1.,1.,1.)) 
REPRESENTATION_ITEM('') );
#1226 = CARTESIAN_POINT('',(169.,-7.,-5.));
#1227 = CARTESIAN_POINT('',(169.,-7.,-4.921378644382));
#1228 = CARTESIAN_POINT('',(169.,-7.,-4.842757288764));
#1229 = CARTESIAN_POINT('',(169.,-7.,-4.764135933146));
#1230 = ORIENTED_EDGE('',*,*,#1231,.T.);
#1231 = EDGE_CURVE('',#1223,#408,#1232,.T.);
#1232 = ( BOUNDED_CURVE() B_SPLINE_CURVE(2,(#1233,#1234,#1235),
.UNSPECIFIED.,.F.,.F.) B_SPLINE_CURVE_WITH_KNOTS((3,3),(0.,
0.193925594057),.PIECEWISE_BEZIER_KNOTS.) CURVE() 
GEOMETRIC_REPRESENTATION_ITEM() RATIONAL_B_SPLINE_CURVE((1.,
0.707106781187,1.)) REPRESENTATION_ITEM('') );
#1233 = CARTESIAN_POINT('',(169.,-7.,-4.764135933146));
#1234 = CARTESIAN_POINT('',(169.,-8.644384383288,-5.902555890807));
#1235 = CARTESIAN_POINT('',(167.,-8.644384383288,-5.902555890807));
#1236 = ORIENTED_EDGE('',*,*,#415,.F.);
#1237 = ( BOUNDED_SURFACE() B_SPLINE_SURFACE(2,3,(
    (#1238,#1239,#1240,#1241)
    ,(#1242,#1243,#1244,#1245)
    ,(#1246,#1247,#1248,#1249
)),.UNSPECIFIED.,.F.,.F.,.F.) B_SPLINE_SURFACE_WITH_KNOTS((3,3),(4,4),(
    0.,0.193925594057),(3.57337375599,3.767299350047),
.PIECEWISE_BEZIER_KNOTS.) GEOMETRIC_REPRESENTATION_ITEM() 
RATIONAL_B_SPLINE_SURFACE((
    (1.,1.,1.,1.)
    ,(0.730454683827,0.722796429804,0.715017902491,0.707106781187)
,(1.,1.,1.,1.))) REPRESENTATION_ITEM('') SURFACE() );
#1238 = CARTESIAN_POINT('',(167.00451126838,-8.534,-6.062));
#1239 = CARTESIAN_POINT('',(167.00150035653,-8.570794794429,
    -6.008851963602));
#1240 = CARTESIAN_POINT('',(167.,-8.607589588858,-5.955703927205));
#1241 = CARTESIAN_POINT('',(167.,-8.644384383288,-5.902555890807));
#1242 = CARTESIAN_POINT('',(168.87447303759,-8.534,-6.062));
#1243 = CARTESIAN_POINT('',(168.91390728676,-8.571184646773,
    -6.00828884355));
#1244 = CARTESIAN_POINT('',(168.95574308684,-8.607996694864,
    -5.955115885197));
#1245 = CARTESIAN_POINT('',(169.,-8.644384383288,-5.902555890807));
#1246 = CARTESIAN_POINT('',(169.,-7.,-5.));
#1247 = CARTESIAN_POINT('',(169.,-7.,-4.921378644382));
#1248 = CARTESIAN_POINT('',(169.,-7.,-4.842757288764));
#1249 = CARTESIAN_POINT('',(169.,-7.,-4.764135933146));
#1250 = ADVANCED_FACE('',(#1251),#1263,.T.);
#1251 = FACE_BOUND('',#1252,.F.);
#1252 = EDGE_LOOP('',(#1253,#1254,#1260,#1261,#1262));
#1253 = ORIENTED_EDGE('',*,*,#1037,.F.);
#1254 = ORIENTED_EDGE('',*,*,#1255,.F.);
#1255 = EDGE_CURVE('',#1223,#1030,#1256,.T.);
#1256 = LINE('',#1257,#1258);
#1257 = CARTESIAN_POINT('',(169.,-4.855615616712,-7.861580042339));
#1258 = VECTOR('',#1259,1.);
#1259 = DIRECTION('',(-1.006895035781E-16,-0.56920997883,0.822192191644)
  );
#1260 = ORIENTED_EDGE('',*,*,#1231,.T.);
#1261 = ORIENTED_EDGE('',*,*,#407,.T.);
#1262 = ORIENTED_EDGE('',*,*,#1206,.F.);
#1263 = CYLINDRICAL_SURFACE('',#1264,2.);
#1264 = AXIS2_PLACEMENT_3D('',#1265,#1266,#1267);
#1265 = CARTESIAN_POINT('',(167.,-4.855615616712,-7.861580042339));
#1266 = DIRECTION('',(-1.006895035781E-16,-0.56920997883,0.822192191644)
  );
#1267 = DIRECTION('',(1.,0.,1.224646799147E-16));
#1268 = ADVANCED_FACE('',(#1269),#1282,.F.);
#1269 = FACE_BOUND('',#1270,.F.);
#1270 = EDGE_LOOP('',(#1271,#1272,#1273,#1274,#1281));
#1271 = ORIENTED_EDGE('',*,*,#1199,.T.);
#1272 = ORIENTED_EDGE('',*,*,#484,.T.);
#1273 = ORIENTED_EDGE('',*,*,#545,.T.);
#1274 = ORIENTED_EDGE('',*,*,#1275,.T.);
#1275 = EDGE_CURVE('',#538,#1055,#1276,.T.);
#1276 = ELLIPSE('',#1277,3.513641844632,2.);
#1277 = AXIS2_PLACEMENT_3D('',#1278,#1279,#1280);
#1278 = CARTESIAN_POINT('',(108.94,32.3,1.013641844632));
#1279 = DIRECTION('',(1.,0.,1.224646799147E-16));
#1280 = DIRECTION('',(-1.224646799147E-16,1.471328619183E-15,1.));
#1281 = ORIENTED_EDGE('',*,*,#1054,.F.);
#1282 = PLANE('',#1283);
#1283 = AXIS2_PLACEMENT_3D('',#1284,#1285,#1286);
#1284 = CARTESIAN_POINT('',(108.94,-11.,-7.355228675679E-15));
#1285 = DIRECTION('',(1.,0.,1.224646799147E-16));
#1286 = DIRECTION('',(0.,1.,0.));
#1287 = ADVANCED_FACE('',(#1288),#1300,.T.);
#1288 = FACE_BOUND('',#1289,.F.);
#1289 = EDGE_LOOP('',(#1290,#1291,#1292,#1293,#1299));
#1290 = ORIENTED_EDGE('',*,*,#1275,.F.);
#1291 = ORIENTED_EDGE('',*,*,#537,.F.);
#1292 = ORIENTED_EDGE('',*,*,#599,.T.);
#1293 = ORIENTED_EDGE('',*,*,#1294,.T.);
#1294 = EDGE_CURVE('',#587,#980,#1295,.T.);
#1295 = LINE('',#1296,#1297);
#1296 = CARTESIAN_POINT('',(115.08438438328,34.3,-7.861580042339));
#1297 = VECTOR('',#1298,1.);
#1298 = DIRECTION('',(-0.56920997883,1.209714902034E-15,0.822192191644)
  );
#1299 = ORIENTED_EDGE('',*,*,#1062,.F.);
#1300 = CYLINDRICAL_SURFACE('',#1301,2.);
#1301 = AXIS2_PLACEMENT_3D('',#1302,#1303,#1304);
#1302 = CARTESIAN_POINT('',(115.08438438328,32.3,-7.861580042339));
#1303 = DIRECTION('',(-0.56920997883,1.209714902034E-15,0.822192191644)
  );
#1304 = DIRECTION('',(-0.822192191644,-7.076311083755E-17,-0.56920997883
    ));
#1305 = ADVANCED_FACE('',(#1306),#1311,.T.);
#1306 = FACE_BOUND('',#1307,.T.);
#1307 = EDGE_LOOP('',(#1308,#1309,#1310));
#1308 = ORIENTED_EDGE('',*,*,#979,.F.);
#1309 = ORIENTED_EDGE('',*,*,#658,.T.);
#1310 = ORIENTED_EDGE('',*,*,#1294,.T.);
#1311 = PLANE('',#1312);
#1312 = AXIS2_PLACEMENT_3D('',#1313,#1314,#1315);
#1313 = CARTESIAN_POINT('',(118.97,34.3,-6.126907936134E-15));
#1314 = DIRECTION('',(2.125252449931E-15,1.,2.602683610187E-31));
#1315 = DIRECTION('',(-1.,2.125252449931E-15,-1.224646799147E-16));
#1316 = ADVANCED_FACE('',(#1317),#1336,.F.);
#1317 = FACE_BOUND('',#1318,.T.);
#1318 = EDGE_LOOP('',(#1319,#1327,#1328,#1329));
#1319 = ORIENTED_EDGE('',*,*,#1320,.F.);
#1320 = EDGE_CURVE('',#930,#1321,#1323,.T.);
#1321 = VERTEX_POINT('',#1322);
#1322 = CARTESIAN_POINT('',(152.97,38.3,-5.5));
#1323 = LINE('',#1324,#1325);
#1324 = CARTESIAN_POINT('',(151.97,38.3,-6.5));
#1325 = VECTOR('',#1326,1.);
#1326 = DIRECTION('',(0.707106781187,0.,0.707106781187));
#1327 = ORIENTED_EDGE('',*,*,#937,.T.);
#1328 = ORIENTED_EDGE('',*,*,#1320,.T.);
#1329 = ORIENTED_EDGE('',*,*,#1330,.F.);
#1330 = EDGE_CURVE('',#1321,#1321,#1331,.T.);
#1331 = CIRCLE('',#1332,2.);
#1332 = AXIS2_PLACEMENT_3D('',#1333,#1334,#1335);
#1333 = CARTESIAN_POINT('',(154.97,38.3,-5.5));
#1334 = DIRECTION('',(1.224646799147E-16,0.,-1.));
#1335 = DIRECTION('',(-1.,0.,-1.224646799147E-16));
#1336 = CONICAL_SURFACE('',#1337,3.,0.785398163397);
#1337 = AXIS2_PLACEMENT_3D('',#1338,#1339,#1340);
#1338 = CARTESIAN_POINT('',(154.97,38.3,-6.5));
#1339 = DIRECTION('',(1.224646799147E-16,0.,-1.));
#1340 = DIRECTION('',(-1.,0.,-1.224646799147E-16));
#1341 = ADVANCED_FACE('',(#1342),#1361,.F.);
#1342 = FACE_BOUND('',#1343,.T.);
#1343 = EDGE_LOOP('',(#1344,#1352,#1353,#1354));
#1344 = ORIENTED_EDGE('',*,*,#1345,.F.);
#1345 = EDGE_CURVE('',#955,#1346,#1348,.T.);
#1346 = VERTEX_POINT('',#1347);
#1347 = CARTESIAN_POINT('',(120.97,38.3,-5.5));
#1348 = LINE('',#1349,#1350);
#1349 = CARTESIAN_POINT('',(119.97,38.3,-6.5));
#1350 = VECTOR('',#1351,1.);
#1351 = DIRECTION('',(0.707106781187,0.,0.707106781187));
#1352 = ORIENTED_EDGE('',*,*,#962,.T.);
#1353 = ORIENTED_EDGE('',*,*,#1345,.T.);
#1354 = ORIENTED_EDGE('',*,*,#1355,.F.);
#1355 = EDGE_CURVE('',#1346,#1346,#1356,.T.);
#1356 = CIRCLE('',#1357,2.);
#1357 = AXIS2_PLACEMENT_3D('',#1358,#1359,#1360);
#1358 = CARTESIAN_POINT('',(122.97,38.3,-5.5));
#1359 = DIRECTION('',(1.224646799147E-16,0.,-1.));
#1360 = DIRECTION('',(-1.,0.,-1.224646799147E-16));
#1361 = CONICAL_SURFACE('',#1362,3.,0.785398163397);
#1362 = AXIS2_PLACEMENT_3D('',#1363,#1364,#1365);
#1363 = CARTESIAN_POINT('',(122.97,38.3,-6.5));
#1364 = DIRECTION('',(1.224646799147E-16,0.,-1.));
#1365 = DIRECTION('',(-1.,0.,-1.224646799147E-16));
#1366 = ADVANCED_FACE('',(#1367),#1377,.F.);
#1367 = FACE_BOUND('',#1368,.F.);
#1368 = EDGE_LOOP('',(#1369,#1370,#1376));
#1369 = ORIENTED_EDGE('',*,*,#1029,.F.);
#1370 = ORIENTED_EDGE('',*,*,#1371,.T.);
#1371 = EDGE_CURVE('',#1022,#1223,#1372,.T.);
#1372 = LINE('',#1373,#1374);
#1373 = CARTESIAN_POINT('',(169.,-7.,0.));
#1374 = VECTOR('',#1375,1.);
#1375 = DIRECTION('',(1.224646799147E-16,0.,-1.));
#1376 = ORIENTED_EDGE('',*,*,#1255,.T.);
#1377 = PLANE('',#1378);
#1378 = AXIS2_PLACEMENT_3D('',#1379,#1380,#1381);
#1379 = CARTESIAN_POINT('',(169.,34.3,0.));
#1380 = DIRECTION('',(-1.,0.,-1.224646799147E-16));
#1381 = DIRECTION('',(0.,-1.,0.));
#1382 = ADVANCED_FACE('',(#1383),#1411,.T.);
#1383 = FACE_BOUND('',#1384,.T.);
#1384 = EDGE_LOOP('',(#1385,#1386,#1387,#1388,#1396,#1404,#1410));
#1385 = ORIENTED_EDGE('',*,*,#1371,.T.);
#1386 = ORIENTED_EDGE('',*,*,#1222,.F.);
#1387 = ORIENTED_EDGE('',*,*,#1109,.F.);
#1388 = ORIENTED_EDGE('',*,*,#1389,.T.);
#1389 = EDGE_CURVE('',#1110,#1390,#1392,.T.);
#1390 = VERTEX_POINT('',#1391);
#1391 = CARTESIAN_POINT('',(130.94,-7.,-7.));
#1392 = LINE('',#1393,#1394);
#1393 = CARTESIAN_POINT('',(130.94,-7.,-5.));
#1394 = VECTOR('',#1395,1.);
#1395 = DIRECTION('',(1.224646799147E-16,0.,-1.));
#1396 = ORIENTED_EDGE('',*,*,#1397,.F.);
#1397 = EDGE_CURVE('',#1398,#1390,#1400,.T.);
#1398 = VERTEX_POINT('',#1399);
#1399 = CARTESIAN_POINT('',(120.94,-7.,-7.));
#1400 = LINE('',#1401,#1402);
#1401 = CARTESIAN_POINT('',(120.94,-7.,-7.));
#1402 = VECTOR('',#1403,1.);
#1403 = DIRECTION('',(1.,0.,1.224646799147E-16));
#1404 = ORIENTED_EDGE('',*,*,#1405,.F.);
#1405 = EDGE_CURVE('',#1014,#1398,#1406,.T.);
#1406 = LINE('',#1407,#1408);
#1407 = CARTESIAN_POINT('',(120.94,-7.,-5.));
#1408 = VECTOR('',#1409,1.);
#1409 = DIRECTION('',(1.224646799147E-16,0.,-1.));
#1410 = ORIENTED_EDGE('',*,*,#1021,.T.);
#1411 = PLANE('',#1412);
#1412 = AXIS2_PLACEMENT_3D('',#1413,#1414,#1415);
#1413 = CARTESIAN_POINT('',(144.27875408645,-7.,-2.808754086451));
#1414 = DIRECTION('',(0.,1.,0.));
#1415 = DIRECTION('',(1.224646799147E-16,0.,-1.));
#1416 = ADVANCED_FACE('',(#1417),#1428,.T.);
#1417 = FACE_BOUND('',#1418,.T.);
#1418 = EDGE_LOOP('',(#1419,#1420,#1421,#1422));
#1419 = ORIENTED_EDGE('',*,*,#1141,.F.);
#1420 = ORIENTED_EDGE('',*,*,#1013,.T.);
#1421 = ORIENTED_EDGE('',*,*,#1405,.T.);
#1422 = ORIENTED_EDGE('',*,*,#1423,.F.);
#1423 = EDGE_CURVE('',#1142,#1398,#1424,.T.);
#1424 = LINE('',#1425,#1426);
#1425 = CARTESIAN_POINT('',(120.94,30.299999999972,-7.));
#1426 = VECTOR('',#1427,1.);
#1427 = DIRECTION('',(0.,-1.,0.));
#1428 = PLANE('',#1429);
#1429 = AXIS2_PLACEMENT_3D('',#1430,#1431,#1432);
#1430 = CARTESIAN_POINT('',(120.94,11.649999999994,-3.499999999999));
#1431 = DIRECTION('',(1.,0.,1.224646799147E-16));
#1432 = DIRECTION('',(-1.224646799147E-16,0.,1.));
#1433 = ADVANCED_FACE('',(#1434),#1453,.F.);
#1434 = FACE_BOUND('',#1435,.T.);
#1435 = EDGE_LOOP('',(#1436,#1437,#1445,#1452));
#1436 = ORIENTED_EDGE('',*,*,#1071,.F.);
#1437 = ORIENTED_EDGE('',*,*,#1438,.T.);
#1438 = EDGE_CURVE('',#1072,#1439,#1441,.T.);
#1439 = VERTEX_POINT('',#1440);
#1440 = CARTESIAN_POINT('',(153.22,38.3,-5.5));
#1441 = LINE('',#1442,#1443);
#1442 = CARTESIAN_POINT('',(153.22,38.3,-1.932492649055E-15));
#1443 = VECTOR('',#1444,1.);
#1444 = DIRECTION('',(1.224646799147E-16,0.,-1.));
#1445 = ORIENTED_EDGE('',*,*,#1446,.F.);
#1446 = EDGE_CURVE('',#1439,#1439,#1447,.T.);
#1447 = CIRCLE('',#1448,1.75);
#1448 = AXIS2_PLACEMENT_3D('',#1449,#1450,#1451);
#1449 = CARTESIAN_POINT('',(154.97,38.3,-5.5));
#1450 = DIRECTION('',(-1.224646799147E-16,0.,1.));
#1451 = DIRECTION('',(-1.,0.,-1.224646799147E-16));
#1452 = ORIENTED_EDGE('',*,*,#1438,.F.);
#1453 = CYLINDRICAL_SURFACE('',#1454,1.75);
#1454 = AXIS2_PLACEMENT_3D('',#1455,#1456,#1457);
#1455 = CARTESIAN_POINT('',(154.97,38.3,-1.718179459204E-15));
#1456 = DIRECTION('',(-1.224646799147E-16,0.,1.));
#1457 = DIRECTION('',(-1.,0.,-1.224646799147E-16));
#1458 = ADVANCED_FACE('',(#1459),#1478,.F.);
#1459 = FACE_BOUND('',#1460,.T.);
#1460 = EDGE_LOOP('',(#1461,#1462,#1470,#1477));
#1461 = ORIENTED_EDGE('',*,*,#1082,.F.);
#1462 = ORIENTED_EDGE('',*,*,#1463,.T.);
#1463 = EDGE_CURVE('',#1083,#1464,#1466,.T.);
#1464 = VERTEX_POINT('',#1465);
#1465 = CARTESIAN_POINT('',(121.22,38.3,-5.5));
#1466 = LINE('',#1467,#1468);
#1467 = CARTESIAN_POINT('',(121.22,38.3,-5.851362406326E-15));
#1468 = VECTOR('',#1469,1.);
#1469 = DIRECTION('',(1.224646799147E-16,0.,-1.));
#1470 = ORIENTED_EDGE('',*,*,#1471,.F.);
#1471 = EDGE_CURVE('',#1464,#1464,#1472,.T.);
#1472 = CIRCLE('',#1473,1.75);
#1473 = AXIS2_PLACEMENT_3D('',#1474,#1475,#1476);
#1474 = CARTESIAN_POINT('',(122.97,38.3,-5.5));
#1475 = DIRECTION('',(-1.224646799147E-16,0.,1.));
#1476 = DIRECTION('',(-1.,0.,-1.224646799147E-16));
#1477 = ORIENTED_EDGE('',*,*,#1463,.F.);
#1478 = CYLINDRICAL_SURFACE('',#1479,1.75);
#1479 = AXIS2_PLACEMENT_3D('',#1480,#1481,#1482);
#1480 = CARTESIAN_POINT('',(122.97,38.3,-5.637049216475E-15));
#1481 = DIRECTION('',(-1.224646799147E-16,0.,1.));
#1482 = DIRECTION('',(-1.,0.,-1.224646799147E-16));
#1483 = ADVANCED_FACE('',(#1484),#1495,.F.);
#1484 = FACE_BOUND('',#1485,.F.);
#1485 = EDGE_LOOP('',(#1486,#1487,#1493,#1494));
#1486 = ORIENTED_EDGE('',*,*,#1389,.T.);
#1487 = ORIENTED_EDGE('',*,*,#1488,.T.);
#1488 = EDGE_CURVE('',#1390,#1150,#1489,.T.);
#1489 = LINE('',#1490,#1491);
#1490 = CARTESIAN_POINT('',(130.94,-7.,-7.));
#1491 = VECTOR('',#1492,1.);
#1492 = DIRECTION('',(0.,1.,-0.));
#1493 = ORIENTED_EDGE('',*,*,#1157,.F.);
#1494 = ORIENTED_EDGE('',*,*,#1117,.F.);
#1495 = PLANE('',#1496);
#1496 = AXIS2_PLACEMENT_3D('',#1497,#1498,#1499);
#1497 = CARTESIAN_POINT('',(130.94,-7.,-5.));
#1498 = DIRECTION('',(1.,0.,1.224646799147E-16));
#1499 = DIRECTION('',(0.,1.,0.));
#1500 = ADVANCED_FACE('',(#1501),#1507,.F.);
#1501 = FACE_BOUND('',#1502,.T.);
#1502 = EDGE_LOOP('',(#1503,#1504,#1505,#1506));
#1503 = ORIENTED_EDGE('',*,*,#1488,.T.);
#1504 = ORIENTED_EDGE('',*,*,#1149,.T.);
#1505 = ORIENTED_EDGE('',*,*,#1423,.T.);
#1506 = ORIENTED_EDGE('',*,*,#1397,.T.);
#1507 = PLANE('',#1508);
#1508 = AXIS2_PLACEMENT_3D('',#1509,#1510,#1511);
#1509 = CARTESIAN_POINT('',(125.94,11.649999999986,-7.));
#1510 = DIRECTION('',(1.224646799147E-16,0.,-1.));
#1511 = DIRECTION('',(-1.,0.,-1.224646799147E-16));
#1512 = ADVANCED_FACE('',(#1513,#1516),#1519,.T.);
#1513 = FACE_BOUND('',#1514,.T.);
#1514 = EDGE_LOOP('',(#1515));
#1515 = ORIENTED_EDGE('',*,*,#1330,.T.);
#1516 = FACE_BOUND('',#1517,.T.);
#1517 = EDGE_LOOP('',(#1518));
#1518 = ORIENTED_EDGE('',*,*,#1446,.T.);
#1519 = PLANE('',#1520);
#1520 = AXIS2_PLACEMENT_3D('',#1521,#1522,#1523);
#1521 = CARTESIAN_POINT('',(138.97,38.3,-5.5));
#1522 = DIRECTION('',(1.224646799147E-16,0.,-1.));
#1523 = DIRECTION('',(-1.,0.,-1.224646799147E-16));
#1524 = ADVANCED_FACE('',(#1525,#1528),#1531,.T.);
#1525 = FACE_BOUND('',#1526,.T.);
#1526 = EDGE_LOOP('',(#1527));
#1527 = ORIENTED_EDGE('',*,*,#1355,.T.);
#1528 = FACE_BOUND('',#1529,.T.);
#1529 = EDGE_LOOP('',(#1530));
#1530 = ORIENTED_EDGE('',*,*,#1471,.T.);
#1531 = PLANE('',#1532);
#1532 = AXIS2_PLACEMENT_3D('',#1533,#1534,#1535);
#1533 = CARTESIAN_POINT('',(138.97,38.3,-5.5));
#1534 = DIRECTION('',(1.224646799147E-16,0.,-1.));
#1535 = DIRECTION('',(-1.,0.,-1.224646799147E-16));
#1536 = ( GEOMETRIC_REPRESENTATION_CONTEXT(3) 
GLOBAL_UNCERTAINTY_ASSIGNED_CONTEXT((#1540)) 
GLOBAL_UNIT_ASSIGNED_CONTEXT((#1537,#1538,#1539)) REPRESENTATION_CONTEXT
('Context #1','3D Context with UNIT and UNCERTAINTY') );
#1537 = ( LENGTH_UNIT() NAMED_UNIT(*) SI_UNIT(.MILLI.,.METRE.) );
#1538 = ( NAMED_UNIT(*) PLANE_ANGLE_UNIT() SI_UNIT($,.RADIAN.) );
#1539 = ( NAMED_UNIT(*) SI_UNIT($,.STERADIAN.) SOLID_ANGLE_UNIT() );
#1540 = UNCERTAINTY_MEASURE_WITH_UNIT(LENGTH_MEASURE(1.E-05),#1537,
  'distance_accuracy_value','confusion accuracy');
#1541 = PRODUCT_RELATED_PRODUCT_CATEGORY('part',$,(#7));
#1542 = MECHANICAL_DESIGN_GEOMETRIC_PRESENTATION_REPRESENTATION('',(
    #1543),#1536);
#1543 = STYLED_ITEM('color',(#1544),#15);
#1544 = PRESENTATION_STYLE_ASSIGNMENT((#1545,#1551));
#1545 = SURFACE_STYLE_USAGE(.BOTH.,#1546);
#1546 = SURFACE_SIDE_STYLE('',(#1547));
#1547 = SURFACE_STYLE_FILL_AREA(#1548);
#1548 = FILL_AREA_STYLE('',(#1549));
#1549 = FILL_AREA_STYLE_COLOUR('',#1550);
#1550 = COLOUR_RGB('',0.447058818107,0.474509808674,0.501960817233);
#1551 = CURVE_STYLE('',#1552,POSITIVE_LENGTH_MEASURE(0.1),#1553);
#1552 = DRAUGHTING_PRE_DEFINED_CURVE_FONT('continuous');
#1553 = COLOUR_RGB('',9.803921802644E-02,9.803921802644E-02,
  9.803921802644E-02);
ENDSEC;
END-ISO-10303-21;
