ISO-10303-21;
HEADER;
FILE_DESCRIPTION(('FreeCAD Model'),'2;1');
FILE_NAME('Open CASCADE Shape Model','2025-02-12T21:38:30',('Author'),(
    ''),'Open CASCADE STEP processor 7.8','FreeCAD','Unknown');
FILE_SCHEMA(('AUTOMOTIVE_DESIGN { 1 0 10303 214 1 1 1 1 }'));
ENDSEC;
DATA;
#1 = APPLICATION_PROTOCOL_DEFINITION('international standard',
  'automotive_design',2000,#2);
#2 = APPLICATION_CONTEXT(
  'core data for automotive mechanical design processes');
#3 = SHAPE_DEFINITION_REPRESENTATION(#4,#10);
#4 = PRODUCT_DEFINITION_SHAPE('','',#5);
#5 = PRODUCT_DEFINITION('design','',#6,#9);
#6 = PRODUCT_DEFINITION_FORMATION('','',#7);
#7 = PRODUCT('SD holder','SD holder','',(#8));
#8 = PRODUCT_CONTEXT('',#2,'mechanical');
#9 = PRODUCT_DEFINITION_CONTEXT('part definition',#2,'design');
#10 = ADVANCED_BREP_SHAPE_REPRESENTATION('',(#11,#15),#1836);
#11 = AXIS2_PLACEMENT_3D('',#12,#13,#14);
#12 = CARTESIAN_POINT('',(0.,0.,0.));
#13 = DIRECTION('',(0.,0.,1.));
#14 = DIRECTION('',(1.,0.,-0.));
#15 = MANIFOLD_SOLID_BREP('',#16);
#16 = CLOSED_SHELL('',(#17,#68,#285,#310,#335,#536,#561,#578,#679,#704,
    #767,#784,#801,#818,#835,#852,#880,#897,#914,#931,#959,#976,#993,
    #1021,#1038,#1055,#1083,#1100,#1117,#1179,#1196,#1255,#1288,#1317,
    #1343,#1365,#1382,#1399,#1416,#1433,#1445,#1477,#1501,#1525,#1557,
    #1574,#1599,#1616,#1641,#1672,#1696,#1720,#1744,#1768,#1785,#1802,
    #1819));
#17 = ADVANCED_FACE('',(#18,#52),#63,.F.);
#18 = FACE_BOUND('',#19,.F.);
#19 = EDGE_LOOP('',(#20,#30,#38,#46));
#20 = ORIENTED_EDGE('',*,*,#21,.F.);
#21 = EDGE_CURVE('',#22,#24,#26,.T.);
#22 = VERTEX_POINT('',#23);
#23 = CARTESIAN_POINT('',(34.5,4.,0.));
#24 = VERTEX_POINT('',#25);
#25 = CARTESIAN_POINT('',(29.,4.,0.));
#26 = LINE('',#27,#28);
#27 = CARTESIAN_POINT('',(35.,4.,0.));
#28 = VECTOR('',#29,1.);
#29 = DIRECTION('',(-1.,0.,0.));
#30 = ORIENTED_EDGE('',*,*,#31,.T.);
#31 = EDGE_CURVE('',#22,#32,#34,.T.);
#32 = VERTEX_POINT('',#33);
#33 = CARTESIAN_POINT('',(34.5,4.,7.2));
#34 = LINE('',#35,#36);
#35 = CARTESIAN_POINT('',(34.5,4.,0.));
#36 = VECTOR('',#37,1.);
#37 = DIRECTION('',(0.,0.,1.));
#38 = ORIENTED_EDGE('',*,*,#39,.T.);
#39 = EDGE_CURVE('',#32,#40,#42,.T.);
#40 = VERTEX_POINT('',#41);
#41 = CARTESIAN_POINT('',(29.,4.,7.2));
#42 = LINE('',#43,#44);
#43 = CARTESIAN_POINT('',(35.,4.,7.2));
#44 = VECTOR('',#45,1.);
#45 = DIRECTION('',(-1.,0.,0.));
#46 = ORIENTED_EDGE('',*,*,#47,.F.);
#47 = EDGE_CURVE('',#24,#40,#48,.T.);
#48 = LINE('',#49,#50);
#49 = CARTESIAN_POINT('',(29.,4.,0.));
#50 = VECTOR('',#51,1.);
#51 = DIRECTION('',(0.,0.,1.));
#52 = FACE_BOUND('',#53,.F.);
#53 = EDGE_LOOP('',(#54));
#54 = ORIENTED_EDGE('',*,*,#55,.T.);
#55 = EDGE_CURVE('',#56,#56,#58,.T.);
#56 = VERTEX_POINT('',#57);
#57 = CARTESIAN_POINT('',(30.,4.,3.6));
#58 = CIRCLE('',#59,1.75);
#59 = AXIS2_PLACEMENT_3D('',#60,#61,#62);
#60 = CARTESIAN_POINT('',(31.75,4.,3.6));
#61 = DIRECTION('',(0.,1.,-2.22044604925E-16));
#62 = DIRECTION('',(-1.,0.,0.));
#63 = PLANE('',#64);
#64 = AXIS2_PLACEMENT_3D('',#65,#66,#67);
#65 = CARTESIAN_POINT('',(35.,4.,0.));
#66 = DIRECTION('',(0.,-1.,0.));
#67 = DIRECTION('',(-1.,0.,0.));
#68 = ADVANCED_FACE('',(#69),#280,.F.);
#69 = FACE_BOUND('',#70,.F.);
#70 = EDGE_LOOP('',(#71,#81,#88,#89,#98,#106,#115,#123,#132,#140,#149,
    #157,#166,#174,#182,#191,#199,#207,#216,#224,#232,#240,#249,#257,
    #265,#274));
#71 = ORIENTED_EDGE('',*,*,#72,.T.);
#72 = EDGE_CURVE('',#73,#75,#77,.T.);
#73 = VERTEX_POINT('',#74);
#74 = CARTESIAN_POINT('',(35.,-2.,0.));
#75 = VERTEX_POINT('',#76);
#76 = CARTESIAN_POINT('',(35.,3.5,0.));
#77 = LINE('',#78,#79);
#78 = CARTESIAN_POINT('',(35.,5.048709793414E-29,0.));
#79 = VECTOR('',#80,1.);
#80 = DIRECTION('',(0.,1.,0.));
#81 = ORIENTED_EDGE('',*,*,#82,.F.);
#82 = EDGE_CURVE('',#22,#75,#83,.T.);
#83 = CIRCLE('',#84,0.5);
#84 = AXIS2_PLACEMENT_3D('',#85,#86,#87);
#85 = CARTESIAN_POINT('',(34.5,3.5,0.));
#86 = DIRECTION('',(-0.,-0.,-1.));
#87 = DIRECTION('',(0.,-1.,0.));
#88 = ORIENTED_EDGE('',*,*,#21,.T.);
#89 = ORIENTED_EDGE('',*,*,#90,.T.);
#90 = EDGE_CURVE('',#24,#91,#93,.T.);
#91 = VERTEX_POINT('',#92);
#92 = CARTESIAN_POINT('',(28.5,3.5,0.));
#93 = CIRCLE('',#94,0.5);
#94 = AXIS2_PLACEMENT_3D('',#95,#96,#97);
#95 = CARTESIAN_POINT('',(29.,3.5,0.));
#96 = DIRECTION('',(-0.,0.,1.));
#97 = DIRECTION('',(0.,-1.,0.));
#98 = ORIENTED_EDGE('',*,*,#99,.T.);
#99 = EDGE_CURVE('',#91,#100,#102,.T.);
#100 = VERTEX_POINT('',#101);
#101 = CARTESIAN_POINT('',(28.5,0.5,0.));
#102 = LINE('',#103,#104);
#103 = CARTESIAN_POINT('',(28.5,4.,0.));
#104 = VECTOR('',#105,1.);
#105 = DIRECTION('',(0.,-1.,0.));
#106 = ORIENTED_EDGE('',*,*,#107,.T.);
#107 = EDGE_CURVE('',#100,#108,#110,.T.);
#108 = VERTEX_POINT('',#109);
#109 = CARTESIAN_POINT('',(28.,-1.110223024625E-16,0.));
#110 = CIRCLE('',#111,0.5);
#111 = AXIS2_PLACEMENT_3D('',#112,#113,#114);
#112 = CARTESIAN_POINT('',(28.,0.5,0.));
#113 = DIRECTION('',(-0.,-0.,-1.));
#114 = DIRECTION('',(0.,-1.,0.));
#115 = ORIENTED_EDGE('',*,*,#116,.F.);
#116 = EDGE_CURVE('',#117,#108,#119,.T.);
#117 = VERTEX_POINT('',#118);
#118 = CARTESIAN_POINT('',(7.,-1.110223024625E-16,0.));
#119 = LINE('',#120,#121);
#120 = CARTESIAN_POINT('',(6.5,0.,0.));
#121 = VECTOR('',#122,1.);
#122 = DIRECTION('',(1.,0.,0.));
#123 = ORIENTED_EDGE('',*,*,#124,.T.);
#124 = EDGE_CURVE('',#117,#125,#127,.T.);
#125 = VERTEX_POINT('',#126);
#126 = CARTESIAN_POINT('',(6.5,0.5,0.));
#127 = CIRCLE('',#128,0.5);
#128 = AXIS2_PLACEMENT_3D('',#129,#130,#131);
#129 = CARTESIAN_POINT('',(7.,0.5,0.));
#130 = DIRECTION('',(-0.,-0.,-1.));
#131 = DIRECTION('',(0.,-1.,0.));
#132 = ORIENTED_EDGE('',*,*,#133,.F.);
#133 = EDGE_CURVE('',#134,#125,#136,.T.);
#134 = VERTEX_POINT('',#135);
#135 = CARTESIAN_POINT('',(6.5,3.5,0.));
#136 = LINE('',#137,#138);
#137 = CARTESIAN_POINT('',(6.5,4.,0.));
#138 = VECTOR('',#139,1.);
#139 = DIRECTION('',(0.,-1.,0.));
#140 = ORIENTED_EDGE('',*,*,#141,.T.);
#141 = EDGE_CURVE('',#134,#142,#144,.T.);
#142 = VERTEX_POINT('',#143);
#143 = CARTESIAN_POINT('',(6.,4.,0.));
#144 = CIRCLE('',#145,0.5);
#145 = AXIS2_PLACEMENT_3D('',#146,#147,#148);
#146 = CARTESIAN_POINT('',(6.,3.5,0.));
#147 = DIRECTION('',(-0.,0.,1.));
#148 = DIRECTION('',(0.,-1.,0.));
#149 = ORIENTED_EDGE('',*,*,#150,.F.);
#150 = EDGE_CURVE('',#151,#142,#153,.T.);
#151 = VERTEX_POINT('',#152);
#152 = CARTESIAN_POINT('',(0.5,4.,0.));
#153 = LINE('',#154,#155);
#154 = CARTESIAN_POINT('',(0.,4.,0.));
#155 = VECTOR('',#156,1.);
#156 = DIRECTION('',(1.,0.,0.));
#157 = ORIENTED_EDGE('',*,*,#158,.T.);
#158 = EDGE_CURVE('',#151,#159,#161,.T.);
#159 = VERTEX_POINT('',#160);
#160 = CARTESIAN_POINT('',(-1.110223024625E-16,3.5,0.));
#161 = CIRCLE('',#162,0.5);
#162 = AXIS2_PLACEMENT_3D('',#163,#164,#165);
#163 = CARTESIAN_POINT('',(0.5,3.5,0.));
#164 = DIRECTION('',(-0.,0.,1.));
#165 = DIRECTION('',(0.,-1.,0.));
#166 = ORIENTED_EDGE('',*,*,#167,.T.);
#167 = EDGE_CURVE('',#159,#168,#170,.T.);
#168 = VERTEX_POINT('',#169);
#169 = CARTESIAN_POINT('',(0.,-2.,0.));
#170 = LINE('',#171,#172);
#171 = CARTESIAN_POINT('',(0.,5.048709793414E-29,0.));
#172 = VECTOR('',#173,1.);
#173 = DIRECTION('',(0.,-1.,0.));
#174 = ORIENTED_EDGE('',*,*,#175,.T.);
#175 = EDGE_CURVE('',#168,#176,#178,.T.);
#176 = VERTEX_POINT('',#177);
#177 = CARTESIAN_POINT('',(16.65,-2.,0.));
#178 = LINE('',#179,#180);
#179 = CARTESIAN_POINT('',(0.,-2.,0.));
#180 = VECTOR('',#181,1.);
#181 = DIRECTION('',(1.,0.,0.));
#182 = ORIENTED_EDGE('',*,*,#183,.T.);
#183 = EDGE_CURVE('',#176,#184,#186,.T.);
#184 = VERTEX_POINT('',#185);
#185 = CARTESIAN_POINT('',(17.15,-2.5,0.));
#186 = CIRCLE('',#187,0.5);
#187 = AXIS2_PLACEMENT_3D('',#188,#189,#190);
#188 = CARTESIAN_POINT('',(16.65,-2.5,0.));
#189 = DIRECTION('',(-0.,-0.,-1.));
#190 = DIRECTION('',(0.,-1.,0.));
#191 = ORIENTED_EDGE('',*,*,#192,.T.);
#192 = EDGE_CURVE('',#184,#193,#195,.T.);
#193 = VERTEX_POINT('',#194);
#194 = CARTESIAN_POINT('',(17.15,-8.,0.));
#195 = LINE('',#196,#197);
#196 = CARTESIAN_POINT('',(17.15,-2.,0.));
#197 = VECTOR('',#198,1.);
#198 = DIRECTION('',(0.,-1.,0.));
#199 = ORIENTED_EDGE('',*,*,#200,.T.);
#200 = EDGE_CURVE('',#193,#201,#203,.T.);
#201 = VERTEX_POINT('',#202);
#202 = CARTESIAN_POINT('',(18.65,-8.,0.));
#203 = LINE('',#204,#205);
#204 = CARTESIAN_POINT('',(17.15,-8.,0.));
#205 = VECTOR('',#206,1.);
#206 = DIRECTION('',(1.,0.,0.));
#207 = ORIENTED_EDGE('',*,*,#208,.T.);
#208 = EDGE_CURVE('',#201,#209,#211,.T.);
#209 = VERTEX_POINT('',#210);
#210 = CARTESIAN_POINT('',(19.15,-7.5,0.));
#211 = CIRCLE('',#212,0.5);
#212 = AXIS2_PLACEMENT_3D('',#213,#214,#215);
#213 = CARTESIAN_POINT('',(18.65,-7.5,0.));
#214 = DIRECTION('',(-0.,0.,1.));
#215 = DIRECTION('',(0.,-1.,0.));
#216 = ORIENTED_EDGE('',*,*,#217,.T.);
#217 = EDGE_CURVE('',#209,#218,#220,.T.);
#218 = VERTEX_POINT('',#219);
#219 = CARTESIAN_POINT('',(19.15,-2.,0.));
#220 = LINE('',#221,#222);
#221 = CARTESIAN_POINT('',(19.15,-8.,0.));
#222 = VECTOR('',#223,1.);
#223 = DIRECTION('',(0.,1.,0.));
#224 = ORIENTED_EDGE('',*,*,#225,.T.);
#225 = EDGE_CURVE('',#218,#226,#228,.T.);
#226 = VERTEX_POINT('',#227);
#227 = CARTESIAN_POINT('',(20.85,-2.,0.));
#228 = LINE('',#229,#230);
#229 = CARTESIAN_POINT('',(20.,-2.,0.));
#230 = VECTOR('',#231,1.);
#231 = DIRECTION('',(1.,0.,0.));
#232 = ORIENTED_EDGE('',*,*,#233,.F.);
#233 = EDGE_CURVE('',#234,#226,#236,.T.);
#234 = VERTEX_POINT('',#235);
#235 = CARTESIAN_POINT('',(20.85,-7.5,0.));
#236 = LINE('',#237,#238);
#237 = CARTESIAN_POINT('',(20.85,-8.,0.));
#238 = VECTOR('',#239,1.);
#239 = DIRECTION('',(0.,1.,0.));
#240 = ORIENTED_EDGE('',*,*,#241,.T.);
#241 = EDGE_CURVE('',#234,#242,#244,.T.);
#242 = VERTEX_POINT('',#243);
#243 = CARTESIAN_POINT('',(21.35,-8.,0.));
#244 = CIRCLE('',#245,0.5);
#245 = AXIS2_PLACEMENT_3D('',#246,#247,#248);
#246 = CARTESIAN_POINT('',(21.35,-7.5,0.));
#247 = DIRECTION('',(-0.,0.,1.));
#248 = DIRECTION('',(0.,-1.,0.));
#249 = ORIENTED_EDGE('',*,*,#250,.F.);
#250 = EDGE_CURVE('',#251,#242,#253,.T.);
#251 = VERTEX_POINT('',#252);
#252 = CARTESIAN_POINT('',(25.1,-8.,0.));
#253 = LINE('',#254,#255);
#254 = CARTESIAN_POINT('',(25.1,-8.,0.));
#255 = VECTOR('',#256,1.);
#256 = DIRECTION('',(-1.,0.,0.));
#257 = ORIENTED_EDGE('',*,*,#258,.F.);
#258 = EDGE_CURVE('',#259,#251,#261,.T.);
#259 = VERTEX_POINT('',#260);
#260 = CARTESIAN_POINT('',(25.1,-2.5,0.));
#261 = LINE('',#262,#263);
#262 = CARTESIAN_POINT('',(25.1,-2.,0.));
#263 = VECTOR('',#264,1.);
#264 = DIRECTION('',(0.,-1.,0.));
#265 = ORIENTED_EDGE('',*,*,#266,.F.);
#266 = EDGE_CURVE('',#267,#259,#269,.T.);
#267 = VERTEX_POINT('',#268);
#268 = CARTESIAN_POINT('',(25.6,-2.,0.));
#269 = CIRCLE('',#270,0.5);
#270 = AXIS2_PLACEMENT_3D('',#271,#272,#273);
#271 = CARTESIAN_POINT('',(25.6,-2.5,0.));
#272 = DIRECTION('',(-0.,0.,1.));
#273 = DIRECTION('',(0.,-1.,0.));
#274 = ORIENTED_EDGE('',*,*,#275,.T.);
#275 = EDGE_CURVE('',#267,#73,#276,.T.);
#276 = LINE('',#277,#278);
#277 = CARTESIAN_POINT('',(25.1,-2.,0.));
#278 = VECTOR('',#279,1.);
#279 = DIRECTION('',(1.,0.,0.));
#280 = PLANE('',#281);
#281 = AXIS2_PLACEMENT_3D('',#282,#283,#284);
#282 = CARTESIAN_POINT('',(18.144736842105,-1.293859649123,0.));
#283 = DIRECTION('',(0.,0.,1.));
#284 = DIRECTION('',(1.,0.,0.));
#285 = ADVANCED_FACE('',(#286),#305,.T.);
#286 = FACE_BOUND('',#287,.F.);
#287 = EDGE_LOOP('',(#288,#289,#297,#304));
#288 = ORIENTED_EDGE('',*,*,#82,.T.);
#289 = ORIENTED_EDGE('',*,*,#290,.T.);
#290 = EDGE_CURVE('',#75,#291,#293,.T.);
#291 = VERTEX_POINT('',#292);
#292 = CARTESIAN_POINT('',(35.,3.5,7.2));
#293 = LINE('',#294,#295);
#294 = CARTESIAN_POINT('',(35.,3.5,0.));
#295 = VECTOR('',#296,1.);
#296 = DIRECTION('',(0.,0.,1.));
#297 = ORIENTED_EDGE('',*,*,#298,.F.);
#298 = EDGE_CURVE('',#32,#291,#299,.T.);
#299 = CIRCLE('',#300,0.5);
#300 = AXIS2_PLACEMENT_3D('',#301,#302,#303);
#301 = CARTESIAN_POINT('',(34.5,3.5,7.2));
#302 = DIRECTION('',(-0.,-0.,-1.));
#303 = DIRECTION('',(0.,-1.,0.));
#304 = ORIENTED_EDGE('',*,*,#31,.F.);
#305 = CYLINDRICAL_SURFACE('',#306,0.5);
#306 = AXIS2_PLACEMENT_3D('',#307,#308,#309);
#307 = CARTESIAN_POINT('',(34.5,3.5,0.));
#308 = DIRECTION('',(0.,0.,1.));
#309 = DIRECTION('',(0.,1.,0.));
#310 = ADVANCED_FACE('',(#311),#330,.T.);
#311 = FACE_BOUND('',#312,.T.);
#312 = EDGE_LOOP('',(#313,#314,#322,#329));
#313 = ORIENTED_EDGE('',*,*,#90,.T.);
#314 = ORIENTED_EDGE('',*,*,#315,.T.);
#315 = EDGE_CURVE('',#91,#316,#318,.T.);
#316 = VERTEX_POINT('',#317);
#317 = CARTESIAN_POINT('',(28.5,3.5,7.2));
#318 = LINE('',#319,#320);
#319 = CARTESIAN_POINT('',(28.5,3.5,0.));
#320 = VECTOR('',#321,1.);
#321 = DIRECTION('',(0.,0.,1.));
#322 = ORIENTED_EDGE('',*,*,#323,.F.);
#323 = EDGE_CURVE('',#40,#316,#324,.T.);
#324 = CIRCLE('',#325,0.5);
#325 = AXIS2_PLACEMENT_3D('',#326,#327,#328);
#326 = CARTESIAN_POINT('',(29.,3.5,7.2));
#327 = DIRECTION('',(-0.,0.,1.));
#328 = DIRECTION('',(0.,-1.,0.));
#329 = ORIENTED_EDGE('',*,*,#47,.F.);
#330 = CYLINDRICAL_SURFACE('',#331,0.5);
#331 = AXIS2_PLACEMENT_3D('',#332,#333,#334);
#332 = CARTESIAN_POINT('',(29.,3.5,0.));
#333 = DIRECTION('',(0.,0.,1.));
#334 = DIRECTION('',(0.,1.,0.));
#335 = ADVANCED_FACE('',(#336),#531,.T.);
#336 = FACE_BOUND('',#337,.T.);
#337 = EDGE_LOOP('',(#338,#339,#340,#348,#357,#365,#374,#382,#391,#399,
    #408,#416,#424,#433,#441,#449,#458,#466,#474,#482,#491,#499,#507,
    #516,#524,#530));
#338 = ORIENTED_EDGE('',*,*,#39,.T.);
#339 = ORIENTED_EDGE('',*,*,#323,.T.);
#340 = ORIENTED_EDGE('',*,*,#341,.T.);
#341 = EDGE_CURVE('',#316,#342,#344,.T.);
#342 = VERTEX_POINT('',#343);
#343 = CARTESIAN_POINT('',(28.5,0.5,7.2));
#344 = LINE('',#345,#346);
#345 = CARTESIAN_POINT('',(28.5,4.,7.2));
#346 = VECTOR('',#347,1.);
#347 = DIRECTION('',(0.,-1.,0.));
#348 = ORIENTED_EDGE('',*,*,#349,.T.);
#349 = EDGE_CURVE('',#342,#350,#352,.T.);
#350 = VERTEX_POINT('',#351);
#351 = CARTESIAN_POINT('',(28.,-1.110223024625E-16,7.2));
#352 = CIRCLE('',#353,0.5);
#353 = AXIS2_PLACEMENT_3D('',#354,#355,#356);
#354 = CARTESIAN_POINT('',(28.,0.5,7.2));
#355 = DIRECTION('',(-0.,-0.,-1.));
#356 = DIRECTION('',(0.,-1.,0.));
#357 = ORIENTED_EDGE('',*,*,#358,.F.);
#358 = EDGE_CURVE('',#359,#350,#361,.T.);
#359 = VERTEX_POINT('',#360);
#360 = CARTESIAN_POINT('',(7.,-1.110223024625E-16,7.2));
#361 = LINE('',#362,#363);
#362 = CARTESIAN_POINT('',(6.5,0.,7.2));
#363 = VECTOR('',#364,1.);
#364 = DIRECTION('',(1.,0.,0.));
#365 = ORIENTED_EDGE('',*,*,#366,.T.);
#366 = EDGE_CURVE('',#359,#367,#369,.T.);
#367 = VERTEX_POINT('',#368);
#368 = CARTESIAN_POINT('',(6.5,0.5,7.2));
#369 = CIRCLE('',#370,0.5);
#370 = AXIS2_PLACEMENT_3D('',#371,#372,#373);
#371 = CARTESIAN_POINT('',(7.,0.5,7.2));
#372 = DIRECTION('',(-0.,-0.,-1.));
#373 = DIRECTION('',(0.,-1.,0.));
#374 = ORIENTED_EDGE('',*,*,#375,.F.);
#375 = EDGE_CURVE('',#376,#367,#378,.T.);
#376 = VERTEX_POINT('',#377);
#377 = CARTESIAN_POINT('',(6.5,3.5,7.2));
#378 = LINE('',#379,#380);
#379 = CARTESIAN_POINT('',(6.5,4.,7.2));
#380 = VECTOR('',#381,1.);
#381 = DIRECTION('',(0.,-1.,0.));
#382 = ORIENTED_EDGE('',*,*,#383,.T.);
#383 = EDGE_CURVE('',#376,#384,#386,.T.);
#384 = VERTEX_POINT('',#385);
#385 = CARTESIAN_POINT('',(6.,4.,7.2));
#386 = CIRCLE('',#387,0.5);
#387 = AXIS2_PLACEMENT_3D('',#388,#389,#390);
#388 = CARTESIAN_POINT('',(6.,3.5,7.2));
#389 = DIRECTION('',(-0.,0.,1.));
#390 = DIRECTION('',(0.,-1.,0.));
#391 = ORIENTED_EDGE('',*,*,#392,.F.);
#392 = EDGE_CURVE('',#393,#384,#395,.T.);
#393 = VERTEX_POINT('',#394);
#394 = CARTESIAN_POINT('',(0.5,4.,7.2));
#395 = LINE('',#396,#397);
#396 = CARTESIAN_POINT('',(0.,4.,7.2));
#397 = VECTOR('',#398,1.);
#398 = DIRECTION('',(1.,0.,0.));
#399 = ORIENTED_EDGE('',*,*,#400,.T.);
#400 = EDGE_CURVE('',#393,#401,#403,.T.);
#401 = VERTEX_POINT('',#402);
#402 = CARTESIAN_POINT('',(-1.110223024625E-16,3.5,7.2));
#403 = CIRCLE('',#404,0.5);
#404 = AXIS2_PLACEMENT_3D('',#405,#406,#407);
#405 = CARTESIAN_POINT('',(0.5,3.5,7.2));
#406 = DIRECTION('',(-0.,0.,1.));
#407 = DIRECTION('',(0.,-1.,0.));
#408 = ORIENTED_EDGE('',*,*,#409,.F.);
#409 = EDGE_CURVE('',#410,#401,#412,.T.);
#410 = VERTEX_POINT('',#411);
#411 = CARTESIAN_POINT('',(0.,-2.,7.2));
#412 = LINE('',#413,#414);
#413 = CARTESIAN_POINT('',(0.,5.048709793414E-29,7.2));
#414 = VECTOR('',#415,1.);
#415 = DIRECTION('',(0.,1.,0.));
#416 = ORIENTED_EDGE('',*,*,#417,.T.);
#417 = EDGE_CURVE('',#410,#418,#420,.T.);
#418 = VERTEX_POINT('',#419);
#419 = CARTESIAN_POINT('',(16.65,-2.,7.2));
#420 = LINE('',#421,#422);
#421 = CARTESIAN_POINT('',(0.,-2.,7.2));
#422 = VECTOR('',#423,1.);
#423 = DIRECTION('',(1.,0.,0.));
#424 = ORIENTED_EDGE('',*,*,#425,.T.);
#425 = EDGE_CURVE('',#418,#426,#428,.T.);
#426 = VERTEX_POINT('',#427);
#427 = CARTESIAN_POINT('',(17.15,-2.5,7.2));
#428 = CIRCLE('',#429,0.5);
#429 = AXIS2_PLACEMENT_3D('',#430,#431,#432);
#430 = CARTESIAN_POINT('',(16.65,-2.5,7.2));
#431 = DIRECTION('',(-0.,-0.,-1.));
#432 = DIRECTION('',(0.,-1.,0.));
#433 = ORIENTED_EDGE('',*,*,#434,.T.);
#434 = EDGE_CURVE('',#426,#435,#437,.T.);
#435 = VERTEX_POINT('',#436);
#436 = CARTESIAN_POINT('',(17.15,-8.,7.2));
#437 = LINE('',#438,#439);
#438 = CARTESIAN_POINT('',(17.15,-2.,7.2));
#439 = VECTOR('',#440,1.);
#440 = DIRECTION('',(0.,-1.,0.));
#441 = ORIENTED_EDGE('',*,*,#442,.T.);
#442 = EDGE_CURVE('',#435,#443,#445,.T.);
#443 = VERTEX_POINT('',#444);
#444 = CARTESIAN_POINT('',(18.65,-8.,7.2));
#445 = LINE('',#446,#447);
#446 = CARTESIAN_POINT('',(17.15,-8.,7.2));
#447 = VECTOR('',#448,1.);
#448 = DIRECTION('',(1.,0.,0.));
#449 = ORIENTED_EDGE('',*,*,#450,.T.);
#450 = EDGE_CURVE('',#443,#451,#453,.T.);
#451 = VERTEX_POINT('',#452);
#452 = CARTESIAN_POINT('',(19.15,-7.5,7.2));
#453 = CIRCLE('',#454,0.5);
#454 = AXIS2_PLACEMENT_3D('',#455,#456,#457);
#455 = CARTESIAN_POINT('',(18.65,-7.5,7.2));
#456 = DIRECTION('',(-0.,0.,1.));
#457 = DIRECTION('',(0.,-1.,0.));
#458 = ORIENTED_EDGE('',*,*,#459,.T.);
#459 = EDGE_CURVE('',#451,#460,#462,.T.);
#460 = VERTEX_POINT('',#461);
#461 = CARTESIAN_POINT('',(19.15,-2.,7.2));
#462 = LINE('',#463,#464);
#463 = CARTESIAN_POINT('',(19.15,-8.,7.2));
#464 = VECTOR('',#465,1.);
#465 = DIRECTION('',(0.,1.,0.));
#466 = ORIENTED_EDGE('',*,*,#467,.F.);
#467 = EDGE_CURVE('',#468,#460,#470,.T.);
#468 = VERTEX_POINT('',#469);
#469 = CARTESIAN_POINT('',(20.85,-2.,7.2));
#470 = LINE('',#471,#472);
#471 = CARTESIAN_POINT('',(20.,-2.,7.2));
#472 = VECTOR('',#473,1.);
#473 = DIRECTION('',(-1.,0.,0.));
#474 = ORIENTED_EDGE('',*,*,#475,.F.);
#475 = EDGE_CURVE('',#476,#468,#478,.T.);
#476 = VERTEX_POINT('',#477);
#477 = CARTESIAN_POINT('',(20.85,-7.5,7.2));
#478 = LINE('',#479,#480);
#479 = CARTESIAN_POINT('',(20.85,-8.,7.2));
#480 = VECTOR('',#481,1.);
#481 = DIRECTION('',(0.,1.,0.));
#482 = ORIENTED_EDGE('',*,*,#483,.T.);
#483 = EDGE_CURVE('',#476,#484,#486,.T.);
#484 = VERTEX_POINT('',#485);
#485 = CARTESIAN_POINT('',(21.35,-8.,7.2));
#486 = CIRCLE('',#487,0.5);
#487 = AXIS2_PLACEMENT_3D('',#488,#489,#490);
#488 = CARTESIAN_POINT('',(21.35,-7.5,7.2));
#489 = DIRECTION('',(-0.,0.,1.));
#490 = DIRECTION('',(0.,-1.,0.));
#491 = ORIENTED_EDGE('',*,*,#492,.F.);
#492 = EDGE_CURVE('',#493,#484,#495,.T.);
#493 = VERTEX_POINT('',#494);
#494 = CARTESIAN_POINT('',(25.1,-8.,7.2));
#495 = LINE('',#496,#497);
#496 = CARTESIAN_POINT('',(25.1,-8.,7.2));
#497 = VECTOR('',#498,1.);
#498 = DIRECTION('',(-1.,0.,0.));
#499 = ORIENTED_EDGE('',*,*,#500,.F.);
#500 = EDGE_CURVE('',#501,#493,#503,.T.);
#501 = VERTEX_POINT('',#502);
#502 = CARTESIAN_POINT('',(25.1,-2.5,7.2));
#503 = LINE('',#504,#505);
#504 = CARTESIAN_POINT('',(25.1,-2.,7.2));
#505 = VECTOR('',#506,1.);
#506 = DIRECTION('',(0.,-1.,0.));
#507 = ORIENTED_EDGE('',*,*,#508,.F.);
#508 = EDGE_CURVE('',#509,#501,#511,.T.);
#509 = VERTEX_POINT('',#510);
#510 = CARTESIAN_POINT('',(25.6,-2.,7.2));
#511 = CIRCLE('',#512,0.5);
#512 = AXIS2_PLACEMENT_3D('',#513,#514,#515);
#513 = CARTESIAN_POINT('',(25.6,-2.5,7.2));
#514 = DIRECTION('',(-0.,0.,1.));
#515 = DIRECTION('',(0.,-1.,0.));
#516 = ORIENTED_EDGE('',*,*,#517,.T.);
#517 = EDGE_CURVE('',#509,#518,#520,.T.);
#518 = VERTEX_POINT('',#519);
#519 = CARTESIAN_POINT('',(35.,-2.,7.2));
#520 = LINE('',#521,#522);
#521 = CARTESIAN_POINT('',(25.1,-2.,7.2));
#522 = VECTOR('',#523,1.);
#523 = DIRECTION('',(1.,0.,0.));
#524 = ORIENTED_EDGE('',*,*,#525,.F.);
#525 = EDGE_CURVE('',#291,#518,#526,.T.);
#526 = LINE('',#527,#528);
#527 = CARTESIAN_POINT('',(35.,5.048709793414E-29,7.2));
#528 = VECTOR('',#529,1.);
#529 = DIRECTION('',(0.,-1.,0.));
#530 = ORIENTED_EDGE('',*,*,#298,.F.);
#531 = PLANE('',#532);
#532 = AXIS2_PLACEMENT_3D('',#533,#534,#535);
#533 = CARTESIAN_POINT('',(18.144736842105,-1.293859649123,7.2));
#534 = DIRECTION('',(0.,0.,1.));
#535 = DIRECTION('',(1.,0.,0.));
#536 = ADVANCED_FACE('',(#537),#556,.F.);
#537 = FACE_BOUND('',#538,.F.);
#538 = EDGE_LOOP('',(#539,#547,#548,#549));
#539 = ORIENTED_EDGE('',*,*,#540,.F.);
#540 = EDGE_CURVE('',#56,#541,#543,.T.);
#541 = VERTEX_POINT('',#542);
#542 = CARTESIAN_POINT('',(30.,0.25,3.6));
#543 = LINE('',#544,#545);
#544 = CARTESIAN_POINT('',(30.,4.,3.6));
#545 = VECTOR('',#546,1.);
#546 = DIRECTION('',(0.,-1.,2.22044604925E-16));
#547 = ORIENTED_EDGE('',*,*,#55,.F.);
#548 = ORIENTED_EDGE('',*,*,#540,.T.);
#549 = ORIENTED_EDGE('',*,*,#550,.T.);
#550 = EDGE_CURVE('',#541,#541,#551,.T.);
#551 = CIRCLE('',#552,1.75);
#552 = AXIS2_PLACEMENT_3D('',#553,#554,#555);
#553 = CARTESIAN_POINT('',(31.75,0.25,3.6));
#554 = DIRECTION('',(0.,1.,-2.22044604925E-16));
#555 = DIRECTION('',(-1.,0.,0.));
#556 = CYLINDRICAL_SURFACE('',#557,1.75);
#557 = AXIS2_PLACEMENT_3D('',#558,#559,#560);
#558 = CARTESIAN_POINT('',(31.75,4.,3.6));
#559 = DIRECTION('',(0.,1.,-2.22044604925E-16));
#560 = DIRECTION('',(-1.,0.,0.));
#561 = ADVANCED_FACE('',(#562),#573,.T.);
#562 = FACE_BOUND('',#563,.T.);
#563 = EDGE_LOOP('',(#564,#565,#571,#572));
#564 = ORIENTED_EDGE('',*,*,#525,.T.);
#565 = ORIENTED_EDGE('',*,*,#566,.F.);
#566 = EDGE_CURVE('',#73,#518,#567,.T.);
#567 = LINE('',#568,#569);
#568 = CARTESIAN_POINT('',(35.,-2.,0.));
#569 = VECTOR('',#570,1.);
#570 = DIRECTION('',(0.,0.,1.));
#571 = ORIENTED_EDGE('',*,*,#72,.T.);
#572 = ORIENTED_EDGE('',*,*,#290,.T.);
#573 = PLANE('',#574);
#574 = AXIS2_PLACEMENT_3D('',#575,#576,#577);
#575 = CARTESIAN_POINT('',(35.,1.,3.6));
#576 = DIRECTION('',(1.,0.,0.));
#577 = DIRECTION('',(0.,0.,1.));
#578 = ADVANCED_FACE('',(#579,#624),#674,.F.);
#579 = FACE_BOUND('',#580,.F.);
#580 = EDGE_LOOP('',(#581,#582,#590,#599,#607,#616,#622,#623));
#581 = ORIENTED_EDGE('',*,*,#275,.F.);
#582 = ORIENTED_EDGE('',*,*,#583,.T.);
#583 = EDGE_CURVE('',#267,#584,#586,.T.);
#584 = VERTEX_POINT('',#585);
#585 = CARTESIAN_POINT('',(25.6,-2.,2.043376032304));
#586 = LINE('',#587,#588);
#587 = CARTESIAN_POINT('',(25.6,-2.,0.));
#588 = VECTOR('',#589,1.);
#589 = DIRECTION('',(0.,0.,1.));
#590 = ORIENTED_EDGE('',*,*,#591,.T.);
#591 = EDGE_CURVE('',#584,#592,#594,.T.);
#592 = VERTEX_POINT('',#593);
#593 = CARTESIAN_POINT('',(25.590286641406,-2.,2.100000583013));
#594 = ( BOUNDED_CURVE() B_SPLINE_CURVE(3,(#595,#596,#597,#598),
.UNSPECIFIED.,.F.,.F.) B_SPLINE_CURVE_WITH_KNOTS((4,4),(2.043376032304,
2.100000583013),.PIECEWISE_BEZIER_KNOTS.) CURVE() 
GEOMETRIC_REPRESENTATION_ITEM() RATIONAL_B_SPLINE_CURVE((1.,1.,1.,1.)) 
REPRESENTATION_ITEM('') );
#595 = CARTESIAN_POINT('',(25.6,-2.,2.043376032304));
#596 = CARTESIAN_POINT('',(25.6,-2.,2.062250882541));
#597 = CARTESIAN_POINT('',(25.596826359499,-2.,2.081125732777));
#598 = CARTESIAN_POINT('',(25.590286641406,-2.,2.100000583013));
#599 = ORIENTED_EDGE('',*,*,#600,.T.);
#600 = EDGE_CURVE('',#592,#601,#603,.T.);
#601 = VERTEX_POINT('',#602);
#602 = CARTESIAN_POINT('',(25.590286776197,-2.,5.100000583013));
#603 = B_SPLINE_CURVE_WITH_KNOTS('',2,(#604,#605,#606),.UNSPECIFIED.,.F.
  ,.F.,(3,3),(2.100000583013,5.100000583013),.PIECEWISE_BEZIER_KNOTS.);
#604 = CARTESIAN_POINT('',(25.590286641406,-2.,2.100000583013));
#605 = CARTESIAN_POINT('',(25.59028670874,-2.,3.600000583013));
#606 = CARTESIAN_POINT('',(25.590286776197,-2.,5.100000583013));
#607 = ORIENTED_EDGE('',*,*,#608,.T.);
#608 = EDGE_CURVE('',#601,#609,#611,.T.);
#609 = VERTEX_POINT('',#610);
#610 = CARTESIAN_POINT('',(25.6,-2.,5.156624686357));
#611 = ( BOUNDED_CURVE() B_SPLINE_CURVE(3,(#612,#613,#614,#615),
.UNSPECIFIED.,.F.,.F.) B_SPLINE_CURVE_WITH_KNOTS((4,4),(5.100000583013,
5.156624686357),.PIECEWISE_BEZIER_KNOTS.) CURVE() 
GEOMETRIC_REPRESENTATION_ITEM() RATIONAL_B_SPLINE_CURVE((1.,1.,1.,1.)) 
REPRESENTATION_ITEM('') );
#612 = CARTESIAN_POINT('',(25.590286776073,-2.,5.100000583013));
#613 = CARTESIAN_POINT('',(25.596826402592,-2.,5.118875284127));
#614 = CARTESIAN_POINT('',(25.6,-2.,5.137749985242));
#615 = CARTESIAN_POINT('',(25.6,-2.,5.156624686357));
#616 = ORIENTED_EDGE('',*,*,#617,.T.);
#617 = EDGE_CURVE('',#609,#509,#618,.T.);
#618 = LINE('',#619,#620);
#619 = CARTESIAN_POINT('',(25.6,-2.,0.));
#620 = VECTOR('',#621,1.);
#621 = DIRECTION('',(0.,0.,1.));
#622 = ORIENTED_EDGE('',*,*,#517,.T.);
#623 = ORIENTED_EDGE('',*,*,#566,.F.);
#624 = FACE_BOUND('',#625,.F.);
#625 = EDGE_LOOP('',(#626,#636,#644,#652,#660,#668));
#626 = ORIENTED_EDGE('',*,*,#627,.T.);
#627 = EDGE_CURVE('',#628,#630,#632,.T.);
#628 = VERTEX_POINT('',#629);
#629 = CARTESIAN_POINT('',(34.348076547956,-2.,2.100000583013));
#630 = VERTEX_POINT('',#631);
#631 = CARTESIAN_POINT('',(34.348075874751,-2.,5.100000583013));
#632 = LINE('',#633,#634);
#633 = CARTESIAN_POINT('',(34.348076547956,-2.,2.100000583013));
#634 = VECTOR('',#635,1.);
#635 = DIRECTION('',(-2.244016907108E-07,2.22044604925E-16,1.));
#636 = ORIENTED_EDGE('',*,*,#637,.T.);
#637 = EDGE_CURVE('',#630,#638,#640,.T.);
#638 = VERTEX_POINT('',#639);
#639 = CARTESIAN_POINT('',(31.749999326795,-2.,6.6));
#640 = LINE('',#641,#642);
#641 = CARTESIAN_POINT('',(34.348075874751,-2.,5.100000583013));
#642 = VECTOR('',#643,1.);
#643 = DIRECTION('',(-0.866025515985,1.110222593109E-16,0.499999805662)
  );
#644 = ORIENTED_EDGE('',*,*,#645,.T.);
#645 = EDGE_CURVE('',#638,#646,#648,.T.);
#646 = VERTEX_POINT('',#647);
#647 = CARTESIAN_POINT('',(29.151923452044,-2.,5.099999416987));
#648 = LINE('',#649,#650);
#649 = CARTESIAN_POINT('',(31.749999326795,-2.,6.6));
#650 = VECTOR('',#651,1.);
#651 = DIRECTION('',(-0.866025291584,-1.110223456141E-16,-0.500000194338
    ));
#652 = ORIENTED_EDGE('',*,*,#653,.T.);
#653 = EDGE_CURVE('',#646,#654,#656,.T.);
#654 = VERTEX_POINT('',#655);
#655 = CARTESIAN_POINT('',(29.151924125249,-2.,2.099999416987));
#656 = LINE('',#657,#658);
#657 = CARTESIAN_POINT('',(29.151923452044,-2.,5.099999416987));
#658 = VECTOR('',#659,1.);
#659 = DIRECTION('',(2.244016907108E-07,-2.22044604925E-16,-1.));
#660 = ORIENTED_EDGE('',*,*,#661,.T.);
#661 = EDGE_CURVE('',#654,#662,#664,.T.);
#662 = VERTEX_POINT('',#663);
#663 = CARTESIAN_POINT('',(31.750000673205,-2.,0.6));
#664 = LINE('',#665,#666);
#665 = CARTESIAN_POINT('',(29.151924125249,-2.,2.099999416987));
#666 = VECTOR('',#667,1.);
#667 = DIRECTION('',(0.866025515985,-1.110222593109E-16,-0.499999805662)
  );
#668 = ORIENTED_EDGE('',*,*,#669,.T.);
#669 = EDGE_CURVE('',#662,#628,#670,.T.);
#670 = LINE('',#671,#672);
#671 = CARTESIAN_POINT('',(31.750000673205,-2.,0.6));
#672 = VECTOR('',#673,1.);
#673 = DIRECTION('',(0.866025291584,1.110223456141E-16,0.500000194338));
#674 = PLANE('',#675);
#675 = AXIS2_PLACEMENT_3D('',#676,#677,#678);
#676 = CARTESIAN_POINT('',(25.1,-2.,0.));
#677 = DIRECTION('',(0.,1.,0.));
#678 = DIRECTION('',(1.,0.,0.));
#679 = ADVANCED_FACE('',(#680),#699,.F.);
#680 = FACE_BOUND('',#681,.F.);
#681 = EDGE_LOOP('',(#682,#683,#691,#698));
#682 = ORIENTED_EDGE('',*,*,#266,.T.);
#683 = ORIENTED_EDGE('',*,*,#684,.T.);
#684 = EDGE_CURVE('',#259,#685,#687,.T.);
#685 = VERTEX_POINT('',#686);
#686 = CARTESIAN_POINT('',(25.1,-2.5,2.043376032304));
#687 = LINE('',#688,#689);
#688 = CARTESIAN_POINT('',(25.1,-2.5,0.));
#689 = VECTOR('',#690,1.);
#690 = DIRECTION('',(0.,0.,1.));
#691 = ORIENTED_EDGE('',*,*,#692,.F.);
#692 = EDGE_CURVE('',#584,#685,#693,.T.);
#693 = CIRCLE('',#694,0.5);
#694 = AXIS2_PLACEMENT_3D('',#695,#696,#697);
#695 = CARTESIAN_POINT('',(25.6,-2.5,2.043376032304));
#696 = DIRECTION('',(0.,-0.,1.));
#697 = DIRECTION('',(0.,1.,0.));
#698 = ORIENTED_EDGE('',*,*,#583,.F.);
#699 = CYLINDRICAL_SURFACE('',#700,0.5);
#700 = AXIS2_PLACEMENT_3D('',#701,#702,#703);
#701 = CARTESIAN_POINT('',(25.6,-2.5,0.));
#702 = DIRECTION('',(0.,0.,1.));
#703 = DIRECTION('',(0.,1.,0.));
#704 = ADVANCED_FACE('',(#705),#762,.T.);
#705 = FACE_BOUND('',#706,.T.);
#706 = EDGE_LOOP('',(#707,#708,#709,#717,#725,#733,#741,#749,#755,#756)
  );
#707 = ORIENTED_EDGE('',*,*,#258,.F.);
#708 = ORIENTED_EDGE('',*,*,#684,.T.);
#709 = ORIENTED_EDGE('',*,*,#710,.F.);
#710 = EDGE_CURVE('',#711,#685,#713,.T.);
#711 = VERTEX_POINT('',#712);
#712 = CARTESIAN_POINT('',(25.1,-4.999999326795,0.6));
#713 = LINE('',#714,#715);
#714 = CARTESIAN_POINT('',(25.1,-4.999999326795,0.6));
#715 = VECTOR('',#716,1.);
#716 = DIRECTION('',(0.,0.866025291584,0.500000194338));
#717 = ORIENTED_EDGE('',*,*,#718,.F.);
#718 = EDGE_CURVE('',#719,#711,#721,.T.);
#719 = VERTEX_POINT('',#720);
#720 = CARTESIAN_POINT('',(25.1,-7.598075874751,2.099999416987));
#721 = LINE('',#722,#723);
#722 = CARTESIAN_POINT('',(25.1,-7.598075874751,2.099999416987));
#723 = VECTOR('',#724,1.);
#724 = DIRECTION('',(0.,0.866025515985,-0.499999805662));
#725 = ORIENTED_EDGE('',*,*,#726,.F.);
#726 = EDGE_CURVE('',#727,#719,#729,.T.);
#727 = VERTEX_POINT('',#728);
#728 = CARTESIAN_POINT('',(25.1,-7.598076547956,5.099999416987));
#729 = LINE('',#730,#731);
#730 = CARTESIAN_POINT('',(25.1,-7.598076547956,5.099999416987));
#731 = VECTOR('',#732,1.);
#732 = DIRECTION('',(0.,2.244016898227E-07,-1.));
#733 = ORIENTED_EDGE('',*,*,#734,.F.);
#734 = EDGE_CURVE('',#735,#727,#737,.T.);
#735 = VERTEX_POINT('',#736);
#736 = CARTESIAN_POINT('',(25.1,-5.000000673205,6.6));
#737 = LINE('',#738,#739);
#738 = CARTESIAN_POINT('',(25.1,-5.000000673205,6.6));
#739 = VECTOR('',#740,1.);
#740 = DIRECTION('',(0.,-0.866025291584,-0.500000194338));
#741 = ORIENTED_EDGE('',*,*,#742,.F.);
#742 = EDGE_CURVE('',#743,#735,#745,.T.);
#743 = VERTEX_POINT('',#744);
#744 = CARTESIAN_POINT('',(25.1,-2.5,5.156624686357));
#745 = LINE('',#746,#747);
#746 = CARTESIAN_POINT('',(25.1,-2.401924125249,5.100000583013));
#747 = VECTOR('',#748,1.);
#748 = DIRECTION('',(0.,-0.866025515985,0.499999805662));
#749 = ORIENTED_EDGE('',*,*,#750,.T.);
#750 = EDGE_CURVE('',#743,#501,#751,.T.);
#751 = LINE('',#752,#753);
#752 = CARTESIAN_POINT('',(25.1,-2.5,0.));
#753 = VECTOR('',#754,1.);
#754 = DIRECTION('',(0.,0.,1.));
#755 = ORIENTED_EDGE('',*,*,#500,.T.);
#756 = ORIENTED_EDGE('',*,*,#757,.F.);
#757 = EDGE_CURVE('',#251,#493,#758,.T.);
#758 = LINE('',#759,#760);
#759 = CARTESIAN_POINT('',(25.1,-8.,0.));
#760 = VECTOR('',#761,1.);
#761 = DIRECTION('',(0.,0.,1.));
#762 = PLANE('',#763);
#763 = AXIS2_PLACEMENT_3D('',#764,#765,#766);
#764 = CARTESIAN_POINT('',(25.1,-2.,0.));
#765 = DIRECTION('',(1.,0.,0.));
#766 = DIRECTION('',(0.,-1.,0.));
#767 = ADVANCED_FACE('',(#768),#779,.F.);
#768 = FACE_BOUND('',#769,.F.);
#769 = EDGE_LOOP('',(#770,#771,#772,#773));
#770 = ORIENTED_EDGE('',*,*,#99,.F.);
#771 = ORIENTED_EDGE('',*,*,#315,.T.);
#772 = ORIENTED_EDGE('',*,*,#341,.T.);
#773 = ORIENTED_EDGE('',*,*,#774,.F.);
#774 = EDGE_CURVE('',#100,#342,#775,.T.);
#775 = LINE('',#776,#777);
#776 = CARTESIAN_POINT('',(28.5,0.5,0.));
#777 = VECTOR('',#778,1.);
#778 = DIRECTION('',(0.,0.,1.));
#779 = PLANE('',#780);
#780 = AXIS2_PLACEMENT_3D('',#781,#782,#783);
#781 = CARTESIAN_POINT('',(28.5,4.,0.));
#782 = DIRECTION('',(1.,0.,0.));
#783 = DIRECTION('',(0.,-1.,0.));
#784 = ADVANCED_FACE('',(#785),#796,.T.);
#785 = FACE_BOUND('',#786,.T.);
#786 = EDGE_LOOP('',(#787,#788,#789,#790));
#787 = ORIENTED_EDGE('',*,*,#250,.F.);
#788 = ORIENTED_EDGE('',*,*,#757,.T.);
#789 = ORIENTED_EDGE('',*,*,#492,.T.);
#790 = ORIENTED_EDGE('',*,*,#791,.F.);
#791 = EDGE_CURVE('',#242,#484,#792,.T.);
#792 = LINE('',#793,#794);
#793 = CARTESIAN_POINT('',(21.35,-8.,0.));
#794 = VECTOR('',#795,1.);
#795 = DIRECTION('',(0.,0.,1.));
#796 = PLANE('',#797);
#797 = AXIS2_PLACEMENT_3D('',#798,#799,#800);
#798 = CARTESIAN_POINT('',(25.1,-8.,0.));
#799 = DIRECTION('',(0.,-1.,0.));
#800 = DIRECTION('',(-1.,0.,0.));
#801 = ADVANCED_FACE('',(#802),#813,.F.);
#802 = FACE_BOUND('',#803,.T.);
#803 = EDGE_LOOP('',(#804,#805,#811,#812));
#804 = ORIENTED_EDGE('',*,*,#107,.T.);
#805 = ORIENTED_EDGE('',*,*,#806,.T.);
#806 = EDGE_CURVE('',#108,#350,#807,.T.);
#807 = LINE('',#808,#809);
#808 = CARTESIAN_POINT('',(28.,-1.110223024625E-16,0.));
#809 = VECTOR('',#810,1.);
#810 = DIRECTION('',(0.,0.,1.));
#811 = ORIENTED_EDGE('',*,*,#349,.F.);
#812 = ORIENTED_EDGE('',*,*,#774,.F.);
#813 = CYLINDRICAL_SURFACE('',#814,0.5);
#814 = AXIS2_PLACEMENT_3D('',#815,#816,#817);
#815 = CARTESIAN_POINT('',(28.,0.5,0.));
#816 = DIRECTION('',(0.,0.,1.));
#817 = DIRECTION('',(1.,0.,0.));
#818 = ADVANCED_FACE('',(#819),#830,.T.);
#819 = FACE_BOUND('',#820,.T.);
#820 = EDGE_LOOP('',(#821,#822,#823,#824));
#821 = ORIENTED_EDGE('',*,*,#241,.T.);
#822 = ORIENTED_EDGE('',*,*,#791,.T.);
#823 = ORIENTED_EDGE('',*,*,#483,.F.);
#824 = ORIENTED_EDGE('',*,*,#825,.F.);
#825 = EDGE_CURVE('',#234,#476,#826,.T.);
#826 = LINE('',#827,#828);
#827 = CARTESIAN_POINT('',(20.85,-7.5,0.));
#828 = VECTOR('',#829,1.);
#829 = DIRECTION('',(0.,0.,1.));
#830 = CYLINDRICAL_SURFACE('',#831,0.5);
#831 = AXIS2_PLACEMENT_3D('',#832,#833,#834);
#832 = CARTESIAN_POINT('',(21.35,-7.5,0.));
#833 = DIRECTION('',(0.,0.,1.));
#834 = DIRECTION('',(-1.,0.,0.));
#835 = ADVANCED_FACE('',(#836),#847,.T.);
#836 = FACE_BOUND('',#837,.T.);
#837 = EDGE_LOOP('',(#838,#839,#845,#846));
#838 = ORIENTED_EDGE('',*,*,#116,.F.);
#839 = ORIENTED_EDGE('',*,*,#840,.T.);
#840 = EDGE_CURVE('',#117,#359,#841,.T.);
#841 = LINE('',#842,#843);
#842 = CARTESIAN_POINT('',(7.,-1.110223024625E-16,0.));
#843 = VECTOR('',#844,1.);
#844 = DIRECTION('',(0.,0.,1.));
#845 = ORIENTED_EDGE('',*,*,#358,.T.);
#846 = ORIENTED_EDGE('',*,*,#806,.F.);
#847 = PLANE('',#848);
#848 = AXIS2_PLACEMENT_3D('',#849,#850,#851);
#849 = CARTESIAN_POINT('',(6.5,0.,0.));
#850 = DIRECTION('',(0.,1.,0.));
#851 = DIRECTION('',(1.,0.,0.));
#852 = ADVANCED_FACE('',(#853,#864),#875,.T.);
#853 = FACE_BOUND('',#854,.T.);
#854 = EDGE_LOOP('',(#855,#856,#857,#858));
#855 = ORIENTED_EDGE('',*,*,#233,.F.);
#856 = ORIENTED_EDGE('',*,*,#825,.T.);
#857 = ORIENTED_EDGE('',*,*,#475,.T.);
#858 = ORIENTED_EDGE('',*,*,#859,.F.);
#859 = EDGE_CURVE('',#226,#468,#860,.T.);
#860 = LINE('',#861,#862);
#861 = CARTESIAN_POINT('',(20.85,-2.,0.));
#862 = VECTOR('',#863,1.);
#863 = DIRECTION('',(0.,0.,1.));
#864 = FACE_BOUND('',#865,.T.);
#865 = EDGE_LOOP('',(#866));
#866 = ORIENTED_EDGE('',*,*,#867,.F.);
#867 = EDGE_CURVE('',#868,#868,#870,.T.);
#868 = VERTEX_POINT('',#869);
#869 = CARTESIAN_POINT('',(20.85,-6.75,3.6));
#870 = CIRCLE('',#871,1.75);
#871 = AXIS2_PLACEMENT_3D('',#872,#873,#874);
#872 = CARTESIAN_POINT('',(20.85,-5.,3.6));
#873 = DIRECTION('',(-1.,0.,0.));
#874 = DIRECTION('',(0.,-1.,0.));
#875 = PLANE('',#876);
#876 = AXIS2_PLACEMENT_3D('',#877,#878,#879);
#877 = CARTESIAN_POINT('',(20.85,-8.,0.));
#878 = DIRECTION('',(-1.,0.,0.));
#879 = DIRECTION('',(0.,1.,0.));
#880 = ADVANCED_FACE('',(#881),#892,.F.);
#881 = FACE_BOUND('',#882,.T.);
#882 = EDGE_LOOP('',(#883,#884,#890,#891));
#883 = ORIENTED_EDGE('',*,*,#124,.T.);
#884 = ORIENTED_EDGE('',*,*,#885,.T.);
#885 = EDGE_CURVE('',#125,#367,#886,.T.);
#886 = LINE('',#887,#888);
#887 = CARTESIAN_POINT('',(6.5,0.5,0.));
#888 = VECTOR('',#889,1.);
#889 = DIRECTION('',(0.,0.,1.));
#890 = ORIENTED_EDGE('',*,*,#366,.F.);
#891 = ORIENTED_EDGE('',*,*,#840,.F.);
#892 = CYLINDRICAL_SURFACE('',#893,0.5);
#893 = AXIS2_PLACEMENT_3D('',#894,#895,#896);
#894 = CARTESIAN_POINT('',(7.,0.5,0.));
#895 = DIRECTION('',(0.,0.,1.));
#896 = DIRECTION('',(0.,-1.,0.));
#897 = ADVANCED_FACE('',(#898),#909,.T.);
#898 = FACE_BOUND('',#899,.T.);
#899 = EDGE_LOOP('',(#900,#906,#907,#908));
#900 = ORIENTED_EDGE('',*,*,#901,.F.);
#901 = EDGE_CURVE('',#218,#460,#902,.T.);
#902 = LINE('',#903,#904);
#903 = CARTESIAN_POINT('',(19.15,-2.,0.));
#904 = VECTOR('',#905,1.);
#905 = DIRECTION('',(0.,0.,1.));
#906 = ORIENTED_EDGE('',*,*,#225,.T.);
#907 = ORIENTED_EDGE('',*,*,#859,.T.);
#908 = ORIENTED_EDGE('',*,*,#467,.T.);
#909 = PLANE('',#910);
#910 = AXIS2_PLACEMENT_3D('',#911,#912,#913);
#911 = CARTESIAN_POINT('',(20.,-2.,3.6));
#912 = DIRECTION('',(-0.,-1.,-0.));
#913 = DIRECTION('',(0.,0.,-1.));
#914 = ADVANCED_FACE('',(#915),#926,.T.);
#915 = FACE_BOUND('',#916,.T.);
#916 = EDGE_LOOP('',(#917,#918,#924,#925));
#917 = ORIENTED_EDGE('',*,*,#133,.F.);
#918 = ORIENTED_EDGE('',*,*,#919,.T.);
#919 = EDGE_CURVE('',#134,#376,#920,.T.);
#920 = LINE('',#921,#922);
#921 = CARTESIAN_POINT('',(6.5,3.5,0.));
#922 = VECTOR('',#923,1.);
#923 = DIRECTION('',(0.,0.,1.));
#924 = ORIENTED_EDGE('',*,*,#375,.T.);
#925 = ORIENTED_EDGE('',*,*,#885,.F.);
#926 = PLANE('',#927);
#927 = AXIS2_PLACEMENT_3D('',#928,#929,#930);
#928 = CARTESIAN_POINT('',(6.5,4.,0.));
#929 = DIRECTION('',(1.,0.,0.));
#930 = DIRECTION('',(0.,-1.,0.));
#931 = ADVANCED_FACE('',(#932,#943),#954,.F.);
#932 = FACE_BOUND('',#933,.F.);
#933 = EDGE_LOOP('',(#934,#935,#941,#942));
#934 = ORIENTED_EDGE('',*,*,#217,.F.);
#935 = ORIENTED_EDGE('',*,*,#936,.T.);
#936 = EDGE_CURVE('',#209,#451,#937,.T.);
#937 = LINE('',#938,#939);
#938 = CARTESIAN_POINT('',(19.15,-7.5,0.));
#939 = VECTOR('',#940,1.);
#940 = DIRECTION('',(0.,0.,1.));
#941 = ORIENTED_EDGE('',*,*,#459,.T.);
#942 = ORIENTED_EDGE('',*,*,#901,.F.);
#943 = FACE_BOUND('',#944,.F.);
#944 = EDGE_LOOP('',(#945));
#945 = ORIENTED_EDGE('',*,*,#946,.F.);
#946 = EDGE_CURVE('',#947,#947,#949,.T.);
#947 = VERTEX_POINT('',#948);
#948 = CARTESIAN_POINT('',(19.15,-6.75,3.6));
#949 = CIRCLE('',#950,1.75);
#950 = AXIS2_PLACEMENT_3D('',#951,#952,#953);
#951 = CARTESIAN_POINT('',(19.15,-5.,3.6));
#952 = DIRECTION('',(-1.,0.,0.));
#953 = DIRECTION('',(0.,-1.,0.));
#954 = PLANE('',#955);
#955 = AXIS2_PLACEMENT_3D('',#956,#957,#958);
#956 = CARTESIAN_POINT('',(19.15,-8.,0.));
#957 = DIRECTION('',(-1.,0.,0.));
#958 = DIRECTION('',(0.,1.,0.));
#959 = ADVANCED_FACE('',(#960),#971,.T.);
#960 = FACE_BOUND('',#961,.T.);
#961 = EDGE_LOOP('',(#962,#963,#969,#970));
#962 = ORIENTED_EDGE('',*,*,#141,.T.);
#963 = ORIENTED_EDGE('',*,*,#964,.T.);
#964 = EDGE_CURVE('',#142,#384,#965,.T.);
#965 = LINE('',#966,#967);
#966 = CARTESIAN_POINT('',(6.,4.,0.));
#967 = VECTOR('',#968,1.);
#968 = DIRECTION('',(0.,0.,1.));
#969 = ORIENTED_EDGE('',*,*,#383,.F.);
#970 = ORIENTED_EDGE('',*,*,#919,.F.);
#971 = CYLINDRICAL_SURFACE('',#972,0.5);
#972 = AXIS2_PLACEMENT_3D('',#973,#974,#975);
#973 = CARTESIAN_POINT('',(6.,3.5,0.));
#974 = DIRECTION('',(0.,0.,1.));
#975 = DIRECTION('',(1.,0.,0.));
#976 = ADVANCED_FACE('',(#977),#988,.T.);
#977 = FACE_BOUND('',#978,.T.);
#978 = EDGE_LOOP('',(#979,#980,#981,#982));
#979 = ORIENTED_EDGE('',*,*,#208,.T.);
#980 = ORIENTED_EDGE('',*,*,#936,.T.);
#981 = ORIENTED_EDGE('',*,*,#450,.F.);
#982 = ORIENTED_EDGE('',*,*,#983,.F.);
#983 = EDGE_CURVE('',#201,#443,#984,.T.);
#984 = LINE('',#985,#986);
#985 = CARTESIAN_POINT('',(18.65,-8.,0.));
#986 = VECTOR('',#987,1.);
#987 = DIRECTION('',(0.,0.,1.));
#988 = CYLINDRICAL_SURFACE('',#989,0.5);
#989 = AXIS2_PLACEMENT_3D('',#990,#991,#992);
#990 = CARTESIAN_POINT('',(18.65,-7.5,0.));
#991 = DIRECTION('',(0.,0.,1.));
#992 = DIRECTION('',(0.,-1.,0.));
#993 = ADVANCED_FACE('',(#994,#1005),#1016,.T.);
#994 = FACE_BOUND('',#995,.T.);
#995 = EDGE_LOOP('',(#996,#997,#1003,#1004));
#996 = ORIENTED_EDGE('',*,*,#150,.F.);
#997 = ORIENTED_EDGE('',*,*,#998,.T.);
#998 = EDGE_CURVE('',#151,#393,#999,.T.);
#999 = LINE('',#1000,#1001);
#1000 = CARTESIAN_POINT('',(0.5,4.,0.));
#1001 = VECTOR('',#1002,1.);
#1002 = DIRECTION('',(0.,0.,1.));
#1003 = ORIENTED_EDGE('',*,*,#392,.T.);
#1004 = ORIENTED_EDGE('',*,*,#964,.F.);
#1005 = FACE_BOUND('',#1006,.T.);
#1006 = EDGE_LOOP('',(#1007));
#1007 = ORIENTED_EDGE('',*,*,#1008,.F.);
#1008 = EDGE_CURVE('',#1009,#1009,#1011,.T.);
#1009 = VERTEX_POINT('',#1010);
#1010 = CARTESIAN_POINT('',(1.5,4.,3.6));
#1011 = CIRCLE('',#1012,1.75);
#1012 = AXIS2_PLACEMENT_3D('',#1013,#1014,#1015);
#1013 = CARTESIAN_POINT('',(3.25,4.,3.6));
#1014 = DIRECTION('',(0.,1.,-2.22044604925E-16));
#1015 = DIRECTION('',(-1.,0.,0.));
#1016 = PLANE('',#1017);
#1017 = AXIS2_PLACEMENT_3D('',#1018,#1019,#1020);
#1018 = CARTESIAN_POINT('',(0.,4.,0.));
#1019 = DIRECTION('',(0.,1.,0.));
#1020 = DIRECTION('',(1.,0.,0.));
#1021 = ADVANCED_FACE('',(#1022),#1033,.F.);
#1022 = FACE_BOUND('',#1023,.F.);
#1023 = EDGE_LOOP('',(#1024,#1025,#1031,#1032));
#1024 = ORIENTED_EDGE('',*,*,#200,.F.);
#1025 = ORIENTED_EDGE('',*,*,#1026,.T.);
#1026 = EDGE_CURVE('',#193,#435,#1027,.T.);
#1027 = LINE('',#1028,#1029);
#1028 = CARTESIAN_POINT('',(17.15,-8.,0.));
#1029 = VECTOR('',#1030,1.);
#1030 = DIRECTION('',(0.,0.,1.));
#1031 = ORIENTED_EDGE('',*,*,#442,.T.);
#1032 = ORIENTED_EDGE('',*,*,#983,.F.);
#1033 = PLANE('',#1034);
#1034 = AXIS2_PLACEMENT_3D('',#1035,#1036,#1037);
#1035 = CARTESIAN_POINT('',(17.15,-8.,0.));
#1036 = DIRECTION('',(0.,1.,0.));
#1037 = DIRECTION('',(1.,0.,0.));
#1038 = ADVANCED_FACE('',(#1039),#1050,.T.);
#1039 = FACE_BOUND('',#1040,.T.);
#1040 = EDGE_LOOP('',(#1041,#1042,#1048,#1049));
#1041 = ORIENTED_EDGE('',*,*,#158,.T.);
#1042 = ORIENTED_EDGE('',*,*,#1043,.T.);
#1043 = EDGE_CURVE('',#159,#401,#1044,.T.);
#1044 = LINE('',#1045,#1046);
#1045 = CARTESIAN_POINT('',(-1.110223024625E-16,3.5,0.));
#1046 = VECTOR('',#1047,1.);
#1047 = DIRECTION('',(0.,0.,1.));
#1048 = ORIENTED_EDGE('',*,*,#400,.F.);
#1049 = ORIENTED_EDGE('',*,*,#998,.F.);
#1050 = CYLINDRICAL_SURFACE('',#1051,0.5);
#1051 = AXIS2_PLACEMENT_3D('',#1052,#1053,#1054);
#1052 = CARTESIAN_POINT('',(0.5,3.5,0.));
#1053 = DIRECTION('',(0.,0.,1.));
#1054 = DIRECTION('',(0.,1.,0.));
#1055 = ADVANCED_FACE('',(#1056,#1067),#1078,.F.);
#1056 = FACE_BOUND('',#1057,.F.);
#1057 = EDGE_LOOP('',(#1058,#1059,#1065,#1066));
#1058 = ORIENTED_EDGE('',*,*,#192,.F.);
#1059 = ORIENTED_EDGE('',*,*,#1060,.T.);
#1060 = EDGE_CURVE('',#184,#426,#1061,.T.);
#1061 = LINE('',#1062,#1063);
#1062 = CARTESIAN_POINT('',(17.15,-2.5,0.));
#1063 = VECTOR('',#1064,1.);
#1064 = DIRECTION('',(0.,0.,1.));
#1065 = ORIENTED_EDGE('',*,*,#434,.T.);
#1066 = ORIENTED_EDGE('',*,*,#1026,.F.);
#1067 = FACE_BOUND('',#1068,.F.);
#1068 = EDGE_LOOP('',(#1069));
#1069 = ORIENTED_EDGE('',*,*,#1070,.T.);
#1070 = EDGE_CURVE('',#1071,#1071,#1073,.T.);
#1071 = VERTEX_POINT('',#1072);
#1072 = CARTESIAN_POINT('',(17.15,-6.75,3.6));
#1073 = CIRCLE('',#1074,1.75);
#1074 = AXIS2_PLACEMENT_3D('',#1075,#1076,#1077);
#1075 = CARTESIAN_POINT('',(17.15,-5.,3.6));
#1076 = DIRECTION('',(-1.,0.,0.));
#1077 = DIRECTION('',(0.,-1.,0.));
#1078 = PLANE('',#1079);
#1079 = AXIS2_PLACEMENT_3D('',#1080,#1081,#1082);
#1080 = CARTESIAN_POINT('',(17.15,-2.,0.));
#1081 = DIRECTION('',(1.,0.,0.));
#1082 = DIRECTION('',(0.,-1.,0.));
#1083 = ADVANCED_FACE('',(#1084),#1095,.T.);
#1084 = FACE_BOUND('',#1085,.T.);
#1085 = EDGE_LOOP('',(#1086,#1087,#1093,#1094));
#1086 = ORIENTED_EDGE('',*,*,#167,.T.);
#1087 = ORIENTED_EDGE('',*,*,#1088,.T.);
#1088 = EDGE_CURVE('',#168,#410,#1089,.T.);
#1089 = LINE('',#1090,#1091);
#1090 = CARTESIAN_POINT('',(0.,-2.,0.));
#1091 = VECTOR('',#1092,1.);
#1092 = DIRECTION('',(0.,0.,1.));
#1093 = ORIENTED_EDGE('',*,*,#409,.T.);
#1094 = ORIENTED_EDGE('',*,*,#1043,.F.);
#1095 = PLANE('',#1096);
#1096 = AXIS2_PLACEMENT_3D('',#1097,#1098,#1099);
#1097 = CARTESIAN_POINT('',(0.,1.,3.6));
#1098 = DIRECTION('',(-1.,-0.,-0.));
#1099 = DIRECTION('',(0.,0.,-1.));
#1100 = ADVANCED_FACE('',(#1101),#1112,.F.);
#1101 = FACE_BOUND('',#1102,.T.);
#1102 = EDGE_LOOP('',(#1103,#1104,#1105,#1106));
#1103 = ORIENTED_EDGE('',*,*,#183,.T.);
#1104 = ORIENTED_EDGE('',*,*,#1060,.T.);
#1105 = ORIENTED_EDGE('',*,*,#425,.F.);
#1106 = ORIENTED_EDGE('',*,*,#1107,.F.);
#1107 = EDGE_CURVE('',#176,#418,#1108,.T.);
#1108 = LINE('',#1109,#1110);
#1109 = CARTESIAN_POINT('',(16.65,-2.,0.));
#1110 = VECTOR('',#1111,1.);
#1111 = DIRECTION('',(0.,0.,1.));
#1112 = CYLINDRICAL_SURFACE('',#1113,0.5);
#1113 = AXIS2_PLACEMENT_3D('',#1114,#1115,#1116);
#1114 = CARTESIAN_POINT('',(16.65,-2.5,0.));
#1115 = DIRECTION('',(0.,0.,1.));
#1116 = DIRECTION('',(0.,1.,0.));
#1117 = ADVANCED_FACE('',(#1118,#1124),#1174,.F.);
#1118 = FACE_BOUND('',#1119,.F.);
#1119 = EDGE_LOOP('',(#1120,#1121,#1122,#1123));
#1120 = ORIENTED_EDGE('',*,*,#175,.F.);
#1121 = ORIENTED_EDGE('',*,*,#1088,.T.);
#1122 = ORIENTED_EDGE('',*,*,#417,.T.);
#1123 = ORIENTED_EDGE('',*,*,#1107,.F.);
#1124 = FACE_BOUND('',#1125,.F.);
#1125 = EDGE_LOOP('',(#1126,#1136,#1144,#1152,#1160,#1168));
#1126 = ORIENTED_EDGE('',*,*,#1127,.T.);
#1127 = EDGE_CURVE('',#1128,#1130,#1132,.T.);
#1128 = VERTEX_POINT('',#1129);
#1129 = CARTESIAN_POINT('',(5.848076547956,-2.,2.100000583013));
#1130 = VERTEX_POINT('',#1131);
#1131 = CARTESIAN_POINT('',(5.848075874751,-2.,5.100000583013));
#1132 = LINE('',#1133,#1134);
#1133 = CARTESIAN_POINT('',(5.848076547956,-2.,2.100000583013));
#1134 = VECTOR('',#1135,1.);
#1135 = DIRECTION('',(-2.244016895266E-07,2.22044604925E-16,1.));
#1136 = ORIENTED_EDGE('',*,*,#1137,.T.);
#1137 = EDGE_CURVE('',#1130,#1138,#1140,.T.);
#1138 = VERTEX_POINT('',#1139);
#1139 = CARTESIAN_POINT('',(3.249999326795,-2.,6.6));
#1140 = LINE('',#1141,#1142);
#1141 = CARTESIAN_POINT('',(5.848075874751,-2.,5.100000583013));
#1142 = VECTOR('',#1143,1.);
#1143 = DIRECTION('',(-0.866025515985,1.110222593109E-16,0.499999805662)
  );
#1144 = ORIENTED_EDGE('',*,*,#1145,.T.);
#1145 = EDGE_CURVE('',#1138,#1146,#1148,.T.);
#1146 = VERTEX_POINT('',#1147);
#1147 = CARTESIAN_POINT('',(0.651923452044,-2.,5.099999416987));
#1148 = LINE('',#1149,#1150);
#1149 = CARTESIAN_POINT('',(3.249999326795,-2.,6.6));
#1150 = VECTOR('',#1151,1.);
#1151 = DIRECTION('',(-0.866025291584,-1.110223456141E-16,
    -0.500000194338));
#1152 = ORIENTED_EDGE('',*,*,#1153,.T.);
#1153 = EDGE_CURVE('',#1146,#1154,#1156,.T.);
#1154 = VERTEX_POINT('',#1155);
#1155 = CARTESIAN_POINT('',(0.651924125249,-2.,2.099999416987));
#1156 = LINE('',#1157,#1158);
#1157 = CARTESIAN_POINT('',(0.651923452044,-2.,5.099999416987));
#1158 = VECTOR('',#1159,1.);
#1159 = DIRECTION('',(2.244016897116E-07,-2.22044604925E-16,-1.));
#1160 = ORIENTED_EDGE('',*,*,#1161,.T.);
#1161 = EDGE_CURVE('',#1154,#1162,#1164,.T.);
#1162 = VERTEX_POINT('',#1163);
#1163 = CARTESIAN_POINT('',(3.250000673205,-2.,0.6));
#1164 = LINE('',#1165,#1166);
#1165 = CARTESIAN_POINT('',(0.651924125249,-2.,2.099999416987));
#1166 = VECTOR('',#1167,1.);
#1167 = DIRECTION('',(0.866025515985,-1.110222593109E-16,-0.499999805662
    ));
#1168 = ORIENTED_EDGE('',*,*,#1169,.T.);
#1169 = EDGE_CURVE('',#1162,#1128,#1170,.T.);
#1170 = LINE('',#1171,#1172);
#1171 = CARTESIAN_POINT('',(3.250000673205,-2.,0.6));
#1172 = VECTOR('',#1173,1.);
#1173 = DIRECTION('',(0.866025291584,1.110223456141E-16,0.500000194338)
  );
#1174 = PLANE('',#1175);
#1175 = AXIS2_PLACEMENT_3D('',#1176,#1177,#1178);
#1176 = CARTESIAN_POINT('',(0.,-2.,0.));
#1177 = DIRECTION('',(0.,1.,0.));
#1178 = DIRECTION('',(1.,0.,0.));
#1179 = ADVANCED_FACE('',(#1180),#1191,.F.);
#1180 = FACE_BOUND('',#1181,.F.);
#1181 = EDGE_LOOP('',(#1182,#1188,#1189,#1190));
#1182 = ORIENTED_EDGE('',*,*,#1183,.T.);
#1183 = EDGE_CURVE('',#609,#743,#1184,.T.);
#1184 = ( BOUNDED_CURVE() B_SPLINE_CURVE(2,(#1185,#1186,#1187),
.UNSPECIFIED.,.F.,.F.) B_SPLINE_CURVE_WITH_KNOTS((3,3),(0.,
5.662410334384E-02),.PIECEWISE_BEZIER_KNOTS.) CURVE() 
GEOMETRIC_REPRESENTATION_ITEM() RATIONAL_B_SPLINE_CURVE((1.,
0.707106781187,1.)) REPRESENTATION_ITEM('') );
#1185 = CARTESIAN_POINT('',(25.6,-2.,5.156624686357));
#1186 = CARTESIAN_POINT('',(25.1,-2.,5.156624686357));
#1187 = CARTESIAN_POINT('',(25.1,-2.5,5.156624686357));
#1188 = ORIENTED_EDGE('',*,*,#750,.T.);
#1189 = ORIENTED_EDGE('',*,*,#508,.F.);
#1190 = ORIENTED_EDGE('',*,*,#617,.F.);
#1191 = CYLINDRICAL_SURFACE('',#1192,0.5);
#1192 = AXIS2_PLACEMENT_3D('',#1193,#1194,#1195);
#1193 = CARTESIAN_POINT('',(25.6,-2.5,0.));
#1194 = DIRECTION('',(0.,0.,1.));
#1195 = DIRECTION('',(0.,1.,0.));
#1196 = ADVANCED_FACE('',(#1197,#1247),#1250,.F.);
#1197 = FACE_BOUND('',#1198,.F.);
#1198 = EDGE_LOOP('',(#1199,#1209,#1217,#1225,#1233,#1241));
#1199 = ORIENTED_EDGE('',*,*,#1200,.F.);
#1200 = EDGE_CURVE('',#1201,#1203,#1205,.T.);
#1201 = VERTEX_POINT('',#1202);
#1202 = CARTESIAN_POINT('',(34.348075874751,0.25,5.100000583013));
#1203 = VERTEX_POINT('',#1204);
#1204 = CARTESIAN_POINT('',(31.749999326795,0.25,6.6));
#1205 = LINE('',#1206,#1207);
#1206 = CARTESIAN_POINT('',(34.348075874751,0.25,5.100000583013));
#1207 = VECTOR('',#1208,1.);
#1208 = DIRECTION('',(-0.866025515985,1.110222593109E-16,0.499999805662)
  );
#1209 = ORIENTED_EDGE('',*,*,#1210,.F.);
#1210 = EDGE_CURVE('',#1211,#1201,#1213,.T.);
#1211 = VERTEX_POINT('',#1212);
#1212 = CARTESIAN_POINT('',(34.348076547956,0.25,2.100000583013));
#1213 = LINE('',#1214,#1215);
#1214 = CARTESIAN_POINT('',(34.348076547956,0.25,2.100000583013));
#1215 = VECTOR('',#1216,1.);
#1216 = DIRECTION('',(-2.244016907108E-07,2.22044604925E-16,1.));
#1217 = ORIENTED_EDGE('',*,*,#1218,.F.);
#1218 = EDGE_CURVE('',#1219,#1211,#1221,.T.);
#1219 = VERTEX_POINT('',#1220);
#1220 = CARTESIAN_POINT('',(31.750000673205,0.25,0.6));
#1221 = LINE('',#1222,#1223);
#1222 = CARTESIAN_POINT('',(31.750000673205,0.25,0.6));
#1223 = VECTOR('',#1224,1.);
#1224 = DIRECTION('',(0.866025291584,1.110223456141E-16,0.500000194338)
  );
#1225 = ORIENTED_EDGE('',*,*,#1226,.F.);
#1226 = EDGE_CURVE('',#1227,#1219,#1229,.T.);
#1227 = VERTEX_POINT('',#1228);
#1228 = CARTESIAN_POINT('',(29.151924125249,0.25,2.099999416987));
#1229 = LINE('',#1230,#1231);
#1230 = CARTESIAN_POINT('',(29.151924125249,0.25,2.099999416987));
#1231 = VECTOR('',#1232,1.);
#1232 = DIRECTION('',(0.866025515985,-1.110222593109E-16,-0.499999805662
    ));
#1233 = ORIENTED_EDGE('',*,*,#1234,.F.);
#1234 = EDGE_CURVE('',#1235,#1227,#1237,.T.);
#1235 = VERTEX_POINT('',#1236);
#1236 = CARTESIAN_POINT('',(29.151923452044,0.25,5.099999416987));
#1237 = LINE('',#1238,#1239);
#1238 = CARTESIAN_POINT('',(29.151923452044,0.25,5.099999416987));
#1239 = VECTOR('',#1240,1.);
#1240 = DIRECTION('',(2.244016907108E-07,-2.22044604925E-16,-1.));
#1241 = ORIENTED_EDGE('',*,*,#1242,.F.);
#1242 = EDGE_CURVE('',#1203,#1235,#1243,.T.);
#1243 = LINE('',#1244,#1245);
#1244 = CARTESIAN_POINT('',(31.749999326795,0.25,6.6));
#1245 = VECTOR('',#1246,1.);
#1246 = DIRECTION('',(-0.866025291584,-1.110223456141E-16,
    -0.500000194338));
#1247 = FACE_BOUND('',#1248,.F.);
#1248 = EDGE_LOOP('',(#1249));
#1249 = ORIENTED_EDGE('',*,*,#550,.F.);
#1250 = PLANE('',#1251);
#1251 = AXIS2_PLACEMENT_3D('',#1252,#1253,#1254);
#1252 = CARTESIAN_POINT('',(17.5,0.25,3.6));
#1253 = DIRECTION('',(0.,1.,0.));
#1254 = DIRECTION('',(0.,0.,1.));
#1255 = ADVANCED_FACE('',(#1256),#1275,.F.);
#1256 = FACE_BOUND('',#1257,.F.);
#1257 = EDGE_LOOP('',(#1258,#1259,#1268,#1274));
#1258 = ORIENTED_EDGE('',*,*,#692,.T.);
#1259 = ORIENTED_EDGE('',*,*,#1260,.T.);
#1260 = EDGE_CURVE('',#685,#1261,#1263,.T.);
#1261 = VERTEX_POINT('',#1262);
#1262 = CARTESIAN_POINT('',(25.1,-2.401923452044,2.100000583013));
#1263 = ( BOUNDED_CURVE() B_SPLINE_CURVE(3,(#1264,#1265,#1266,#1267),
.UNSPECIFIED.,.F.,.F.) B_SPLINE_CURVE_WITH_KNOTS((4,4),(2.043376032304,
2.100000583013),.PIECEWISE_BEZIER_KNOTS.) CURVE() 
GEOMETRIC_REPRESENTATION_ITEM() RATIONAL_B_SPLINE_CURVE((1.,1.,1.,1.)) 
REPRESENTATION_ITEM('') );
#1264 = CARTESIAN_POINT('',(25.1,-2.5,2.043376032304));
#1265 = CARTESIAN_POINT('',(25.1,-2.467307817348,2.062250882541));
#1266 = CARTESIAN_POINT('',(25.1,-2.434615634696,2.081125732777));
#1267 = CARTESIAN_POINT('',(25.1,-2.401923452044,2.100000583013));
#1268 = ORIENTED_EDGE('',*,*,#1269,.F.);
#1269 = EDGE_CURVE('',#592,#1261,#1270,.T.);
#1270 = ( BOUNDED_CURVE() B_SPLINE_CURVE(2,(#1271,#1272,#1273),
.UNSPECIFIED.,.F.,.F.) B_SPLINE_CURVE_WITH_KNOTS((3,3),(0.,
5.662455070822E-02),.PIECEWISE_BEZIER_KNOTS.) CURVE() 
GEOMETRIC_REPRESENTATION_ITEM() RATIONAL_B_SPLINE_CURVE((1.,
0.773354089635,1.)) REPRESENTATION_ITEM('') );
#1271 = CARTESIAN_POINT('',(25.590286641406,-2.,2.100000583013));
#1272 = CARTESIAN_POINT('',(25.180400446167,-2.,2.100000583013));
#1273 = CARTESIAN_POINT('',(25.1,-2.401923452044,2.100000583013));
#1274 = ORIENTED_EDGE('',*,*,#591,.F.);
#1275 = ( BOUNDED_SURFACE() B_SPLINE_SURFACE(2,3,(
    (#1276,#1277,#1278,#1279)
    ,(#1280,#1281,#1282,#1283)
    ,(#1284,#1285,#1286,#1287
)),.UNSPECIFIED.,.F.,.F.,.F.) B_SPLINE_SURFACE_WITH_KNOTS((3,3),(4,4),(
    0.,5.662455070822E-02),(2.043376032304,2.100000583013),
.PIECEWISE_BEZIER_KNOTS.) GEOMETRIC_REPRESENTATION_ITEM() 
RATIONAL_B_SPLINE_SURFACE((
    (1.,1.,1.,1.)
    ,(0.707106781187,0.730223645232,0.752217469884,0.773354089635)
,(1.,1.,1.,1.))) REPRESENTATION_ITEM('') SURFACE() );
#1276 = CARTESIAN_POINT('',(25.6,-2.,2.043376032304));
#1277 = CARTESIAN_POINT('',(25.6,-2.,2.062250882541));
#1278 = CARTESIAN_POINT('',(25.596826359499,-2.,2.081125732777));
#1279 = CARTESIAN_POINT('',(25.590286641406,-2.,2.100000583013));
#1280 = CARTESIAN_POINT('',(25.1,-2.,2.043376032304));
#1281 = CARTESIAN_POINT('',(25.131657238431,-2.,2.061653356906));
#1282 = CARTESIAN_POINT('',(25.158468155636,-2.,2.080595366828));
#1283 = CARTESIAN_POINT('',(25.180400446167,-2.,2.100000583013));
#1284 = CARTESIAN_POINT('',(25.1,-2.5,2.043376032304));
#1285 = CARTESIAN_POINT('',(25.1,-2.467307817348,2.062250882541));
#1286 = CARTESIAN_POINT('',(25.1,-2.434615634696,2.081125732777));
#1287 = CARTESIAN_POINT('',(25.1,-2.401923452044,2.100000583013));
#1288 = ADVANCED_FACE('',(#1289),#1307,.F.);
#1289 = FACE_BOUND('',#1290,.F.);
#1290 = EDGE_LOOP('',(#1291,#1292,#1300,#1306));
#1291 = ORIENTED_EDGE('',*,*,#1269,.T.);
#1292 = ORIENTED_EDGE('',*,*,#1293,.T.);
#1293 = EDGE_CURVE('',#1261,#1294,#1296,.T.);
#1294 = VERTEX_POINT('',#1295);
#1295 = CARTESIAN_POINT('',(25.1,-2.401924125249,5.100000583013));
#1296 = B_SPLINE_CURVE_WITH_KNOTS('',2,(#1297,#1298,#1299),
  .UNSPECIFIED.,.F.,.F.,(3,3),(2.100000583013,5.100000583013),
  .PIECEWISE_BEZIER_KNOTS.);
#1297 = CARTESIAN_POINT('',(25.1,-2.401923452044,2.100000583013));
#1298 = CARTESIAN_POINT('',(25.1,-2.401923788647,3.600000583013));
#1299 = CARTESIAN_POINT('',(25.1,-2.401924125249,5.100000583013));
#1300 = ORIENTED_EDGE('',*,*,#1301,.F.);
#1301 = EDGE_CURVE('',#601,#1294,#1302,.T.);
#1302 = ( BOUNDED_CURVE() B_SPLINE_CURVE(2,(#1303,#1304,#1305),
.UNSPECIFIED.,.F.,.F.) B_SPLINE_CURVE_WITH_KNOTS((3,3),(0.,3.),
.PIECEWISE_BEZIER_KNOTS.) CURVE() GEOMETRIC_REPRESENTATION_ITEM() 
RATIONAL_B_SPLINE_CURVE((1.,0.773353654385,1.)) REPRESENTATION_ITEM('') 
  );
#1303 = CARTESIAN_POINT('',(25.590286776197,-2.,5.100000583013));
#1304 = CARTESIAN_POINT('',(25.180400006876,-2.,5.100000583013));
#1305 = CARTESIAN_POINT('',(25.1,-2.401924125249,5.100000583013));
#1306 = ORIENTED_EDGE('',*,*,#600,.F.);
#1307 = ( BOUNDED_SURFACE() B_SPLINE_SURFACE(2,2,(
    (#1308,#1309,#1310)
    ,(#1311,#1312,#1313)
    ,(#1314,#1315,#1316
)),.UNSPECIFIED.,.F.,.F.,.F.) B_SPLINE_SURFACE_WITH_KNOTS((3,3),(3,3),(
    0.,3.),(2.100000583013,5.100000583013),.PIECEWISE_BEZIER_KNOTS.) 
GEOMETRIC_REPRESENTATION_ITEM() RATIONAL_B_SPLINE_SURFACE((
    (1.,1.,1.)
    ,(0.773354089635,0.77335387201,0.773353654385)
,(1.,1.,1.))) REPRESENTATION_ITEM('') SURFACE() );
#1308 = CARTESIAN_POINT('',(25.590286641406,-2.,2.100000583013));
#1309 = CARTESIAN_POINT('',(25.59028670874,-2.,3.600000583013));
#1310 = CARTESIAN_POINT('',(25.590286776197,-2.,5.100000583013));
#1311 = CARTESIAN_POINT('',(25.180400446167,-2.,2.100000583013));
#1312 = CARTESIAN_POINT('',(25.180400226522,-2.,3.600001005119));
#1313 = CARTESIAN_POINT('',(25.180400006876,-2.,5.100000583013));
#1314 = CARTESIAN_POINT('',(25.1,-2.401923452044,2.100000583013));
#1315 = CARTESIAN_POINT('',(25.1,-2.401923788647,3.600000583013));
#1316 = CARTESIAN_POINT('',(25.1,-2.401924125249,5.100000583013));
#1317 = ADVANCED_FACE('',(#1318),#1330,.F.);
#1318 = FACE_BOUND('',#1319,.F.);
#1319 = EDGE_LOOP('',(#1320,#1321,#1328,#1329));
#1320 = ORIENTED_EDGE('',*,*,#1301,.T.);
#1321 = ORIENTED_EDGE('',*,*,#1322,.T.);
#1322 = EDGE_CURVE('',#1294,#743,#1323,.T.);
#1323 = ( BOUNDED_CURVE() B_SPLINE_CURVE(3,(#1324,#1325,#1326,#1327),
.UNSPECIFIED.,.F.,.F.) B_SPLINE_CURVE_WITH_KNOTS((4,4),(5.100000583013,
5.156624686357),.PIECEWISE_BEZIER_KNOTS.) CURVE() 
GEOMETRIC_REPRESENTATION_ITEM() RATIONAL_B_SPLINE_CURVE((1.,1.,1.,1.)) 
REPRESENTATION_ITEM('') );
#1324 = CARTESIAN_POINT('',(25.1,-2.401924125249,5.100000583013));
#1325 = CARTESIAN_POINT('',(25.1,-2.434616083499,5.118875284127));
#1326 = CARTESIAN_POINT('',(25.1,-2.46730804175,5.137749985242));
#1327 = CARTESIAN_POINT('',(25.1,-2.5,5.156624686357));
#1328 = ORIENTED_EDGE('',*,*,#1183,.F.);
#1329 = ORIENTED_EDGE('',*,*,#608,.F.);
#1330 = ( BOUNDED_SURFACE() B_SPLINE_SURFACE(2,3,(
    (#1331,#1332,#1333,#1334)
    ,(#1335,#1336,#1337,#1338)
    ,(#1339,#1340,#1341,#1342
)),.UNSPECIFIED.,.F.,.F.,.F.) B_SPLINE_SURFACE_WITH_KNOTS((3,3),(4,4),(
    0.,5.662410334384E-02),(5.100000583013,5.156624686357),
.PIECEWISE_BEZIER_KNOTS.) GEOMETRIC_REPRESENTATION_ITEM() 
RATIONAL_B_SPLINE_SURFACE((
    (1.,1.,1.,1.)
    ,(0.773353654385,0.752217167821,0.730223486556,0.707106781187)
,(1.,1.,1.,1.))) REPRESENTATION_ITEM('') SURFACE() );
#1331 = CARTESIAN_POINT('',(25.590286776073,-2.,5.100000583013));
#1332 = CARTESIAN_POINT('',(25.596826402592,-2.,5.118875284127));
#1333 = CARTESIAN_POINT('',(25.6,-2.,5.137749985242));
#1334 = CARTESIAN_POINT('',(25.6,-2.,5.156624686357));
#1335 = CARTESIAN_POINT('',(25.180400006876,-2.,5.100000583013));
#1336 = CARTESIAN_POINT('',(25.158467798044,-2.,5.119405642757));
#1337 = CARTESIAN_POINT('',(25.131657028012,-2.,5.138347502184));
#1338 = CARTESIAN_POINT('',(25.1,-2.,5.156624686357));
#1339 = CARTESIAN_POINT('',(25.1,-2.401924125249,5.100000583013));
#1340 = CARTESIAN_POINT('',(25.1,-2.434616083499,5.118875284127));
#1341 = CARTESIAN_POINT('',(25.1,-2.46730804175,5.137749985242));
#1342 = CARTESIAN_POINT('',(25.1,-2.5,5.156624686357));
#1343 = ADVANCED_FACE('',(#1344),#1360,.F.);
#1344 = FACE_BOUND('',#1345,.F.);
#1345 = EDGE_LOOP('',(#1346,#1352,#1353,#1359));
#1346 = ORIENTED_EDGE('',*,*,#1347,.T.);
#1347 = EDGE_CURVE('',#628,#1211,#1348,.T.);
#1348 = LINE('',#1349,#1350);
#1349 = CARTESIAN_POINT('',(34.348076547956,-2.,2.100000583013));
#1350 = VECTOR('',#1351,1.);
#1351 = DIRECTION('',(0.,1.,-2.22044604925E-16));
#1352 = ORIENTED_EDGE('',*,*,#1210,.T.);
#1353 = ORIENTED_EDGE('',*,*,#1354,.F.);
#1354 = EDGE_CURVE('',#630,#1201,#1355,.T.);
#1355 = LINE('',#1356,#1357);
#1356 = CARTESIAN_POINT('',(34.348075874751,-2.,5.100000583013));
#1357 = VECTOR('',#1358,1.);
#1358 = DIRECTION('',(0.,1.,-2.22044604925E-16));
#1359 = ORIENTED_EDGE('',*,*,#627,.F.);
#1360 = PLANE('',#1361);
#1361 = AXIS2_PLACEMENT_3D('',#1362,#1363,#1364);
#1362 = CARTESIAN_POINT('',(34.348076547956,-2.,2.100000583013));
#1363 = DIRECTION('',(1.,4.98271847584E-23,2.244016907108E-07));
#1364 = DIRECTION('',(-2.244016907108E-07,2.22044604925E-16,1.));
#1365 = ADVANCED_FACE('',(#1366),#1377,.F.);
#1366 = FACE_BOUND('',#1367,.F.);
#1367 = EDGE_LOOP('',(#1368,#1374,#1375,#1376));
#1368 = ORIENTED_EDGE('',*,*,#1369,.T.);
#1369 = EDGE_CURVE('',#662,#1219,#1370,.T.);
#1370 = LINE('',#1371,#1372);
#1371 = CARTESIAN_POINT('',(31.750000673205,-2.,0.6));
#1372 = VECTOR('',#1373,1.);
#1373 = DIRECTION('',(0.,1.,-2.22044604925E-16));
#1374 = ORIENTED_EDGE('',*,*,#1218,.T.);
#1375 = ORIENTED_EDGE('',*,*,#1347,.F.);
#1376 = ORIENTED_EDGE('',*,*,#669,.F.);
#1377 = PLANE('',#1378);
#1378 = AXIS2_PLACEMENT_3D('',#1379,#1380,#1381);
#1379 = CARTESIAN_POINT('',(31.750000673205,-2.,0.6));
#1380 = DIRECTION('',(0.500000194338,-1.922962437248E-16,-0.866025291584
    ));
#1381 = DIRECTION('',(0.866025291584,1.110223456141E-16,0.500000194338)
  );
#1382 = ADVANCED_FACE('',(#1383),#1394,.F.);
#1383 = FACE_BOUND('',#1384,.F.);
#1384 = EDGE_LOOP('',(#1385,#1391,#1392,#1393));
#1385 = ORIENTED_EDGE('',*,*,#1386,.T.);
#1386 = EDGE_CURVE('',#654,#1227,#1387,.T.);
#1387 = LINE('',#1388,#1389);
#1388 = CARTESIAN_POINT('',(29.151924125249,-2.,2.099999416987));
#1389 = VECTOR('',#1390,1.);
#1390 = DIRECTION('',(0.,1.,-2.22044604925E-16));
#1391 = ORIENTED_EDGE('',*,*,#1226,.T.);
#1392 = ORIENTED_EDGE('',*,*,#1369,.F.);
#1393 = ORIENTED_EDGE('',*,*,#661,.F.);
#1394 = PLANE('',#1395);
#1395 = AXIS2_PLACEMENT_3D('',#1396,#1397,#1398);
#1396 = CARTESIAN_POINT('',(29.151924125249,-2.,2.099999416987));
#1397 = DIRECTION('',(-0.499999805662,-1.922962935519E-16,
    -0.866025515985));
#1398 = DIRECTION('',(0.866025515985,-1.110222593109E-16,-0.499999805662
    ));
#1399 = ADVANCED_FACE('',(#1400),#1411,.F.);
#1400 = FACE_BOUND('',#1401,.F.);
#1401 = EDGE_LOOP('',(#1402,#1408,#1409,#1410));
#1402 = ORIENTED_EDGE('',*,*,#1403,.T.);
#1403 = EDGE_CURVE('',#646,#1235,#1404,.T.);
#1404 = LINE('',#1405,#1406);
#1405 = CARTESIAN_POINT('',(29.151923452044,-2.,5.099999416987));
#1406 = VECTOR('',#1407,1.);
#1407 = DIRECTION('',(0.,1.,-2.22044604925E-16));
#1408 = ORIENTED_EDGE('',*,*,#1234,.T.);
#1409 = ORIENTED_EDGE('',*,*,#1386,.F.);
#1410 = ORIENTED_EDGE('',*,*,#653,.F.);
#1411 = PLANE('',#1412);
#1412 = AXIS2_PLACEMENT_3D('',#1413,#1414,#1415);
#1413 = CARTESIAN_POINT('',(29.151923452044,-2.,5.099999416987));
#1414 = DIRECTION('',(-1.,-4.98271847584E-23,-2.244016907108E-07));
#1415 = DIRECTION('',(2.244016907108E-07,-2.22044604925E-16,-1.));
#1416 = ADVANCED_FACE('',(#1417),#1428,.F.);
#1417 = FACE_BOUND('',#1418,.F.);
#1418 = EDGE_LOOP('',(#1419,#1425,#1426,#1427));
#1419 = ORIENTED_EDGE('',*,*,#1420,.T.);
#1420 = EDGE_CURVE('',#638,#1203,#1421,.T.);
#1421 = LINE('',#1422,#1423);
#1422 = CARTESIAN_POINT('',(31.749999326795,-2.,6.6));
#1423 = VECTOR('',#1424,1.);
#1424 = DIRECTION('',(0.,1.,-2.22044604925E-16));
#1425 = ORIENTED_EDGE('',*,*,#1242,.T.);
#1426 = ORIENTED_EDGE('',*,*,#1403,.F.);
#1427 = ORIENTED_EDGE('',*,*,#645,.F.);
#1428 = PLANE('',#1429);
#1429 = AXIS2_PLACEMENT_3D('',#1430,#1431,#1432);
#1430 = CARTESIAN_POINT('',(31.749999326795,-2.,6.6));
#1431 = DIRECTION('',(-0.500000194338,1.922962437248E-16,0.866025291584)
  );
#1432 = DIRECTION('',(-0.866025291584,-1.110223456141E-16,
    -0.500000194338));
#1433 = ADVANCED_FACE('',(#1434),#1440,.F.);
#1434 = FACE_BOUND('',#1435,.F.);
#1435 = EDGE_LOOP('',(#1436,#1437,#1438,#1439));
#1436 = ORIENTED_EDGE('',*,*,#1354,.T.);
#1437 = ORIENTED_EDGE('',*,*,#1200,.T.);
#1438 = ORIENTED_EDGE('',*,*,#1420,.F.);
#1439 = ORIENTED_EDGE('',*,*,#637,.F.);
#1440 = PLANE('',#1441);
#1441 = AXIS2_PLACEMENT_3D('',#1442,#1443,#1444);
#1442 = CARTESIAN_POINT('',(34.348075874751,-2.,5.100000583013));
#1443 = DIRECTION('',(0.499999805662,1.922962935519E-16,0.866025515985)
  );
#1444 = DIRECTION('',(-0.866025515985,1.110222593109E-16,0.499999805662)
  );
#1445 = ADVANCED_FACE('',(#1446),#1472,.F.);
#1446 = FACE_BOUND('',#1447,.F.);
#1447 = EDGE_LOOP('',(#1448,#1449,#1457,#1465,#1471));
#1448 = ORIENTED_EDGE('',*,*,#710,.F.);
#1449 = ORIENTED_EDGE('',*,*,#1450,.T.);
#1450 = EDGE_CURVE('',#711,#1451,#1453,.T.);
#1451 = VERTEX_POINT('',#1452);
#1452 = CARTESIAN_POINT('',(22.85,-4.999999326795,0.6));
#1453 = LINE('',#1454,#1455);
#1454 = CARTESIAN_POINT('',(25.1,-4.999999326795,0.6));
#1455 = VECTOR('',#1456,1.);
#1456 = DIRECTION('',(-1.,-0.,-0.));
#1457 = ORIENTED_EDGE('',*,*,#1458,.T.);
#1458 = EDGE_CURVE('',#1451,#1459,#1461,.T.);
#1459 = VERTEX_POINT('',#1460);
#1460 = CARTESIAN_POINT('',(22.85,-2.401923452044,2.100000583013));
#1461 = LINE('',#1462,#1463);
#1462 = CARTESIAN_POINT('',(22.85,-4.999999326795,0.6));
#1463 = VECTOR('',#1464,1.);
#1464 = DIRECTION('',(0.,0.866025291584,0.500000194338));
#1465 = ORIENTED_EDGE('',*,*,#1466,.F.);
#1466 = EDGE_CURVE('',#1261,#1459,#1467,.T.);
#1467 = LINE('',#1468,#1469);
#1468 = CARTESIAN_POINT('',(25.1,-2.401923452044,2.100000583013));
#1469 = VECTOR('',#1470,1.);
#1470 = DIRECTION('',(-1.,-0.,-0.));
#1471 = ORIENTED_EDGE('',*,*,#1260,.F.);
#1472 = PLANE('',#1473);
#1473 = AXIS2_PLACEMENT_3D('',#1474,#1475,#1476);
#1474 = CARTESIAN_POINT('',(25.1,-4.999999326795,0.6));
#1475 = DIRECTION('',(0.,0.500000194338,-0.866025291584));
#1476 = DIRECTION('',(0.,0.866025291584,0.500000194338));
#1477 = ADVANCED_FACE('',(#1478),#1496,.F.);
#1478 = FACE_BOUND('',#1479,.F.);
#1479 = EDGE_LOOP('',(#1480,#1488,#1494,#1495));
#1480 = ORIENTED_EDGE('',*,*,#1481,.T.);
#1481 = EDGE_CURVE('',#719,#1482,#1484,.T.);
#1482 = VERTEX_POINT('',#1483);
#1483 = CARTESIAN_POINT('',(22.85,-7.598075874751,2.099999416987));
#1484 = LINE('',#1485,#1486);
#1485 = CARTESIAN_POINT('',(25.1,-7.598075874751,2.099999416987));
#1486 = VECTOR('',#1487,1.);
#1487 = DIRECTION('',(-1.,-0.,-0.));
#1488 = ORIENTED_EDGE('',*,*,#1489,.T.);
#1489 = EDGE_CURVE('',#1482,#1451,#1490,.T.);
#1490 = LINE('',#1491,#1492);
#1491 = CARTESIAN_POINT('',(22.85,-7.598075874751,2.099999416987));
#1492 = VECTOR('',#1493,1.);
#1493 = DIRECTION('',(0.,0.866025515985,-0.499999805662));
#1494 = ORIENTED_EDGE('',*,*,#1450,.F.);
#1495 = ORIENTED_EDGE('',*,*,#718,.F.);
#1496 = PLANE('',#1497);
#1497 = AXIS2_PLACEMENT_3D('',#1498,#1499,#1500);
#1498 = CARTESIAN_POINT('',(25.1,-7.598075874751,2.099999416987));
#1499 = DIRECTION('',(0.,-0.499999805662,-0.866025515985));
#1500 = DIRECTION('',(0.,0.866025515985,-0.499999805662));
#1501 = ADVANCED_FACE('',(#1502),#1520,.F.);
#1502 = FACE_BOUND('',#1503,.F.);
#1503 = EDGE_LOOP('',(#1504,#1512,#1518,#1519));
#1504 = ORIENTED_EDGE('',*,*,#1505,.T.);
#1505 = EDGE_CURVE('',#727,#1506,#1508,.T.);
#1506 = VERTEX_POINT('',#1507);
#1507 = CARTESIAN_POINT('',(22.85,-7.598076547956,5.099999416987));
#1508 = LINE('',#1509,#1510);
#1509 = CARTESIAN_POINT('',(25.1,-7.598076547956,5.099999416987));
#1510 = VECTOR('',#1511,1.);
#1511 = DIRECTION('',(-1.,-0.,-0.));
#1512 = ORIENTED_EDGE('',*,*,#1513,.T.);
#1513 = EDGE_CURVE('',#1506,#1482,#1514,.T.);
#1514 = LINE('',#1515,#1516);
#1515 = CARTESIAN_POINT('',(22.85,-7.598076547956,5.099999416987));
#1516 = VECTOR('',#1517,1.);
#1517 = DIRECTION('',(0.,2.244016898227E-07,-1.));
#1518 = ORIENTED_EDGE('',*,*,#1481,.F.);
#1519 = ORIENTED_EDGE('',*,*,#726,.F.);
#1520 = PLANE('',#1521);
#1521 = AXIS2_PLACEMENT_3D('',#1522,#1523,#1524);
#1522 = CARTESIAN_POINT('',(25.1,-7.598076547956,5.099999416987));
#1523 = DIRECTION('',(0.,-1.,-2.244016898227E-07));
#1524 = DIRECTION('',(0.,2.244016898227E-07,-1.));
#1525 = ADVANCED_FACE('',(#1526),#1552,.F.);
#1526 = FACE_BOUND('',#1527,.F.);
#1527 = EDGE_LOOP('',(#1528,#1529,#1530,#1538,#1546));
#1528 = ORIENTED_EDGE('',*,*,#742,.F.);
#1529 = ORIENTED_EDGE('',*,*,#1322,.F.);
#1530 = ORIENTED_EDGE('',*,*,#1531,.T.);
#1531 = EDGE_CURVE('',#1294,#1532,#1534,.T.);
#1532 = VERTEX_POINT('',#1533);
#1533 = CARTESIAN_POINT('',(22.85,-2.401924125249,5.100000583013));
#1534 = LINE('',#1535,#1536);
#1535 = CARTESIAN_POINT('',(25.1,-2.401924125249,5.100000583013));
#1536 = VECTOR('',#1537,1.);
#1537 = DIRECTION('',(-1.,-0.,-0.));
#1538 = ORIENTED_EDGE('',*,*,#1539,.T.);
#1539 = EDGE_CURVE('',#1532,#1540,#1542,.T.);
#1540 = VERTEX_POINT('',#1541);
#1541 = CARTESIAN_POINT('',(22.85,-5.000000673205,6.6));
#1542 = LINE('',#1543,#1544);
#1543 = CARTESIAN_POINT('',(22.85,-2.401924125249,5.100000583013));
#1544 = VECTOR('',#1545,1.);
#1545 = DIRECTION('',(0.,-0.866025515985,0.499999805662));
#1546 = ORIENTED_EDGE('',*,*,#1547,.F.);
#1547 = EDGE_CURVE('',#735,#1540,#1548,.T.);
#1548 = LINE('',#1549,#1550);
#1549 = CARTESIAN_POINT('',(25.1,-5.000000673205,6.6));
#1550 = VECTOR('',#1551,1.);
#1551 = DIRECTION('',(-1.,-0.,-0.));
#1552 = PLANE('',#1553);
#1553 = AXIS2_PLACEMENT_3D('',#1554,#1555,#1556);
#1554 = CARTESIAN_POINT('',(25.1,-2.401924125249,5.100000583013));
#1555 = DIRECTION('',(0.,0.499999805662,0.866025515985));
#1556 = DIRECTION('',(0.,-0.866025515985,0.499999805662));
#1557 = ADVANCED_FACE('',(#1558),#1569,.F.);
#1558 = FACE_BOUND('',#1559,.F.);
#1559 = EDGE_LOOP('',(#1560,#1561,#1567,#1568));
#1560 = ORIENTED_EDGE('',*,*,#1547,.T.);
#1561 = ORIENTED_EDGE('',*,*,#1562,.T.);
#1562 = EDGE_CURVE('',#1540,#1506,#1563,.T.);
#1563 = LINE('',#1564,#1565);
#1564 = CARTESIAN_POINT('',(22.85,-5.000000673205,6.6));
#1565 = VECTOR('',#1566,1.);
#1566 = DIRECTION('',(0.,-0.866025291584,-0.500000194338));
#1567 = ORIENTED_EDGE('',*,*,#1505,.F.);
#1568 = ORIENTED_EDGE('',*,*,#734,.F.);
#1569 = PLANE('',#1570);
#1570 = AXIS2_PLACEMENT_3D('',#1571,#1572,#1573);
#1571 = CARTESIAN_POINT('',(25.1,-5.000000673205,6.6));
#1572 = DIRECTION('',(0.,-0.500000194338,0.866025291584));
#1573 = DIRECTION('',(0.,-0.866025291584,-0.500000194338));
#1574 = ADVANCED_FACE('',(#1575),#1594,.F.);
#1575 = FACE_BOUND('',#1576,.F.);
#1576 = EDGE_LOOP('',(#1577,#1578,#1586,#1593));
#1577 = ORIENTED_EDGE('',*,*,#867,.F.);
#1578 = ORIENTED_EDGE('',*,*,#1579,.T.);
#1579 = EDGE_CURVE('',#868,#1580,#1582,.T.);
#1580 = VERTEX_POINT('',#1581);
#1581 = CARTESIAN_POINT('',(22.85,-6.75,3.6));
#1582 = LINE('',#1583,#1584);
#1583 = CARTESIAN_POINT('',(17.15,-6.75,3.6));
#1584 = VECTOR('',#1585,1.);
#1585 = DIRECTION('',(1.,0.,0.));
#1586 = ORIENTED_EDGE('',*,*,#1587,.T.);
#1587 = EDGE_CURVE('',#1580,#1580,#1588,.T.);
#1588 = CIRCLE('',#1589,1.75);
#1589 = AXIS2_PLACEMENT_3D('',#1590,#1591,#1592);
#1590 = CARTESIAN_POINT('',(22.85,-5.,3.6));
#1591 = DIRECTION('',(-1.,0.,0.));
#1592 = DIRECTION('',(0.,-1.,0.));
#1593 = ORIENTED_EDGE('',*,*,#1579,.F.);
#1594 = CYLINDRICAL_SURFACE('',#1595,1.75);
#1595 = AXIS2_PLACEMENT_3D('',#1596,#1597,#1598);
#1596 = CARTESIAN_POINT('',(17.15,-5.,3.6));
#1597 = DIRECTION('',(-1.,0.,0.));
#1598 = DIRECTION('',(0.,-1.,0.));
#1599 = ADVANCED_FACE('',(#1600),#1611,.F.);
#1600 = FACE_BOUND('',#1601,.F.);
#1601 = EDGE_LOOP('',(#1602,#1603,#1609,#1610));
#1602 = ORIENTED_EDGE('',*,*,#1070,.F.);
#1603 = ORIENTED_EDGE('',*,*,#1604,.T.);
#1604 = EDGE_CURVE('',#1071,#947,#1605,.T.);
#1605 = LINE('',#1606,#1607);
#1606 = CARTESIAN_POINT('',(17.15,-6.75,3.6));
#1607 = VECTOR('',#1608,1.);
#1608 = DIRECTION('',(1.,0.,0.));
#1609 = ORIENTED_EDGE('',*,*,#946,.T.);
#1610 = ORIENTED_EDGE('',*,*,#1604,.F.);
#1611 = CYLINDRICAL_SURFACE('',#1612,1.75);
#1612 = AXIS2_PLACEMENT_3D('',#1613,#1614,#1615);
#1613 = CARTESIAN_POINT('',(17.15,-5.,3.6));
#1614 = DIRECTION('',(-1.,0.,0.));
#1615 = DIRECTION('',(0.,-1.,0.));
#1616 = ADVANCED_FACE('',(#1617),#1636,.F.);
#1617 = FACE_BOUND('',#1618,.F.);
#1618 = EDGE_LOOP('',(#1619,#1627,#1628,#1629));
#1619 = ORIENTED_EDGE('',*,*,#1620,.F.);
#1620 = EDGE_CURVE('',#1009,#1621,#1623,.T.);
#1621 = VERTEX_POINT('',#1622);
#1622 = CARTESIAN_POINT('',(1.5,0.25,3.6));
#1623 = LINE('',#1624,#1625);
#1624 = CARTESIAN_POINT('',(1.5,4.,3.6));
#1625 = VECTOR('',#1626,1.);
#1626 = DIRECTION('',(0.,-1.,2.22044604925E-16));
#1627 = ORIENTED_EDGE('',*,*,#1008,.F.);
#1628 = ORIENTED_EDGE('',*,*,#1620,.T.);
#1629 = ORIENTED_EDGE('',*,*,#1630,.T.);
#1630 = EDGE_CURVE('',#1621,#1621,#1631,.T.);
#1631 = CIRCLE('',#1632,1.75);
#1632 = AXIS2_PLACEMENT_3D('',#1633,#1634,#1635);
#1633 = CARTESIAN_POINT('',(3.25,0.25,3.6));
#1634 = DIRECTION('',(0.,1.,-2.22044604925E-16));
#1635 = DIRECTION('',(-1.,0.,0.));
#1636 = CYLINDRICAL_SURFACE('',#1637,1.75);
#1637 = AXIS2_PLACEMENT_3D('',#1638,#1639,#1640);
#1638 = CARTESIAN_POINT('',(3.25,4.,3.6));
#1639 = DIRECTION('',(0.,1.,-2.22044604925E-16));
#1640 = DIRECTION('',(-1.,0.,0.));
#1641 = ADVANCED_FACE('',(#1642),#1667,.F.);
#1642 = FACE_BOUND('',#1643,.F.);
#1643 = EDGE_LOOP('',(#1644,#1652,#1660,#1666));
#1644 = ORIENTED_EDGE('',*,*,#1645,.T.);
#1645 = EDGE_CURVE('',#1128,#1646,#1648,.T.);
#1646 = VERTEX_POINT('',#1647);
#1647 = CARTESIAN_POINT('',(5.848076547956,0.25,2.100000583013));
#1648 = LINE('',#1649,#1650);
#1649 = CARTESIAN_POINT('',(5.848076547956,-2.,2.100000583013));
#1650 = VECTOR('',#1651,1.);
#1651 = DIRECTION('',(0.,1.,-2.22044604925E-16));
#1652 = ORIENTED_EDGE('',*,*,#1653,.T.);
#1653 = EDGE_CURVE('',#1646,#1654,#1656,.T.);
#1654 = VERTEX_POINT('',#1655);
#1655 = CARTESIAN_POINT('',(5.848075874751,0.25,5.100000583013));
#1656 = LINE('',#1657,#1658);
#1657 = CARTESIAN_POINT('',(5.848076547956,0.25,2.100000583013));
#1658 = VECTOR('',#1659,1.);
#1659 = DIRECTION('',(-2.244016895266E-07,2.22044604925E-16,1.));
#1660 = ORIENTED_EDGE('',*,*,#1661,.F.);
#1661 = EDGE_CURVE('',#1130,#1654,#1662,.T.);
#1662 = LINE('',#1663,#1664);
#1663 = CARTESIAN_POINT('',(5.848075874751,-2.,5.100000583013));
#1664 = VECTOR('',#1665,1.);
#1665 = DIRECTION('',(0.,1.,-2.22044604925E-16));
#1666 = ORIENTED_EDGE('',*,*,#1127,.F.);
#1667 = PLANE('',#1668);
#1668 = AXIS2_PLACEMENT_3D('',#1669,#1670,#1671);
#1669 = CARTESIAN_POINT('',(5.848076547956,-2.,2.100000583013));
#1670 = DIRECTION('',(1.,4.982718449544E-23,2.244016895266E-07));
#1671 = DIRECTION('',(-2.244016895266E-07,2.22044604925E-16,1.));
#1672 = ADVANCED_FACE('',(#1673),#1691,.F.);
#1673 = FACE_BOUND('',#1674,.F.);
#1674 = EDGE_LOOP('',(#1675,#1683,#1689,#1690));
#1675 = ORIENTED_EDGE('',*,*,#1676,.T.);
#1676 = EDGE_CURVE('',#1162,#1677,#1679,.T.);
#1677 = VERTEX_POINT('',#1678);
#1678 = CARTESIAN_POINT('',(3.250000673205,0.25,0.6));
#1679 = LINE('',#1680,#1681);
#1680 = CARTESIAN_POINT('',(3.250000673205,-2.,0.6));
#1681 = VECTOR('',#1682,1.);
#1682 = DIRECTION('',(0.,1.,-2.22044604925E-16));
#1683 = ORIENTED_EDGE('',*,*,#1684,.T.);
#1684 = EDGE_CURVE('',#1677,#1646,#1685,.T.);
#1685 = LINE('',#1686,#1687);
#1686 = CARTESIAN_POINT('',(3.250000673205,0.25,0.6));
#1687 = VECTOR('',#1688,1.);
#1688 = DIRECTION('',(0.866025291584,1.110223456141E-16,0.500000194338)
  );
#1689 = ORIENTED_EDGE('',*,*,#1645,.F.);
#1690 = ORIENTED_EDGE('',*,*,#1169,.F.);
#1691 = PLANE('',#1692);
#1692 = AXIS2_PLACEMENT_3D('',#1693,#1694,#1695);
#1693 = CARTESIAN_POINT('',(3.250000673205,-2.,0.6));
#1694 = DIRECTION('',(0.500000194338,-1.922962437248E-16,-0.866025291584
    ));
#1695 = DIRECTION('',(0.866025291584,1.110223456141E-16,0.500000194338)
  );
#1696 = ADVANCED_FACE('',(#1697),#1715,.F.);
#1697 = FACE_BOUND('',#1698,.F.);
#1698 = EDGE_LOOP('',(#1699,#1707,#1713,#1714));
#1699 = ORIENTED_EDGE('',*,*,#1700,.T.);
#1700 = EDGE_CURVE('',#1154,#1701,#1703,.T.);
#1701 = VERTEX_POINT('',#1702);
#1702 = CARTESIAN_POINT('',(0.651924125249,0.25,2.099999416987));
#1703 = LINE('',#1704,#1705);
#1704 = CARTESIAN_POINT('',(0.651924125249,-2.,2.099999416987));
#1705 = VECTOR('',#1706,1.);
#1706 = DIRECTION('',(0.,1.,-2.22044604925E-16));
#1707 = ORIENTED_EDGE('',*,*,#1708,.T.);
#1708 = EDGE_CURVE('',#1701,#1677,#1709,.T.);
#1709 = LINE('',#1710,#1711);
#1710 = CARTESIAN_POINT('',(0.651924125249,0.25,2.099999416987));
#1711 = VECTOR('',#1712,1.);
#1712 = DIRECTION('',(0.866025515985,-1.110222593109E-16,-0.499999805662
    ));
#1713 = ORIENTED_EDGE('',*,*,#1676,.F.);
#1714 = ORIENTED_EDGE('',*,*,#1161,.F.);
#1715 = PLANE('',#1716);
#1716 = AXIS2_PLACEMENT_3D('',#1717,#1718,#1719);
#1717 = CARTESIAN_POINT('',(0.651924125249,-2.,2.099999416987));
#1718 = DIRECTION('',(-0.499999805662,-1.922962935519E-16,
    -0.866025515985));
#1719 = DIRECTION('',(0.866025515985,-1.110222593109E-16,-0.499999805662
    ));
#1720 = ADVANCED_FACE('',(#1721),#1739,.F.);
#1721 = FACE_BOUND('',#1722,.F.);
#1722 = EDGE_LOOP('',(#1723,#1731,#1737,#1738));
#1723 = ORIENTED_EDGE('',*,*,#1724,.T.);
#1724 = EDGE_CURVE('',#1146,#1725,#1727,.T.);
#1725 = VERTEX_POINT('',#1726);
#1726 = CARTESIAN_POINT('',(0.651923452044,0.25,5.099999416987));
#1727 = LINE('',#1728,#1729);
#1728 = CARTESIAN_POINT('',(0.651923452044,-2.,5.099999416987));
#1729 = VECTOR('',#1730,1.);
#1730 = DIRECTION('',(0.,1.,-2.22044604925E-16));
#1731 = ORIENTED_EDGE('',*,*,#1732,.T.);
#1732 = EDGE_CURVE('',#1725,#1701,#1733,.T.);
#1733 = LINE('',#1734,#1735);
#1734 = CARTESIAN_POINT('',(0.651923452044,0.25,5.099999416987));
#1735 = VECTOR('',#1736,1.);
#1736 = DIRECTION('',(2.244016897116E-07,-2.22044604925E-16,-1.));
#1737 = ORIENTED_EDGE('',*,*,#1700,.F.);
#1738 = ORIENTED_EDGE('',*,*,#1153,.F.);
#1739 = PLANE('',#1740);
#1740 = AXIS2_PLACEMENT_3D('',#1741,#1742,#1743);
#1741 = CARTESIAN_POINT('',(0.651923452044,-2.,5.099999416987));
#1742 = DIRECTION('',(-1.,-4.982718453653E-23,-2.244016897116E-07));
#1743 = DIRECTION('',(2.244016897116E-07,-2.22044604925E-16,-1.));
#1744 = ADVANCED_FACE('',(#1745),#1763,.F.);
#1745 = FACE_BOUND('',#1746,.F.);
#1746 = EDGE_LOOP('',(#1747,#1755,#1761,#1762));
#1747 = ORIENTED_EDGE('',*,*,#1748,.T.);
#1748 = EDGE_CURVE('',#1138,#1749,#1751,.T.);
#1749 = VERTEX_POINT('',#1750);
#1750 = CARTESIAN_POINT('',(3.249999326795,0.25,6.6));
#1751 = LINE('',#1752,#1753);
#1752 = CARTESIAN_POINT('',(3.249999326795,-2.,6.6));
#1753 = VECTOR('',#1754,1.);
#1754 = DIRECTION('',(0.,1.,-2.22044604925E-16));
#1755 = ORIENTED_EDGE('',*,*,#1756,.T.);
#1756 = EDGE_CURVE('',#1749,#1725,#1757,.T.);
#1757 = LINE('',#1758,#1759);
#1758 = CARTESIAN_POINT('',(3.249999326795,0.25,6.6));
#1759 = VECTOR('',#1760,1.);
#1760 = DIRECTION('',(-0.866025291584,-1.110223456141E-16,
    -0.500000194338));
#1761 = ORIENTED_EDGE('',*,*,#1724,.F.);
#1762 = ORIENTED_EDGE('',*,*,#1145,.F.);
#1763 = PLANE('',#1764);
#1764 = AXIS2_PLACEMENT_3D('',#1765,#1766,#1767);
#1765 = CARTESIAN_POINT('',(3.249999326795,-2.,6.6));
#1766 = DIRECTION('',(-0.500000194338,1.922962437248E-16,0.866025291584)
  );
#1767 = DIRECTION('',(-0.866025291584,-1.110223456141E-16,
    -0.500000194338));
#1768 = ADVANCED_FACE('',(#1769),#1780,.F.);
#1769 = FACE_BOUND('',#1770,.F.);
#1770 = EDGE_LOOP('',(#1771,#1772,#1778,#1779));
#1771 = ORIENTED_EDGE('',*,*,#1661,.T.);
#1772 = ORIENTED_EDGE('',*,*,#1773,.T.);
#1773 = EDGE_CURVE('',#1654,#1749,#1774,.T.);
#1774 = LINE('',#1775,#1776);
#1775 = CARTESIAN_POINT('',(5.848075874751,0.25,5.100000583013));
#1776 = VECTOR('',#1777,1.);
#1777 = DIRECTION('',(-0.866025515985,1.110222593109E-16,0.499999805662)
  );
#1778 = ORIENTED_EDGE('',*,*,#1748,.F.);
#1779 = ORIENTED_EDGE('',*,*,#1137,.F.);
#1780 = PLANE('',#1781);
#1781 = AXIS2_PLACEMENT_3D('',#1782,#1783,#1784);
#1782 = CARTESIAN_POINT('',(5.848075874751,-2.,5.100000583013));
#1783 = DIRECTION('',(0.499999805662,1.922962935519E-16,0.866025515985)
  );
#1784 = DIRECTION('',(-0.866025515985,1.110222593109E-16,0.499999805662)
  );
#1785 = ADVANCED_FACE('',(#1786),#1797,.F.);
#1786 = FACE_BOUND('',#1787,.F.);
#1787 = EDGE_LOOP('',(#1788,#1789,#1790,#1796));
#1788 = ORIENTED_EDGE('',*,*,#1293,.F.);
#1789 = ORIENTED_EDGE('',*,*,#1466,.T.);
#1790 = ORIENTED_EDGE('',*,*,#1791,.T.);
#1791 = EDGE_CURVE('',#1459,#1532,#1792,.T.);
#1792 = LINE('',#1793,#1794);
#1793 = CARTESIAN_POINT('',(22.85,-2.401923452044,2.100000583013));
#1794 = VECTOR('',#1795,1.);
#1795 = DIRECTION('',(0.,-2.244016896746E-07,1.));
#1796 = ORIENTED_EDGE('',*,*,#1531,.F.);
#1797 = PLANE('',#1798);
#1798 = AXIS2_PLACEMENT_3D('',#1799,#1800,#1801);
#1799 = CARTESIAN_POINT('',(25.1,-2.401923452044,2.100000583013));
#1800 = DIRECTION('',(0.,1.,2.244016896746E-07));
#1801 = DIRECTION('',(0.,-2.244016896746E-07,1.));
#1802 = ADVANCED_FACE('',(#1803,#1811),#1814,.T.);
#1803 = FACE_BOUND('',#1804,.T.);
#1804 = EDGE_LOOP('',(#1805,#1806,#1807,#1808,#1809,#1810));
#1805 = ORIENTED_EDGE('',*,*,#1539,.T.);
#1806 = ORIENTED_EDGE('',*,*,#1562,.T.);
#1807 = ORIENTED_EDGE('',*,*,#1513,.T.);
#1808 = ORIENTED_EDGE('',*,*,#1489,.T.);
#1809 = ORIENTED_EDGE('',*,*,#1458,.T.);
#1810 = ORIENTED_EDGE('',*,*,#1791,.T.);
#1811 = FACE_BOUND('',#1812,.T.);
#1812 = EDGE_LOOP('',(#1813));
#1813 = ORIENTED_EDGE('',*,*,#1587,.T.);
#1814 = PLANE('',#1815);
#1815 = AXIS2_PLACEMENT_3D('',#1816,#1817,#1818);
#1816 = CARTESIAN_POINT('',(22.85,-5.,3.6));
#1817 = DIRECTION('',(1.,0.,0.));
#1818 = DIRECTION('',(0.,0.,1.));
#1819 = ADVANCED_FACE('',(#1820,#1828),#1831,.F.);
#1820 = FACE_BOUND('',#1821,.F.);
#1821 = EDGE_LOOP('',(#1822,#1823,#1824,#1825,#1826,#1827));
#1822 = ORIENTED_EDGE('',*,*,#1773,.F.);
#1823 = ORIENTED_EDGE('',*,*,#1653,.F.);
#1824 = ORIENTED_EDGE('',*,*,#1684,.F.);
#1825 = ORIENTED_EDGE('',*,*,#1708,.F.);
#1826 = ORIENTED_EDGE('',*,*,#1732,.F.);
#1827 = ORIENTED_EDGE('',*,*,#1756,.F.);
#1828 = FACE_BOUND('',#1829,.F.);
#1829 = EDGE_LOOP('',(#1830));
#1830 = ORIENTED_EDGE('',*,*,#1630,.F.);
#1831 = PLANE('',#1832);
#1832 = AXIS2_PLACEMENT_3D('',#1833,#1834,#1835);
#1833 = CARTESIAN_POINT('',(17.5,0.25,3.6));
#1834 = DIRECTION('',(0.,1.,0.));
#1835 = DIRECTION('',(0.,0.,1.));
#1836 = ( GEOMETRIC_REPRESENTATION_CONTEXT(3) 
GLOBAL_UNCERTAINTY_ASSIGNED_CONTEXT((#1840)) 
GLOBAL_UNIT_ASSIGNED_CONTEXT((#1837,#1838,#1839)) REPRESENTATION_CONTEXT
('Context #1','3D Context with UNIT and UNCERTAINTY') );
#1837 = ( LENGTH_UNIT() NAMED_UNIT(*) SI_UNIT(.MILLI.,.METRE.) );
#1838 = ( NAMED_UNIT(*) PLANE_ANGLE_UNIT() SI_UNIT($,.RADIAN.) );
#1839 = ( NAMED_UNIT(*) SI_UNIT($,.STERADIAN.) SOLID_ANGLE_UNIT() );
#1840 = UNCERTAINTY_MEASURE_WITH_UNIT(LENGTH_MEASURE(2.E-06),#1837,
  'distance_accuracy_value','confusion accuracy');
#1841 = PRODUCT_RELATED_PRODUCT_CATEGORY('part',$,(#7));
#1842 = MECHANICAL_DESIGN_GEOMETRIC_PRESENTATION_REPRESENTATION('',(
    #1843),#1836);
#1843 = STYLED_ITEM('color',(#1844),#15);
#1844 = PRESENTATION_STYLE_ASSIGNMENT((#1845,#1851));
#1845 = SURFACE_STYLE_USAGE(.BOTH.,#1846);
#1846 = SURFACE_SIDE_STYLE('',(#1847));
#1847 = SURFACE_STYLE_FILL_AREA(#1848);
#1848 = FILL_AREA_STYLE('',(#1849));
#1849 = FILL_AREA_STYLE_COLOUR('',#1850);
#1850 = COLOUR_RGB('',0.447059003357,0.474510015008,0.501960993452);
#1851 = CURVE_STYLE('',#1852,POSITIVE_LENGTH_MEASURE(0.1),#1853);
#1852 = DRAUGHTING_PRE_DEFINED_CURVE_FONT('continuous');
#1853 = COLOUR_RGB('',9.803921802644E-02,9.803921802644E-02,
  9.803921802644E-02);
ENDSEC;
END-ISO-10303-21;
