ISO-10303-21;
HEADER;
FILE_DESCRIPTION(('FreeCAD Model'),'2;1');
FILE_NAME('Open CASCADE Shape Model','2025-03-17T14:33:54',('Author'),(
    ''),'Open CASCADE STEP processor 7.8','FreeCAD','Unknown');
FILE_SCHEMA(('AUTOMOTIVE_DESIGN { 1 0 10303 214 1 1 1 1 }'));
ENDSEC;
DATA;
#1 = APPLICATION_PROTOCOL_DEFINITION('international standard',
  'automotive_design',2000,#2);
#2 = APPLICATION_CONTEXT(
  'core data for automotive mechanical design processes');
#3 = SHAPE_DEFINITION_REPRESENTATION(#4,#10);
#4 = PRODUCT_DEFINITION_SHAPE('','',#5);
#5 = PRODUCT_DEFINITION('design','',#6,#9);
#6 = PRODUCT_DEFINITION_FORMATION('','',#7);
#7 = PRODUCT('Controller enclosure','Controller enclosure','',(#8));
#8 = PRODUCT_CONTEXT('',#2,'mechanical');
#9 = PRODUCT_DEFINITION_CONTEXT('part definition',#2,'design');
#10 = ADVANCED_BREP_SHAPE_REPRESENTATION('',(#11,#15),#1318);
#11 = AXIS2_PLACEMENT_3D('',#12,#13,#14);
#12 = CARTESIAN_POINT('',(0.,0.,0.));
#13 = DIRECTION('',(0.,0.,1.));
#14 = DIRECTION('',(1.,0.,-0.));
#15 = MANIFOLD_SOLID_BREP('',#16);
#16 = CLOSED_SHELL('',(#17,#123,#172,#197,#254,#331,#355,#411,#554,#571,
    #602,#626,#650,#667,#684,#701,#722,#739,#756,#773,#804,#829,#853,
    #871,#933,#956,#973,#985,#1009,#1049,#1066,#1091,#1116,#1133,#1150,
    #1162,#1187,#1212,#1232,#1252,#1276,#1300,#1309));
#17 = ADVANCED_FACE('',(#18,#84),#118,.T.);
#18 = FACE_BOUND('',#19,.T.);
#19 = EDGE_LOOP('',(#20,#30,#38,#46,#54,#62,#70,#78));
#20 = ORIENTED_EDGE('',*,*,#21,.T.);
#21 = EDGE_CURVE('',#22,#24,#26,.T.);
#22 = VERTEX_POINT('',#23);
#23 = CARTESIAN_POINT('',(272.,68.5,63.));
#24 = VERTEX_POINT('',#25);
#25 = CARTESIAN_POINT('',(272.,68.,63.));
#26 = LINE('',#27,#28);
#27 = CARTESIAN_POINT('',(272.,71.,63.));
#28 = VECTOR('',#29,1.);
#29 = DIRECTION('',(1.224646799147E-16,-1.,2.22044604925E-16));
#30 = ORIENTED_EDGE('',*,*,#31,.T.);
#31 = EDGE_CURVE('',#24,#32,#34,.T.);
#32 = VERTEX_POINT('',#33);
#33 = CARTESIAN_POINT('',(272.,68.,73.));
#34 = LINE('',#35,#36);
#35 = CARTESIAN_POINT('',(272.,68.,63.));
#36 = VECTOR('',#37,1.);
#37 = DIRECTION('',(2.465190328816E-32,0.,1.));
#38 = ORIENTED_EDGE('',*,*,#39,.F.);
#39 = EDGE_CURVE('',#40,#32,#42,.T.);
#40 = VERTEX_POINT('',#41);
#41 = CARTESIAN_POINT('',(272.,65.,73.));
#42 = LINE('',#43,#44);
#43 = CARTESIAN_POINT('',(272.,65.,73.));
#44 = VECTOR('',#45,1.);
#45 = DIRECTION('',(-1.224646799147E-16,1.,0.));
#46 = ORIENTED_EDGE('',*,*,#47,.F.);
#47 = EDGE_CURVE('',#48,#40,#50,.T.);
#48 = VERTEX_POINT('',#49);
#49 = CARTESIAN_POINT('',(272.,65.,63.));
#50 = LINE('',#51,#52);
#51 = CARTESIAN_POINT('',(272.,65.,63.));
#52 = VECTOR('',#53,1.);
#53 = DIRECTION('',(2.465190328816E-32,0.,1.));
#54 = ORIENTED_EDGE('',*,*,#55,.T.);
#55 = EDGE_CURVE('',#48,#56,#58,.T.);
#56 = VERTEX_POINT('',#57);
#57 = CARTESIAN_POINT('',(272.,22.,63.));
#58 = LINE('',#59,#60);
#59 = CARTESIAN_POINT('',(272.,65.,63.));
#60 = VECTOR('',#61,1.);
#61 = DIRECTION('',(1.224646799147E-16,-1.,2.22044604925E-16));
#62 = ORIENTED_EDGE('',*,*,#63,.F.);
#63 = EDGE_CURVE('',#64,#56,#66,.T.);
#64 = VERTEX_POINT('',#65);
#65 = CARTESIAN_POINT('',(272.,22.,-2.));
#66 = LINE('',#67,#68);
#67 = CARTESIAN_POINT('',(272.,22.,-2.));
#68 = VECTOR('',#69,1.);
#69 = DIRECTION('',(2.465190328816E-32,0.,1.));
#70 = ORIENTED_EDGE('',*,*,#71,.F.);
#71 = EDGE_CURVE('',#72,#64,#74,.T.);
#72 = VERTEX_POINT('',#73);
#73 = CARTESIAN_POINT('',(272.,68.5,-2.));
#74 = LINE('',#75,#76);
#75 = CARTESIAN_POINT('',(272.,65.,-2.));
#76 = VECTOR('',#77,1.);
#77 = DIRECTION('',(1.224646799147E-16,-1.,2.22044604925E-16));
#78 = ORIENTED_EDGE('',*,*,#79,.F.);
#79 = EDGE_CURVE('',#22,#72,#80,.T.);
#80 = LINE('',#81,#82);
#81 = CARTESIAN_POINT('',(272.,68.5,63.));
#82 = VECTOR('',#83,1.);
#83 = DIRECTION('',(2.540718180781E-33,-2.22044604925E-16,-1.));
#84 = FACE_BOUND('',#85,.T.);
#85 = EDGE_LOOP('',(#86,#96,#104,#112));
#86 = ORIENTED_EDGE('',*,*,#87,.F.);
#87 = EDGE_CURVE('',#88,#90,#92,.T.);
#88 = VERTEX_POINT('',#89);
#89 = CARTESIAN_POINT('',(272.,43.5,15.));
#90 = VERTEX_POINT('',#91);
#91 = CARTESIAN_POINT('',(272.,48.25,15.));
#92 = LINE('',#93,#94);
#93 = CARTESIAN_POINT('',(272.,43.5,15.));
#94 = VECTOR('',#95,1.);
#95 = DIRECTION('',(-1.224646799147E-16,1.,-2.22044604925E-16));
#96 = ORIENTED_EDGE('',*,*,#97,.F.);
#97 = EDGE_CURVE('',#98,#88,#100,.T.);
#98 = VERTEX_POINT('',#99);
#99 = CARTESIAN_POINT('',(272.,43.5,43.5));
#100 = LINE('',#101,#102);
#101 = CARTESIAN_POINT('',(272.,43.5,43.5));
#102 = VECTOR('',#103,1.);
#103 = DIRECTION('',(2.540718180781E-33,-2.22044604925E-16,-1.));
#104 = ORIENTED_EDGE('',*,*,#105,.F.);
#105 = EDGE_CURVE('',#106,#98,#108,.T.);
#106 = VERTEX_POINT('',#107);
#107 = CARTESIAN_POINT('',(272.,48.25,43.5));
#108 = LINE('',#109,#110);
#109 = CARTESIAN_POINT('',(272.,48.25,43.5));
#110 = VECTOR('',#111,1.);
#111 = DIRECTION('',(1.224646799147E-16,-1.,2.22044604925E-16));
#112 = ORIENTED_EDGE('',*,*,#113,.F.);
#113 = EDGE_CURVE('',#90,#106,#114,.T.);
#114 = LINE('',#115,#116);
#115 = CARTESIAN_POINT('',(272.,48.25,15.));
#116 = VECTOR('',#117,1.);
#117 = DIRECTION('',(-2.540718180781E-33,2.22044604925E-16,1.));
#118 = PLANE('',#119);
#119 = AXIS2_PLACEMENT_3D('',#120,#121,#122);
#120 = CARTESIAN_POINT('',(272.,46.692913385827,33.570866141732));
#121 = DIRECTION('',(1.,1.224646799147E-16,-2.465190328816E-32));
#122 = DIRECTION('',(-1.224646799147E-16,1.,-2.22044604925E-16));
#123 = ADVANCED_FACE('',(#124),#167,.F.);
#124 = FACE_BOUND('',#125,.F.);
#125 = EDGE_LOOP('',(#126,#136,#143,#144,#152,#160));
#126 = ORIENTED_EDGE('',*,*,#127,.F.);
#127 = EDGE_CURVE('',#128,#130,#132,.T.);
#128 = VERTEX_POINT('',#129);
#129 = CARTESIAN_POINT('',(269.5,71.,63.));
#130 = VERTEX_POINT('',#131);
#131 = CARTESIAN_POINT('',(172.63,71.,63.));
#132 = LINE('',#133,#134);
#133 = CARTESIAN_POINT('',(272.,71.,63.));
#134 = VECTOR('',#135,1.);
#135 = DIRECTION('',(-1.,-1.224646799147E-16,2.465190328816E-32));
#136 = ORIENTED_EDGE('',*,*,#137,.F.);
#137 = EDGE_CURVE('',#22,#128,#138,.T.);
#138 = CIRCLE('',#139,2.5);
#139 = AXIS2_PLACEMENT_3D('',#140,#141,#142);
#140 = CARTESIAN_POINT('',(269.5,68.5,63.));
#141 = DIRECTION('',(-2.540718180781E-33,2.22044604925E-16,1.));
#142 = DIRECTION('',(1.224646799147E-16,-1.,2.22044604925E-16));
#143 = ORIENTED_EDGE('',*,*,#21,.T.);
#144 = ORIENTED_EDGE('',*,*,#145,.T.);
#145 = EDGE_CURVE('',#24,#146,#148,.T.);
#146 = VERTEX_POINT('',#147);
#147 = CARTESIAN_POINT('',(170.13,68.,63.));
#148 = LINE('',#149,#150);
#149 = CARTESIAN_POINT('',(272.,68.,63.));
#150 = VECTOR('',#151,1.);
#151 = DIRECTION('',(-1.,-1.224646799147E-16,2.465190328816E-32));
#152 = ORIENTED_EDGE('',*,*,#153,.F.);
#153 = EDGE_CURVE('',#154,#146,#156,.T.);
#154 = VERTEX_POINT('',#155);
#155 = CARTESIAN_POINT('',(170.13,68.5,63.));
#156 = LINE('',#157,#158);
#157 = CARTESIAN_POINT('',(170.13,71.,63.));
#158 = VECTOR('',#159,1.);
#159 = DIRECTION('',(1.224646799147E-16,-1.,2.22044604925E-16));
#160 = ORIENTED_EDGE('',*,*,#161,.T.);
#161 = EDGE_CURVE('',#154,#130,#162,.T.);
#162 = CIRCLE('',#163,2.5);
#163 = AXIS2_PLACEMENT_3D('',#164,#165,#166);
#164 = CARTESIAN_POINT('',(172.63,68.5,63.));
#165 = DIRECTION('',(2.540718180781E-33,-2.22044604925E-16,-1.));
#166 = DIRECTION('',(1.224646799147E-16,-1.,2.22044604925E-16));
#167 = PLANE('',#168);
#168 = AXIS2_PLACEMENT_3D('',#169,#170,#171);
#169 = CARTESIAN_POINT('',(272.,71.,63.));
#170 = DIRECTION('',(2.540718180781E-33,-2.22044604925E-16,-1.));
#171 = DIRECTION('',(-1.,-1.224646799147E-16,2.465190328816E-32));
#172 = ADVANCED_FACE('',(#173),#192,.T.);
#173 = FACE_BOUND('',#174,.F.);
#174 = EDGE_LOOP('',(#175,#176,#184,#191));
#175 = ORIENTED_EDGE('',*,*,#137,.T.);
#176 = ORIENTED_EDGE('',*,*,#177,.T.);
#177 = EDGE_CURVE('',#128,#178,#180,.T.);
#178 = VERTEX_POINT('',#179);
#179 = CARTESIAN_POINT('',(269.5,71.,-2.));
#180 = LINE('',#181,#182);
#181 = CARTESIAN_POINT('',(269.5,71.,63.));
#182 = VECTOR('',#183,1.);
#183 = DIRECTION('',(2.540718180781E-33,-2.22044604925E-16,-1.));
#184 = ORIENTED_EDGE('',*,*,#185,.F.);
#185 = EDGE_CURVE('',#72,#178,#186,.T.);
#186 = CIRCLE('',#187,2.5);
#187 = AXIS2_PLACEMENT_3D('',#188,#189,#190);
#188 = CARTESIAN_POINT('',(269.5,68.5,-2.));
#189 = DIRECTION('',(-2.540718180781E-33,2.22044604925E-16,1.));
#190 = DIRECTION('',(1.224646799147E-16,-1.,2.22044604925E-16));
#191 = ORIENTED_EDGE('',*,*,#79,.F.);
#192 = CYLINDRICAL_SURFACE('',#193,2.5);
#193 = AXIS2_PLACEMENT_3D('',#194,#195,#196);
#194 = CARTESIAN_POINT('',(269.5,68.5,63.));
#195 = DIRECTION('',(2.540718180781E-33,-2.22044604925E-16,-1.));
#196 = DIRECTION('',(1.,1.224646799147E-16,-2.465190328816E-32));
#197 = ADVANCED_FACE('',(#198,#216,#227,#238),#249,.F.);
#198 = FACE_BOUND('',#199,.F.);
#199 = EDGE_LOOP('',(#200,#201,#209,#215));
#200 = ORIENTED_EDGE('',*,*,#31,.T.);
#201 = ORIENTED_EDGE('',*,*,#202,.T.);
#202 = EDGE_CURVE('',#32,#203,#205,.T.);
#203 = VERTEX_POINT('',#204);
#204 = CARTESIAN_POINT('',(170.13,68.,73.));
#205 = LINE('',#206,#207);
#206 = CARTESIAN_POINT('',(272.,68.,73.));
#207 = VECTOR('',#208,1.);
#208 = DIRECTION('',(-1.,-1.224646799147E-16,2.465190328816E-32));
#209 = ORIENTED_EDGE('',*,*,#210,.F.);
#210 = EDGE_CURVE('',#146,#203,#211,.T.);
#211 = LINE('',#212,#213);
#212 = CARTESIAN_POINT('',(170.13,68.,63.));
#213 = VECTOR('',#214,1.);
#214 = DIRECTION('',(2.465190328816E-32,0.,1.));
#215 = ORIENTED_EDGE('',*,*,#145,.F.);
#216 = FACE_BOUND('',#217,.F.);
#217 = EDGE_LOOP('',(#218));
#218 = ORIENTED_EDGE('',*,*,#219,.T.);
#219 = EDGE_CURVE('',#220,#220,#222,.T.);
#220 = VERTEX_POINT('',#221);
#221 = CARTESIAN_POINT('',(264.725,68.,68.));
#222 = CIRCLE('',#223,1.275);
#223 = AXIS2_PLACEMENT_3D('',#224,#225,#226);
#224 = CARTESIAN_POINT('',(266.,68.,68.));
#225 = DIRECTION('',(-1.224646799147E-16,1.,-2.22044604925E-16));
#226 = DIRECTION('',(-1.,-1.224646799147E-16,2.465190328816E-32));
#227 = FACE_BOUND('',#228,.F.);
#228 = EDGE_LOOP('',(#229));
#229 = ORIENTED_EDGE('',*,*,#230,.T.);
#230 = EDGE_CURVE('',#231,#231,#233,.T.);
#231 = VERTEX_POINT('',#232);
#232 = CARTESIAN_POINT('',(219.79,68.,68.));
#233 = CIRCLE('',#234,1.275);
#234 = AXIS2_PLACEMENT_3D('',#235,#236,#237);
#235 = CARTESIAN_POINT('',(221.065,68.,68.));
#236 = DIRECTION('',(-1.224646799147E-16,1.,-2.22044604925E-16));
#237 = DIRECTION('',(-1.,-1.224646799147E-16,2.465190328816E-32));
#238 = FACE_BOUND('',#239,.F.);
#239 = EDGE_LOOP('',(#240));
#240 = ORIENTED_EDGE('',*,*,#241,.T.);
#241 = EDGE_CURVE('',#242,#242,#244,.T.);
#242 = VERTEX_POINT('',#243);
#243 = CARTESIAN_POINT('',(174.855,68.,68.));
#244 = CIRCLE('',#245,1.275);
#245 = AXIS2_PLACEMENT_3D('',#246,#247,#248);
#246 = CARTESIAN_POINT('',(176.13,68.,68.));
#247 = DIRECTION('',(-1.224646799147E-16,1.,-2.22044604925E-16));
#248 = DIRECTION('',(-1.,-1.224646799147E-16,2.465190328816E-32));
#249 = PLANE('',#250);
#250 = AXIS2_PLACEMENT_3D('',#251,#252,#253);
#251 = CARTESIAN_POINT('',(272.,68.,63.));
#252 = DIRECTION('',(1.224646799147E-16,-1.,0.));
#253 = DIRECTION('',(-1.,-1.224646799147E-16,2.465190328816E-32));
#254 = ADVANCED_FACE('',(#255,#290),#326,.T.);
#255 = FACE_BOUND('',#256,.T.);
#256 = EDGE_LOOP('',(#257,#265,#266,#267,#275,#283));
#257 = ORIENTED_EDGE('',*,*,#258,.F.);
#258 = EDGE_CURVE('',#178,#259,#261,.T.);
#259 = VERTEX_POINT('',#260);
#260 = CARTESIAN_POINT('',(172.63,71.,-2.));
#261 = LINE('',#262,#263);
#262 = CARTESIAN_POINT('',(272.,71.,-2.));
#263 = VECTOR('',#264,1.);
#264 = DIRECTION('',(-1.,-1.224646799147E-16,2.465190328816E-32));
#265 = ORIENTED_EDGE('',*,*,#185,.F.);
#266 = ORIENTED_EDGE('',*,*,#71,.T.);
#267 = ORIENTED_EDGE('',*,*,#268,.F.);
#268 = EDGE_CURVE('',#269,#64,#271,.T.);
#269 = VERTEX_POINT('',#270);
#270 = CARTESIAN_POINT('',(170.13,29.,-2.));
#271 = LINE('',#272,#273);
#272 = CARTESIAN_POINT('',(170.13,29.,-2.));
#273 = VECTOR('',#274,1.);
#274 = DIRECTION('',(0.99764745025,-6.855337343429E-02,
    -2.465190328816E-32));
#275 = ORIENTED_EDGE('',*,*,#276,.F.);
#276 = EDGE_CURVE('',#277,#269,#279,.T.);
#277 = VERTEX_POINT('',#278);
#278 = CARTESIAN_POINT('',(170.13,68.5,-2.));
#279 = LINE('',#280,#281);
#280 = CARTESIAN_POINT('',(170.13,71.,-2.));
#281 = VECTOR('',#282,1.);
#282 = DIRECTION('',(1.224646799147E-16,-1.,2.22044604925E-16));
#283 = ORIENTED_EDGE('',*,*,#284,.T.);
#284 = EDGE_CURVE('',#277,#259,#285,.T.);
#285 = CIRCLE('',#286,2.5);
#286 = AXIS2_PLACEMENT_3D('',#287,#288,#289);
#287 = CARTESIAN_POINT('',(172.63,68.5,-2.));
#288 = DIRECTION('',(2.540718180781E-33,-2.22044604925E-16,-1.));
#289 = DIRECTION('',(1.224646799147E-16,-1.,2.22044604925E-16));
#290 = FACE_BOUND('',#291,.T.);
#291 = EDGE_LOOP('',(#292,#302,#311,#319));
#292 = ORIENTED_EDGE('',*,*,#293,.F.);
#293 = EDGE_CURVE('',#294,#296,#298,.T.);
#294 = VERTEX_POINT('',#295);
#295 = CARTESIAN_POINT('',(265.,31.112569942083,-2.));
#296 = VERTEX_POINT('',#297);
#297 = CARTESIAN_POINT('',(177.13,31.112569942083,-2.));
#298 = LINE('',#299,#300);
#299 = CARTESIAN_POINT('',(243.0325,31.112569942083,-2.));
#300 = VECTOR('',#301,1.);
#301 = DIRECTION('',(-1.,-3.650535279038E-16,7.851744819912E-32));
#302 = ORIENTED_EDGE('',*,*,#303,.T.);
#303 = EDGE_CURVE('',#294,#304,#306,.T.);
#304 = VERTEX_POINT('',#305);
#305 = CARTESIAN_POINT('',(265.,34.612569942083,-2.));
#306 = CIRCLE('',#307,1.75);
#307 = AXIS2_PLACEMENT_3D('',#308,#309,#310);
#308 = CARTESIAN_POINT('',(265.,32.862569942083,-2.));
#309 = DIRECTION('',(2.465190328816E-32,3.018987445473E-48,1.));
#310 = DIRECTION('',(-1.,-1.224646799147E-16,2.465190328816E-32));
#311 = ORIENTED_EDGE('',*,*,#312,.T.);
#312 = EDGE_CURVE('',#304,#313,#315,.T.);
#313 = VERTEX_POINT('',#314);
#314 = CARTESIAN_POINT('',(177.13,34.612569942083,-2.));
#315 = LINE('',#316,#317);
#316 = CARTESIAN_POINT('',(243.0325,34.612569942083,-2.));
#317 = VECTOR('',#318,1.);
#318 = DIRECTION('',(-1.,2.009871174041E-16,-4.716882325979E-32));
#319 = ORIENTED_EDGE('',*,*,#320,.T.);
#320 = EDGE_CURVE('',#313,#296,#321,.T.);
#321 = CIRCLE('',#322,1.75);
#322 = AXIS2_PLACEMENT_3D('',#323,#324,#325);
#323 = CARTESIAN_POINT('',(177.13,32.862569942083,-2.));
#324 = DIRECTION('',(2.465190328816E-32,3.018987445473E-48,1.));
#325 = DIRECTION('',(-1.,-1.224646799147E-16,2.465190328816E-32));
#326 = PLANE('',#327);
#327 = AXIS2_PLACEMENT_3D('',#328,#329,#330);
#328 = CARTESIAN_POINT('',(221.065,45.,-2.));
#329 = DIRECTION('',(2.540718180781E-33,-2.22044604925E-16,-1.));
#330 = DIRECTION('',(1.224646799147E-16,-1.,2.22044604925E-16));
#331 = ADVANCED_FACE('',(#332),#350,.F.);
#332 = FACE_BOUND('',#333,.T.);
#333 = EDGE_LOOP('',(#334,#335,#336,#344));
#334 = ORIENTED_EDGE('',*,*,#39,.T.);
#335 = ORIENTED_EDGE('',*,*,#202,.T.);
#336 = ORIENTED_EDGE('',*,*,#337,.T.);
#337 = EDGE_CURVE('',#203,#338,#340,.T.);
#338 = VERTEX_POINT('',#339);
#339 = CARTESIAN_POINT('',(170.13,65.,73.));
#340 = LINE('',#341,#342);
#341 = CARTESIAN_POINT('',(170.13,68.,73.));
#342 = VECTOR('',#343,1.);
#343 = DIRECTION('',(1.224646799147E-16,-1.,0.));
#344 = ORIENTED_EDGE('',*,*,#345,.T.);
#345 = EDGE_CURVE('',#338,#40,#346,.T.);
#346 = LINE('',#347,#348);
#347 = CARTESIAN_POINT('',(170.13,65.,73.));
#348 = VECTOR('',#349,1.);
#349 = DIRECTION('',(1.,1.224646799147E-16,-2.465190328816E-32));
#350 = PLANE('',#351);
#351 = AXIS2_PLACEMENT_3D('',#352,#353,#354);
#352 = CARTESIAN_POINT('',(221.065,66.5,73.));
#353 = DIRECTION('',(2.540718180781E-33,-2.22044604925E-16,-1.));
#354 = DIRECTION('',(1.224646799147E-16,-1.,2.22044604925E-16));
#355 = ADVANCED_FACE('',(#356),#406,.F.);
#356 = FACE_BOUND('',#357,.F.);
#357 = EDGE_LOOP('',(#358,#359,#367,#375,#383,#391,#399,#405));
#358 = ORIENTED_EDGE('',*,*,#268,.F.);
#359 = ORIENTED_EDGE('',*,*,#360,.T.);
#360 = EDGE_CURVE('',#269,#361,#363,.T.);
#361 = VERTEX_POINT('',#362);
#362 = CARTESIAN_POINT('',(170.13,29.,63.));
#363 = LINE('',#364,#365);
#364 = CARTESIAN_POINT('',(170.13,29.,-2.));
#365 = VECTOR('',#366,1.);
#366 = DIRECTION('',(2.465190328816E-32,0.,1.));
#367 = ORIENTED_EDGE('',*,*,#368,.T.);
#368 = EDGE_CURVE('',#361,#369,#371,.T.);
#369 = VERTEX_POINT('',#370);
#370 = CARTESIAN_POINT('',(172.13,28.862569942083,63.));
#371 = LINE('',#372,#373);
#372 = CARTESIAN_POINT('',(218.59926945343,25.669432745911,63.));
#373 = VECTOR('',#374,1.);
#374 = DIRECTION('',(0.99764745025,-6.855337343429E-02,1.52219067205E-17
    ));
#375 = ORIENTED_EDGE('',*,*,#376,.F.);
#376 = EDGE_CURVE('',#377,#369,#379,.T.);
#377 = VERTEX_POINT('',#378);
#378 = CARTESIAN_POINT('',(172.13,28.862569942083,1.));
#379 = LINE('',#380,#381);
#380 = CARTESIAN_POINT('',(172.13,28.862569942083,30.5));
#381 = VECTOR('',#382,1.);
#382 = DIRECTION('',(2.465190328816E-32,0.,1.));
#383 = ORIENTED_EDGE('',*,*,#384,.F.);
#384 = EDGE_CURVE('',#385,#377,#387,.T.);
#385 = VERTEX_POINT('',#386);
#386 = CARTESIAN_POINT('',(270.,22.137430057917,1.));
#387 = LINE('',#388,#389);
#388 = CARTESIAN_POINT('',(169.89424266716,29.016200071953,1.));
#389 = VECTOR('',#390,1.);
#390 = DIRECTION('',(-0.99764745025,6.855337343429E-02,
    -1.52219067205E-17));
#391 = ORIENTED_EDGE('',*,*,#392,.F.);
#392 = EDGE_CURVE('',#393,#385,#395,.T.);
#393 = VERTEX_POINT('',#394);
#394 = CARTESIAN_POINT('',(270.,22.137430057917,63.));
#395 = LINE('',#396,#397);
#396 = CARTESIAN_POINT('',(270.,22.137430057917,-0.5));
#397 = VECTOR('',#398,1.);
#398 = DIRECTION('',(-2.465190328816E-32,0.,-1.));
#399 = ORIENTED_EDGE('',*,*,#400,.T.);
#400 = EDGE_CURVE('',#393,#56,#401,.T.);
#401 = LINE('',#402,#403);
#402 = CARTESIAN_POINT('',(218.59926945343,25.669432745911,63.));
#403 = VECTOR('',#404,1.);
#404 = DIRECTION('',(0.99764745025,-6.855337343429E-02,1.52219067205E-17
    ));
#405 = ORIENTED_EDGE('',*,*,#63,.F.);
#406 = PLANE('',#407);
#407 = AXIS2_PLACEMENT_3D('',#408,#409,#410);
#408 = CARTESIAN_POINT('',(170.13,29.,-2.));
#409 = DIRECTION('',(6.855337343429E-02,0.99764745025,0.));
#410 = DIRECTION('',(0.99764745025,-6.855337343429E-02,
    -2.465190328816E-32));
#411 = ADVANCED_FACE('',(#412,#494,#505,#516,#527,#538),#549,.T.);
#412 = FACE_BOUND('',#413,.T.);
#413 = EDGE_LOOP('',(#414,#424,#430,#431,#432,#440,#448,#456,#464,#472,
    #480,#488));
#414 = ORIENTED_EDGE('',*,*,#415,.T.);
#415 = EDGE_CURVE('',#416,#418,#420,.T.);
#416 = VERTEX_POINT('',#417);
#417 = CARTESIAN_POINT('',(270.,65.,43.75));
#418 = VERTEX_POINT('',#419);
#419 = CARTESIAN_POINT('',(270.,65.,63.));
#420 = LINE('',#421,#422);
#421 = CARTESIAN_POINT('',(270.,65.,1.));
#422 = VECTOR('',#423,1.);
#423 = DIRECTION('',(-2.540718180781E-33,2.22044604925E-16,1.));
#424 = ORIENTED_EDGE('',*,*,#425,.T.);
#425 = EDGE_CURVE('',#418,#48,#426,.T.);
#426 = LINE('',#427,#428);
#427 = CARTESIAN_POINT('',(270.,65.,63.));
#428 = VECTOR('',#429,1.);
#429 = DIRECTION('',(1.,1.224646799147E-16,-2.465190328816E-32));
#430 = ORIENTED_EDGE('',*,*,#47,.T.);
#431 = ORIENTED_EDGE('',*,*,#345,.F.);
#432 = ORIENTED_EDGE('',*,*,#433,.T.);
#433 = EDGE_CURVE('',#338,#434,#436,.T.);
#434 = VERTEX_POINT('',#435);
#435 = CARTESIAN_POINT('',(170.13,65.,63.));
#436 = LINE('',#437,#438);
#437 = CARTESIAN_POINT('',(170.13,65.,63.));
#438 = VECTOR('',#439,1.);
#439 = DIRECTION('',(2.540718180781E-33,-2.22044604925E-16,-1.));
#440 = ORIENTED_EDGE('',*,*,#441,.T.);
#441 = EDGE_CURVE('',#434,#442,#444,.T.);
#442 = VERTEX_POINT('',#443);
#443 = CARTESIAN_POINT('',(172.13,65.,63.));
#444 = LINE('',#445,#446);
#445 = CARTESIAN_POINT('',(170.13,65.,63.));
#446 = VECTOR('',#447,1.);
#447 = DIRECTION('',(1.,1.224646799147E-16,-2.465190328816E-32));
#448 = ORIENTED_EDGE('',*,*,#449,.T.);
#449 = EDGE_CURVE('',#442,#450,#452,.T.);
#450 = VERTEX_POINT('',#451);
#451 = CARTESIAN_POINT('',(172.13,65.,1.));
#452 = LINE('',#453,#454);
#453 = CARTESIAN_POINT('',(172.13,65.,63.));
#454 = VECTOR('',#455,1.);
#455 = DIRECTION('',(2.540718180781E-33,-2.22044604925E-16,-1.));
#456 = ORIENTED_EDGE('',*,*,#457,.T.);
#457 = EDGE_CURVE('',#450,#458,#460,.T.);
#458 = VERTEX_POINT('',#459);
#459 = CARTESIAN_POINT('',(270.,65.,1.));
#460 = LINE('',#461,#462);
#461 = CARTESIAN_POINT('',(172.13,65.,1.));
#462 = VECTOR('',#463,1.);
#463 = DIRECTION('',(1.,1.224646799147E-16,-2.465190328816E-32));
#464 = ORIENTED_EDGE('',*,*,#465,.T.);
#465 = EDGE_CURVE('',#458,#466,#468,.T.);
#466 = VERTEX_POINT('',#467);
#467 = CARTESIAN_POINT('',(270.,65.,14.75));
#468 = LINE('',#469,#470);
#469 = CARTESIAN_POINT('',(270.,65.,1.));
#470 = VECTOR('',#471,1.);
#471 = DIRECTION('',(-2.540718180781E-33,2.22044604925E-16,1.));
#472 = ORIENTED_EDGE('',*,*,#473,.F.);
#473 = EDGE_CURVE('',#474,#466,#476,.T.);
#474 = VERTEX_POINT('',#475);
#475 = CARTESIAN_POINT('',(262.,65.,14.75));
#476 = LINE('',#477,#478);
#477 = CARTESIAN_POINT('',(262.,65.,14.75));
#478 = VECTOR('',#479,1.);
#479 = DIRECTION('',(1.,1.224646799147E-16,-2.465190328816E-32));
#480 = ORIENTED_EDGE('',*,*,#481,.F.);
#481 = EDGE_CURVE('',#482,#474,#484,.T.);
#482 = VERTEX_POINT('',#483);
#483 = CARTESIAN_POINT('',(262.,65.,43.75));
#484 = LINE('',#485,#486);
#485 = CARTESIAN_POINT('',(262.,65.,36.125));
#486 = VECTOR('',#487,1.);
#487 = DIRECTION('',(2.540718180781E-33,-2.22044604925E-16,-1.));
#488 = ORIENTED_EDGE('',*,*,#489,.F.);
#489 = EDGE_CURVE('',#416,#482,#490,.T.);
#490 = LINE('',#491,#492);
#491 = CARTESIAN_POINT('',(270.,65.,43.75));
#492 = VECTOR('',#493,1.);
#493 = DIRECTION('',(-1.,-1.224646799147E-16,2.465190328816E-32));
#494 = FACE_BOUND('',#495,.T.);
#495 = EDGE_LOOP('',(#496));
#496 = ORIENTED_EDGE('',*,*,#497,.T.);
#497 = EDGE_CURVE('',#498,#498,#500,.T.);
#498 = VERTEX_POINT('',#499);
#499 = CARTESIAN_POINT('',(264.725,65.,68.));
#500 = CIRCLE('',#501,1.275);
#501 = AXIS2_PLACEMENT_3D('',#502,#503,#504);
#502 = CARTESIAN_POINT('',(266.,65.,68.));
#503 = DIRECTION('',(-1.224646799147E-16,1.,-2.22044604925E-16));
#504 = DIRECTION('',(-1.,-1.224646799147E-16,2.465190328816E-32));
#505 = FACE_BOUND('',#506,.T.);
#506 = EDGE_LOOP('',(#507));
#507 = ORIENTED_EDGE('',*,*,#508,.T.);
#508 = EDGE_CURVE('',#509,#509,#511,.T.);
#509 = VERTEX_POINT('',#510);
#510 = CARTESIAN_POINT('',(219.79,65.,68.));
#511 = CIRCLE('',#512,1.275);
#512 = AXIS2_PLACEMENT_3D('',#513,#514,#515);
#513 = CARTESIAN_POINT('',(221.065,65.,68.));
#514 = DIRECTION('',(-1.224646799147E-16,1.,-2.22044604925E-16));
#515 = DIRECTION('',(-1.,-1.224646799147E-16,2.465190328816E-32));
#516 = FACE_BOUND('',#517,.T.);
#517 = EDGE_LOOP('',(#518));
#518 = ORIENTED_EDGE('',*,*,#519,.T.);
#519 = EDGE_CURVE('',#520,#520,#522,.T.);
#520 = VERTEX_POINT('',#521);
#521 = CARTESIAN_POINT('',(174.855,65.,68.));
#522 = CIRCLE('',#523,1.275);
#523 = AXIS2_PLACEMENT_3D('',#524,#525,#526);
#524 = CARTESIAN_POINT('',(176.13,65.,68.));
#525 = DIRECTION('',(-1.224646799147E-16,1.,-2.22044604925E-16));
#526 = DIRECTION('',(-1.,-1.224646799147E-16,2.465190328816E-32));
#527 = FACE_BOUND('',#528,.T.);
#528 = EDGE_LOOP('',(#529));
#529 = ORIENTED_EDGE('',*,*,#530,.F.);
#530 = EDGE_CURVE('',#531,#531,#533,.T.);
#531 = VERTEX_POINT('',#532);
#532 = CARTESIAN_POINT('',(199.5,65.,52.25));
#533 = CIRCLE('',#534,10.5);
#534 = AXIS2_PLACEMENT_3D('',#535,#536,#537);
#535 = CARTESIAN_POINT('',(210.,65.,52.25));
#536 = DIRECTION('',(1.224646799147E-16,-1.,2.22044604925E-16));
#537 = DIRECTION('',(-1.,-1.224646799147E-16,5.075305255429E-16));
#538 = FACE_BOUND('',#539,.T.);
#539 = EDGE_LOOP('',(#540));
#540 = ORIENTED_EDGE('',*,*,#541,.F.);
#541 = EDGE_CURVE('',#542,#542,#544,.T.);
#542 = VERTEX_POINT('',#543);
#543 = CARTESIAN_POINT('',(199.5,65.,11.75));
#544 = CIRCLE('',#545,10.5);
#545 = AXIS2_PLACEMENT_3D('',#546,#547,#548);
#546 = CARTESIAN_POINT('',(210.,65.,11.75));
#547 = DIRECTION('',(1.224646799147E-16,-1.,2.22044604925E-16));
#548 = DIRECTION('',(-1.,-1.224646799147E-16,2.465190328816E-32));
#549 = PLANE('',#550);
#550 = AXIS2_PLACEMENT_3D('',#551,#552,#553);
#551 = CARTESIAN_POINT('',(221.065,65.,35.5));
#552 = DIRECTION('',(1.224646799147E-16,-1.,2.22044604925E-16));
#553 = DIRECTION('',(-1.,-1.224646799147E-16,2.465190328816E-32));
#554 = ADVANCED_FACE('',(#555),#566,.T.);
#555 = FACE_BOUND('',#556,.T.);
#556 = EDGE_LOOP('',(#557,#558,#564,#565));
#557 = ORIENTED_EDGE('',*,*,#425,.F.);
#558 = ORIENTED_EDGE('',*,*,#559,.T.);
#559 = EDGE_CURVE('',#418,#393,#560,.T.);
#560 = LINE('',#561,#562);
#561 = CARTESIAN_POINT('',(270.,65.,63.));
#562 = VECTOR('',#563,1.);
#563 = DIRECTION('',(1.224646799147E-16,-1.,2.22044604925E-16));
#564 = ORIENTED_EDGE('',*,*,#400,.T.);
#565 = ORIENTED_EDGE('',*,*,#55,.F.);
#566 = PLANE('',#567);
#567 = AXIS2_PLACEMENT_3D('',#568,#569,#570);
#568 = CARTESIAN_POINT('',(270.,65.,63.));
#569 = DIRECTION('',(-2.540718180781E-33,2.22044604925E-16,1.));
#570 = DIRECTION('',(1.,1.224646799147E-16,-2.465190328816E-32));
#571 = ADVANCED_FACE('',(#572),#597,.F.);
#572 = FACE_BOUND('',#573,.F.);
#573 = EDGE_LOOP('',(#574,#575,#583,#591));
#574 = ORIENTED_EDGE('',*,*,#87,.F.);
#575 = ORIENTED_EDGE('',*,*,#576,.T.);
#576 = EDGE_CURVE('',#88,#577,#579,.T.);
#577 = VERTEX_POINT('',#578);
#578 = CARTESIAN_POINT('',(270.,43.5,15.));
#579 = LINE('',#580,#581);
#580 = CARTESIAN_POINT('',(272.,43.5,15.));
#581 = VECTOR('',#582,1.);
#582 = DIRECTION('',(-1.,-1.224646799147E-16,2.465190328816E-32));
#583 = ORIENTED_EDGE('',*,*,#584,.T.);
#584 = EDGE_CURVE('',#577,#585,#587,.T.);
#585 = VERTEX_POINT('',#586);
#586 = CARTESIAN_POINT('',(270.,48.25,15.));
#587 = LINE('',#588,#589);
#588 = CARTESIAN_POINT('',(270.,54.25,15.));
#589 = VECTOR('',#590,1.);
#590 = DIRECTION('',(-1.224646799147E-16,1.,-2.22044604925E-16));
#591 = ORIENTED_EDGE('',*,*,#592,.F.);
#592 = EDGE_CURVE('',#90,#585,#593,.T.);
#593 = LINE('',#594,#595);
#594 = CARTESIAN_POINT('',(272.,48.25,15.));
#595 = VECTOR('',#596,1.);
#596 = DIRECTION('',(-1.,-1.224646799147E-16,2.465190328816E-32));
#597 = PLANE('',#598);
#598 = AXIS2_PLACEMENT_3D('',#599,#600,#601);
#599 = CARTESIAN_POINT('',(272.,43.5,15.));
#600 = DIRECTION('',(2.540718180781E-33,-2.22044604925E-16,-1.));
#601 = DIRECTION('',(-1.224646799147E-16,1.,-2.22044604925E-16));
#602 = ADVANCED_FACE('',(#603),#621,.F.);
#603 = FACE_BOUND('',#604,.F.);
#604 = EDGE_LOOP('',(#605,#606,#607,#615));
#605 = ORIENTED_EDGE('',*,*,#113,.F.);
#606 = ORIENTED_EDGE('',*,*,#592,.T.);
#607 = ORIENTED_EDGE('',*,*,#608,.T.);
#608 = EDGE_CURVE('',#585,#609,#611,.T.);
#609 = VERTEX_POINT('',#610);
#610 = CARTESIAN_POINT('',(270.,48.25,43.5));
#611 = LINE('',#612,#613);
#612 = CARTESIAN_POINT('',(270.,48.25,8.));
#613 = VECTOR('',#614,1.);
#614 = DIRECTION('',(-2.540718180781E-33,2.22044604925E-16,1.));
#615 = ORIENTED_EDGE('',*,*,#616,.F.);
#616 = EDGE_CURVE('',#106,#609,#617,.T.);
#617 = LINE('',#618,#619);
#618 = CARTESIAN_POINT('',(272.,48.25,43.5));
#619 = VECTOR('',#620,1.);
#620 = DIRECTION('',(-1.,-1.224646799147E-16,2.465190328816E-32));
#621 = PLANE('',#622);
#622 = AXIS2_PLACEMENT_3D('',#623,#624,#625);
#623 = CARTESIAN_POINT('',(272.,48.25,15.));
#624 = DIRECTION('',(-1.224646799147E-16,1.,-2.22044604925E-16));
#625 = DIRECTION('',(-2.540718180781E-33,2.22044604925E-16,1.));
#626 = ADVANCED_FACE('',(#627),#645,.F.);
#627 = FACE_BOUND('',#628,.F.);
#628 = EDGE_LOOP('',(#629,#630,#631,#639));
#629 = ORIENTED_EDGE('',*,*,#105,.F.);
#630 = ORIENTED_EDGE('',*,*,#616,.T.);
#631 = ORIENTED_EDGE('',*,*,#632,.T.);
#632 = EDGE_CURVE('',#609,#633,#635,.T.);
#633 = VERTEX_POINT('',#634);
#634 = CARTESIAN_POINT('',(270.,43.5,43.5));
#635 = LINE('',#636,#637);
#636 = CARTESIAN_POINT('',(270.,56.625,43.5));
#637 = VECTOR('',#638,1.);
#638 = DIRECTION('',(1.224646799147E-16,-1.,2.22044604925E-16));
#639 = ORIENTED_EDGE('',*,*,#640,.F.);
#640 = EDGE_CURVE('',#98,#633,#641,.T.);
#641 = LINE('',#642,#643);
#642 = CARTESIAN_POINT('',(272.,43.5,43.5));
#643 = VECTOR('',#644,1.);
#644 = DIRECTION('',(-1.,-1.224646799147E-16,2.465190328816E-32));
#645 = PLANE('',#646);
#646 = AXIS2_PLACEMENT_3D('',#647,#648,#649);
#647 = CARTESIAN_POINT('',(272.,48.25,43.5));
#648 = DIRECTION('',(-2.540718180781E-33,2.22044604925E-16,1.));
#649 = DIRECTION('',(1.224646799147E-16,-1.,2.22044604925E-16));
#650 = ADVANCED_FACE('',(#651),#662,.F.);
#651 = FACE_BOUND('',#652,.F.);
#652 = EDGE_LOOP('',(#653,#654,#655,#661));
#653 = ORIENTED_EDGE('',*,*,#97,.F.);
#654 = ORIENTED_EDGE('',*,*,#640,.T.);
#655 = ORIENTED_EDGE('',*,*,#656,.T.);
#656 = EDGE_CURVE('',#633,#577,#657,.T.);
#657 = LINE('',#658,#659);
#658 = CARTESIAN_POINT('',(270.,43.5,22.25));
#659 = VECTOR('',#660,1.);
#660 = DIRECTION('',(2.540718180781E-33,-2.22044604925E-16,-1.));
#661 = ORIENTED_EDGE('',*,*,#576,.F.);
#662 = PLANE('',#663);
#663 = AXIS2_PLACEMENT_3D('',#664,#665,#666);
#664 = CARTESIAN_POINT('',(272.,43.5,43.5));
#665 = DIRECTION('',(1.224646799147E-16,-1.,2.22044604925E-16));
#666 = DIRECTION('',(2.540718180781E-33,-2.22044604925E-16,-1.));
#667 = ADVANCED_FACE('',(#668),#679,.F.);
#668 = FACE_BOUND('',#669,.F.);
#669 = EDGE_LOOP('',(#670,#671,#677,#678));
#670 = ORIENTED_EDGE('',*,*,#127,.T.);
#671 = ORIENTED_EDGE('',*,*,#672,.T.);
#672 = EDGE_CURVE('',#130,#259,#673,.T.);
#673 = LINE('',#674,#675);
#674 = CARTESIAN_POINT('',(172.63,71.,63.));
#675 = VECTOR('',#676,1.);
#676 = DIRECTION('',(2.540718180781E-33,-2.22044604925E-16,-1.));
#677 = ORIENTED_EDGE('',*,*,#258,.F.);
#678 = ORIENTED_EDGE('',*,*,#177,.F.);
#679 = PLANE('',#680);
#680 = AXIS2_PLACEMENT_3D('',#681,#682,#683);
#681 = CARTESIAN_POINT('',(221.065,71.,30.5));
#682 = DIRECTION('',(1.224646799147E-16,-1.,2.22044604925E-16));
#683 = DIRECTION('',(-1.,-1.224646799147E-16,2.465190328816E-32));
#684 = ADVANCED_FACE('',(#685),#696,.T.);
#685 = FACE_BOUND('',#686,.T.);
#686 = EDGE_LOOP('',(#687,#688,#689,#690));
#687 = ORIENTED_EDGE('',*,*,#161,.T.);
#688 = ORIENTED_EDGE('',*,*,#672,.T.);
#689 = ORIENTED_EDGE('',*,*,#284,.F.);
#690 = ORIENTED_EDGE('',*,*,#691,.F.);
#691 = EDGE_CURVE('',#154,#277,#692,.T.);
#692 = LINE('',#693,#694);
#693 = CARTESIAN_POINT('',(170.13,68.5,63.));
#694 = VECTOR('',#695,1.);
#695 = DIRECTION('',(2.540718180781E-33,-2.22044604925E-16,-1.));
#696 = CYLINDRICAL_SURFACE('',#697,2.5);
#697 = AXIS2_PLACEMENT_3D('',#698,#699,#700);
#698 = CARTESIAN_POINT('',(172.63,68.5,63.));
#699 = DIRECTION('',(2.540718180781E-33,-2.22044604925E-16,-1.));
#700 = DIRECTION('',(-1.,-1.224646799147E-16,2.465190328816E-32));
#701 = ADVANCED_FACE('',(#702),#717,.T.);
#702 = FACE_BOUND('',#703,.T.);
#703 = EDGE_LOOP('',(#704,#705,#706,#707,#708,#714,#715,#716));
#704 = ORIENTED_EDGE('',*,*,#153,.F.);
#705 = ORIENTED_EDGE('',*,*,#691,.T.);
#706 = ORIENTED_EDGE('',*,*,#276,.T.);
#707 = ORIENTED_EDGE('',*,*,#360,.T.);
#708 = ORIENTED_EDGE('',*,*,#709,.F.);
#709 = EDGE_CURVE('',#434,#361,#710,.T.);
#710 = LINE('',#711,#712);
#711 = CARTESIAN_POINT('',(170.13,65.,63.));
#712 = VECTOR('',#713,1.);
#713 = DIRECTION('',(1.224646799147E-16,-1.,2.22044604925E-16));
#714 = ORIENTED_EDGE('',*,*,#433,.F.);
#715 = ORIENTED_EDGE('',*,*,#337,.F.);
#716 = ORIENTED_EDGE('',*,*,#210,.F.);
#717 = PLANE('',#718);
#718 = AXIS2_PLACEMENT_3D('',#719,#720,#721);
#719 = CARTESIAN_POINT('',(170.13,46.692913385827,33.570866141732));
#720 = DIRECTION('',(-1.,-1.224646799147E-16,2.465190328816E-32));
#721 = DIRECTION('',(1.224646799147E-16,-1.,2.22044604925E-16));
#722 = ADVANCED_FACE('',(#723),#734,.F.);
#723 = FACE_BOUND('',#724,.F.);
#724 = EDGE_LOOP('',(#725,#726,#732,#733));
#725 = ORIENTED_EDGE('',*,*,#219,.F.);
#726 = ORIENTED_EDGE('',*,*,#727,.T.);
#727 = EDGE_CURVE('',#220,#498,#728,.T.);
#728 = LINE('',#729,#730);
#729 = CARTESIAN_POINT('',(264.725,68.,68.));
#730 = VECTOR('',#731,1.);
#731 = DIRECTION('',(1.224646799147E-16,-1.,2.22044604925E-16));
#732 = ORIENTED_EDGE('',*,*,#497,.T.);
#733 = ORIENTED_EDGE('',*,*,#727,.F.);
#734 = CYLINDRICAL_SURFACE('',#735,1.275);
#735 = AXIS2_PLACEMENT_3D('',#736,#737,#738);
#736 = CARTESIAN_POINT('',(266.,68.,68.));
#737 = DIRECTION('',(-1.224646799147E-16,1.,-2.22044604925E-16));
#738 = DIRECTION('',(-1.,-1.224646799147E-16,2.465190328816E-32));
#739 = ADVANCED_FACE('',(#740),#751,.F.);
#740 = FACE_BOUND('',#741,.F.);
#741 = EDGE_LOOP('',(#742,#743,#749,#750));
#742 = ORIENTED_EDGE('',*,*,#230,.F.);
#743 = ORIENTED_EDGE('',*,*,#744,.T.);
#744 = EDGE_CURVE('',#231,#509,#745,.T.);
#745 = LINE('',#746,#747);
#746 = CARTESIAN_POINT('',(219.79,68.,68.));
#747 = VECTOR('',#748,1.);
#748 = DIRECTION('',(1.224646799147E-16,-1.,2.22044604925E-16));
#749 = ORIENTED_EDGE('',*,*,#508,.T.);
#750 = ORIENTED_EDGE('',*,*,#744,.F.);
#751 = CYLINDRICAL_SURFACE('',#752,1.275);
#752 = AXIS2_PLACEMENT_3D('',#753,#754,#755);
#753 = CARTESIAN_POINT('',(221.065,68.,68.));
#754 = DIRECTION('',(-1.224646799147E-16,1.,-2.22044604925E-16));
#755 = DIRECTION('',(-1.,-1.224646799147E-16,2.465190328816E-32));
#756 = ADVANCED_FACE('',(#757),#768,.F.);
#757 = FACE_BOUND('',#758,.F.);
#758 = EDGE_LOOP('',(#759,#760,#766,#767));
#759 = ORIENTED_EDGE('',*,*,#241,.F.);
#760 = ORIENTED_EDGE('',*,*,#761,.T.);
#761 = EDGE_CURVE('',#242,#520,#762,.T.);
#762 = LINE('',#763,#764);
#763 = CARTESIAN_POINT('',(174.855,68.,68.));
#764 = VECTOR('',#765,1.);
#765 = DIRECTION('',(1.224646799147E-16,-1.,2.22044604925E-16));
#766 = ORIENTED_EDGE('',*,*,#519,.T.);
#767 = ORIENTED_EDGE('',*,*,#761,.F.);
#768 = CYLINDRICAL_SURFACE('',#769,1.275);
#769 = AXIS2_PLACEMENT_3D('',#770,#771,#772);
#770 = CARTESIAN_POINT('',(176.13,68.,68.));
#771 = DIRECTION('',(-1.224646799147E-16,1.,-2.22044604925E-16));
#772 = DIRECTION('',(-1.,-1.224646799147E-16,2.465190328816E-32));
#773 = ADVANCED_FACE('',(#774),#799,.T.);
#774 = FACE_BOUND('',#775,.T.);
#775 = EDGE_LOOP('',(#776,#786,#792,#793));
#776 = ORIENTED_EDGE('',*,*,#777,.F.);
#777 = EDGE_CURVE('',#778,#780,#782,.T.);
#778 = VERTEX_POINT('',#779);
#779 = CARTESIAN_POINT('',(265.,31.112569942083,1.));
#780 = VERTEX_POINT('',#781);
#781 = CARTESIAN_POINT('',(177.13,31.112569942083,1.));
#782 = LINE('',#783,#784);
#783 = CARTESIAN_POINT('',(265.,31.112569942083,1.));
#784 = VECTOR('',#785,1.);
#785 = DIRECTION('',(-1.,-3.650535279038E-16,2.465190328816E-32));
#786 = ORIENTED_EDGE('',*,*,#787,.T.);
#787 = EDGE_CURVE('',#778,#294,#788,.T.);
#788 = LINE('',#789,#790);
#789 = CARTESIAN_POINT('',(265.,31.112569942083,1.));
#790 = VECTOR('',#791,1.);
#791 = DIRECTION('',(-2.465190328816E-32,0.,-1.));
#792 = ORIENTED_EDGE('',*,*,#293,.T.);
#793 = ORIENTED_EDGE('',*,*,#794,.F.);
#794 = EDGE_CURVE('',#780,#296,#795,.T.);
#795 = LINE('',#796,#797);
#796 = CARTESIAN_POINT('',(177.13,31.112569942083,1.));
#797 = VECTOR('',#798,1.);
#798 = DIRECTION('',(-2.465190328816E-32,0.,-1.));
#799 = PLANE('',#800);
#800 = AXIS2_PLACEMENT_3D('',#801,#802,#803);
#801 = CARTESIAN_POINT('',(265.,31.112569942083,1.));
#802 = DIRECTION('',(-3.650535279038E-16,1.,0.));
#803 = DIRECTION('',(-1.,-3.650535279038E-16,2.465190328816E-32));
#804 = ADVANCED_FACE('',(#805),#824,.F.);
#805 = FACE_BOUND('',#806,.F.);
#806 = EDGE_LOOP('',(#807,#816,#822,#823));
#807 = ORIENTED_EDGE('',*,*,#808,.F.);
#808 = EDGE_CURVE('',#809,#780,#811,.T.);
#809 = VERTEX_POINT('',#810);
#810 = CARTESIAN_POINT('',(177.13,34.612569942083,1.));
#811 = CIRCLE('',#812,1.75);
#812 = AXIS2_PLACEMENT_3D('',#813,#814,#815);
#813 = CARTESIAN_POINT('',(177.13,32.862569942083,1.));
#814 = DIRECTION('',(2.465190328816E-32,3.018987445473E-48,1.));
#815 = DIRECTION('',(-1.,-1.224646799147E-16,2.465190328816E-32));
#816 = ORIENTED_EDGE('',*,*,#817,.T.);
#817 = EDGE_CURVE('',#809,#313,#818,.T.);
#818 = LINE('',#819,#820);
#819 = CARTESIAN_POINT('',(177.13,34.612569942083,1.));
#820 = VECTOR('',#821,1.);
#821 = DIRECTION('',(-2.465190328816E-32,0.,-1.));
#822 = ORIENTED_EDGE('',*,*,#320,.T.);
#823 = ORIENTED_EDGE('',*,*,#794,.F.);
#824 = CYLINDRICAL_SURFACE('',#825,1.75);
#825 = AXIS2_PLACEMENT_3D('',#826,#827,#828);
#826 = CARTESIAN_POINT('',(177.13,32.862569942083,1.));
#827 = DIRECTION('',(2.465190328816E-32,0.,1.));
#828 = DIRECTION('',(-1.,-1.224646799147E-16,2.465190328816E-32));
#829 = ADVANCED_FACE('',(#830),#848,.F.);
#830 = FACE_BOUND('',#831,.F.);
#831 = EDGE_LOOP('',(#832,#840,#846,#847));
#832 = ORIENTED_EDGE('',*,*,#833,.F.);
#833 = EDGE_CURVE('',#834,#809,#836,.T.);
#834 = VERTEX_POINT('',#835);
#835 = CARTESIAN_POINT('',(265.,34.612569942083,1.));
#836 = LINE('',#837,#838);
#837 = CARTESIAN_POINT('',(265.,34.612569942083,1.));
#838 = VECTOR('',#839,1.);
#839 = DIRECTION('',(-1.,2.009871174041E-16,2.465190328816E-32));
#840 = ORIENTED_EDGE('',*,*,#841,.T.);
#841 = EDGE_CURVE('',#834,#304,#842,.T.);
#842 = LINE('',#843,#844);
#843 = CARTESIAN_POINT('',(265.,34.612569942083,1.));
#844 = VECTOR('',#845,1.);
#845 = DIRECTION('',(-2.465190328816E-32,0.,-1.));
#846 = ORIENTED_EDGE('',*,*,#312,.T.);
#847 = ORIENTED_EDGE('',*,*,#817,.F.);
#848 = PLANE('',#849);
#849 = AXIS2_PLACEMENT_3D('',#850,#851,#852);
#850 = CARTESIAN_POINT('',(265.,34.612569942083,1.));
#851 = DIRECTION('',(2.009871174041E-16,1.,0.));
#852 = DIRECTION('',(-1.,2.009871174041E-16,2.465190328816E-32));
#853 = ADVANCED_FACE('',(#854),#866,.F.);
#854 = FACE_BOUND('',#855,.F.);
#855 = EDGE_LOOP('',(#856,#863,#864,#865));
#856 = ORIENTED_EDGE('',*,*,#857,.F.);
#857 = EDGE_CURVE('',#778,#834,#858,.T.);
#858 = CIRCLE('',#859,1.75);
#859 = AXIS2_PLACEMENT_3D('',#860,#861,#862);
#860 = CARTESIAN_POINT('',(265.,32.862569942083,1.));
#861 = DIRECTION('',(2.465190328816E-32,3.018987445473E-48,1.));
#862 = DIRECTION('',(-1.,-1.224646799147E-16,2.465190328816E-32));
#863 = ORIENTED_EDGE('',*,*,#787,.T.);
#864 = ORIENTED_EDGE('',*,*,#303,.T.);
#865 = ORIENTED_EDGE('',*,*,#841,.F.);
#866 = CYLINDRICAL_SURFACE('',#867,1.75);
#867 = AXIS2_PLACEMENT_3D('',#868,#869,#870);
#868 = CARTESIAN_POINT('',(265.,32.862569942083,1.));
#869 = DIRECTION('',(2.465190328816E-32,0.,1.));
#870 = DIRECTION('',(-1.,-1.224646799147E-16,2.465190328816E-32));
#871 = ADVANCED_FACE('',(#872,#922),#928,.T.);
#872 = FACE_BOUND('',#873,.T.);
#873 = EDGE_LOOP('',(#874,#875,#881,#882,#883,#884,#892,#900,#908,#916)
  );
#874 = ORIENTED_EDGE('',*,*,#465,.F.);
#875 = ORIENTED_EDGE('',*,*,#876,.T.);
#876 = EDGE_CURVE('',#458,#385,#877,.T.);
#877 = LINE('',#878,#879);
#878 = CARTESIAN_POINT('',(270.,65.,1.));
#879 = VECTOR('',#880,1.);
#880 = DIRECTION('',(1.224646799147E-16,-1.,2.22044604925E-16));
#881 = ORIENTED_EDGE('',*,*,#392,.F.);
#882 = ORIENTED_EDGE('',*,*,#559,.F.);
#883 = ORIENTED_EDGE('',*,*,#415,.F.);
#884 = ORIENTED_EDGE('',*,*,#885,.T.);
#885 = EDGE_CURVE('',#416,#886,#888,.T.);
#886 = VERTEX_POINT('',#887);
#887 = CARTESIAN_POINT('',(270.,60.01,36.75));
#888 = LINE('',#889,#890);
#889 = CARTESIAN_POINT('',(270.,53.649282954286,27.827150436874));
#890 = VECTOR('',#891,1.);
#891 = DIRECTION('',(7.108678683585E-17,-0.580467665333,-0.814283298062)
  );
#892 = ORIENTED_EDGE('',*,*,#893,.T.);
#893 = EDGE_CURVE('',#886,#894,#896,.T.);
#894 = VERTEX_POINT('',#895);
#895 = CARTESIAN_POINT('',(270.,60.,36.75));
#896 = LINE('',#897,#898);
#897 = CARTESIAN_POINT('',(270.,65.,36.75));
#898 = VECTOR('',#899,1.);
#899 = DIRECTION('',(1.224646799147E-16,-1.,2.22044604925E-16));
#900 = ORIENTED_EDGE('',*,*,#901,.F.);
#901 = EDGE_CURVE('',#902,#894,#904,.T.);
#902 = VERTEX_POINT('',#903);
#903 = CARTESIAN_POINT('',(270.,60.,21.75));
#904 = LINE('',#905,#906);
#905 = CARTESIAN_POINT('',(270.,60.,21.75));
#906 = VECTOR('',#907,1.);
#907 = DIRECTION('',(-2.540718180781E-33,2.22044604925E-16,1.));
#908 = ORIENTED_EDGE('',*,*,#909,.F.);
#909 = EDGE_CURVE('',#910,#902,#912,.T.);
#910 = VERTEX_POINT('',#911);
#911 = CARTESIAN_POINT('',(270.,60.01,21.75));
#912 = LINE('',#913,#914);
#913 = CARTESIAN_POINT('',(270.,65.,21.75));
#914 = VECTOR('',#915,1.);
#915 = DIRECTION('',(1.224646799147E-16,-1.,2.22044604925E-16));
#916 = ORIENTED_EDGE('',*,*,#917,.F.);
#917 = EDGE_CURVE('',#466,#910,#918,.T.);
#918 = LINE('',#919,#920);
#919 = CARTESIAN_POINT('',(270.,67.002072734002,11.941481134667));
#920 = VECTOR('',#921,1.);
#921 = DIRECTION('',(7.108678683585E-17,-0.580467665333,0.814283298062)
  );
#922 = FACE_BOUND('',#923,.T.);
#923 = EDGE_LOOP('',(#924,#925,#926,#927));
#924 = ORIENTED_EDGE('',*,*,#656,.T.);
#925 = ORIENTED_EDGE('',*,*,#584,.T.);
#926 = ORIENTED_EDGE('',*,*,#608,.T.);
#927 = ORIENTED_EDGE('',*,*,#632,.T.);
#928 = PLANE('',#929);
#929 = AXIS2_PLACEMENT_3D('',#930,#931,#932);
#930 = CARTESIAN_POINT('',(270.,65.,1.));
#931 = DIRECTION('',(-1.,-1.224646799147E-16,2.465190328816E-32));
#932 = DIRECTION('',(-2.540718180781E-33,2.22044604925E-16,1.));
#933 = ADVANCED_FACE('',(#934,#945),#951,.T.);
#934 = FACE_BOUND('',#935,.T.);
#935 = EDGE_LOOP('',(#936,#937,#943,#944));
#936 = ORIENTED_EDGE('',*,*,#457,.F.);
#937 = ORIENTED_EDGE('',*,*,#938,.T.);
#938 = EDGE_CURVE('',#450,#377,#939,.T.);
#939 = LINE('',#940,#941);
#940 = CARTESIAN_POINT('',(172.13,65.,1.));
#941 = VECTOR('',#942,1.);
#942 = DIRECTION('',(1.224646799147E-16,-1.,2.22044604925E-16));
#943 = ORIENTED_EDGE('',*,*,#384,.F.);
#944 = ORIENTED_EDGE('',*,*,#876,.F.);
#945 = FACE_BOUND('',#946,.T.);
#946 = EDGE_LOOP('',(#947,#948,#949,#950));
#947 = ORIENTED_EDGE('',*,*,#857,.F.);
#948 = ORIENTED_EDGE('',*,*,#777,.T.);
#949 = ORIENTED_EDGE('',*,*,#808,.F.);
#950 = ORIENTED_EDGE('',*,*,#833,.F.);
#951 = PLANE('',#952);
#952 = AXIS2_PLACEMENT_3D('',#953,#954,#955);
#953 = CARTESIAN_POINT('',(172.13,65.,1.));
#954 = DIRECTION('',(-2.540718180781E-33,2.22044604925E-16,1.));
#955 = DIRECTION('',(1.,1.224646799147E-16,-2.465190328816E-32));
#956 = ADVANCED_FACE('',(#957),#968,.T.);
#957 = FACE_BOUND('',#958,.T.);
#958 = EDGE_LOOP('',(#959,#960,#966,#967));
#959 = ORIENTED_EDGE('',*,*,#449,.F.);
#960 = ORIENTED_EDGE('',*,*,#961,.T.);
#961 = EDGE_CURVE('',#442,#369,#962,.T.);
#962 = LINE('',#963,#964);
#963 = CARTESIAN_POINT('',(172.13,65.,63.));
#964 = VECTOR('',#965,1.);
#965 = DIRECTION('',(1.224646799147E-16,-1.,2.22044604925E-16));
#966 = ORIENTED_EDGE('',*,*,#376,.F.);
#967 = ORIENTED_EDGE('',*,*,#938,.F.);
#968 = PLANE('',#969);
#969 = AXIS2_PLACEMENT_3D('',#970,#971,#972);
#970 = CARTESIAN_POINT('',(172.13,65.,63.));
#971 = DIRECTION('',(1.,1.224646799147E-16,-2.465190328816E-32));
#972 = DIRECTION('',(2.540718180781E-33,-2.22044604925E-16,-1.));
#973 = ADVANCED_FACE('',(#974),#980,.T.);
#974 = FACE_BOUND('',#975,.T.);
#975 = EDGE_LOOP('',(#976,#977,#978,#979));
#976 = ORIENTED_EDGE('',*,*,#441,.F.);
#977 = ORIENTED_EDGE('',*,*,#709,.T.);
#978 = ORIENTED_EDGE('',*,*,#368,.T.);
#979 = ORIENTED_EDGE('',*,*,#961,.F.);
#980 = PLANE('',#981);
#981 = AXIS2_PLACEMENT_3D('',#982,#983,#984);
#982 = CARTESIAN_POINT('',(170.13,65.,63.));
#983 = DIRECTION('',(-2.540718180781E-33,2.22044604925E-16,1.));
#984 = DIRECTION('',(1.,1.224646799147E-16,-2.465190328816E-32));
#985 = ADVANCED_FACE('',(#986),#1004,.T.);
#986 = FACE_BOUND('',#987,.T.);
#987 = EDGE_LOOP('',(#988,#989,#990,#998));
#988 = ORIENTED_EDGE('',*,*,#885,.F.);
#989 = ORIENTED_EDGE('',*,*,#489,.T.);
#990 = ORIENTED_EDGE('',*,*,#991,.T.);
#991 = EDGE_CURVE('',#482,#992,#994,.T.);
#992 = VERTEX_POINT('',#993);
#993 = CARTESIAN_POINT('',(262.,60.01,36.75));
#994 = LINE('',#995,#996);
#995 = CARTESIAN_POINT('',(262.,62.09817206269,39.67929948674));
#996 = VECTOR('',#997,1.);
#997 = DIRECTION('',(7.108678683585E-17,-0.580467665333,-0.814283298062)
  );
#998 = ORIENTED_EDGE('',*,*,#999,.F.);
#999 = EDGE_CURVE('',#886,#992,#1000,.T.);
#1000 = LINE('',#1001,#1002);
#1001 = CARTESIAN_POINT('',(270.,60.01,36.75));
#1002 = VECTOR('',#1003,1.);
#1003 = DIRECTION('',(-1.,-1.224646799147E-16,2.465190328816E-32));
#1004 = PLANE('',#1005);
#1005 = AXIS2_PLACEMENT_3D('',#1006,#1007,#1008);
#1006 = CARTESIAN_POINT('',(270.,62.505,40.25));
#1007 = DIRECTION('',(9.97209434571E-17,-0.814283298062,0.580467665333)
  );
#1008 = DIRECTION('',(-1.,-1.224646799147E-16,2.465190328816E-32));
#1009 = ADVANCED_FACE('',(#1010),#1044,.F.);
#1010 = FACE_BOUND('',#1011,.F.);
#1011 = EDGE_LOOP('',(#1012,#1020,#1028,#1036,#1042,#1043));
#1012 = ORIENTED_EDGE('',*,*,#1013,.T.);
#1013 = EDGE_CURVE('',#992,#1014,#1016,.T.);
#1014 = VERTEX_POINT('',#1015);
#1015 = CARTESIAN_POINT('',(262.,60.,36.75));
#1016 = LINE('',#1017,#1018);
#1017 = CARTESIAN_POINT('',(262.,65.,36.75));
#1018 = VECTOR('',#1019,1.);
#1019 = DIRECTION('',(1.224646799147E-16,-1.,2.22044604925E-16));
#1020 = ORIENTED_EDGE('',*,*,#1021,.T.);
#1021 = EDGE_CURVE('',#1014,#1022,#1024,.T.);
#1022 = VERTEX_POINT('',#1023);
#1023 = CARTESIAN_POINT('',(262.,60.,21.75));
#1024 = LINE('',#1025,#1026);
#1025 = CARTESIAN_POINT('',(262.,60.,36.75));
#1026 = VECTOR('',#1027,1.);
#1027 = DIRECTION('',(2.540718180781E-33,-2.22044604925E-16,-1.));
#1028 = ORIENTED_EDGE('',*,*,#1029,.F.);
#1029 = EDGE_CURVE('',#1030,#1022,#1032,.T.);
#1030 = VERTEX_POINT('',#1031);
#1031 = CARTESIAN_POINT('',(262.,60.01,21.75));
#1032 = LINE('',#1033,#1034);
#1033 = CARTESIAN_POINT('',(262.,65.,21.75));
#1034 = VECTOR('',#1035,1.);
#1035 = DIRECTION('',(1.224646799147E-16,-1.,2.22044604925E-16));
#1036 = ORIENTED_EDGE('',*,*,#1037,.F.);
#1037 = EDGE_CURVE('',#474,#1030,#1038,.T.);
#1038 = LINE('',#1039,#1040);
#1039 = CARTESIAN_POINT('',(262.,58.553183625597,23.793630184533));
#1040 = VECTOR('',#1041,1.);
#1041 = DIRECTION('',(7.108678683585E-17,-0.580467665333,0.814283298062)
  );
#1042 = ORIENTED_EDGE('',*,*,#481,.F.);
#1043 = ORIENTED_EDGE('',*,*,#991,.T.);
#1044 = PLANE('',#1045);
#1045 = AXIS2_PLACEMENT_3D('',#1046,#1047,#1048);
#1046 = CARTESIAN_POINT('',(262.,65.,36.75));
#1047 = DIRECTION('',(1.,1.224646799147E-16,-2.465190328816E-32));
#1048 = DIRECTION('',(2.540718180781E-33,-2.22044604925E-16,-1.));
#1049 = ADVANCED_FACE('',(#1050),#1061,.T.);
#1050 = FACE_BOUND('',#1051,.T.);
#1051 = EDGE_LOOP('',(#1052,#1053,#1054,#1055));
#1052 = ORIENTED_EDGE('',*,*,#1037,.F.);
#1053 = ORIENTED_EDGE('',*,*,#473,.T.);
#1054 = ORIENTED_EDGE('',*,*,#917,.T.);
#1055 = ORIENTED_EDGE('',*,*,#1056,.F.);
#1056 = EDGE_CURVE('',#1030,#910,#1057,.T.);
#1057 = LINE('',#1058,#1059);
#1058 = CARTESIAN_POINT('',(262.,60.01,21.75));
#1059 = VECTOR('',#1060,1.);
#1060 = DIRECTION('',(1.,1.224646799147E-16,-2.465190328816E-32));
#1061 = PLANE('',#1062);
#1062 = AXIS2_PLACEMENT_3D('',#1063,#1064,#1065);
#1063 = CARTESIAN_POINT('',(262.,62.505,18.25));
#1064 = DIRECTION('',(2.651772932854E-17,-0.814283298062,-0.580467665333
    ));
#1065 = DIRECTION('',(1.,6.285652528539E-17,-4.249209880007E-17));
#1066 = ADVANCED_FACE('',(#1067),#1086,.T.);
#1067 = FACE_BOUND('',#1068,.T.);
#1068 = EDGE_LOOP('',(#1069,#1077,#1078,#1079));
#1069 = ORIENTED_EDGE('',*,*,#1070,.F.);
#1070 = EDGE_CURVE('',#531,#1071,#1073,.T.);
#1071 = VERTEX_POINT('',#1072);
#1072 = CARTESIAN_POINT('',(206.5,60.01,52.25));
#1073 = LINE('',#1074,#1075);
#1074 = CARTESIAN_POINT('',(206.5,60.01,52.25));
#1075 = VECTOR('',#1076,1.);
#1076 = DIRECTION('',(0.814283298062,-0.580467665333,-2.843839167857E-16
    ));
#1077 = ORIENTED_EDGE('',*,*,#530,.T.);
#1078 = ORIENTED_EDGE('',*,*,#1070,.T.);
#1079 = ORIENTED_EDGE('',*,*,#1080,.F.);
#1080 = EDGE_CURVE('',#1071,#1071,#1081,.T.);
#1081 = CIRCLE('',#1082,3.5);
#1082 = AXIS2_PLACEMENT_3D('',#1083,#1084,#1085);
#1083 = CARTESIAN_POINT('',(210.,60.01,52.25));
#1084 = DIRECTION('',(1.224646799147E-16,-1.,2.22044604925E-16));
#1085 = DIRECTION('',(-1.,-1.224646799147E-16,5.075305255429E-16));
#1086 = CONICAL_SURFACE('',#1087,3.5,0.95149342606);
#1087 = AXIS2_PLACEMENT_3D('',#1088,#1089,#1090);
#1088 = CARTESIAN_POINT('',(210.,60.01,52.25));
#1089 = DIRECTION('',(-1.224646799147E-16,1.,-2.22044604925E-16));
#1090 = DIRECTION('',(-1.,-1.224646799147E-16,5.075305255429E-16));
#1091 = ADVANCED_FACE('',(#1092),#1111,.T.);
#1092 = FACE_BOUND('',#1093,.T.);
#1093 = EDGE_LOOP('',(#1094,#1102,#1103,#1104));
#1094 = ORIENTED_EDGE('',*,*,#1095,.F.);
#1095 = EDGE_CURVE('',#542,#1096,#1098,.T.);
#1096 = VERTEX_POINT('',#1097);
#1097 = CARTESIAN_POINT('',(206.5,60.01,11.75));
#1098 = LINE('',#1099,#1100);
#1099 = CARTESIAN_POINT('',(206.5,60.01,11.75));
#1100 = VECTOR('',#1101,1.);
#1101 = DIRECTION('',(0.814283298062,-0.580467665333,1.288897134206E-16)
  );
#1102 = ORIENTED_EDGE('',*,*,#541,.T.);
#1103 = ORIENTED_EDGE('',*,*,#1095,.T.);
#1104 = ORIENTED_EDGE('',*,*,#1105,.F.);
#1105 = EDGE_CURVE('',#1096,#1096,#1106,.T.);
#1106 = CIRCLE('',#1107,3.5);
#1107 = AXIS2_PLACEMENT_3D('',#1108,#1109,#1110);
#1108 = CARTESIAN_POINT('',(210.,60.01,11.75));
#1109 = DIRECTION('',(1.224646799147E-16,-1.,2.22044604925E-16));
#1110 = DIRECTION('',(-1.,-1.224646799147E-16,2.465190328816E-32));
#1111 = CONICAL_SURFACE('',#1112,3.5,0.95149342606);
#1112 = AXIS2_PLACEMENT_3D('',#1113,#1114,#1115);
#1113 = CARTESIAN_POINT('',(210.,60.01,11.75));
#1114 = DIRECTION('',(-1.224646799147E-16,1.,-2.22044604925E-16));
#1115 = DIRECTION('',(-1.,-1.224646799147E-16,2.465190328816E-32));
#1116 = ADVANCED_FACE('',(#1117),#1128,.F.);
#1117 = FACE_BOUND('',#1118,.F.);
#1118 = EDGE_LOOP('',(#1119,#1120,#1126,#1127));
#1119 = ORIENTED_EDGE('',*,*,#1029,.T.);
#1120 = ORIENTED_EDGE('',*,*,#1121,.T.);
#1121 = EDGE_CURVE('',#1022,#902,#1122,.T.);
#1122 = LINE('',#1123,#1124);
#1123 = CARTESIAN_POINT('',(262.,60.,21.75));
#1124 = VECTOR('',#1125,1.);
#1125 = DIRECTION('',(1.,1.224646799147E-16,-2.465190328816E-32));
#1126 = ORIENTED_EDGE('',*,*,#909,.F.);
#1127 = ORIENTED_EDGE('',*,*,#1056,.F.);
#1128 = PLANE('',#1129);
#1129 = AXIS2_PLACEMENT_3D('',#1130,#1131,#1132);
#1130 = CARTESIAN_POINT('',(262.,65.,21.75));
#1131 = DIRECTION('',(-2.540718180781E-33,2.22044604925E-16,1.));
#1132 = DIRECTION('',(1.,1.224646799147E-16,-2.465190328816E-32));
#1133 = ADVANCED_FACE('',(#1134),#1145,.T.);
#1134 = FACE_BOUND('',#1135,.T.);
#1135 = EDGE_LOOP('',(#1136,#1137,#1143,#1144));
#1136 = ORIENTED_EDGE('',*,*,#901,.T.);
#1137 = ORIENTED_EDGE('',*,*,#1138,.T.);
#1138 = EDGE_CURVE('',#894,#1014,#1139,.T.);
#1139 = LINE('',#1140,#1141);
#1140 = CARTESIAN_POINT('',(270.,60.,36.75));
#1141 = VECTOR('',#1142,1.);
#1142 = DIRECTION('',(-1.,-1.224646799147E-16,2.465190328816E-32));
#1143 = ORIENTED_EDGE('',*,*,#1021,.T.);
#1144 = ORIENTED_EDGE('',*,*,#1121,.T.);
#1145 = PLANE('',#1146);
#1146 = AXIS2_PLACEMENT_3D('',#1147,#1148,#1149);
#1147 = CARTESIAN_POINT('',(236.9390535058,60.,30.677100051054));
#1148 = DIRECTION('',(1.224646799147E-16,-1.,2.22044604925E-16));
#1149 = DIRECTION('',(-1.,-1.224646799147E-16,2.465190328816E-32));
#1150 = ADVANCED_FACE('',(#1151),#1157,.F.);
#1151 = FACE_BOUND('',#1152,.F.);
#1152 = EDGE_LOOP('',(#1153,#1154,#1155,#1156));
#1153 = ORIENTED_EDGE('',*,*,#893,.T.);
#1154 = ORIENTED_EDGE('',*,*,#1138,.T.);
#1155 = ORIENTED_EDGE('',*,*,#1013,.F.);
#1156 = ORIENTED_EDGE('',*,*,#999,.F.);
#1157 = PLANE('',#1158);
#1158 = AXIS2_PLACEMENT_3D('',#1159,#1160,#1161);
#1159 = CARTESIAN_POINT('',(270.,65.,36.75));
#1160 = DIRECTION('',(2.540718180781E-33,-2.22044604925E-16,-1.));
#1161 = DIRECTION('',(-1.,-1.224646799147E-16,2.465190328816E-32));
#1162 = ADVANCED_FACE('',(#1163),#1182,.T.);
#1163 = FACE_BOUND('',#1164,.F.);
#1164 = EDGE_LOOP('',(#1165,#1173,#1180,#1181));
#1165 = ORIENTED_EDGE('',*,*,#1166,.T.);
#1166 = EDGE_CURVE('',#1071,#1167,#1169,.T.);
#1167 = VERTEX_POINT('',#1168);
#1168 = CARTESIAN_POINT('',(206.5,60.,52.25));
#1169 = LINE('',#1170,#1171);
#1170 = CARTESIAN_POINT('',(206.5,65.,52.25));
#1171 = VECTOR('',#1172,1.);
#1172 = DIRECTION('',(1.224646799147E-16,-1.,2.22044604925E-16));
#1173 = ORIENTED_EDGE('',*,*,#1174,.T.);
#1174 = EDGE_CURVE('',#1167,#1167,#1175,.T.);
#1175 = CIRCLE('',#1176,3.5);
#1176 = AXIS2_PLACEMENT_3D('',#1177,#1178,#1179);
#1177 = CARTESIAN_POINT('',(210.,60.,52.25));
#1178 = DIRECTION('',(1.224646799147E-16,-1.,2.22044604925E-16));
#1179 = DIRECTION('',(-1.,-1.224646799147E-16,2.465190328816E-32));
#1180 = ORIENTED_EDGE('',*,*,#1166,.F.);
#1181 = ORIENTED_EDGE('',*,*,#1080,.F.);
#1182 = CYLINDRICAL_SURFACE('',#1183,3.5);
#1183 = AXIS2_PLACEMENT_3D('',#1184,#1185,#1186);
#1184 = CARTESIAN_POINT('',(210.,65.,52.25));
#1185 = DIRECTION('',(-1.224646799147E-16,1.,-2.22044604925E-16));
#1186 = DIRECTION('',(-1.,-1.224646799147E-16,2.465190328816E-32));
#1187 = ADVANCED_FACE('',(#1188),#1207,.T.);
#1188 = FACE_BOUND('',#1189,.F.);
#1189 = EDGE_LOOP('',(#1190,#1198,#1205,#1206));
#1190 = ORIENTED_EDGE('',*,*,#1191,.T.);
#1191 = EDGE_CURVE('',#1096,#1192,#1194,.T.);
#1192 = VERTEX_POINT('',#1193);
#1193 = CARTESIAN_POINT('',(206.5,60.,11.75));
#1194 = LINE('',#1195,#1196);
#1195 = CARTESIAN_POINT('',(206.5,65.,11.75));
#1196 = VECTOR('',#1197,1.);
#1197 = DIRECTION('',(1.224646799147E-16,-1.,2.22044604925E-16));
#1198 = ORIENTED_EDGE('',*,*,#1199,.T.);
#1199 = EDGE_CURVE('',#1192,#1192,#1200,.T.);
#1200 = CIRCLE('',#1201,3.5);
#1201 = AXIS2_PLACEMENT_3D('',#1202,#1203,#1204);
#1202 = CARTESIAN_POINT('',(210.,60.,11.75));
#1203 = DIRECTION('',(1.224646799147E-16,-1.,2.22044604925E-16));
#1204 = DIRECTION('',(-1.,-1.224646799147E-16,2.465190328816E-32));
#1205 = ORIENTED_EDGE('',*,*,#1191,.F.);
#1206 = ORIENTED_EDGE('',*,*,#1105,.F.);
#1207 = CYLINDRICAL_SURFACE('',#1208,3.5);
#1208 = AXIS2_PLACEMENT_3D('',#1209,#1210,#1211);
#1209 = CARTESIAN_POINT('',(210.,65.,11.75));
#1210 = DIRECTION('',(-1.224646799147E-16,1.,-2.22044604925E-16));
#1211 = DIRECTION('',(-1.,-1.224646799147E-16,2.465190328816E-32));
#1212 = ADVANCED_FACE('',(#1213,#1216),#1227,.T.);
#1213 = FACE_BOUND('',#1214,.T.);
#1214 = EDGE_LOOP('',(#1215));
#1215 = ORIENTED_EDGE('',*,*,#1174,.T.);
#1216 = FACE_BOUND('',#1217,.F.);
#1217 = EDGE_LOOP('',(#1218));
#1218 = ORIENTED_EDGE('',*,*,#1219,.T.);
#1219 = EDGE_CURVE('',#1220,#1220,#1222,.T.);
#1220 = VERTEX_POINT('',#1221);
#1221 = CARTESIAN_POINT('',(208.725,60.,52.25));
#1222 = CIRCLE('',#1223,1.275);
#1223 = AXIS2_PLACEMENT_3D('',#1224,#1225,#1226);
#1224 = CARTESIAN_POINT('',(210.,60.,52.25));
#1225 = DIRECTION('',(1.224646799147E-16,-1.,2.22044604925E-16));
#1226 = DIRECTION('',(-1.,-1.224646799147E-16,2.465190328816E-32));
#1227 = PLANE('',#1228);
#1228 = AXIS2_PLACEMENT_3D('',#1229,#1230,#1231);
#1229 = CARTESIAN_POINT('',(236.9390535058,60.,30.677100051054));
#1230 = DIRECTION('',(1.224646799147E-16,-1.,2.22044604925E-16));
#1231 = DIRECTION('',(-1.,-1.224646799147E-16,2.465190328816E-32));
#1232 = ADVANCED_FACE('',(#1233,#1236),#1247,.T.);
#1233 = FACE_BOUND('',#1234,.T.);
#1234 = EDGE_LOOP('',(#1235));
#1235 = ORIENTED_EDGE('',*,*,#1199,.T.);
#1236 = FACE_BOUND('',#1237,.F.);
#1237 = EDGE_LOOP('',(#1238));
#1238 = ORIENTED_EDGE('',*,*,#1239,.T.);
#1239 = EDGE_CURVE('',#1240,#1240,#1242,.T.);
#1240 = VERTEX_POINT('',#1241);
#1241 = CARTESIAN_POINT('',(208.725,60.,11.75));
#1242 = CIRCLE('',#1243,1.275);
#1243 = AXIS2_PLACEMENT_3D('',#1244,#1245,#1246);
#1244 = CARTESIAN_POINT('',(210.,60.,11.75));
#1245 = DIRECTION('',(1.224646799147E-16,-1.,2.22044604925E-16));
#1246 = DIRECTION('',(-1.,-1.224646799147E-16,2.465190328816E-32));
#1247 = PLANE('',#1248);
#1248 = AXIS2_PLACEMENT_3D('',#1249,#1250,#1251);
#1249 = CARTESIAN_POINT('',(236.9390535058,60.,30.677100051054));
#1250 = DIRECTION('',(1.224646799147E-16,-1.,2.22044604925E-16));
#1251 = DIRECTION('',(-1.,-1.224646799147E-16,2.465190328816E-32));
#1252 = ADVANCED_FACE('',(#1253),#1271,.F.);
#1253 = FACE_BOUND('',#1254,.T.);
#1254 = EDGE_LOOP('',(#1255,#1256,#1263,#1270));
#1255 = ORIENTED_EDGE('',*,*,#1219,.T.);
#1256 = ORIENTED_EDGE('',*,*,#1257,.T.);
#1257 = EDGE_CURVE('',#1220,#1258,#1260,.T.);
#1258 = VERTEX_POINT('',#1259);
#1259 = CARTESIAN_POINT('',(208.725,68.,52.25));
#1260 = B_SPLINE_CURVE_WITH_KNOTS('',1,(#1261,#1262),.UNSPECIFIED.,.F.,
  .F.,(2,2),(-5.,3.),.PIECEWISE_BEZIER_KNOTS.);
#1261 = CARTESIAN_POINT('',(208.725,60.,52.25));
#1262 = CARTESIAN_POINT('',(208.725,68.,52.25));
#1263 = ORIENTED_EDGE('',*,*,#1264,.F.);
#1264 = EDGE_CURVE('',#1258,#1258,#1265,.T.);
#1265 = CIRCLE('',#1266,1.275);
#1266 = AXIS2_PLACEMENT_3D('',#1267,#1268,#1269);
#1267 = CARTESIAN_POINT('',(210.,68.,52.25));
#1268 = DIRECTION('',(1.224646799147E-16,-1.,2.22044604925E-16));
#1269 = DIRECTION('',(-1.,-1.224646799147E-16,2.465190328816E-32));
#1270 = ORIENTED_EDGE('',*,*,#1257,.F.);
#1271 = CYLINDRICAL_SURFACE('',#1272,1.275);
#1272 = AXIS2_PLACEMENT_3D('',#1273,#1274,#1275);
#1273 = CARTESIAN_POINT('',(210.,65.,52.25));
#1274 = DIRECTION('',(-1.224646799147E-16,1.,-2.22044604925E-16));
#1275 = DIRECTION('',(-1.,-1.224646799147E-16,2.465190328816E-32));
#1276 = ADVANCED_FACE('',(#1277),#1295,.F.);
#1277 = FACE_BOUND('',#1278,.T.);
#1278 = EDGE_LOOP('',(#1279,#1280,#1287,#1294));
#1279 = ORIENTED_EDGE('',*,*,#1239,.T.);
#1280 = ORIENTED_EDGE('',*,*,#1281,.T.);
#1281 = EDGE_CURVE('',#1240,#1282,#1284,.T.);
#1282 = VERTEX_POINT('',#1283);
#1283 = CARTESIAN_POINT('',(208.725,68.,11.75));
#1284 = B_SPLINE_CURVE_WITH_KNOTS('',1,(#1285,#1286),.UNSPECIFIED.,.F.,
  .F.,(2,2),(-5.,3.),.PIECEWISE_BEZIER_KNOTS.);
#1285 = CARTESIAN_POINT('',(208.725,60.,11.75));
#1286 = CARTESIAN_POINT('',(208.725,68.,11.75));
#1287 = ORIENTED_EDGE('',*,*,#1288,.F.);
#1288 = EDGE_CURVE('',#1282,#1282,#1289,.T.);
#1289 = CIRCLE('',#1290,1.275);
#1290 = AXIS2_PLACEMENT_3D('',#1291,#1292,#1293);
#1291 = CARTESIAN_POINT('',(210.,68.,11.75));
#1292 = DIRECTION('',(1.224646799147E-16,-1.,2.22044604925E-16));
#1293 = DIRECTION('',(-1.,-1.224646799147E-16,2.465190328816E-32));
#1294 = ORIENTED_EDGE('',*,*,#1281,.F.);
#1295 = CYLINDRICAL_SURFACE('',#1296,1.275);
#1296 = AXIS2_PLACEMENT_3D('',#1297,#1298,#1299);
#1297 = CARTESIAN_POINT('',(210.,65.,11.75));
#1298 = DIRECTION('',(-1.224646799147E-16,1.,-2.22044604925E-16));
#1299 = DIRECTION('',(-1.,-1.224646799147E-16,2.465190328816E-32));
#1300 = ADVANCED_FACE('',(#1301),#1304,.T.);
#1301 = FACE_BOUND('',#1302,.T.);
#1302 = EDGE_LOOP('',(#1303));
#1303 = ORIENTED_EDGE('',*,*,#1264,.T.);
#1304 = PLANE('',#1305);
#1305 = AXIS2_PLACEMENT_3D('',#1306,#1307,#1308);
#1306 = CARTESIAN_POINT('',(221.065,68.,35.5));
#1307 = DIRECTION('',(1.224646799147E-16,-1.,2.22044604925E-16));
#1308 = DIRECTION('',(-1.,-1.224646799147E-16,2.465190328816E-32));
#1309 = ADVANCED_FACE('',(#1310),#1313,.T.);
#1310 = FACE_BOUND('',#1311,.T.);
#1311 = EDGE_LOOP('',(#1312));
#1312 = ORIENTED_EDGE('',*,*,#1288,.T.);
#1313 = PLANE('',#1314);
#1314 = AXIS2_PLACEMENT_3D('',#1315,#1316,#1317);
#1315 = CARTESIAN_POINT('',(221.065,68.,35.5));
#1316 = DIRECTION('',(1.224646799147E-16,-1.,2.22044604925E-16));
#1317 = DIRECTION('',(-1.,-1.224646799147E-16,2.465190328816E-32));
#1318 = ( GEOMETRIC_REPRESENTATION_CONTEXT(3) 
GLOBAL_UNCERTAINTY_ASSIGNED_CONTEXT((#1322)) 
GLOBAL_UNIT_ASSIGNED_CONTEXT((#1319,#1320,#1321)) REPRESENTATION_CONTEXT
('Context #1','3D Context with UNIT and UNCERTAINTY') );
#1319 = ( LENGTH_UNIT() NAMED_UNIT(*) SI_UNIT(.MILLI.,.METRE.) );
#1320 = ( NAMED_UNIT(*) PLANE_ANGLE_UNIT() SI_UNIT($,.RADIAN.) );
#1321 = ( NAMED_UNIT(*) SI_UNIT($,.STERADIAN.) SOLID_ANGLE_UNIT() );
#1322 = UNCERTAINTY_MEASURE_WITH_UNIT(LENGTH_MEASURE(1.E-05),#1319,
  'distance_accuracy_value','confusion accuracy');
#1323 = PRODUCT_RELATED_PRODUCT_CATEGORY('part',$,(#7));
#1324 = MECHANICAL_DESIGN_GEOMETRIC_PRESENTATION_REPRESENTATION('',(
    #1325),#1318);
#1325 = STYLED_ITEM('color',(#1326),#15);
#1326 = PRESENTATION_STYLE_ASSIGNMENT((#1327,#1333));
#1327 = SURFACE_STYLE_USAGE(.BOTH.,#1328);
#1328 = SURFACE_SIDE_STYLE('',(#1329));
#1329 = SURFACE_STYLE_FILL_AREA(#1330);
#1330 = FILL_AREA_STYLE('',(#1331));
#1331 = FILL_AREA_STYLE_COLOUR('',#1332);
#1332 = COLOUR_RGB('',0.447059003357,0.474510015008,0.501960993452);
#1333 = CURVE_STYLE('',#1334,POSITIVE_LENGTH_MEASURE(0.1),#1335);
#1334 = DRAUGHTING_PRE_DEFINED_CURVE_FONT('continuous');
#1335 = COLOUR_RGB('',9.803921802644E-02,9.803921802644E-02,
  9.803921802644E-02);
ENDSEC;
END-ISO-10303-21;
