ISO-10303-21;
HEADER;
FILE_DESCRIPTION(('FreeCAD Model'),'2;1');
FILE_NAME('Open CASCADE Shape Model','2025-03-12T10:39:59',('Author'),(
    ''),'Open CASCADE STEP processor 7.8','FreeCAD','Unknown');
FILE_SCHEMA(('AUTOMOTIVE_DESIGN { 1 0 10303 214 1 1 1 1 }'));
ENDSEC;
DATA;
#1 = APPLICATION_PROTOCOL_DEFINITION('international standard',
  'automotive_design',2000,#2);
#2 = APPLICATION_CONTEXT(
  'core data for automotive mechanical design processes');
#3 = SHAPE_DEFINITION_REPRESENTATION(#4,#10);
#4 = PRODUCT_DEFINITION_SHAPE('','',#5);
#5 = PRODUCT_DEFINITION('design','',#6,#9);
#6 = PRODUCT_DEFINITION_FORMATION('','',#7);
#7 = PRODUCT('LCD mount','LCD mount','',(#8));
#8 = PRODUCT_CONTEXT('',#2,'mechanical');
#9 = PRODUCT_DEFINITION_CONTEXT('part definition',#2,'design');
#10 = ADVANCED_BREP_SHAPE_REPRESENTATION('',(#11,#15),#1924);
#11 = AXIS2_PLACEMENT_3D('',#12,#13,#14);
#12 = CARTESIAN_POINT('',(0.,0.,0.));
#13 = DIRECTION('',(0.,0.,1.));
#14 = DIRECTION('',(1.,0.,-0.));
#15 = MANIFOLD_SOLID_BREP('',#16);
#16 = CLOSED_SHELL('',(#17,#220,#290,#323,#347,#373,#454,#486,#519,#600,
    #626,#650,#733,#797,#831,#865,#890,#921,#945,#969,#986,#1040,#1057,
    #1111,#1123,#1150,#1167,#1217,#1287,#1312,#1329,#1360,#1387,#1411,
    #1428,#1440,#1489,#1531,#1580,#1622,#1639,#1656,#1673,#1700,#1727,
    #1747,#1763,#1787,#1811,#1835,#1859,#1876,#1888,#1900,#1912));
#17 = ADVANCED_FACE('',(#18,#170,#181),#215,.T.);
#18 = FACE_BOUND('',#19,.T.);
#19 = EDGE_LOOP('',(#20,#30,#38,#46,#54,#62,#70,#78,#87,#95,#104,#112,
    #120,#128,#137,#146,#154,#163));
#20 = ORIENTED_EDGE('',*,*,#21,.F.);
#21 = EDGE_CURVE('',#22,#24,#26,.T.);
#22 = VERTEX_POINT('',#23);
#23 = CARTESIAN_POINT('',(-4.5,-20.,0.));
#24 = VERTEX_POINT('',#25);
#25 = CARTESIAN_POINT('',(-4.5,-3.619478553604,0.));
#26 = LINE('',#27,#28);
#27 = CARTESIAN_POINT('',(-4.5,-20.,0.));
#28 = VECTOR('',#29,1.);
#29 = DIRECTION('',(0.,1.,0.));
#30 = ORIENTED_EDGE('',*,*,#31,.T.);
#31 = EDGE_CURVE('',#22,#32,#34,.T.);
#32 = VERTEX_POINT('',#33);
#33 = CARTESIAN_POINT('',(-6.5,-20.,0.));
#34 = LINE('',#35,#36);
#35 = CARTESIAN_POINT('',(-4.5,-20.,0.));
#36 = VECTOR('',#37,1.);
#37 = DIRECTION('',(-1.,0.,0.));
#38 = ORIENTED_EDGE('',*,*,#39,.T.);
#39 = EDGE_CURVE('',#32,#40,#42,.T.);
#40 = VERTEX_POINT('',#41);
#41 = CARTESIAN_POINT('',(-6.5,-27.,0.));
#42 = LINE('',#43,#44);
#43 = CARTESIAN_POINT('',(-6.5,73.5,0.));
#44 = VECTOR('',#45,1.);
#45 = DIRECTION('',(0.,-1.,0.));
#46 = ORIENTED_EDGE('',*,*,#47,.F.);
#47 = EDGE_CURVE('',#48,#40,#50,.T.);
#48 = VERTEX_POINT('',#49);
#49 = CARTESIAN_POINT('',(94.49999999997,-27.,0.));
#50 = LINE('',#51,#52);
#51 = CARTESIAN_POINT('',(94.49999999997,-27.,0.));
#52 = VECTOR('',#53,1.);
#53 = DIRECTION('',(-1.,0.,0.));
#54 = ORIENTED_EDGE('',*,*,#55,.T.);
#55 = EDGE_CURVE('',#48,#56,#58,.T.);
#56 = VERTEX_POINT('',#57);
#57 = CARTESIAN_POINT('',(94.5,-20.,0.));
#58 = LINE('',#59,#60);
#59 = CARTESIAN_POINT('',(94.5,-35.,0.));
#60 = VECTOR('',#61,1.);
#61 = DIRECTION('',(0.,1.,0.));
#62 = ORIENTED_EDGE('',*,*,#63,.F.);
#63 = EDGE_CURVE('',#64,#56,#66,.T.);
#64 = VERTEX_POINT('',#65);
#65 = CARTESIAN_POINT('',(92.5,-20.,0.));
#66 = LINE('',#67,#68);
#67 = CARTESIAN_POINT('',(92.5,-20.,0.));
#68 = VECTOR('',#69,1.);
#69 = DIRECTION('',(1.,0.,0.));
#70 = ORIENTED_EDGE('',*,*,#71,.T.);
#71 = EDGE_CURVE('',#64,#72,#74,.T.);
#72 = VERTEX_POINT('',#73);
#73 = CARTESIAN_POINT('',(92.5,-3.619478553604,0.));
#74 = LINE('',#75,#76);
#75 = CARTESIAN_POINT('',(92.5,-20.,0.));
#76 = VECTOR('',#77,1.);
#77 = DIRECTION('',(0.,1.,0.));
#78 = ORIENTED_EDGE('',*,*,#79,.F.);
#79 = EDGE_CURVE('',#80,#72,#82,.T.);
#80 = VERTEX_POINT('',#81);
#81 = CARTESIAN_POINT('',(92.5,3.619478553604,0.));
#82 = CIRCLE('',#83,5.775);
#83 = AXIS2_PLACEMENT_3D('',#84,#85,#86);
#84 = CARTESIAN_POINT('',(88.,0.,0.));
#85 = DIRECTION('',(0.,0.,1.));
#86 = DIRECTION('',(1.,0.,0.));
#87 = ORIENTED_EDGE('',*,*,#88,.T.);
#88 = EDGE_CURVE('',#80,#89,#91,.T.);
#89 = VERTEX_POINT('',#90);
#90 = CARTESIAN_POINT('',(92.5,61.380521446396,0.));
#91 = LINE('',#92,#93);
#92 = CARTESIAN_POINT('',(92.5,-20.,0.));
#93 = VECTOR('',#94,1.);
#94 = DIRECTION('',(0.,1.,0.));
#95 = ORIENTED_EDGE('',*,*,#96,.F.);
#96 = EDGE_CURVE('',#97,#89,#99,.T.);
#97 = VERTEX_POINT('',#98);
#98 = CARTESIAN_POINT('',(92.5,68.619478553604,0.));
#99 = CIRCLE('',#100,5.775);
#100 = AXIS2_PLACEMENT_3D('',#101,#102,#103);
#101 = CARTESIAN_POINT('',(88.,65.,0.));
#102 = DIRECTION('',(0.,0.,1.));
#103 = DIRECTION('',(1.,0.,0.));
#104 = ORIENTED_EDGE('',*,*,#105,.T.);
#105 = EDGE_CURVE('',#97,#106,#108,.T.);
#106 = VERTEX_POINT('',#107);
#107 = CARTESIAN_POINT('',(92.5,71.500000000025,0.));
#108 = LINE('',#109,#110);
#109 = CARTESIAN_POINT('',(92.5,-20.,0.));
#110 = VECTOR('',#111,1.);
#111 = DIRECTION('',(0.,1.,0.));
#112 = ORIENTED_EDGE('',*,*,#113,.F.);
#113 = EDGE_CURVE('',#114,#106,#116,.T.);
#114 = VERTEX_POINT('',#115);
#115 = CARTESIAN_POINT('',(-4.5,71.500000000025,0.));
#116 = LINE('',#117,#118);
#117 = CARTESIAN_POINT('',(-4.5,71.500000000025,0.));
#118 = VECTOR('',#119,1.);
#119 = DIRECTION('',(1.,0.,0.));
#120 = ORIENTED_EDGE('',*,*,#121,.F.);
#121 = EDGE_CURVE('',#122,#114,#124,.T.);
#122 = VERTEX_POINT('',#123);
#123 = CARTESIAN_POINT('',(-4.5,68.619478553604,0.));
#124 = LINE('',#125,#126);
#125 = CARTESIAN_POINT('',(-4.5,-20.,0.));
#126 = VECTOR('',#127,1.);
#127 = DIRECTION('',(0.,1.,0.));
#128 = ORIENTED_EDGE('',*,*,#129,.F.);
#129 = EDGE_CURVE('',#130,#122,#132,.T.);
#130 = VERTEX_POINT('',#131);
#131 = CARTESIAN_POINT('',(5.775,65.,0.));
#132 = CIRCLE('',#133,5.775);
#133 = AXIS2_PLACEMENT_3D('',#134,#135,#136);
#134 = CARTESIAN_POINT('',(0.,65.,0.));
#135 = DIRECTION('',(0.,0.,1.));
#136 = DIRECTION('',(1.,0.,0.));
#137 = ORIENTED_EDGE('',*,*,#138,.F.);
#138 = EDGE_CURVE('',#139,#130,#141,.T.);
#139 = VERTEX_POINT('',#140);
#140 = CARTESIAN_POINT('',(-4.5,61.380521446396,0.));
#141 = CIRCLE('',#142,5.775);
#142 = AXIS2_PLACEMENT_3D('',#143,#144,#145);
#143 = CARTESIAN_POINT('',(0.,65.,0.));
#144 = DIRECTION('',(0.,0.,1.));
#145 = DIRECTION('',(1.,0.,0.));
#146 = ORIENTED_EDGE('',*,*,#147,.F.);
#147 = EDGE_CURVE('',#148,#139,#150,.T.);
#148 = VERTEX_POINT('',#149);
#149 = CARTESIAN_POINT('',(-4.5,3.619478553604,0.));
#150 = LINE('',#151,#152);
#151 = CARTESIAN_POINT('',(-4.5,-20.,0.));
#152 = VECTOR('',#153,1.);
#153 = DIRECTION('',(0.,1.,0.));
#154 = ORIENTED_EDGE('',*,*,#155,.F.);
#155 = EDGE_CURVE('',#156,#148,#158,.T.);
#156 = VERTEX_POINT('',#157);
#157 = CARTESIAN_POINT('',(5.775,0.,0.));
#158 = CIRCLE('',#159,5.775);
#159 = AXIS2_PLACEMENT_3D('',#160,#161,#162);
#160 = CARTESIAN_POINT('',(0.,0.,0.));
#161 = DIRECTION('',(0.,0.,1.));
#162 = DIRECTION('',(1.,0.,0.));
#163 = ORIENTED_EDGE('',*,*,#164,.F.);
#164 = EDGE_CURVE('',#24,#156,#165,.T.);
#165 = CIRCLE('',#166,5.775);
#166 = AXIS2_PLACEMENT_3D('',#167,#168,#169);
#167 = CARTESIAN_POINT('',(0.,0.,0.));
#168 = DIRECTION('',(0.,0.,1.));
#169 = DIRECTION('',(1.,0.,0.));
#170 = FACE_BOUND('',#171,.T.);
#171 = EDGE_LOOP('',(#172));
#172 = ORIENTED_EDGE('',*,*,#173,.F.);
#173 = EDGE_CURVE('',#174,#174,#176,.T.);
#174 = VERTEX_POINT('',#175);
#175 = CARTESIAN_POINT('',(18.,-10.,0.));
#176 = CIRCLE('',#177,5.);
#177 = AXIS2_PLACEMENT_3D('',#178,#179,#180);
#178 = CARTESIAN_POINT('',(13.,-10.,0.));
#179 = DIRECTION('',(0.,0.,1.));
#180 = DIRECTION('',(1.,0.,0.));
#181 = FACE_BOUND('',#182,.T.);
#182 = EDGE_LOOP('',(#183,#193,#201,#209));
#183 = ORIENTED_EDGE('',*,*,#184,.F.);
#184 = EDGE_CURVE('',#185,#187,#189,.T.);
#185 = VERTEX_POINT('',#186);
#186 = CARTESIAN_POINT('',(84.,7.,0.));
#187 = VERTEX_POINT('',#188);
#188 = CARTESIAN_POINT('',(84.,58.,0.));
#189 = LINE('',#190,#191);
#190 = CARTESIAN_POINT('',(84.,7.,0.));
#191 = VECTOR('',#192,1.);
#192 = DIRECTION('',(0.,1.,0.));
#193 = ORIENTED_EDGE('',*,*,#194,.F.);
#194 = EDGE_CURVE('',#195,#185,#197,.T.);
#195 = VERTEX_POINT('',#196);
#196 = CARTESIAN_POINT('',(4.,7.,0.));
#197 = LINE('',#198,#199);
#198 = CARTESIAN_POINT('',(4.,7.,0.));
#199 = VECTOR('',#200,1.);
#200 = DIRECTION('',(1.,0.,0.));
#201 = ORIENTED_EDGE('',*,*,#202,.F.);
#202 = EDGE_CURVE('',#203,#195,#205,.T.);
#203 = VERTEX_POINT('',#204);
#204 = CARTESIAN_POINT('',(4.,58.,0.));
#205 = LINE('',#206,#207);
#206 = CARTESIAN_POINT('',(4.,58.,0.));
#207 = VECTOR('',#208,1.);
#208 = DIRECTION('',(0.,-1.,0.));
#209 = ORIENTED_EDGE('',*,*,#210,.F.);
#210 = EDGE_CURVE('',#187,#203,#211,.T.);
#211 = LINE('',#212,#213);
#212 = CARTESIAN_POINT('',(84.,58.,0.));
#213 = VECTOR('',#214,1.);
#214 = DIRECTION('',(-1.,0.,0.));
#215 = PLANE('',#216);
#216 = AXIS2_PLACEMENT_3D('',#217,#218,#219);
#217 = CARTESIAN_POINT('',(42.860784240986,23.085412296189,0.));
#218 = DIRECTION('',(0.,0.,1.));
#219 = DIRECTION('',(1.,0.,0.));
#220 = ADVANCED_FACE('',(#221),#285,.F.);
#221 = FACE_BOUND('',#222,.F.);
#222 = EDGE_LOOP('',(#223,#224,#232,#241,#249,#255,#256,#270,#271));
#223 = ORIENTED_EDGE('',*,*,#21,.F.);
#224 = ORIENTED_EDGE('',*,*,#225,.T.);
#225 = EDGE_CURVE('',#22,#226,#228,.T.);
#226 = VERTEX_POINT('',#227);
#227 = CARTESIAN_POINT('',(-4.5,-20.,1.E-02));
#228 = LINE('',#229,#230);
#229 = CARTESIAN_POINT('',(-4.5,-20.,0.));
#230 = VECTOR('',#231,1.);
#231 = DIRECTION('',(0.,0.,1.));
#232 = ORIENTED_EDGE('',*,*,#233,.T.);
#233 = EDGE_CURVE('',#226,#234,#236,.T.);
#234 = VERTEX_POINT('',#235);
#235 = CARTESIAN_POINT('',(-4.5,-10.01,10.));
#236 = CIRCLE('',#237,9.99);
#237 = AXIS2_PLACEMENT_3D('',#238,#239,#240);
#238 = CARTESIAN_POINT('',(-4.5,-10.01,1.E-02));
#239 = DIRECTION('',(-1.,0.,0.));
#240 = DIRECTION('',(0.,0.,-1.));
#241 = ORIENTED_EDGE('',*,*,#242,.T.);
#242 = EDGE_CURVE('',#234,#243,#245,.T.);
#243 = VERTEX_POINT('',#244);
#244 = CARTESIAN_POINT('',(-4.5,71.500000000025,10.));
#245 = LINE('',#246,#247);
#246 = CARTESIAN_POINT('',(-4.5,-20.,10.));
#247 = VECTOR('',#248,1.);
#248 = DIRECTION('',(0.,1.,0.));
#249 = ORIENTED_EDGE('',*,*,#250,.F.);
#250 = EDGE_CURVE('',#114,#243,#251,.T.);
#251 = LINE('',#252,#253);
#252 = CARTESIAN_POINT('',(-4.5,71.500000000025,0.));
#253 = VECTOR('',#254,1.);
#254 = DIRECTION('',(0.,0.,1.));
#255 = ORIENTED_EDGE('',*,*,#121,.F.);
#256 = ORIENTED_EDGE('',*,*,#257,.T.);
#257 = EDGE_CURVE('',#122,#139,#258,.T.);
#258 = ( BOUNDED_CURVE() B_SPLINE_CURVE(10,(#259,#260,#261,#262,#263,
    #264,#265,#266,#267,#268,#269),.UNSPECIFIED.,.F.,.F.) 
B_SPLINE_CURVE_WITH_KNOTS((11,11),(6.838204695609,10.597634531814),
.PIECEWISE_BEZIER_KNOTS.) CURVE() GEOMETRIC_REPRESENTATION_ITEM() 
RATIONAL_B_SPLINE_CURVE((1.,1.,1.,1.,1.,1.,1.,1.,1.,1.,1.)) 
REPRESENTATION_ITEM('') );
#259 = CARTESIAN_POINT('',(-4.5,68.619478553604,0.));
#260 = CARTESIAN_POINT('',(-4.5,67.615441737451,-2.442490654175E-14));
#261 = CARTESIAN_POINT('',(-4.5,66.854417661041,9.769962616701E-14));
#262 = CARTESIAN_POINT('',(-4.5,66.186907630852,-2.164934898019E-13));
#263 = CARTESIAN_POINT('',(-4.5,65.582955079659,3.392841563254E-13));
#264 = CARTESIAN_POINT('',(-4.5,64.999999999999,-3.985700658404E-13));
#265 = CARTESIAN_POINT('',(-4.5,64.417044920343,3.519406988062E-13));
#266 = CARTESIAN_POINT('',(-4.5,63.813092369148,-2.298161660974E-13));
#267 = CARTESIAN_POINT('',(-4.5,63.145582338959,1.050270981295E-13));
#268 = CARTESIAN_POINT('',(-4.5,62.384558262549,-2.642330798608E-14));
#269 = CARTESIAN_POINT('',(-4.5,61.380521446396,0.));
#270 = ORIENTED_EDGE('',*,*,#147,.F.);
#271 = ORIENTED_EDGE('',*,*,#272,.T.);
#272 = EDGE_CURVE('',#148,#24,#273,.T.);
#273 = ( BOUNDED_CURVE() B_SPLINE_CURVE(10,(#274,#275,#276,#277,#278,
    #279,#280,#281,#282,#283,#284),.UNSPECIFIED.,.F.,.F.) 
B_SPLINE_CURVE_WITH_KNOTS((11,11),(6.838204695609,10.597634531814),
.PIECEWISE_BEZIER_KNOTS.) CURVE() GEOMETRIC_REPRESENTATION_ITEM() 
RATIONAL_B_SPLINE_CURVE((1.,1.,1.,1.,1.,1.,1.,1.,1.,1.,1.)) 
REPRESENTATION_ITEM('') );
#274 = CARTESIAN_POINT('',(-4.5,3.619478553604,0.));
#275 = CARTESIAN_POINT('',(-4.5,2.615441737451,-1.50990331349E-14));
#276 = CARTESIAN_POINT('',(-4.5,1.854417661041,6.350475700856E-14));
#277 = CARTESIAN_POINT('',(-4.5,1.186907630852,-1.478817068801E-13));
#278 = CARTESIAN_POINT('',(-4.5,0.582955079657,2.373656826649E-13));
#279 = CARTESIAN_POINT('',(-4.5,1.529887327934E-13,-2.811084698351E-13)
  );
#280 = CARTESIAN_POINT('',(-4.5,-0.582955079658,2.464695114668E-13));
#281 = CARTESIAN_POINT('',(-4.5,-1.186907630852,-1.56985535682E-13));
#282 = CARTESIAN_POINT('',(-4.5,-1.854417661041,6.905587213168E-14));
#283 = CARTESIAN_POINT('',(-4.5,-2.615441737451,-1.68753899743E-14));
#284 = CARTESIAN_POINT('',(-4.5,-3.619478553604,0.));
#285 = PLANE('',#286);
#286 = AXIS2_PLACEMENT_3D('',#287,#288,#289);
#287 = CARTESIAN_POINT('',(-4.5,-20.,0.));
#288 = DIRECTION('',(-1.,0.,0.));
#289 = DIRECTION('',(0.,1.,0.));
#290 = ADVANCED_FACE('',(#291),#318,.F.);
#291 = FACE_BOUND('',#292,.T.);
#292 = EDGE_LOOP('',(#293,#301,#302,#311));
#293 = ORIENTED_EDGE('',*,*,#294,.F.);
#294 = EDGE_CURVE('',#24,#295,#297,.T.);
#295 = VERTEX_POINT('',#296);
#296 = CARTESIAN_POINT('',(-2.162337662338,-1.739229954329,3.));
#297 = ( BOUNDED_CURVE() B_SPLINE_CURVE(2,(#298,#299,#300),
.UNSPECIFIED.,.F.,.F.) B_SPLINE_CURVE_WITH_KNOTS((3,3),(0.,
3.759429836205),.PIECEWISE_BEZIER_KNOTS.) CURVE() 
GEOMETRIC_REPRESENTATION_ITEM() RATIONAL_B_SPLINE_CURVE((1.,
0.707106781187,1.)) REPRESENTATION_ITEM('') );
#298 = CARTESIAN_POINT('',(-4.5,-3.619478553604,0.));
#299 = CARTESIAN_POINT('',(-2.162337662338,-1.739229954329,
    1.33226762955E-15));
#300 = CARTESIAN_POINT('',(-2.162337662338,-1.739229954329,3.));
#301 = ORIENTED_EDGE('',*,*,#164,.T.);
#302 = ORIENTED_EDGE('',*,*,#303,.T.);
#303 = EDGE_CURVE('',#156,#304,#306,.T.);
#304 = VERTEX_POINT('',#305);
#305 = CARTESIAN_POINT('',(2.775,0.,3.));
#306 = CIRCLE('',#307,3.);
#307 = AXIS2_PLACEMENT_3D('',#308,#309,#310);
#308 = CARTESIAN_POINT('',(5.775,0.,3.));
#309 = DIRECTION('',(-0.,1.,0.));
#310 = DIRECTION('',(1.,0.,0.));
#311 = ORIENTED_EDGE('',*,*,#312,.F.);
#312 = EDGE_CURVE('',#295,#304,#313,.T.);
#313 = CIRCLE('',#314,2.775);
#314 = AXIS2_PLACEMENT_3D('',#315,#316,#317);
#315 = CARTESIAN_POINT('',(0.,0.,3.));
#316 = DIRECTION('',(0.,0.,1.));
#317 = DIRECTION('',(1.,0.,0.));
#318 = TOROIDAL_SURFACE('',#319,5.775,3.);
#319 = AXIS2_PLACEMENT_3D('',#320,#321,#322);
#320 = CARTESIAN_POINT('',(0.,0.,3.));
#321 = DIRECTION('',(-0.,-0.,-1.));
#322 = DIRECTION('',(1.,0.,0.));
#323 = ADVANCED_FACE('',(#324),#342,.T.);
#324 = FACE_BOUND('',#325,.T.);
#325 = EDGE_LOOP('',(#326,#327,#335,#341));
#326 = ORIENTED_EDGE('',*,*,#225,.T.);
#327 = ORIENTED_EDGE('',*,*,#328,.T.);
#328 = EDGE_CURVE('',#226,#329,#331,.T.);
#329 = VERTEX_POINT('',#330);
#330 = CARTESIAN_POINT('',(-6.5,-20.,1.E-02));
#331 = LINE('',#332,#333);
#332 = CARTESIAN_POINT('',(-4.5,-20.,1.E-02));
#333 = VECTOR('',#334,1.);
#334 = DIRECTION('',(-1.,0.,0.));
#335 = ORIENTED_EDGE('',*,*,#336,.F.);
#336 = EDGE_CURVE('',#32,#329,#337,.T.);
#337 = LINE('',#338,#339);
#338 = CARTESIAN_POINT('',(-6.5,-20.,0.));
#339 = VECTOR('',#340,1.);
#340 = DIRECTION('',(0.,0.,1.));
#341 = ORIENTED_EDGE('',*,*,#31,.F.);
#342 = PLANE('',#343);
#343 = AXIS2_PLACEMENT_3D('',#344,#345,#346);
#344 = CARTESIAN_POINT('',(-4.5,-20.,0.));
#345 = DIRECTION('',(0.,-1.,0.));
#346 = DIRECTION('',(-1.,0.,0.));
#347 = ADVANCED_FACE('',(#348),#368,.F.);
#348 = FACE_BOUND('',#349,.T.);
#349 = EDGE_LOOP('',(#350,#351,#352,#361));
#350 = ORIENTED_EDGE('',*,*,#303,.F.);
#351 = ORIENTED_EDGE('',*,*,#155,.T.);
#352 = ORIENTED_EDGE('',*,*,#353,.T.);
#353 = EDGE_CURVE('',#148,#354,#356,.T.);
#354 = VERTEX_POINT('',#355);
#355 = CARTESIAN_POINT('',(-2.162337662338,1.739229954329,3.));
#356 = CIRCLE('',#357,3.);
#357 = AXIS2_PLACEMENT_3D('',#358,#359,#360);
#358 = CARTESIAN_POINT('',(-4.5,3.619478553604,3.));
#359 = DIRECTION('',(-0.626749533092,-0.779220779221,-0.));
#360 = DIRECTION('',(-0.779220779221,0.626749533092,0.));
#361 = ORIENTED_EDGE('',*,*,#362,.F.);
#362 = EDGE_CURVE('',#304,#354,#363,.T.);
#363 = CIRCLE('',#364,2.775);
#364 = AXIS2_PLACEMENT_3D('',#365,#366,#367);
#365 = CARTESIAN_POINT('',(0.,0.,3.));
#366 = DIRECTION('',(0.,0.,1.));
#367 = DIRECTION('',(1.,0.,0.));
#368 = TOROIDAL_SURFACE('',#369,5.775,3.);
#369 = AXIS2_PLACEMENT_3D('',#370,#371,#372);
#370 = CARTESIAN_POINT('',(0.,0.,3.));
#371 = DIRECTION('',(-0.,-0.,-1.));
#372 = DIRECTION('',(1.,0.,0.));
#373 = ADVANCED_FACE('',(#374),#449,.T.);
#374 = FACE_BOUND('',#375,.T.);
#375 = EDGE_LOOP('',(#376,#377,#386,#394,#402,#410,#418,#426,#434,#442,
    #448));
#376 = ORIENTED_EDGE('',*,*,#336,.T.);
#377 = ORIENTED_EDGE('',*,*,#378,.T.);
#378 = EDGE_CURVE('',#329,#379,#381,.T.);
#379 = VERTEX_POINT('',#380);
#380 = CARTESIAN_POINT('',(-6.5,-10.01,10.));
#381 = CIRCLE('',#382,9.99);
#382 = AXIS2_PLACEMENT_3D('',#383,#384,#385);
#383 = CARTESIAN_POINT('',(-6.5,-10.01,1.E-02));
#384 = DIRECTION('',(-1.,0.,0.));
#385 = DIRECTION('',(0.,0.,-1.));
#386 = ORIENTED_EDGE('',*,*,#387,.T.);
#387 = EDGE_CURVE('',#379,#388,#390,.T.);
#388 = VERTEX_POINT('',#389);
#389 = CARTESIAN_POINT('',(-6.5,71.500000000025,10.));
#390 = LINE('',#391,#392);
#391 = CARTESIAN_POINT('',(-6.5,-20.,10.));
#392 = VECTOR('',#393,1.);
#393 = DIRECTION('',(-9.499234435295E-18,1.,0.));
#394 = ORIENTED_EDGE('',*,*,#395,.T.);
#395 = EDGE_CURVE('',#388,#396,#398,.T.);
#396 = VERTEX_POINT('',#397);
#397 = CARTESIAN_POINT('',(-6.5,71.500000000025,55.));
#398 = LINE('',#399,#400);
#399 = CARTESIAN_POINT('',(-6.5,71.500000000025,10.));
#400 = VECTOR('',#401,1.);
#401 = DIRECTION('',(0.,0.,1.));
#402 = ORIENTED_EDGE('',*,*,#403,.F.);
#403 = EDGE_CURVE('',#404,#396,#406,.T.);
#404 = VERTEX_POINT('',#405);
#405 = CARTESIAN_POINT('',(-6.5,73.5,55.));
#406 = LINE('',#407,#408);
#407 = CARTESIAN_POINT('',(-6.5,73.5,55.));
#408 = VECTOR('',#409,1.);
#409 = DIRECTION('',(0.,-1.,0.));
#410 = ORIENTED_EDGE('',*,*,#411,.F.);
#411 = EDGE_CURVE('',#412,#404,#414,.T.);
#412 = VERTEX_POINT('',#413);
#413 = CARTESIAN_POINT('',(-6.5,73.5,-2.));
#414 = LINE('',#415,#416);
#415 = CARTESIAN_POINT('',(-6.5,73.5,10.));
#416 = VECTOR('',#417,1.);
#417 = DIRECTION('',(0.,0.,1.));
#418 = ORIENTED_EDGE('',*,*,#419,.T.);
#419 = EDGE_CURVE('',#412,#420,#422,.T.);
#420 = VERTEX_POINT('',#421);
#421 = CARTESIAN_POINT('',(-6.5,-35.,-2.));
#422 = LINE('',#423,#424);
#423 = CARTESIAN_POINT('',(-6.5,73.5,-2.));
#424 = VECTOR('',#425,1.);
#425 = DIRECTION('',(0.,-1.,0.));
#426 = ORIENTED_EDGE('',*,*,#427,.F.);
#427 = EDGE_CURVE('',#428,#420,#430,.T.);
#428 = VERTEX_POINT('',#429);
#429 = CARTESIAN_POINT('',(-6.5,-35.,25.));
#430 = LINE('',#431,#432);
#431 = CARTESIAN_POINT('',(-6.5,-35.,0.));
#432 = VECTOR('',#433,1.);
#433 = DIRECTION('',(-0.,-0.,-1.));
#434 = ORIENTED_EDGE('',*,*,#435,.F.);
#435 = EDGE_CURVE('',#436,#428,#438,.T.);
#436 = VERTEX_POINT('',#437);
#437 = CARTESIAN_POINT('',(-6.5,-27.,25.));
#438 = LINE('',#439,#440);
#439 = CARTESIAN_POINT('',(-6.5,-27.,25.));
#440 = VECTOR('',#441,1.);
#441 = DIRECTION('',(0.,-1.,0.));
#442 = ORIENTED_EDGE('',*,*,#443,.F.);
#443 = EDGE_CURVE('',#40,#436,#444,.T.);
#444 = LINE('',#445,#446);
#445 = CARTESIAN_POINT('',(-6.5,-27.,0.));
#446 = VECTOR('',#447,1.);
#447 = DIRECTION('',(0.,0.,1.));
#448 = ORIENTED_EDGE('',*,*,#39,.F.);
#449 = PLANE('',#450);
#450 = AXIS2_PLACEMENT_3D('',#451,#452,#453);
#451 = CARTESIAN_POINT('',(-6.5,26.192241087961,12.218443492072));
#452 = DIRECTION('',(-1.,-0.,-0.));
#453 = DIRECTION('',(0.,0.,-1.));
#454 = ADVANCED_FACE('',(#455),#481,.T.);
#455 = FACE_BOUND('',#456,.T.);
#456 = EDGE_LOOP('',(#457,#467,#473,#474,#475));
#457 = ORIENTED_EDGE('',*,*,#458,.F.);
#458 = EDGE_CURVE('',#459,#461,#463,.T.);
#459 = VERTEX_POINT('',#460);
#460 = CARTESIAN_POINT('',(94.49999999997,-27.,15.000000000001));
#461 = VERTEX_POINT('',#462);
#462 = CARTESIAN_POINT('',(-6.49000000003,-27.,25.));
#463 = LINE('',#464,#465);
#464 = CARTESIAN_POINT('',(94.499999999979,-27.,15.));
#465 = VECTOR('',#466,1.);
#466 = DIRECTION('',(-0.995133307998,-2.522375557213E-16,
    9.853780651529E-02));
#467 = ORIENTED_EDGE('',*,*,#468,.F.);
#468 = EDGE_CURVE('',#48,#459,#469,.T.);
#469 = LINE('',#470,#471);
#470 = CARTESIAN_POINT('',(94.49999999997,-27.,0.));
#471 = VECTOR('',#472,1.);
#472 = DIRECTION('',(0.,0.,1.));
#473 = ORIENTED_EDGE('',*,*,#47,.T.);
#474 = ORIENTED_EDGE('',*,*,#443,.T.);
#475 = ORIENTED_EDGE('',*,*,#476,.F.);
#476 = EDGE_CURVE('',#461,#436,#477,.T.);
#477 = LINE('',#478,#479);
#478 = CARTESIAN_POINT('',(94.49999999997,-27.,25.));
#479 = VECTOR('',#480,1.);
#480 = DIRECTION('',(-1.,0.,0.));
#481 = PLANE('',#482);
#482 = AXIS2_PLACEMENT_3D('',#483,#484,#485);
#483 = CARTESIAN_POINT('',(42.495036403956,-27.,15.102603473602));
#484 = DIRECTION('',(0.,1.,5.124309888558E-15));
#485 = DIRECTION('',(0.,-5.124309888558E-15,1.));
#486 = ADVANCED_FACE('',(#487),#514,.F.);
#487 = FACE_BOUND('',#488,.T.);
#488 = EDGE_LOOP('',(#489,#497,#498,#507));
#489 = ORIENTED_EDGE('',*,*,#490,.F.);
#490 = EDGE_CURVE('',#139,#491,#493,.T.);
#491 = VERTEX_POINT('',#492);
#492 = CARTESIAN_POINT('',(-2.162337662338,63.260770045671,3.));
#493 = ( BOUNDED_CURVE() B_SPLINE_CURVE(2,(#494,#495,#496),
.UNSPECIFIED.,.F.,.F.) B_SPLINE_CURVE_WITH_KNOTS((3,3),(0.,
3.759429836205),.PIECEWISE_BEZIER_KNOTS.) CURVE() 
GEOMETRIC_REPRESENTATION_ITEM() RATIONAL_B_SPLINE_CURVE((1.,
0.707106781187,1.)) REPRESENTATION_ITEM('') );
#494 = CARTESIAN_POINT('',(-4.5,61.380521446396,0.));
#495 = CARTESIAN_POINT('',(-2.162337662338,63.260770045671,
    1.110223024625E-15));
#496 = CARTESIAN_POINT('',(-2.162337662338,63.260770045671,3.));
#497 = ORIENTED_EDGE('',*,*,#138,.T.);
#498 = ORIENTED_EDGE('',*,*,#499,.T.);
#499 = EDGE_CURVE('',#130,#500,#502,.T.);
#500 = VERTEX_POINT('',#501);
#501 = CARTESIAN_POINT('',(2.775,65.,3.));
#502 = CIRCLE('',#503,3.);
#503 = AXIS2_PLACEMENT_3D('',#504,#505,#506);
#504 = CARTESIAN_POINT('',(5.775,65.,3.));
#505 = DIRECTION('',(-0.,1.,0.));
#506 = DIRECTION('',(1.,0.,0.));
#507 = ORIENTED_EDGE('',*,*,#508,.F.);
#508 = EDGE_CURVE('',#491,#500,#509,.T.);
#509 = CIRCLE('',#510,2.775);
#510 = AXIS2_PLACEMENT_3D('',#511,#512,#513);
#511 = CARTESIAN_POINT('',(0.,65.,3.));
#512 = DIRECTION('',(0.,0.,1.));
#513 = DIRECTION('',(1.,0.,0.));
#514 = TOROIDAL_SURFACE('',#515,5.775,3.);
#515 = AXIS2_PLACEMENT_3D('',#516,#517,#518);
#516 = CARTESIAN_POINT('',(0.,65.,3.));
#517 = DIRECTION('',(-0.,-0.,-1.));
#518 = DIRECTION('',(1.,0.,0.));
#519 = ADVANCED_FACE('',(#520),#595,.T.);
#520 = FACE_BOUND('',#521,.T.);
#521 = EDGE_LOOP('',(#522,#532,#540,#549,#555,#556,#557,#565,#573,#581,
    #589));
#522 = ORIENTED_EDGE('',*,*,#523,.F.);
#523 = EDGE_CURVE('',#524,#526,#528,.T.);
#524 = VERTEX_POINT('',#525);
#525 = CARTESIAN_POINT('',(94.5,71.500000000025,10.));
#526 = VERTEX_POINT('',#527);
#527 = CARTESIAN_POINT('',(94.5,71.500000000025,45.));
#528 = LINE('',#529,#530);
#529 = CARTESIAN_POINT('',(94.5,71.500000000025,10.));
#530 = VECTOR('',#531,1.);
#531 = DIRECTION('',(0.,0.,1.));
#532 = ORIENTED_EDGE('',*,*,#533,.T.);
#533 = EDGE_CURVE('',#524,#534,#536,.T.);
#534 = VERTEX_POINT('',#535);
#535 = CARTESIAN_POINT('',(94.5,-10.01,10.));
#536 = LINE('',#537,#538);
#537 = CARTESIAN_POINT('',(94.5,73.5,10.));
#538 = VECTOR('',#539,1.);
#539 = DIRECTION('',(0.,-1.,0.));
#540 = ORIENTED_EDGE('',*,*,#541,.F.);
#541 = EDGE_CURVE('',#542,#534,#544,.T.);
#542 = VERTEX_POINT('',#543);
#543 = CARTESIAN_POINT('',(94.5,-20.,1.E-02));
#544 = CIRCLE('',#545,9.99);
#545 = AXIS2_PLACEMENT_3D('',#546,#547,#548);
#546 = CARTESIAN_POINT('',(94.499999999998,-10.01,1.E-02));
#547 = DIRECTION('',(-1.,0.,0.));
#548 = DIRECTION('',(0.,0.,1.));
#549 = ORIENTED_EDGE('',*,*,#550,.F.);
#550 = EDGE_CURVE('',#56,#542,#551,.T.);
#551 = LINE('',#552,#553);
#552 = CARTESIAN_POINT('',(94.5,-20.,0.));
#553 = VECTOR('',#554,1.);
#554 = DIRECTION('',(0.,0.,1.));
#555 = ORIENTED_EDGE('',*,*,#55,.F.);
#556 = ORIENTED_EDGE('',*,*,#468,.T.);
#557 = ORIENTED_EDGE('',*,*,#558,.F.);
#558 = EDGE_CURVE('',#559,#459,#561,.T.);
#559 = VERTEX_POINT('',#560);
#560 = CARTESIAN_POINT('',(94.5,-35.,14.999999999998));
#561 = LINE('',#562,#563);
#562 = CARTESIAN_POINT('',(94.499999999979,-35.,15.));
#563 = VECTOR('',#564,1.);
#564 = DIRECTION('',(0.,1.,0.));
#565 = ORIENTED_EDGE('',*,*,#566,.T.);
#566 = EDGE_CURVE('',#559,#567,#569,.T.);
#567 = VERTEX_POINT('',#568);
#568 = CARTESIAN_POINT('',(94.5,-35.,-2.));
#569 = LINE('',#570,#571);
#570 = CARTESIAN_POINT('',(94.5,-35.,0.));
#571 = VECTOR('',#572,1.);
#572 = DIRECTION('',(-0.,-0.,-1.));
#573 = ORIENTED_EDGE('',*,*,#574,.T.);
#574 = EDGE_CURVE('',#567,#575,#577,.T.);
#575 = VERTEX_POINT('',#576);
#576 = CARTESIAN_POINT('',(94.5,73.5,-2.));
#577 = LINE('',#578,#579);
#578 = CARTESIAN_POINT('',(94.5,-35.,-2.));
#579 = VECTOR('',#580,1.);
#580 = DIRECTION('',(0.,1.,0.));
#581 = ORIENTED_EDGE('',*,*,#582,.F.);
#582 = EDGE_CURVE('',#583,#575,#585,.T.);
#583 = VERTEX_POINT('',#584);
#584 = CARTESIAN_POINT('',(94.5,73.5,45.));
#585 = LINE('',#586,#587);
#586 = CARTESIAN_POINT('',(94.5,73.5,0.));
#587 = VECTOR('',#588,1.);
#588 = DIRECTION('',(-0.,-0.,-1.));
#589 = ORIENTED_EDGE('',*,*,#590,.T.);
#590 = EDGE_CURVE('',#583,#526,#591,.T.);
#591 = LINE('',#592,#593);
#592 = CARTESIAN_POINT('',(94.5,73.5,45.));
#593 = VECTOR('',#594,1.);
#594 = DIRECTION('',(0.,-1.,2.22044604925E-16));
#595 = PLANE('',#596);
#596 = AXIS2_PLACEMENT_3D('',#597,#598,#599);
#597 = CARTESIAN_POINT('',(94.499999999998,29.400479465057,
    11.557548919458));
#598 = DIRECTION('',(1.,-4.685274737212E-14,3.334250060158E-14));
#599 = DIRECTION('',(4.685274737212E-14,1.,0.));
#600 = ADVANCED_FACE('',(#601),#621,.F.);
#601 = FACE_BOUND('',#602,.T.);
#602 = EDGE_LOOP('',(#603,#604,#605,#614));
#603 = ORIENTED_EDGE('',*,*,#499,.F.);
#604 = ORIENTED_EDGE('',*,*,#129,.T.);
#605 = ORIENTED_EDGE('',*,*,#606,.T.);
#606 = EDGE_CURVE('',#122,#607,#609,.T.);
#607 = VERTEX_POINT('',#608);
#608 = CARTESIAN_POINT('',(-2.162337662338,66.739229954329,3.));
#609 = CIRCLE('',#610,3.);
#610 = AXIS2_PLACEMENT_3D('',#611,#612,#613);
#611 = CARTESIAN_POINT('',(-4.5,68.619478553604,3.));
#612 = DIRECTION('',(-0.626749533092,-0.779220779221,-0.));
#613 = DIRECTION('',(-0.779220779221,0.626749533092,0.));
#614 = ORIENTED_EDGE('',*,*,#615,.F.);
#615 = EDGE_CURVE('',#500,#607,#616,.T.);
#616 = CIRCLE('',#617,2.775);
#617 = AXIS2_PLACEMENT_3D('',#618,#619,#620);
#618 = CARTESIAN_POINT('',(0.,65.,3.));
#619 = DIRECTION('',(0.,0.,1.));
#620 = DIRECTION('',(1.,0.,0.));
#621 = TOROIDAL_SURFACE('',#622,5.775,3.);
#622 = AXIS2_PLACEMENT_3D('',#623,#624,#625);
#623 = CARTESIAN_POINT('',(0.,65.,3.));
#624 = DIRECTION('',(-0.,-0.,-1.));
#625 = DIRECTION('',(1.,0.,0.));
#626 = ADVANCED_FACE('',(#627),#645,.F.);
#627 = FACE_BOUND('',#628,.F.);
#628 = EDGE_LOOP('',(#629,#637,#643,#644));
#629 = ORIENTED_EDGE('',*,*,#630,.T.);
#630 = EDGE_CURVE('',#64,#631,#633,.T.);
#631 = VERTEX_POINT('',#632);
#632 = CARTESIAN_POINT('',(92.5,-20.,1.E-02));
#633 = LINE('',#634,#635);
#634 = CARTESIAN_POINT('',(92.5,-20.,0.));
#635 = VECTOR('',#636,1.);
#636 = DIRECTION('',(0.,0.,1.));
#637 = ORIENTED_EDGE('',*,*,#638,.T.);
#638 = EDGE_CURVE('',#631,#542,#639,.T.);
#639 = LINE('',#640,#641);
#640 = CARTESIAN_POINT('',(92.5,-20.,1.E-02));
#641 = VECTOR('',#642,1.);
#642 = DIRECTION('',(1.,0.,0.));
#643 = ORIENTED_EDGE('',*,*,#550,.F.);
#644 = ORIENTED_EDGE('',*,*,#63,.F.);
#645 = PLANE('',#646);
#646 = AXIS2_PLACEMENT_3D('',#647,#648,#649);
#647 = CARTESIAN_POINT('',(92.5,-20.,0.));
#648 = DIRECTION('',(0.,1.,0.));
#649 = DIRECTION('',(1.,0.,0.));
#650 = ADVANCED_FACE('',(#651),#728,.T.);
#651 = FACE_BOUND('',#652,.T.);
#652 = EDGE_LOOP('',(#653,#654,#655,#664,#672,#678,#679,#692,#703,#704,
    #717));
#653 = ORIENTED_EDGE('',*,*,#71,.F.);
#654 = ORIENTED_EDGE('',*,*,#630,.T.);
#655 = ORIENTED_EDGE('',*,*,#656,.T.);
#656 = EDGE_CURVE('',#631,#657,#659,.T.);
#657 = VERTEX_POINT('',#658);
#658 = CARTESIAN_POINT('',(92.5,-10.01,10.));
#659 = CIRCLE('',#660,9.99);
#660 = AXIS2_PLACEMENT_3D('',#661,#662,#663);
#661 = CARTESIAN_POINT('',(92.5,-10.01,1.E-02));
#662 = DIRECTION('',(-1.,0.,0.));
#663 = DIRECTION('',(0.,0.,1.));
#664 = ORIENTED_EDGE('',*,*,#665,.T.);
#665 = EDGE_CURVE('',#657,#666,#668,.T.);
#666 = VERTEX_POINT('',#667);
#667 = CARTESIAN_POINT('',(92.5,71.500000000025,10.));
#668 = LINE('',#669,#670);
#669 = CARTESIAN_POINT('',(92.5,-20.,10.));
#670 = VECTOR('',#671,1.);
#671 = DIRECTION('',(0.,1.,0.));
#672 = ORIENTED_EDGE('',*,*,#673,.F.);
#673 = EDGE_CURVE('',#106,#666,#674,.T.);
#674 = LINE('',#675,#676);
#675 = CARTESIAN_POINT('',(92.5,71.500000000025,0.));
#676 = VECTOR('',#677,1.);
#677 = DIRECTION('',(0.,0.,1.));
#678 = ORIENTED_EDGE('',*,*,#105,.F.);
#679 = ORIENTED_EDGE('',*,*,#680,.F.);
#680 = EDGE_CURVE('',#681,#97,#683,.T.);
#681 = VERTEX_POINT('',#682);
#682 = CARTESIAN_POINT('',(92.5,65.000000000001,0.));
#683 = ( BOUNDED_CURVE() B_SPLINE_CURVE(7,(#684,#685,#686,#687,#688,#689
,#690,#691),.UNSPECIFIED.,.F.,.F.) B_SPLINE_CURVE_WITH_KNOTS((8,8),(
17.435839227423,19.315554145532),.PIECEWISE_BEZIER_KNOTS.) CURVE() 
GEOMETRIC_REPRESENTATION_ITEM() RATIONAL_B_SPLINE_CURVE((1.,1.,1.,1.,1.,
1.,1.,1.)) REPRESENTATION_ITEM('') );
#684 = CARTESIAN_POINT('',(92.5,65.000000000001,0.));
#685 = CARTESIAN_POINT('',(92.5,65.435455184577,4.662936703426E-15));
#686 = CARTESIAN_POINT('',(92.5,65.870854657059,-1.398881011028E-14));
#687 = CARTESIAN_POINT('',(92.5,66.319911310031,2.22044604925E-14));
#688 = CARTESIAN_POINT('',(92.5,66.794628210293,-2.04281036531E-14));
#689 = CARTESIAN_POINT('',(92.5,67.31529624309,1.06581410364E-14));
#690 = CARTESIAN_POINT('',(92.5,67.902308063455,-2.886579864025E-15));
#691 = CARTESIAN_POINT('',(92.5,68.619478553604,0.));
#692 = ORIENTED_EDGE('',*,*,#693,.F.);
#693 = EDGE_CURVE('',#89,#681,#694,.T.);
#694 = ( BOUNDED_CURVE() B_SPLINE_CURVE(7,(#695,#696,#697,#698,#699,#700
,#701,#702),.UNSPECIFIED.,.F.,.F.) B_SPLINE_CURVE_WITH_KNOTS((8,8),(
15.556124309321,17.435839227423),.PIECEWISE_BEZIER_KNOTS.) CURVE() 
GEOMETRIC_REPRESENTATION_ITEM() RATIONAL_B_SPLINE_CURVE((1.,1.,1.,1.,1.,
1.,1.,1.)) REPRESENTATION_ITEM('') );
#695 = CARTESIAN_POINT('',(92.5,61.380521446399,0.));
#696 = CARTESIAN_POINT('',(92.5,62.097691936513,-8.881784197001E-16));
#697 = CARTESIAN_POINT('',(92.5,62.68470375697,4.662936703426E-15));
#698 = CARTESIAN_POINT('',(92.5,63.20537178963,-1.265654248073E-14));
#699 = CARTESIAN_POINT('',(92.5,63.680088690026,1.620925615953E-14));
#700 = CARTESIAN_POINT('',(92.5,64.129145342912,-1.043609643148E-14));
#701 = CARTESIAN_POINT('',(92.5,64.564544815427,3.996802888651E-15));
#702 = CARTESIAN_POINT('',(92.5,65.000000000001,0.));
#703 = ORIENTED_EDGE('',*,*,#88,.F.);
#704 = ORIENTED_EDGE('',*,*,#705,.F.);
#705 = EDGE_CURVE('',#706,#80,#708,.T.);
#706 = VERTEX_POINT('',#707);
#707 = CARTESIAN_POINT('',(92.5,-6.775024985473E-12,0.));
#708 = ( BOUNDED_CURVE() B_SPLINE_CURVE(7,(#709,#710,#711,#712,#713,#714
,#715,#716),.UNSPECIFIED.,.F.,.F.) B_SPLINE_CURVE_WITH_KNOTS((8,8),(
17.435839227423,19.315554145522),.PIECEWISE_BEZIER_KNOTS.) CURVE() 
GEOMETRIC_REPRESENTATION_ITEM() RATIONAL_B_SPLINE_CURVE((1.,1.,1.,1.,1.,
1.,1.,1.)) REPRESENTATION_ITEM('') );
#709 = CARTESIAN_POINT('',(92.5,-6.775024985473E-12,0.));
#710 = CARTESIAN_POINT('',(92.5,0.435455184538,2.22044604925E-15));
#711 = CARTESIAN_POINT('',(92.5,0.870854657145,-8.215650382226E-15));
#712 = CARTESIAN_POINT('',(92.5,1.31991130998,1.443289932013E-14));
#713 = CARTESIAN_POINT('',(92.5,1.794628210253,-1.709743457923E-14));
#714 = CARTESIAN_POINT('',(92.5,2.315296243163,1.24344978758E-14));
#715 = CARTESIAN_POINT('',(92.5,2.902308063408,-3.996802888651E-15));
#716 = CARTESIAN_POINT('',(92.5,3.619478553604,0.));
#717 = ORIENTED_EDGE('',*,*,#718,.F.);
#718 = EDGE_CURVE('',#72,#706,#719,.T.);
#719 = ( BOUNDED_CURVE() B_SPLINE_CURVE(7,(#720,#721,#722,#723,#724,#725
,#726,#727),.UNSPECIFIED.,.F.,.F.) B_SPLINE_CURVE_WITH_KNOTS((8,8),(
15.556124309321,17.435839227423),.PIECEWISE_BEZIER_KNOTS.) CURVE() 
GEOMETRIC_REPRESENTATION_ITEM() RATIONAL_B_SPLINE_CURVE((1.,1.,1.,1.,1.,
1.,1.,1.)) REPRESENTATION_ITEM('') );
#720 = CARTESIAN_POINT('',(92.5,-3.619478553595,0.));
#721 = CARTESIAN_POINT('',(92.5,-2.902308063516,2.22044604925E-16));
#722 = CARTESIAN_POINT('',(92.5,-2.31529624297,-2.6645352591E-15));
#723 = CARTESIAN_POINT('',(92.5,-1.794628210441,3.330669073875E-15));
#724 = CARTESIAN_POINT('',(92.5,-1.319911309921,-3.996802888651E-15));
#725 = CARTESIAN_POINT('',(92.5,-0.870854657114,2.442490654175E-15));
#726 = CARTESIAN_POINT('',(92.5,-0.435455184552,2.22044604925E-16));
#727 = CARTESIAN_POINT('',(92.5,-6.775024985473E-12,0.));
#728 = PLANE('',#729);
#729 = AXIS2_PLACEMENT_3D('',#730,#731,#732);
#730 = CARTESIAN_POINT('',(92.5,-20.,0.));
#731 = DIRECTION('',(-1.,0.,0.));
#732 = DIRECTION('',(0.,1.,0.));
#733 = ADVANCED_FACE('',(#734,#759,#770,#781),#792,.T.);
#734 = FACE_BOUND('',#735,.T.);
#735 = EDGE_LOOP('',(#736,#737,#738,#739,#745,#746,#752,#753));
#736 = ORIENTED_EDGE('',*,*,#250,.F.);
#737 = ORIENTED_EDGE('',*,*,#113,.T.);
#738 = ORIENTED_EDGE('',*,*,#673,.T.);
#739 = ORIENTED_EDGE('',*,*,#740,.T.);
#740 = EDGE_CURVE('',#666,#524,#741,.T.);
#741 = LINE('',#742,#743);
#742 = CARTESIAN_POINT('',(-6.5,71.500000000025,10.));
#743 = VECTOR('',#744,1.);
#744 = DIRECTION('',(1.,0.,0.));
#745 = ORIENTED_EDGE('',*,*,#523,.T.);
#746 = ORIENTED_EDGE('',*,*,#747,.T.);
#747 = EDGE_CURVE('',#526,#396,#748,.T.);
#748 = LINE('',#749,#750);
#749 = CARTESIAN_POINT('',(70.346763072542,71.500000000025,
    47.391409596778));
#750 = VECTOR('',#751,1.);
#751 = DIRECTION('',(-0.99513426463,0.,9.852814501285E-02));
#752 = ORIENTED_EDGE('',*,*,#395,.F.);
#753 = ORIENTED_EDGE('',*,*,#754,.T.);
#754 = EDGE_CURVE('',#388,#243,#755,.T.);
#755 = LINE('',#756,#757);
#756 = CARTESIAN_POINT('',(-6.5,71.500000000025,10.));
#757 = VECTOR('',#758,1.);
#758 = DIRECTION('',(1.,0.,0.));
#759 = FACE_BOUND('',#760,.T.);
#760 = EDGE_LOOP('',(#761));
#761 = ORIENTED_EDGE('',*,*,#762,.T.);
#762 = EDGE_CURVE('',#763,#763,#765,.T.);
#763 = VERTEX_POINT('',#764);
#764 = CARTESIAN_POINT('',(-2.775,71.500000000025,49.455935692579));
#765 = CIRCLE('',#766,1.275);
#766 = AXIS2_PLACEMENT_3D('',#767,#768,#769);
#767 = CARTESIAN_POINT('',(-1.5,71.500000000025,49.455935692579));
#768 = DIRECTION('',(0.,1.,-2.22044604925E-16));
#769 = DIRECTION('',(-1.,0.,0.));
#770 = FACE_BOUND('',#771,.T.);
#771 = EDGE_LOOP('',(#772));
#772 = ORIENTED_EDGE('',*,*,#773,.T.);
#773 = EDGE_CURVE('',#774,#774,#776,.T.);
#774 = VERTEX_POINT('',#775);
#775 = CARTESIAN_POINT('',(42.725,71.500000000025,44.95098519753));
#776 = CIRCLE('',#777,1.275);
#777 = AXIS2_PLACEMENT_3D('',#778,#779,#780);
#778 = CARTESIAN_POINT('',(44.,71.500000000025,44.95098519753));
#779 = DIRECTION('',(0.,1.,-2.22044604925E-16));
#780 = DIRECTION('',(-1.,0.,0.));
#781 = FACE_BOUND('',#782,.T.);
#782 = EDGE_LOOP('',(#783));
#783 = ORIENTED_EDGE('',*,*,#784,.T.);
#784 = EDGE_CURVE('',#785,#785,#787,.T.);
#785 = VERTEX_POINT('',#786);
#786 = CARTESIAN_POINT('',(88.225,71.500000000025,40.44603470248));
#787 = CIRCLE('',#788,1.275);
#788 = AXIS2_PLACEMENT_3D('',#789,#790,#791);
#789 = CARTESIAN_POINT('',(89.5,71.500000000025,40.44603470248));
#790 = DIRECTION('',(0.,1.,-2.22044604925E-16));
#791 = DIRECTION('',(-1.,0.,0.));
#792 = PLANE('',#793);
#793 = AXIS2_PLACEMENT_3D('',#794,#795,#796);
#794 = CARTESIAN_POINT('',(44.,71.500000000025,27.628205128205));
#795 = DIRECTION('',(-0.,-1.,-0.));
#796 = DIRECTION('',(0.,0.,-1.));
#797 = ADVANCED_FACE('',(#798),#826,.F.);
#798 = FACE_BOUND('',#799,.T.);
#799 = EDGE_LOOP('',(#800,#809,#810,#819));
#800 = ORIENTED_EDGE('',*,*,#801,.F.);
#801 = EDGE_CURVE('',#80,#802,#804,.T.);
#802 = VERTEX_POINT('',#803);
#803 = CARTESIAN_POINT('',(90.162337662338,1.739229954329,3.));
#804 = CIRCLE('',#805,3.);
#805 = AXIS2_PLACEMENT_3D('',#806,#807,#808);
#806 = CARTESIAN_POINT('',(92.5,3.619478553604,3.));
#807 = DIRECTION('',(-0.626749533092,0.779220779221,0.));
#808 = DIRECTION('',(0.779220779221,0.626749533092,0.));
#809 = ORIENTED_EDGE('',*,*,#79,.T.);
#810 = ORIENTED_EDGE('',*,*,#811,.T.);
#811 = EDGE_CURVE('',#72,#812,#814,.T.);
#812 = VERTEX_POINT('',#813);
#813 = CARTESIAN_POINT('',(90.162337662338,-1.739229954329,3.));
#814 = CIRCLE('',#815,3.);
#815 = AXIS2_PLACEMENT_3D('',#816,#817,#818);
#816 = CARTESIAN_POINT('',(92.5,-3.619478553604,3.));
#817 = DIRECTION('',(0.626749533092,0.779220779221,0.));
#818 = DIRECTION('',(0.779220779221,-0.626749533092,0.));
#819 = ORIENTED_EDGE('',*,*,#820,.F.);
#820 = EDGE_CURVE('',#802,#812,#821,.T.);
#821 = CIRCLE('',#822,2.775);
#822 = AXIS2_PLACEMENT_3D('',#823,#824,#825);
#823 = CARTESIAN_POINT('',(88.,0.,3.));
#824 = DIRECTION('',(0.,0.,1.));
#825 = DIRECTION('',(1.,0.,0.));
#826 = TOROIDAL_SURFACE('',#827,5.775,3.);
#827 = AXIS2_PLACEMENT_3D('',#828,#829,#830);
#828 = CARTESIAN_POINT('',(88.,0.,3.));
#829 = DIRECTION('',(-0.,-0.,-1.));
#830 = DIRECTION('',(1.,0.,0.));
#831 = ADVANCED_FACE('',(#832),#860,.F.);
#832 = FACE_BOUND('',#833,.T.);
#833 = EDGE_LOOP('',(#834,#843,#844,#853));
#834 = ORIENTED_EDGE('',*,*,#835,.F.);
#835 = EDGE_CURVE('',#97,#836,#838,.T.);
#836 = VERTEX_POINT('',#837);
#837 = CARTESIAN_POINT('',(90.162337662338,66.739229954329,3.));
#838 = CIRCLE('',#839,3.);
#839 = AXIS2_PLACEMENT_3D('',#840,#841,#842);
#840 = CARTESIAN_POINT('',(92.5,68.619478553604,3.));
#841 = DIRECTION('',(-0.626749533092,0.779220779221,0.));
#842 = DIRECTION('',(0.779220779221,0.626749533092,0.));
#843 = ORIENTED_EDGE('',*,*,#96,.T.);
#844 = ORIENTED_EDGE('',*,*,#845,.T.);
#845 = EDGE_CURVE('',#89,#846,#848,.T.);
#846 = VERTEX_POINT('',#847);
#847 = CARTESIAN_POINT('',(90.162337662338,63.260770045671,3.));
#848 = CIRCLE('',#849,3.);
#849 = AXIS2_PLACEMENT_3D('',#850,#851,#852);
#850 = CARTESIAN_POINT('',(92.5,61.380521446396,3.));
#851 = DIRECTION('',(0.626749533092,0.779220779221,0.));
#852 = DIRECTION('',(0.779220779221,-0.626749533092,0.));
#853 = ORIENTED_EDGE('',*,*,#854,.F.);
#854 = EDGE_CURVE('',#836,#846,#855,.T.);
#855 = CIRCLE('',#856,2.775);
#856 = AXIS2_PLACEMENT_3D('',#857,#858,#859);
#857 = CARTESIAN_POINT('',(88.,65.,3.));
#858 = DIRECTION('',(0.,0.,1.));
#859 = DIRECTION('',(1.,0.,0.));
#860 = TOROIDAL_SURFACE('',#861,5.775,3.);
#861 = AXIS2_PLACEMENT_3D('',#862,#863,#864);
#862 = CARTESIAN_POINT('',(88.,65.,3.));
#863 = DIRECTION('',(-0.,-0.,-1.));
#864 = DIRECTION('',(1.,0.,0.));
#865 = ADVANCED_FACE('',(#866),#885,.F.);
#866 = FACE_BOUND('',#867,.F.);
#867 = EDGE_LOOP('',(#868,#876,#883,#884));
#868 = ORIENTED_EDGE('',*,*,#869,.T.);
#869 = EDGE_CURVE('',#174,#870,#872,.T.);
#870 = VERTEX_POINT('',#871);
#871 = CARTESIAN_POINT('',(18.,-10.,-2.));
#872 = LINE('',#873,#874);
#873 = CARTESIAN_POINT('',(18.,-10.,0.));
#874 = VECTOR('',#875,1.);
#875 = DIRECTION('',(-0.,-0.,-1.));
#876 = ORIENTED_EDGE('',*,*,#877,.T.);
#877 = EDGE_CURVE('',#870,#870,#878,.T.);
#878 = CIRCLE('',#879,5.);
#879 = AXIS2_PLACEMENT_3D('',#880,#881,#882);
#880 = CARTESIAN_POINT('',(13.,-10.,-2.));
#881 = DIRECTION('',(0.,0.,1.));
#882 = DIRECTION('',(1.,0.,0.));
#883 = ORIENTED_EDGE('',*,*,#869,.F.);
#884 = ORIENTED_EDGE('',*,*,#173,.F.);
#885 = CYLINDRICAL_SURFACE('',#886,5.);
#886 = AXIS2_PLACEMENT_3D('',#887,#888,#889);
#887 = CARTESIAN_POINT('',(13.,-10.,0.));
#888 = DIRECTION('',(0.,0.,1.));
#889 = DIRECTION('',(1.,0.,0.));
#890 = ADVANCED_FACE('',(#891),#916,.F.);
#891 = FACE_BOUND('',#892,.F.);
#892 = EDGE_LOOP('',(#893,#901,#909,#915));
#893 = ORIENTED_EDGE('',*,*,#894,.T.);
#894 = EDGE_CURVE('',#185,#895,#897,.T.);
#895 = VERTEX_POINT('',#896);
#896 = CARTESIAN_POINT('',(84.,7.,-2.));
#897 = LINE('',#898,#899);
#898 = CARTESIAN_POINT('',(84.,7.,0.));
#899 = VECTOR('',#900,1.);
#900 = DIRECTION('',(-0.,-0.,-1.));
#901 = ORIENTED_EDGE('',*,*,#902,.T.);
#902 = EDGE_CURVE('',#895,#903,#905,.T.);
#903 = VERTEX_POINT('',#904);
#904 = CARTESIAN_POINT('',(84.,58.,-2.));
#905 = LINE('',#906,#907);
#906 = CARTESIAN_POINT('',(84.,7.,-2.));
#907 = VECTOR('',#908,1.);
#908 = DIRECTION('',(0.,1.,0.));
#909 = ORIENTED_EDGE('',*,*,#910,.F.);
#910 = EDGE_CURVE('',#187,#903,#911,.T.);
#911 = LINE('',#912,#913);
#912 = CARTESIAN_POINT('',(84.,58.,0.));
#913 = VECTOR('',#914,1.);
#914 = DIRECTION('',(-0.,-0.,-1.));
#915 = ORIENTED_EDGE('',*,*,#184,.F.);
#916 = PLANE('',#917);
#917 = AXIS2_PLACEMENT_3D('',#918,#919,#920);
#918 = CARTESIAN_POINT('',(84.,7.,0.));
#919 = DIRECTION('',(1.,0.,0.));
#920 = DIRECTION('',(0.,1.,0.));
#921 = ADVANCED_FACE('',(#922),#940,.F.);
#922 = FACE_BOUND('',#923,.F.);
#923 = EDGE_LOOP('',(#924,#932,#938,#939));
#924 = ORIENTED_EDGE('',*,*,#925,.T.);
#925 = EDGE_CURVE('',#195,#926,#928,.T.);
#926 = VERTEX_POINT('',#927);
#927 = CARTESIAN_POINT('',(4.,7.,-2.));
#928 = LINE('',#929,#930);
#929 = CARTESIAN_POINT('',(4.,7.,0.));
#930 = VECTOR('',#931,1.);
#931 = DIRECTION('',(-0.,-0.,-1.));
#932 = ORIENTED_EDGE('',*,*,#933,.T.);
#933 = EDGE_CURVE('',#926,#895,#934,.T.);
#934 = LINE('',#935,#936);
#935 = CARTESIAN_POINT('',(4.,7.,-2.));
#936 = VECTOR('',#937,1.);
#937 = DIRECTION('',(1.,0.,0.));
#938 = ORIENTED_EDGE('',*,*,#894,.F.);
#939 = ORIENTED_EDGE('',*,*,#194,.F.);
#940 = PLANE('',#941);
#941 = AXIS2_PLACEMENT_3D('',#942,#943,#944);
#942 = CARTESIAN_POINT('',(4.,7.,0.));
#943 = DIRECTION('',(0.,-1.,0.));
#944 = DIRECTION('',(1.,0.,0.));
#945 = ADVANCED_FACE('',(#946),#964,.F.);
#946 = FACE_BOUND('',#947,.F.);
#947 = EDGE_LOOP('',(#948,#949,#957,#963));
#948 = ORIENTED_EDGE('',*,*,#910,.T.);
#949 = ORIENTED_EDGE('',*,*,#950,.T.);
#950 = EDGE_CURVE('',#903,#951,#953,.T.);
#951 = VERTEX_POINT('',#952);
#952 = CARTESIAN_POINT('',(4.,58.,-2.));
#953 = LINE('',#954,#955);
#954 = CARTESIAN_POINT('',(84.,58.,-2.));
#955 = VECTOR('',#956,1.);
#956 = DIRECTION('',(-1.,0.,0.));
#957 = ORIENTED_EDGE('',*,*,#958,.F.);
#958 = EDGE_CURVE('',#203,#951,#959,.T.);
#959 = LINE('',#960,#961);
#960 = CARTESIAN_POINT('',(4.,58.,0.));
#961 = VECTOR('',#962,1.);
#962 = DIRECTION('',(-0.,-0.,-1.));
#963 = ORIENTED_EDGE('',*,*,#210,.F.);
#964 = PLANE('',#965);
#965 = AXIS2_PLACEMENT_3D('',#966,#967,#968);
#966 = CARTESIAN_POINT('',(84.,58.,0.));
#967 = DIRECTION('',(0.,1.,0.));
#968 = DIRECTION('',(-1.,0.,0.));
#969 = ADVANCED_FACE('',(#970),#981,.F.);
#970 = FACE_BOUND('',#971,.F.);
#971 = EDGE_LOOP('',(#972,#973,#979,#980));
#972 = ORIENTED_EDGE('',*,*,#958,.T.);
#973 = ORIENTED_EDGE('',*,*,#974,.T.);
#974 = EDGE_CURVE('',#951,#926,#975,.T.);
#975 = LINE('',#976,#977);
#976 = CARTESIAN_POINT('',(4.,58.,-2.));
#977 = VECTOR('',#978,1.);
#978 = DIRECTION('',(0.,-1.,0.));
#979 = ORIENTED_EDGE('',*,*,#925,.F.);
#980 = ORIENTED_EDGE('',*,*,#202,.F.);
#981 = PLANE('',#982);
#982 = AXIS2_PLACEMENT_3D('',#983,#984,#985);
#983 = CARTESIAN_POINT('',(4.,58.,0.));
#984 = DIRECTION('',(-1.,0.,0.));
#985 = DIRECTION('',(0.,-1.,0.));
#986 = ADVANCED_FACE('',(#987),#1006,.T.);
#987 = FACE_BOUND('',#988,.T.);
#988 = EDGE_LOOP('',(#989,#990,#991,#992));
#989 = ORIENTED_EDGE('',*,*,#353,.F.);
#990 = ORIENTED_EDGE('',*,*,#272,.T.);
#991 = ORIENTED_EDGE('',*,*,#294,.T.);
#992 = ORIENTED_EDGE('',*,*,#993,.F.);
#993 = EDGE_CURVE('',#354,#295,#994,.T.);
#994 = ( BOUNDED_CURVE() B_SPLINE_CURVE(10,(#995,#996,#997,#998,#999,
    #1000,#1001,#1002,#1003,#1004,#1005),.UNSPECIFIED.,.F.,.F.) 
B_SPLINE_CURVE_WITH_KNOTS((11,11),(6.838204695609,10.597634531814),
.PIECEWISE_BEZIER_KNOTS.) CURVE() GEOMETRIC_REPRESENTATION_ITEM() 
RATIONAL_B_SPLINE_CURVE((1.,1.,1.,1.,1.,1.,1.,1.,1.,1.,1.)) 
REPRESENTATION_ITEM('') );
#995 = CARTESIAN_POINT('',(-2.162337662338,1.739229954329,3.));
#996 = CARTESIAN_POINT('',(-2.397959305907,1.446287924045,3.));
#997 = CARTESIAN_POINT('',(-2.589486219275,1.117877027559,2.853758287187
    ));
#998 = CARTESIAN_POINT('',(-2.730909705521,0.761466299999,2.768753997431
    ));
#999 = CARTESIAN_POINT('',(-2.817670243402,0.385685911851,2.667618401987
    ));
#1000 = CARTESIAN_POINT('',(-2.846914870103,-2.690070388668E-13,
    2.670708752745));
#1001 = CARTESIAN_POINT('',(-2.817670243402,-0.38568591185,
    2.667618401987));
#1002 = CARTESIAN_POINT('',(-2.730909705521,-0.761466299999,
    2.768753997431));
#1003 = CARTESIAN_POINT('',(-2.589486219275,-1.117877027559,
    2.853758287187));
#1004 = CARTESIAN_POINT('',(-2.397959305907,-1.446287924045,3.));
#1005 = CARTESIAN_POINT('',(-2.162337662338,-1.739229954329,3.));
#1006 = ( BOUNDED_SURFACE() B_SPLINE_SURFACE(2,10,(
    (#1007,#1008,#1009,#1010,#1011,#1012,#1013,#1014,#1015,#1016,#1017)
    ,(#1018,#1019,#1020,#1021,#1022,#1023,#1024,#1025,#1026,#1027,#1028)
    ,(#1029,#1030,#1031,#1032,#1033,#1034,#1035,#1036,#1037,#1038,#1039
)),.UNSPECIFIED.,.F.,.F.,.F.) B_SPLINE_SURFACE_WITH_KNOTS((3,3),(11,11),
  (0.,3.759429836205),(6.838204695609,10.597634531814),
.PIECEWISE_BEZIER_KNOTS.) GEOMETRIC_REPRESENTATION_ITEM() 
RATIONAL_B_SPLINE_SURFACE((
    (1.,1.,1.,1.,1.,1.,1.,1.,1.,1.,1.)
    ,(0.707106781187,0.781268093932,0.815008028056,0.840350059403
      ,0.848657323687,0.85653005156,0.848657323687,0.840350059403
      ,0.815008028056,0.781268093932,0.707106781187)
,(1.,1.,1.,1.,1.,1.,1.,1.,1.,1.,1.
  ))) REPRESENTATION_ITEM('') SURFACE() );
#1007 = CARTESIAN_POINT('',(-2.162337662338,1.739229954329,3.));
#1008 = CARTESIAN_POINT('',(-2.397959305907,1.446287924045,3.));
#1009 = CARTESIAN_POINT('',(-2.589486219275,1.117877027559,
    2.853758287187));
#1010 = CARTESIAN_POINT('',(-2.730909705521,0.761466299999,
    2.768753997431));
#1011 = CARTESIAN_POINT('',(-2.817670243402,0.385685911851,
    2.667618401987));
#1012 = CARTESIAN_POINT('',(-2.846914870103,-2.690070388668E-13,
    2.670708752745));
#1013 = CARTESIAN_POINT('',(-2.817670243402,-0.38568591185,
    2.667618401987));
#1014 = CARTESIAN_POINT('',(-2.730909705521,-0.761466299999,
    2.768753997431));
#1015 = CARTESIAN_POINT('',(-2.589486219275,-1.117877027559,
    2.853758287187));
#1016 = CARTESIAN_POINT('',(-2.397959305907,-1.446287924045,3.));
#1017 = CARTESIAN_POINT('',(-2.162337662338,-1.739229954329,3.));
#1018 = CARTESIAN_POINT('',(-2.162337662338,1.739229954329,
    1.110223024625E-15));
#1019 = CARTESIAN_POINT('',(-2.375593090604,1.474095235893,
    0.569545691076));
#1020 = CARTESIAN_POINT('',(-2.580505327616,1.141187079549,
    0.730424480497));
#1021 = CARTESIAN_POINT('',(-2.722870596021,0.783608064455,
    0.809829134903));
#1022 = CARTESIAN_POINT('',(-2.822279417086,0.394782646098,0.82347487887
    ));
#1023 = CARTESIAN_POINT('',(-2.844653536229,-1.46469118689E-14,
    0.837305336633));
#1024 = CARTESIAN_POINT('',(-2.822279417086,-0.394782646098,
    0.82347487887));
#1025 = CARTESIAN_POINT('',(-2.722870596021,-0.783608064455,
    0.809829134903));
#1026 = CARTESIAN_POINT('',(-2.580505327616,-1.141187079549,
    0.730424480497));
#1027 = CARTESIAN_POINT('',(-2.375593090604,-1.474095235893,
    0.569545691076));
#1028 = CARTESIAN_POINT('',(-2.162337662338,-1.739229954329,
    1.33226762955E-15));
#1029 = CARTESIAN_POINT('',(-4.5,3.619478553604,0.));
#1030 = CARTESIAN_POINT('',(-4.5,2.615441737451,-1.50990331349E-14));
#1031 = CARTESIAN_POINT('',(-4.5,1.854417661041,6.350475700856E-14));
#1032 = CARTESIAN_POINT('',(-4.5,1.186907630852,-1.478817068801E-13));
#1033 = CARTESIAN_POINT('',(-4.5,0.582955079657,2.373656826649E-13));
#1034 = CARTESIAN_POINT('',(-4.5,1.529887327934E-13,-2.811084698351E-13)
  );
#1035 = CARTESIAN_POINT('',(-4.5,-0.582955079658,2.464695114668E-13));
#1036 = CARTESIAN_POINT('',(-4.5,-1.186907630852,-1.56985535682E-13));
#1037 = CARTESIAN_POINT('',(-4.5,-1.854417661041,6.905587213168E-14));
#1038 = CARTESIAN_POINT('',(-4.5,-2.615441737451,-1.68753899743E-14));
#1039 = CARTESIAN_POINT('',(-4.5,-3.619478553604,0.));
#1040 = ADVANCED_FACE('',(#1041),#1052,.T.);
#1041 = FACE_BOUND('',#1042,.T.);
#1042 = EDGE_LOOP('',(#1043,#1044,#1050,#1051));
#1043 = ORIENTED_EDGE('',*,*,#233,.T.);
#1044 = ORIENTED_EDGE('',*,*,#1045,.T.);
#1045 = EDGE_CURVE('',#234,#379,#1046,.T.);
#1046 = LINE('',#1047,#1048);
#1047 = CARTESIAN_POINT('',(-4.5,-10.01,10.));
#1048 = VECTOR('',#1049,1.);
#1049 = DIRECTION('',(-1.,0.,0.));
#1050 = ORIENTED_EDGE('',*,*,#378,.F.);
#1051 = ORIENTED_EDGE('',*,*,#328,.F.);
#1052 = CYLINDRICAL_SURFACE('',#1053,9.99);
#1053 = AXIS2_PLACEMENT_3D('',#1054,#1055,#1056);
#1054 = CARTESIAN_POINT('',(-4.5,-10.01,1.E-02));
#1055 = DIRECTION('',(-1.,0.,0.));
#1056 = DIRECTION('',(0.,-1.,0.));
#1057 = ADVANCED_FACE('',(#1058),#1077,.T.);
#1058 = FACE_BOUND('',#1059,.T.);
#1059 = EDGE_LOOP('',(#1060,#1061,#1062,#1063));
#1060 = ORIENTED_EDGE('',*,*,#606,.F.);
#1061 = ORIENTED_EDGE('',*,*,#257,.T.);
#1062 = ORIENTED_EDGE('',*,*,#490,.T.);
#1063 = ORIENTED_EDGE('',*,*,#1064,.F.);
#1064 = EDGE_CURVE('',#607,#491,#1065,.T.);
#1065 = ( BOUNDED_CURVE() B_SPLINE_CURVE(10,(#1066,#1067,#1068,#1069,
    #1070,#1071,#1072,#1073,#1074,#1075,#1076),.UNSPECIFIED.,.F.,.F.) 
B_SPLINE_CURVE_WITH_KNOTS((11,11),(6.838204695609,10.597634531814),
.PIECEWISE_BEZIER_KNOTS.) CURVE() GEOMETRIC_REPRESENTATION_ITEM() 
RATIONAL_B_SPLINE_CURVE((1.,1.,1.,1.,1.,1.,1.,1.,1.,1.,1.)) 
REPRESENTATION_ITEM('') );
#1066 = CARTESIAN_POINT('',(-2.162337662338,66.739229954329,3.));
#1067 = CARTESIAN_POINT('',(-2.397959305907,66.446287924045,3.));
#1068 = CARTESIAN_POINT('',(-2.589486219275,66.117877027559,
    2.853758287187));
#1069 = CARTESIAN_POINT('',(-2.730909705522,65.761466299998,
    2.768753997431));
#1070 = CARTESIAN_POINT('',(-2.817670243401,65.385685911851,
    2.667618401987));
#1071 = CARTESIAN_POINT('',(-2.846914870103,64.999999999999,
    2.670708752745));
#1072 = CARTESIAN_POINT('',(-2.817670243401,64.614314088149,
    2.667618401987));
#1073 = CARTESIAN_POINT('',(-2.730909705522,64.238533700001,
    2.768753997431));
#1074 = CARTESIAN_POINT('',(-2.589486219275,63.882122972441,
    2.853758287187));
#1075 = CARTESIAN_POINT('',(-2.397959305907,63.553712075955,3.));
#1076 = CARTESIAN_POINT('',(-2.162337662338,63.260770045671,3.));
#1077 = ( BOUNDED_SURFACE() B_SPLINE_SURFACE(2,10,(
    (#1078,#1079,#1080,#1081,#1082,#1083,#1084,#1085,#1086,#1087,#1088)
    ,(#1089,#1090,#1091,#1092,#1093,#1094,#1095,#1096,#1097,#1098,#1099)
    ,(#1100,#1101,#1102,#1103,#1104,#1105,#1106,#1107,#1108,#1109,#1110
)),.UNSPECIFIED.,.F.,.F.,.F.) B_SPLINE_SURFACE_WITH_KNOTS((3,3),(11,11),
  (0.,3.759429836205),(6.838204695609,10.597634531814),
.PIECEWISE_BEZIER_KNOTS.) GEOMETRIC_REPRESENTATION_ITEM() 
RATIONAL_B_SPLINE_SURFACE((
    (1.,1.,1.,1.,1.,1.,1.,1.,1.,1.,1.)
    ,(0.707106781187,0.781268093932,0.815008028056,0.840350059403
      ,0.848657323687,0.85653005156,0.848657323687,0.840350059403
      ,0.815008028056,0.781268093932,0.707106781187)
,(1.,1.,1.,1.,1.,1.,1.,1.,1.,1.,1.
  ))) REPRESENTATION_ITEM('') SURFACE() );
#1078 = CARTESIAN_POINT('',(-2.162337662338,66.739229954329,3.));
#1079 = CARTESIAN_POINT('',(-2.397959305907,66.446287924045,3.));
#1080 = CARTESIAN_POINT('',(-2.589486219275,66.117877027559,
    2.853758287187));
#1081 = CARTESIAN_POINT('',(-2.730909705522,65.761466299998,
    2.768753997431));
#1082 = CARTESIAN_POINT('',(-2.817670243401,65.385685911851,
    2.667618401987));
#1083 = CARTESIAN_POINT('',(-2.846914870103,64.999999999999,
    2.670708752745));
#1084 = CARTESIAN_POINT('',(-2.817670243401,64.614314088149,
    2.667618401987));
#1085 = CARTESIAN_POINT('',(-2.730909705522,64.238533700001,
    2.768753997431));
#1086 = CARTESIAN_POINT('',(-2.589486219275,63.882122972441,
    2.853758287187));
#1087 = CARTESIAN_POINT('',(-2.397959305907,63.553712075955,3.));
#1088 = CARTESIAN_POINT('',(-2.162337662338,63.260770045671,3.));
#1089 = CARTESIAN_POINT('',(-2.162337662338,66.739229954329,
    4.662936703426E-15));
#1090 = CARTESIAN_POINT('',(-2.375593090604,66.474095235893,
    0.569545691076));
#1091 = CARTESIAN_POINT('',(-2.580505327616,66.141187079549,
    0.730424480497));
#1092 = CARTESIAN_POINT('',(-2.722870596021,65.783608064454,
    0.809829134903));
#1093 = CARTESIAN_POINT('',(-2.822279417085,65.394782646099,
    0.82347487887));
#1094 = CARTESIAN_POINT('',(-2.84465353623,64.999999999999,
    0.837305336633));
#1095 = CARTESIAN_POINT('',(-2.822279417085,64.605217353903,
    0.82347487887));
#1096 = CARTESIAN_POINT('',(-2.722870596021,64.216391935545,
    0.809829134903));
#1097 = CARTESIAN_POINT('',(-2.580505327616,63.858812920451,
    0.730424480497));
#1098 = CARTESIAN_POINT('',(-2.375593090604,63.525904764107,
    0.569545691076));
#1099 = CARTESIAN_POINT('',(-2.162337662338,63.260770045671,
    1.110223024625E-15));
#1100 = CARTESIAN_POINT('',(-4.5,68.619478553604,0.));
#1101 = CARTESIAN_POINT('',(-4.5,67.615441737451,-2.442490654175E-14));
#1102 = CARTESIAN_POINT('',(-4.5,66.854417661041,9.769962616701E-14));
#1103 = CARTESIAN_POINT('',(-4.5,66.186907630852,-2.164934898019E-13));
#1104 = CARTESIAN_POINT('',(-4.5,65.582955079659,3.392841563254E-13));
#1105 = CARTESIAN_POINT('',(-4.5,64.999999999999,-3.985700658404E-13));
#1106 = CARTESIAN_POINT('',(-4.5,64.417044920343,3.519406988062E-13));
#1107 = CARTESIAN_POINT('',(-4.5,63.813092369148,-2.298161660974E-13));
#1108 = CARTESIAN_POINT('',(-4.5,63.145582338959,1.050270981295E-13));
#1109 = CARTESIAN_POINT('',(-4.5,62.384558262549,-2.642330798608E-14));
#1110 = CARTESIAN_POINT('',(-4.5,61.380521446396,0.));
#1111 = ADVANCED_FACE('',(#1112),#1118,.T.);
#1112 = FACE_BOUND('',#1113,.T.);
#1113 = EDGE_LOOP('',(#1114,#1115,#1116,#1117));
#1114 = ORIENTED_EDGE('',*,*,#387,.F.);
#1115 = ORIENTED_EDGE('',*,*,#1045,.F.);
#1116 = ORIENTED_EDGE('',*,*,#242,.T.);
#1117 = ORIENTED_EDGE('',*,*,#754,.F.);
#1118 = PLANE('',#1119);
#1119 = AXIS2_PLACEMENT_3D('',#1120,#1121,#1122);
#1120 = CARTESIAN_POINT('',(44.,41.946678321685,10.));
#1121 = DIRECTION('',(0.,0.,1.));
#1122 = DIRECTION('',(1.,0.,0.));
#1123 = ADVANCED_FACE('',(#1124),#1145,.T.);
#1124 = FACE_BOUND('',#1125,.F.);
#1125 = EDGE_LOOP('',(#1126,#1134,#1141,#1142,#1143,#1144));
#1126 = ORIENTED_EDGE('',*,*,#1127,.T.);
#1127 = EDGE_CURVE('',#304,#1128,#1130,.T.);
#1128 = VERTEX_POINT('',#1129);
#1129 = CARTESIAN_POINT('',(2.775,0.,7.6));
#1130 = LINE('',#1131,#1132);
#1131 = CARTESIAN_POINT('',(2.775,0.,0.));
#1132 = VECTOR('',#1133,1.);
#1133 = DIRECTION('',(0.,0.,1.));
#1134 = ORIENTED_EDGE('',*,*,#1135,.T.);
#1135 = EDGE_CURVE('',#1128,#1128,#1136,.T.);
#1136 = CIRCLE('',#1137,2.775);
#1137 = AXIS2_PLACEMENT_3D('',#1138,#1139,#1140);
#1138 = CARTESIAN_POINT('',(0.,0.,7.6));
#1139 = DIRECTION('',(0.,0.,1.));
#1140 = DIRECTION('',(1.,0.,0.));
#1141 = ORIENTED_EDGE('',*,*,#1127,.F.);
#1142 = ORIENTED_EDGE('',*,*,#312,.F.);
#1143 = ORIENTED_EDGE('',*,*,#993,.F.);
#1144 = ORIENTED_EDGE('',*,*,#362,.F.);
#1145 = CYLINDRICAL_SURFACE('',#1146,2.775);
#1146 = AXIS2_PLACEMENT_3D('',#1147,#1148,#1149);
#1147 = CARTESIAN_POINT('',(0.,0.,0.));
#1148 = DIRECTION('',(-0.,-0.,-1.));
#1149 = DIRECTION('',(1.,0.,0.));
#1150 = ADVANCED_FACE('',(#1151),#1162,.F.);
#1151 = FACE_BOUND('',#1152,.F.);
#1152 = EDGE_LOOP('',(#1153,#1159,#1160,#1161));
#1153 = ORIENTED_EDGE('',*,*,#1154,.F.);
#1154 = EDGE_CURVE('',#583,#404,#1155,.T.);
#1155 = LINE('',#1156,#1157);
#1156 = CARTESIAN_POINT('',(94.5,73.5,45.));
#1157 = VECTOR('',#1158,1.);
#1158 = DIRECTION('',(-0.99513426463,2.187764303338E-17,
    9.852814501285E-02));
#1159 = ORIENTED_EDGE('',*,*,#590,.T.);
#1160 = ORIENTED_EDGE('',*,*,#747,.T.);
#1161 = ORIENTED_EDGE('',*,*,#403,.F.);
#1162 = PLANE('',#1163);
#1163 = AXIS2_PLACEMENT_3D('',#1164,#1165,#1166);
#1164 = CARTESIAN_POINT('',(94.5,73.5,45.));
#1165 = DIRECTION('',(-9.852814501285E-02,-2.209641946371E-16,
    -0.99513426463));
#1166 = DIRECTION('',(-0.99513426463,2.187764303338E-17,
    9.852814501285E-02));
#1167 = ADVANCED_FACE('',(#1168,#1179,#1190,#1201),#1212,.T.);
#1168 = FACE_BOUND('',#1169,.T.);
#1169 = EDGE_LOOP('',(#1170,#1171,#1172,#1178));
#1170 = ORIENTED_EDGE('',*,*,#1154,.F.);
#1171 = ORIENTED_EDGE('',*,*,#582,.T.);
#1172 = ORIENTED_EDGE('',*,*,#1173,.T.);
#1173 = EDGE_CURVE('',#575,#412,#1174,.T.);
#1174 = LINE('',#1175,#1176);
#1175 = CARTESIAN_POINT('',(94.5,73.5,-2.));
#1176 = VECTOR('',#1177,1.);
#1177 = DIRECTION('',(-1.,0.,0.));
#1178 = ORIENTED_EDGE('',*,*,#411,.T.);
#1179 = FACE_BOUND('',#1180,.T.);
#1180 = EDGE_LOOP('',(#1181));
#1181 = ORIENTED_EDGE('',*,*,#1182,.F.);
#1182 = EDGE_CURVE('',#1183,#1183,#1185,.T.);
#1183 = VERTEX_POINT('',#1184);
#1184 = CARTESIAN_POINT('',(-2.775,73.5,49.455935692579));
#1185 = CIRCLE('',#1186,1.275);
#1186 = AXIS2_PLACEMENT_3D('',#1187,#1188,#1189);
#1187 = CARTESIAN_POINT('',(-1.5,73.5,49.455935692579));
#1188 = DIRECTION('',(0.,1.,-2.22044604925E-16));
#1189 = DIRECTION('',(-1.,0.,0.));
#1190 = FACE_BOUND('',#1191,.T.);
#1191 = EDGE_LOOP('',(#1192));
#1192 = ORIENTED_EDGE('',*,*,#1193,.F.);
#1193 = EDGE_CURVE('',#1194,#1194,#1196,.T.);
#1194 = VERTEX_POINT('',#1195);
#1195 = CARTESIAN_POINT('',(42.725,73.5,44.95098519753));
#1196 = CIRCLE('',#1197,1.275);
#1197 = AXIS2_PLACEMENT_3D('',#1198,#1199,#1200);
#1198 = CARTESIAN_POINT('',(44.,73.5,44.95098519753));
#1199 = DIRECTION('',(0.,1.,-2.22044604925E-16));
#1200 = DIRECTION('',(-1.,0.,0.));
#1201 = FACE_BOUND('',#1202,.T.);
#1202 = EDGE_LOOP('',(#1203));
#1203 = ORIENTED_EDGE('',*,*,#1204,.F.);
#1204 = EDGE_CURVE('',#1205,#1205,#1207,.T.);
#1205 = VERTEX_POINT('',#1206);
#1206 = CARTESIAN_POINT('',(88.225,73.5,40.44603470248));
#1207 = CIRCLE('',#1208,1.275);
#1208 = AXIS2_PLACEMENT_3D('',#1209,#1210,#1211);
#1209 = CARTESIAN_POINT('',(89.5,73.5,40.44603470248));
#1210 = DIRECTION('',(0.,1.,-2.22044604925E-16));
#1211 = DIRECTION('',(-1.,0.,0.));
#1212 = PLANE('',#1213);
#1213 = AXIS2_PLACEMENT_3D('',#1214,#1215,#1216);
#1214 = CARTESIAN_POINT('',(44.,73.5,26.5));
#1215 = DIRECTION('',(0.,1.,0.));
#1216 = DIRECTION('',(0.,0.,1.));
#1217 = ADVANCED_FACE('',(#1218,#1229,#1232,#1243,#1254,#1265,#1271),
  #1282,.F.);
#1218 = FACE_BOUND('',#1219,.F.);
#1219 = EDGE_LOOP('',(#1220,#1221,#1227,#1228));
#1220 = ORIENTED_EDGE('',*,*,#419,.T.);
#1221 = ORIENTED_EDGE('',*,*,#1222,.T.);
#1222 = EDGE_CURVE('',#420,#567,#1223,.T.);
#1223 = LINE('',#1224,#1225);
#1224 = CARTESIAN_POINT('',(-6.5,-35.,-2.));
#1225 = VECTOR('',#1226,1.);
#1226 = DIRECTION('',(1.,0.,0.));
#1227 = ORIENTED_EDGE('',*,*,#574,.T.);
#1228 = ORIENTED_EDGE('',*,*,#1173,.T.);
#1229 = FACE_BOUND('',#1230,.F.);
#1230 = EDGE_LOOP('',(#1231));
#1231 = ORIENTED_EDGE('',*,*,#877,.F.);
#1232 = FACE_BOUND('',#1233,.F.);
#1233 = EDGE_LOOP('',(#1234));
#1234 = ORIENTED_EDGE('',*,*,#1235,.F.);
#1235 = EDGE_CURVE('',#1236,#1236,#1238,.T.);
#1236 = VERTEX_POINT('',#1237);
#1237 = CARTESIAN_POINT('',(1.275,0.,-2.));
#1238 = CIRCLE('',#1239,1.275);
#1239 = AXIS2_PLACEMENT_3D('',#1240,#1241,#1242);
#1240 = CARTESIAN_POINT('',(0.,0.,-2.));
#1241 = DIRECTION('',(0.,0.,1.));
#1242 = DIRECTION('',(1.,0.,0.));
#1243 = FACE_BOUND('',#1244,.F.);
#1244 = EDGE_LOOP('',(#1245));
#1245 = ORIENTED_EDGE('',*,*,#1246,.F.);
#1246 = EDGE_CURVE('',#1247,#1247,#1249,.T.);
#1247 = VERTEX_POINT('',#1248);
#1248 = CARTESIAN_POINT('',(89.275,0.,-2.));
#1249 = CIRCLE('',#1250,1.275);
#1250 = AXIS2_PLACEMENT_3D('',#1251,#1252,#1253);
#1251 = CARTESIAN_POINT('',(88.,0.,-2.));
#1252 = DIRECTION('',(0.,0.,1.));
#1253 = DIRECTION('',(1.,0.,0.));
#1254 = FACE_BOUND('',#1255,.F.);
#1255 = EDGE_LOOP('',(#1256));
#1256 = ORIENTED_EDGE('',*,*,#1257,.F.);
#1257 = EDGE_CURVE('',#1258,#1258,#1260,.T.);
#1258 = VERTEX_POINT('',#1259);
#1259 = CARTESIAN_POINT('',(1.275,65.,-2.));
#1260 = CIRCLE('',#1261,1.275);
#1261 = AXIS2_PLACEMENT_3D('',#1262,#1263,#1264);
#1262 = CARTESIAN_POINT('',(0.,65.,-2.));
#1263 = DIRECTION('',(0.,0.,1.));
#1264 = DIRECTION('',(1.,0.,0.));
#1265 = FACE_BOUND('',#1266,.F.);
#1266 = EDGE_LOOP('',(#1267,#1268,#1269,#1270));
#1267 = ORIENTED_EDGE('',*,*,#902,.F.);
#1268 = ORIENTED_EDGE('',*,*,#933,.F.);
#1269 = ORIENTED_EDGE('',*,*,#974,.F.);
#1270 = ORIENTED_EDGE('',*,*,#950,.F.);
#1271 = FACE_BOUND('',#1272,.F.);
#1272 = EDGE_LOOP('',(#1273));
#1273 = ORIENTED_EDGE('',*,*,#1274,.F.);
#1274 = EDGE_CURVE('',#1275,#1275,#1277,.T.);
#1275 = VERTEX_POINT('',#1276);
#1276 = CARTESIAN_POINT('',(89.275,65.,-2.));
#1277 = CIRCLE('',#1278,1.275);
#1278 = AXIS2_PLACEMENT_3D('',#1279,#1280,#1281);
#1279 = CARTESIAN_POINT('',(88.,65.,-2.));
#1280 = DIRECTION('',(0.,0.,1.));
#1281 = DIRECTION('',(1.,0.,0.));
#1282 = PLANE('',#1283);
#1283 = AXIS2_PLACEMENT_3D('',#1284,#1285,#1286);
#1284 = CARTESIAN_POINT('',(42.860784240986,23.085412296189,-2.));
#1285 = DIRECTION('',(0.,0.,1.));
#1286 = DIRECTION('',(1.,0.,0.));
#1287 = ADVANCED_FACE('',(#1288),#1307,.T.);
#1288 = FACE_BOUND('',#1289,.T.);
#1289 = EDGE_LOOP('',(#1290,#1298,#1304,#1305,#1306));
#1290 = ORIENTED_EDGE('',*,*,#1291,.F.);
#1291 = EDGE_CURVE('',#1292,#559,#1294,.T.);
#1292 = VERTEX_POINT('',#1293);
#1293 = CARTESIAN_POINT('',(-6.49000000003,-35.,25.));
#1294 = LINE('',#1295,#1296);
#1295 = CARTESIAN_POINT('',(-6.49000000003,-35.,25.));
#1296 = VECTOR('',#1297,1.);
#1297 = DIRECTION('',(0.995133307998,2.522375557213E-16,
    -9.853780651529E-02));
#1298 = ORIENTED_EDGE('',*,*,#1299,.F.);
#1299 = EDGE_CURVE('',#428,#1292,#1300,.T.);
#1300 = LINE('',#1301,#1302);
#1301 = CARTESIAN_POINT('',(-6.5,-35.,25.));
#1302 = VECTOR('',#1303,1.);
#1303 = DIRECTION('',(1.,0.,0.));
#1304 = ORIENTED_EDGE('',*,*,#427,.T.);
#1305 = ORIENTED_EDGE('',*,*,#1222,.T.);
#1306 = ORIENTED_EDGE('',*,*,#566,.F.);
#1307 = PLANE('',#1308);
#1308 = AXIS2_PLACEMENT_3D('',#1309,#1310,#1311);
#1309 = CARTESIAN_POINT('',(42.517625493587,-35.,14.102916715098));
#1310 = DIRECTION('',(-0.,-1.,-4.827427740263E-15));
#1311 = DIRECTION('',(0.,4.827427740263E-15,-1.));
#1312 = ADVANCED_FACE('',(#1313),#1324,.T.);
#1313 = FACE_BOUND('',#1314,.T.);
#1314 = EDGE_LOOP('',(#1315,#1316,#1322,#1323));
#1315 = ORIENTED_EDGE('',*,*,#1299,.T.);
#1316 = ORIENTED_EDGE('',*,*,#1317,.T.);
#1317 = EDGE_CURVE('',#1292,#461,#1318,.T.);
#1318 = LINE('',#1319,#1320);
#1319 = CARTESIAN_POINT('',(-6.49000000003,-35.,25.));
#1320 = VECTOR('',#1321,1.);
#1321 = DIRECTION('',(0.,1.,0.));
#1322 = ORIENTED_EDGE('',*,*,#476,.T.);
#1323 = ORIENTED_EDGE('',*,*,#435,.T.);
#1324 = PLANE('',#1325);
#1325 = AXIS2_PLACEMENT_3D('',#1326,#1327,#1328);
#1326 = CARTESIAN_POINT('',(43.999999999985,-31.,25.));
#1327 = DIRECTION('',(0.,0.,1.));
#1328 = DIRECTION('',(1.,0.,0.));
#1329 = ADVANCED_FACE('',(#1330),#1355,.T.);
#1330 = FACE_BOUND('',#1331,.F.);
#1331 = EDGE_LOOP('',(#1332,#1340,#1348,#1354));
#1332 = ORIENTED_EDGE('',*,*,#1333,.F.);
#1333 = EDGE_CURVE('',#1334,#459,#1336,.T.);
#1334 = VERTEX_POINT('',#1335);
#1335 = CARTESIAN_POINT('',(95.485378065132,-30.99,24.951333079981));
#1336 = LINE('',#1337,#1338);
#1337 = CARTESIAN_POINT('',(94.882012393709,-28.54684735218,
    18.85794316428));
#1338 = VECTOR('',#1339,1.);
#1339 = DIRECTION('',(-9.152158166706E-02,0.370589851515,-0.924276453256
    ));
#1340 = ORIENTED_EDGE('',*,*,#1341,.T.);
#1341 = EDGE_CURVE('',#1334,#1342,#1344,.T.);
#1342 = VERTEX_POINT('',#1343);
#1343 = CARTESIAN_POINT('',(-5.504621934877,-30.99,34.951333079981));
#1344 = LINE('',#1345,#1346);
#1345 = CARTESIAN_POINT('',(95.485378065132,-30.99,24.951333079981));
#1346 = VECTOR('',#1347,1.);
#1347 = DIRECTION('',(-0.995133307998,-2.522375557213E-16,
    9.853780651529E-02));
#1348 = ORIENTED_EDGE('',*,*,#1349,.T.);
#1349 = EDGE_CURVE('',#1342,#461,#1350,.T.);
#1350 = LINE('',#1351,#1352);
#1351 = CARTESIAN_POINT('',(-6.243655483742,-27.9975,27.487833269995));
#1352 = VECTOR('',#1353,1.);
#1353 = DIRECTION('',(-9.152158166706E-02,0.370589851515,-0.924276453256
    ));
#1354 = ORIENTED_EDGE('',*,*,#458,.F.);
#1355 = PLANE('',#1356);
#1356 = AXIS2_PLACEMENT_3D('',#1357,#1358,#1359);
#1357 = CARTESIAN_POINT('',(94.992689032556,-28.995,19.97566653999));
#1358 = DIRECTION('',(3.651711108516E-02,0.928796620339,0.368786304849)
  );
#1359 = DIRECTION('',(0.995133307998,3.053113317719E-16,
    -9.853780651529E-02));
#1360 = ADVANCED_FACE('',(#1361),#1382,.T.);
#1361 = FACE_BOUND('',#1362,.F.);
#1362 = EDGE_LOOP('',(#1363,#1371,#1378,#1379,#1380,#1381));
#1363 = ORIENTED_EDGE('',*,*,#1364,.T.);
#1364 = EDGE_CURVE('',#500,#1365,#1367,.T.);
#1365 = VERTEX_POINT('',#1366);
#1366 = CARTESIAN_POINT('',(2.775,65.,7.6));
#1367 = LINE('',#1368,#1369);
#1368 = CARTESIAN_POINT('',(2.775,65.,0.));
#1369 = VECTOR('',#1370,1.);
#1370 = DIRECTION('',(0.,0.,1.));
#1371 = ORIENTED_EDGE('',*,*,#1372,.T.);
#1372 = EDGE_CURVE('',#1365,#1365,#1373,.T.);
#1373 = CIRCLE('',#1374,2.775);
#1374 = AXIS2_PLACEMENT_3D('',#1375,#1376,#1377);
#1375 = CARTESIAN_POINT('',(0.,65.,7.6));
#1376 = DIRECTION('',(0.,0.,1.));
#1377 = DIRECTION('',(1.,0.,0.));
#1378 = ORIENTED_EDGE('',*,*,#1364,.F.);
#1379 = ORIENTED_EDGE('',*,*,#508,.F.);
#1380 = ORIENTED_EDGE('',*,*,#1064,.F.);
#1381 = ORIENTED_EDGE('',*,*,#615,.F.);
#1382 = CYLINDRICAL_SURFACE('',#1383,2.775);
#1383 = AXIS2_PLACEMENT_3D('',#1384,#1385,#1386);
#1384 = CARTESIAN_POINT('',(0.,65.,0.));
#1385 = DIRECTION('',(-0.,-0.,-1.));
#1386 = DIRECTION('',(1.,0.,0.));
#1387 = ADVANCED_FACE('',(#1388),#1406,.F.);
#1388 = FACE_BOUND('',#1389,.F.);
#1389 = EDGE_LOOP('',(#1390,#1398,#1399,#1400));
#1390 = ORIENTED_EDGE('',*,*,#1391,.T.);
#1391 = EDGE_CURVE('',#1392,#1334,#1394,.T.);
#1392 = VERTEX_POINT('',#1393);
#1393 = CARTESIAN_POINT('',(95.485378065132,-31.01,24.951333079981));
#1394 = LINE('',#1395,#1396);
#1395 = CARTESIAN_POINT('',(95.485378065132,-35.,24.951333079981));
#1396 = VECTOR('',#1397,1.);
#1397 = DIRECTION('',(2.522375557213E-16,1.,5.107151932283E-15));
#1398 = ORIENTED_EDGE('',*,*,#1333,.T.);
#1399 = ORIENTED_EDGE('',*,*,#558,.F.);
#1400 = ORIENTED_EDGE('',*,*,#1401,.F.);
#1401 = EDGE_CURVE('',#1392,#559,#1402,.T.);
#1402 = LINE('',#1403,#1404);
#1403 = CARTESIAN_POINT('',(94.746344516267,-34.0025,17.487833269995));
#1404 = VECTOR('',#1405,1.);
#1405 = DIRECTION('',(-9.152158166706E-02,-0.370589851515,
    -0.924276453256));
#1406 = PLANE('',#1407);
#1407 = AXIS2_PLACEMENT_3D('',#1408,#1409,#1410);
#1408 = CARTESIAN_POINT('',(94.499999999979,-35.,15.));
#1409 = DIRECTION('',(-0.995133307998,-2.522375557213E-16,
    9.853780651529E-02));
#1410 = DIRECTION('',(2.522375557213E-16,1.,5.107151932283E-15));
#1411 = ADVANCED_FACE('',(#1412),#1423,.T.);
#1412 = FACE_BOUND('',#1413,.F.);
#1413 = EDGE_LOOP('',(#1414,#1415,#1421,#1422));
#1414 = ORIENTED_EDGE('',*,*,#656,.T.);
#1415 = ORIENTED_EDGE('',*,*,#1416,.T.);
#1416 = EDGE_CURVE('',#657,#534,#1417,.T.);
#1417 = LINE('',#1418,#1419);
#1418 = CARTESIAN_POINT('',(92.5,-10.01,10.));
#1419 = VECTOR('',#1420,1.);
#1420 = DIRECTION('',(1.,0.,0.));
#1421 = ORIENTED_EDGE('',*,*,#541,.F.);
#1422 = ORIENTED_EDGE('',*,*,#638,.F.);
#1423 = CYLINDRICAL_SURFACE('',#1424,9.99);
#1424 = AXIS2_PLACEMENT_3D('',#1425,#1426,#1427);
#1425 = CARTESIAN_POINT('',(92.5,-10.01,1.E-02));
#1426 = DIRECTION('',(1.,0.,0.));
#1427 = DIRECTION('',(0.,-1.,0.));
#1428 = ADVANCED_FACE('',(#1429),#1435,.T.);
#1429 = FACE_BOUND('',#1430,.T.);
#1430 = EDGE_LOOP('',(#1431,#1432,#1433,#1434));
#1431 = ORIENTED_EDGE('',*,*,#740,.F.);
#1432 = ORIENTED_EDGE('',*,*,#665,.F.);
#1433 = ORIENTED_EDGE('',*,*,#1416,.T.);
#1434 = ORIENTED_EDGE('',*,*,#533,.F.);
#1435 = PLANE('',#1436);
#1436 = AXIS2_PLACEMENT_3D('',#1437,#1438,#1439);
#1437 = CARTESIAN_POINT('',(44.,41.946678321685,10.));
#1438 = DIRECTION('',(0.,0.,1.));
#1439 = DIRECTION('',(1.,0.,0.));
#1440 = ADVANCED_FACE('',(#1441),#1464,.T.);
#1441 = FACE_BOUND('',#1442,.T.);
#1442 = EDGE_LOOP('',(#1443,#1444,#1445,#1453));
#1443 = ORIENTED_EDGE('',*,*,#811,.F.);
#1444 = ORIENTED_EDGE('',*,*,#718,.T.);
#1445 = ORIENTED_EDGE('',*,*,#1446,.T.);
#1446 = EDGE_CURVE('',#706,#1447,#1449,.T.);
#1447 = VERTEX_POINT('',#1448);
#1448 = CARTESIAN_POINT('',(90.775,-6.796789735268E-16,2.715580048535));
#1449 = ( BOUNDED_CURVE() B_SPLINE_CURVE(2,(#1450,#1451,#1452),
.UNSPECIFIED.,.F.,.F.) B_SPLINE_CURVE_WITH_KNOTS((3,3),(0.,
1.879714918102),.PIECEWISE_BEZIER_KNOTS.) CURVE() 
GEOMETRIC_REPRESENTATION_ITEM() RATIONAL_B_SPLINE_CURVE((1.,
0.844097150807,1.)) REPRESENTATION_ITEM('') );
#1450 = CARTESIAN_POINT('',(92.5,-6.775024985473E-12,0.));
#1451 = CARTESIAN_POINT('',(90.775,-1.110223024625E-15,0.809909839037));
#1452 = CARTESIAN_POINT('',(90.775,-6.796789735268E-16,2.715580048535));
#1453 = ORIENTED_EDGE('',*,*,#1454,.F.);
#1454 = EDGE_CURVE('',#812,#1447,#1455,.T.);
#1455 = ( BOUNDED_CURVE() B_SPLINE_CURVE(7,(#1456,#1457,#1458,#1459,
    #1460,#1461,#1462,#1463),.UNSPECIFIED.,.F.,.F.) 
B_SPLINE_CURVE_WITH_KNOTS((8,8),(15.556124309321,17.435839227423),
.PIECEWISE_BEZIER_KNOTS.) CURVE() GEOMETRIC_REPRESENTATION_ITEM() 
RATIONAL_B_SPLINE_CURVE((1.,1.,1.,1.,1.,1.,1.,1.)) REPRESENTATION_ITEM(
  '') );
#1456 = CARTESIAN_POINT('',(90.162337662338,-1.739229954329,3.));
#1457 = CARTESIAN_POINT('',(90.33063914978,-1.529985257262,
    2.999999999999));
#1458 = CARTESIAN_POINT('',(90.475317803959,-1.301740005787,
    2.922002834653));
#1459 = CARTESIAN_POINT('',(90.593799520234,-1.057694578354,
    2.852219826537));
#1460 = CARTESIAN_POINT('',(90.68405207039,-0.801485048062,
    2.783653620801));
#1461 = CARTESIAN_POINT('',(90.744684006389,-0.53706140942,2.73895953415
    ));
#1462 = CARTESIAN_POINT('',(90.775,-0.268530705574,2.715580048535));
#1463 = CARTESIAN_POINT('',(90.775,-6.796789735268E-16,2.715580048535));
#1464 = ( BOUNDED_SURFACE() B_SPLINE_SURFACE(2,7,(
    (#1465,#1466,#1467,#1468,#1469,#1470,#1471,#1472)
    ,(#1473,#1474,#1475,#1476,#1477,#1478,#1479,#1480)
    ,(#1481,#1482,#1483,#1484,#1485,#1486,#1487,#1488
)),.UNSPECIFIED.,.F.,.F.,.F.) B_SPLINE_SURFACE_WITH_KNOTS((3,3),(8,8),(
    0.,1.879714918102),(15.556124309321,17.435839227423),
.PIECEWISE_BEZIER_KNOTS.) GEOMETRIC_REPRESENTATION_ITEM() 
RATIONAL_B_SPLINE_SURFACE((
    (1.,1.,1.,1.,1.,1.,1.,1.)
    ,(0.707106781187,0.760079246092,0.791444144348,0.814559113672
      ,0.829379099092,0.839283873788,0.844097150807,0.844097150807)
,(1.,1.,1.,1.,1.,1.,1.,1.))) REPRESENTATION_ITEM('') SURFACE() );
#1465 = CARTESIAN_POINT('',(90.162337662338,-1.739229954329,3.));
#1466 = CARTESIAN_POINT('',(90.33063914978,-1.529985257262,
    2.999999999999));
#1467 = CARTESIAN_POINT('',(90.475317803959,-1.301740005787,
    2.922002834653));
#1468 = CARTESIAN_POINT('',(90.593799520234,-1.057694578354,
    2.852219826537));
#1469 = CARTESIAN_POINT('',(90.68405207039,-0.801485048062,
    2.783653620801));
#1470 = CARTESIAN_POINT('',(90.744684006389,-0.53706140942,2.73895953415
    ));
#1471 = CARTESIAN_POINT('',(90.775,-0.268530705574,2.715580048535));
#1472 = CARTESIAN_POINT('',(90.775,-6.796789735268E-16,2.715580048535));
#1473 = CARTESIAN_POINT('',(90.162337662338,-1.739229954329,
    5.714095863141E-12));
#1474 = CARTESIAN_POINT('',(90.3189096562,-1.544568220064,0.418160068264
    ));
#1475 = CARTESIAN_POINT('',(90.468139784647,-1.315759276092,
    0.603948094535));
#1476 = CARTESIAN_POINT('',(90.588811681907,-1.070135439431,
    0.709074092204));
#1477 = CARTESIAN_POINT('',(90.682776912786,-0.808629342654,
    0.763511309906));
#1478 = CARTESIAN_POINT('',(90.744425264362,-0.540262132576,
    0.794915335529));
#1479 = CARTESIAN_POINT('',(90.775,-0.268530705574,0.809909839036));
#1480 = CARTESIAN_POINT('',(90.775,-1.110223024625E-15,0.809909839037));
#1481 = CARTESIAN_POINT('',(92.5,-3.619478553595,0.));
#1482 = CARTESIAN_POINT('',(92.5,-2.902308063516,2.22044604925E-16));
#1483 = CARTESIAN_POINT('',(92.5,-2.31529624297,-2.6645352591E-15));
#1484 = CARTESIAN_POINT('',(92.5,-1.794628210441,3.330669073875E-15));
#1485 = CARTESIAN_POINT('',(92.5,-1.319911309921,-3.996802888651E-15));
#1486 = CARTESIAN_POINT('',(92.5,-0.870854657114,2.442490654175E-15));
#1487 = CARTESIAN_POINT('',(92.5,-0.435455184552,2.22044604925E-16));
#1488 = CARTESIAN_POINT('',(92.5,-6.775024985473E-12,0.));
#1489 = ADVANCED_FACE('',(#1490),#1506,.T.);
#1490 = FACE_BOUND('',#1491,.T.);
#1491 = EDGE_LOOP('',(#1492,#1493,#1494,#1495));
#1492 = ORIENTED_EDGE('',*,*,#1446,.F.);
#1493 = ORIENTED_EDGE('',*,*,#705,.T.);
#1494 = ORIENTED_EDGE('',*,*,#801,.T.);
#1495 = ORIENTED_EDGE('',*,*,#1496,.F.);
#1496 = EDGE_CURVE('',#1447,#802,#1497,.T.);
#1497 = ( BOUNDED_CURVE() B_SPLINE_CURVE(7,(#1498,#1499,#1500,#1501,
    #1502,#1503,#1504,#1505),.UNSPECIFIED.,.F.,.F.) 
B_SPLINE_CURVE_WITH_KNOTS((8,8),(17.435839227423,19.315554145522),
.PIECEWISE_BEZIER_KNOTS.) CURVE() GEOMETRIC_REPRESENTATION_ITEM() 
RATIONAL_B_SPLINE_CURVE((1.,1.,1.,1.,1.,1.,1.,1.)) REPRESENTATION_ITEM(
  '') );
#1498 = CARTESIAN_POINT('',(90.775,0.,2.715580048535));
#1499 = CARTESIAN_POINT('',(90.775,0.268530705574,2.715580048534));
#1500 = CARTESIAN_POINT('',(90.74468400639,0.537061409418,2.738959534153
    ));
#1501 = CARTESIAN_POINT('',(90.684052070389,0.801485048062,
    2.783653620795));
#1502 = CARTESIAN_POINT('',(90.593799520237,1.057694578349,
    2.852219826543));
#1503 = CARTESIAN_POINT('',(90.475317803959,1.301740005787,
    2.922002834648));
#1504 = CARTESIAN_POINT('',(90.330639149782,1.529985257259,3.));
#1505 = CARTESIAN_POINT('',(90.16233766234,1.739229954327,3.));
#1506 = ( BOUNDED_SURFACE() B_SPLINE_SURFACE(2,7,(
    (#1507,#1508,#1509,#1510,#1511,#1512,#1513,#1514)
    ,(#1515,#1516,#1517,#1518,#1519,#1520,#1521,#1522)
    ,(#1523,#1524,#1525,#1526,#1527,#1528,#1529,#1530
)),.UNSPECIFIED.,.F.,.F.,.F.) B_SPLINE_SURFACE_WITH_KNOTS((3,3),(8,8),(
    0.,1.879714918099),(17.435839227423,19.315554145522),
.PIECEWISE_BEZIER_KNOTS.) GEOMETRIC_REPRESENTATION_ITEM() 
RATIONAL_B_SPLINE_SURFACE((
    (1.,1.,1.,1.,1.,1.,1.,1.)
    ,(0.844097150807,0.844097150807,0.839283873791,0.82937909908
      ,0.814559113691,0.791444144331,0.7600792461,0.707106781187)
,(1.,1.,1.,1.,1.,1.,1.,1.))) REPRESENTATION_ITEM('') SURFACE() );
#1507 = CARTESIAN_POINT('',(90.775,0.,2.715580048535));
#1508 = CARTESIAN_POINT('',(90.775,0.268530705574,2.715580048534));
#1509 = CARTESIAN_POINT('',(90.74468400639,0.537061409418,2.738959534153
    ));
#1510 = CARTESIAN_POINT('',(90.684052070389,0.801485048062,
    2.783653620795));
#1511 = CARTESIAN_POINT('',(90.593799520237,1.057694578349,
    2.852219826543));
#1512 = CARTESIAN_POINT('',(90.475317803959,1.301740005787,
    2.922002834648));
#1513 = CARTESIAN_POINT('',(90.330639149782,1.529985257259,3.));
#1514 = CARTESIAN_POINT('',(90.16233766234,1.739229954327,3.));
#1515 = CARTESIAN_POINT('',(90.775,-6.661338147751E-16,0.809909839037));
#1516 = CARTESIAN_POINT('',(90.775,0.268530705574,0.809909839037));
#1517 = CARTESIAN_POINT('',(90.74442526436,0.54026213258,0.794915335549)
  );
#1518 = CARTESIAN_POINT('',(90.682776912793,0.80862934264,0.763511309831
    ));
#1519 = CARTESIAN_POINT('',(90.588811681899,1.070135439443,
    0.709074092328));
#1520 = CARTESIAN_POINT('',(90.468139784654,1.315759276082,
    0.603948094422));
#1521 = CARTESIAN_POINT('',(90.318909656201,1.544568220063,
    0.418160068324));
#1522 = CARTESIAN_POINT('',(90.16233766234,1.739229954327,
    1.110223024625E-15));
#1523 = CARTESIAN_POINT('',(92.5,-6.775024985473E-12,0.));
#1524 = CARTESIAN_POINT('',(92.5,0.435455184538,2.22044604925E-15));
#1525 = CARTESIAN_POINT('',(92.5,0.870854657145,-8.215650382226E-15));
#1526 = CARTESIAN_POINT('',(92.5,1.31991130998,1.443289932013E-14));
#1527 = CARTESIAN_POINT('',(92.5,1.794628210253,-1.709743457923E-14));
#1528 = CARTESIAN_POINT('',(92.5,2.315296243163,1.24344978758E-14));
#1529 = CARTESIAN_POINT('',(92.5,2.902308063408,-3.996802888651E-15));
#1530 = CARTESIAN_POINT('',(92.5,3.619478553604,0.));
#1531 = ADVANCED_FACE('',(#1532),#1555,.T.);
#1532 = FACE_BOUND('',#1533,.T.);
#1533 = EDGE_LOOP('',(#1534,#1535,#1536,#1544));
#1534 = ORIENTED_EDGE('',*,*,#845,.F.);
#1535 = ORIENTED_EDGE('',*,*,#693,.T.);
#1536 = ORIENTED_EDGE('',*,*,#1537,.T.);
#1537 = EDGE_CURVE('',#681,#1538,#1540,.T.);
#1538 = VERTEX_POINT('',#1539);
#1539 = CARTESIAN_POINT('',(90.775,65.,2.715580048535));
#1540 = ( BOUNDED_CURVE() B_SPLINE_CURVE(2,(#1541,#1542,#1543),
.UNSPECIFIED.,.F.,.F.) B_SPLINE_CURVE_WITH_KNOTS((3,3),(0.,
1.879714918102),.PIECEWISE_BEZIER_KNOTS.) CURVE() 
GEOMETRIC_REPRESENTATION_ITEM() RATIONAL_B_SPLINE_CURVE((1.,
0.844097150807,1.)) REPRESENTATION_ITEM('') );
#1541 = CARTESIAN_POINT('',(92.5,65.000000000001,0.));
#1542 = CARTESIAN_POINT('',(90.775,65.,0.809909839037));
#1543 = CARTESIAN_POINT('',(90.775,65.,2.715580048535));
#1544 = ORIENTED_EDGE('',*,*,#1545,.F.);
#1545 = EDGE_CURVE('',#846,#1538,#1546,.T.);
#1546 = ( BOUNDED_CURVE() B_SPLINE_CURVE(7,(#1547,#1548,#1549,#1550,
    #1551,#1552,#1553,#1554),.UNSPECIFIED.,.F.,.F.) 
B_SPLINE_CURVE_WITH_KNOTS((8,8),(15.556124309321,17.435839227423),
.PIECEWISE_BEZIER_KNOTS.) CURVE() GEOMETRIC_REPRESENTATION_ITEM() 
RATIONAL_B_SPLINE_CURVE((1.,1.,1.,1.,1.,1.,1.,1.)) REPRESENTATION_ITEM(
  '') );
#1547 = CARTESIAN_POINT('',(90.162337662338,63.260770045671,3.));
#1548 = CARTESIAN_POINT('',(90.33063914978,63.470014742738,3.));
#1549 = CARTESIAN_POINT('',(90.475317803959,63.698259994213,
    2.922002834651));
#1550 = CARTESIAN_POINT('',(90.593799520235,63.942305421645,
    2.85221982654));
#1551 = CARTESIAN_POINT('',(90.68405207039,64.19851495194,2.783653620798
    ));
#1552 = CARTESIAN_POINT('',(90.744684006389,64.462938590578,
    2.738959534152));
#1553 = CARTESIAN_POINT('',(90.775,64.731469294426,2.715580048535));
#1554 = CARTESIAN_POINT('',(90.775,65.,2.715580048535));
#1555 = ( BOUNDED_SURFACE() B_SPLINE_SURFACE(2,7,(
    (#1556,#1557,#1558,#1559,#1560,#1561,#1562,#1563)
    ,(#1564,#1565,#1566,#1567,#1568,#1569,#1570,#1571)
    ,(#1572,#1573,#1574,#1575,#1576,#1577,#1578,#1579
)),.UNSPECIFIED.,.F.,.F.,.F.) B_SPLINE_SURFACE_WITH_KNOTS((3,3),(8,8),(
    0.,1.879714918102),(15.556124309321,17.435839227423),
.PIECEWISE_BEZIER_KNOTS.) GEOMETRIC_REPRESENTATION_ITEM() 
RATIONAL_B_SPLINE_SURFACE((
    (1.,1.,1.,1.,1.,1.,1.,1.)
    ,(0.707106781187,0.760079246094,0.791444144343,0.814559113677
      ,0.829379099089,0.839283873788,0.844097150807,0.844097150807)
,(1.,1.,1.,1.,1.,1.,1.,1.))) REPRESENTATION_ITEM('') SURFACE() );
#1556 = CARTESIAN_POINT('',(90.162337662338,63.260770045671,3.));
#1557 = CARTESIAN_POINT('',(90.33063914978,63.470014742738,3.));
#1558 = CARTESIAN_POINT('',(90.475317803959,63.698259994213,
    2.922002834651));
#1559 = CARTESIAN_POINT('',(90.593799520235,63.942305421645,
    2.85221982654));
#1560 = CARTESIAN_POINT('',(90.68405207039,64.19851495194,2.783653620798
    ));
#1561 = CARTESIAN_POINT('',(90.744684006389,64.462938590578,
    2.738959534152));
#1562 = CARTESIAN_POINT('',(90.775,64.731469294426,2.715580048535));
#1563 = CARTESIAN_POINT('',(90.775,65.,2.715580048535));
#1564 = CARTESIAN_POINT('',(90.162337662338,63.260770045671,
    1.744160371686E-12));
#1565 = CARTESIAN_POINT('',(90.3189096562,63.455431779936,0.418160068281
    ));
#1566 = CARTESIAN_POINT('',(90.468139784649,63.684240723911,
    0.603948094504));
#1567 = CARTESIAN_POINT('',(90.588811681904,63.929864560563,
    0.709074092236));
#1568 = CARTESIAN_POINT('',(90.682776912788,64.191370657352,
    0.763511309887));
#1569 = CARTESIAN_POINT('',(90.744425264361,64.459737867421,
    0.794915335533));
#1570 = CARTESIAN_POINT('',(90.775,64.731469294426,0.809909839037));
#1571 = CARTESIAN_POINT('',(90.775,65.,0.809909839037));
#1572 = CARTESIAN_POINT('',(92.5,61.380521446399,0.));
#1573 = CARTESIAN_POINT('',(92.5,62.097691936513,-8.881784197001E-16));
#1574 = CARTESIAN_POINT('',(92.5,62.68470375697,4.662936703426E-15));
#1575 = CARTESIAN_POINT('',(92.5,63.20537178963,-1.265654248073E-14));
#1576 = CARTESIAN_POINT('',(92.5,63.680088690026,1.620925615953E-14));
#1577 = CARTESIAN_POINT('',(92.5,64.129145342912,-1.043609643148E-14));
#1578 = CARTESIAN_POINT('',(92.5,64.564544815427,3.996802888651E-15));
#1579 = CARTESIAN_POINT('',(92.5,65.000000000001,0.));
#1580 = ADVANCED_FACE('',(#1581),#1597,.T.);
#1581 = FACE_BOUND('',#1582,.T.);
#1582 = EDGE_LOOP('',(#1583,#1584,#1585,#1586));
#1583 = ORIENTED_EDGE('',*,*,#1537,.F.);
#1584 = ORIENTED_EDGE('',*,*,#680,.T.);
#1585 = ORIENTED_EDGE('',*,*,#835,.T.);
#1586 = ORIENTED_EDGE('',*,*,#1587,.F.);
#1587 = EDGE_CURVE('',#1538,#836,#1588,.T.);
#1588 = ( BOUNDED_CURVE() B_SPLINE_CURVE(7,(#1589,#1590,#1591,#1592,
    #1593,#1594,#1595,#1596),.UNSPECIFIED.,.F.,.F.) 
B_SPLINE_CURVE_WITH_KNOTS((8,8),(17.435839227423,19.315554145532),
.PIECEWISE_BEZIER_KNOTS.) CURVE() GEOMETRIC_REPRESENTATION_ITEM() 
RATIONAL_B_SPLINE_CURVE((1.,1.,1.,1.,1.,1.,1.,1.)) REPRESENTATION_ITEM(
  '') );
#1589 = CARTESIAN_POINT('',(90.775,65.,2.715580048535));
#1590 = CARTESIAN_POINT('',(90.775,65.268530705575,2.715580048535));
#1591 = CARTESIAN_POINT('',(90.744684006389,65.537061409418,
    2.738959534152));
#1592 = CARTESIAN_POINT('',(90.684052070389,65.801485048063,
    2.783653620796));
#1593 = CARTESIAN_POINT('',(90.593799520236,66.057694578351,
    2.852219826542));
#1594 = CARTESIAN_POINT('',(90.475317803959,66.301740005787,
    2.922002834649));
#1595 = CARTESIAN_POINT('',(90.330639149781,66.529985257261,3.));
#1596 = CARTESIAN_POINT('',(90.162337662338,66.739229954328,3.));
#1597 = ( BOUNDED_SURFACE() B_SPLINE_SURFACE(2,7,(
    (#1598,#1599,#1600,#1601,#1602,#1603,#1604,#1605)
    ,(#1606,#1607,#1608,#1609,#1610,#1611,#1612,#1613)
    ,(#1614,#1615,#1616,#1617,#1618,#1619,#1620,#1621
)),.UNSPECIFIED.,.F.,.F.,.F.) B_SPLINE_SURFACE_WITH_KNOTS((3,3),(8,8),(
    0.,1.879714918109),(17.435839227423,19.315554145532),
.PIECEWISE_BEZIER_KNOTS.) GEOMETRIC_REPRESENTATION_ITEM() 
RATIONAL_B_SPLINE_SURFACE((
    (1.,1.,1.,1.,1.,1.,1.,1.)
    ,(0.844097150807,0.844097150807,0.839283873789,0.829379099086
      ,0.814559113681,0.791444144339,0.760079246097,0.707106781187)
,(1.,1.,1.,1.,1.,1.,1.,1.))) REPRESENTATION_ITEM('') SURFACE() );
#1598 = CARTESIAN_POINT('',(90.775,65.,2.715580048535));
#1599 = CARTESIAN_POINT('',(90.775,65.268530705575,2.715580048535));
#1600 = CARTESIAN_POINT('',(90.744684006389,65.537061409418,
    2.738959534152));
#1601 = CARTESIAN_POINT('',(90.684052070389,65.801485048063,
    2.783653620796));
#1602 = CARTESIAN_POINT('',(90.593799520236,66.057694578351,
    2.852219826542));
#1603 = CARTESIAN_POINT('',(90.475317803959,66.301740005787,
    2.922002834649));
#1604 = CARTESIAN_POINT('',(90.330639149781,66.529985257261,3.));
#1605 = CARTESIAN_POINT('',(90.162337662338,66.739229954328,3.));
#1606 = CARTESIAN_POINT('',(90.775,65.,0.809909839037));
#1607 = CARTESIAN_POINT('',(90.775,65.268530705575,0.809909839037));
#1608 = CARTESIAN_POINT('',(90.744425264361,65.540262132577,
    0.794915335539));
#1609 = CARTESIAN_POINT('',(90.68277691279,65.808629342648,
    0.763511309868));
#1610 = CARTESIAN_POINT('',(90.588811681902,66.070135439437,
    0.709074092269));
#1611 = CARTESIAN_POINT('',(90.468139784651,66.315759276087,
    0.603948094473));
#1612 = CARTESIAN_POINT('',(90.3189096562,66.544568220064,0.418160068298
    ));
#1613 = CARTESIAN_POINT('',(90.162337662338,66.739229954328,
    1.909583602355E-14));
#1614 = CARTESIAN_POINT('',(92.5,65.000000000001,0.));
#1615 = CARTESIAN_POINT('',(92.5,65.435455184577,4.662936703426E-15));
#1616 = CARTESIAN_POINT('',(92.5,65.870854657059,-1.398881011028E-14));
#1617 = CARTESIAN_POINT('',(92.5,66.319911310031,2.22044604925E-14));
#1618 = CARTESIAN_POINT('',(92.5,66.794628210293,-2.04281036531E-14));
#1619 = CARTESIAN_POINT('',(92.5,67.31529624309,1.06581410364E-14));
#1620 = CARTESIAN_POINT('',(92.5,67.902308063455,-2.886579864025E-15));
#1621 = CARTESIAN_POINT('',(92.5,68.619478553604,0.));
#1622 = ADVANCED_FACE('',(#1623),#1634,.F.);
#1623 = FACE_BOUND('',#1624,.F.);
#1624 = EDGE_LOOP('',(#1625,#1631,#1632,#1633));
#1625 = ORIENTED_EDGE('',*,*,#1626,.F.);
#1626 = EDGE_CURVE('',#1183,#763,#1627,.T.);
#1627 = LINE('',#1628,#1629);
#1628 = CARTESIAN_POINT('',(-2.775,73.5,49.455935692579));
#1629 = VECTOR('',#1630,1.);
#1630 = DIRECTION('',(0.,-1.,2.22044604925E-16));
#1631 = ORIENTED_EDGE('',*,*,#1182,.F.);
#1632 = ORIENTED_EDGE('',*,*,#1626,.T.);
#1633 = ORIENTED_EDGE('',*,*,#762,.T.);
#1634 = CYLINDRICAL_SURFACE('',#1635,1.275);
#1635 = AXIS2_PLACEMENT_3D('',#1636,#1637,#1638);
#1636 = CARTESIAN_POINT('',(-1.5,73.5,49.455935692579));
#1637 = DIRECTION('',(0.,1.,-2.22044604925E-16));
#1638 = DIRECTION('',(-1.,0.,0.));
#1639 = ADVANCED_FACE('',(#1640),#1651,.F.);
#1640 = FACE_BOUND('',#1641,.F.);
#1641 = EDGE_LOOP('',(#1642,#1648,#1649,#1650));
#1642 = ORIENTED_EDGE('',*,*,#1643,.F.);
#1643 = EDGE_CURVE('',#1194,#774,#1644,.T.);
#1644 = LINE('',#1645,#1646);
#1645 = CARTESIAN_POINT('',(42.725,73.5,44.95098519753));
#1646 = VECTOR('',#1647,1.);
#1647 = DIRECTION('',(0.,-1.,2.22044604925E-16));
#1648 = ORIENTED_EDGE('',*,*,#1193,.F.);
#1649 = ORIENTED_EDGE('',*,*,#1643,.T.);
#1650 = ORIENTED_EDGE('',*,*,#773,.T.);
#1651 = CYLINDRICAL_SURFACE('',#1652,1.275);
#1652 = AXIS2_PLACEMENT_3D('',#1653,#1654,#1655);
#1653 = CARTESIAN_POINT('',(44.,73.5,44.95098519753));
#1654 = DIRECTION('',(0.,1.,-2.22044604925E-16));
#1655 = DIRECTION('',(-1.,0.,0.));
#1656 = ADVANCED_FACE('',(#1657),#1668,.F.);
#1657 = FACE_BOUND('',#1658,.F.);
#1658 = EDGE_LOOP('',(#1659,#1665,#1666,#1667));
#1659 = ORIENTED_EDGE('',*,*,#1660,.F.);
#1660 = EDGE_CURVE('',#1205,#785,#1661,.T.);
#1661 = LINE('',#1662,#1663);
#1662 = CARTESIAN_POINT('',(88.225,73.5,40.44603470248));
#1663 = VECTOR('',#1664,1.);
#1664 = DIRECTION('',(0.,-1.,2.22044604925E-16));
#1665 = ORIENTED_EDGE('',*,*,#1204,.F.);
#1666 = ORIENTED_EDGE('',*,*,#1660,.T.);
#1667 = ORIENTED_EDGE('',*,*,#784,.T.);
#1668 = CYLINDRICAL_SURFACE('',#1669,1.275);
#1669 = AXIS2_PLACEMENT_3D('',#1670,#1671,#1672);
#1670 = CARTESIAN_POINT('',(89.5,73.5,40.44603470248));
#1671 = DIRECTION('',(0.,1.,-2.22044604925E-16));
#1672 = DIRECTION('',(-1.,0.,0.));
#1673 = ADVANCED_FACE('',(#1674),#1695,.T.);
#1674 = FACE_BOUND('',#1675,.F.);
#1675 = EDGE_LOOP('',(#1676,#1684,#1691,#1692,#1693,#1694));
#1676 = ORIENTED_EDGE('',*,*,#1677,.T.);
#1677 = EDGE_CURVE('',#1447,#1678,#1680,.T.);
#1678 = VERTEX_POINT('',#1679);
#1679 = CARTESIAN_POINT('',(90.775,0.,7.6));
#1680 = LINE('',#1681,#1682);
#1681 = CARTESIAN_POINT('',(90.775,0.,0.));
#1682 = VECTOR('',#1683,1.);
#1683 = DIRECTION('',(0.,0.,1.));
#1684 = ORIENTED_EDGE('',*,*,#1685,.T.);
#1685 = EDGE_CURVE('',#1678,#1678,#1686,.T.);
#1686 = CIRCLE('',#1687,2.775);
#1687 = AXIS2_PLACEMENT_3D('',#1688,#1689,#1690);
#1688 = CARTESIAN_POINT('',(88.,0.,7.6));
#1689 = DIRECTION('',(0.,0.,1.));
#1690 = DIRECTION('',(1.,0.,0.));
#1691 = ORIENTED_EDGE('',*,*,#1677,.F.);
#1692 = ORIENTED_EDGE('',*,*,#1454,.F.);
#1693 = ORIENTED_EDGE('',*,*,#820,.F.);
#1694 = ORIENTED_EDGE('',*,*,#1496,.F.);
#1695 = CYLINDRICAL_SURFACE('',#1696,2.775);
#1696 = AXIS2_PLACEMENT_3D('',#1697,#1698,#1699);
#1697 = CARTESIAN_POINT('',(88.,0.,0.));
#1698 = DIRECTION('',(-0.,-0.,-1.));
#1699 = DIRECTION('',(1.,0.,0.));
#1700 = ADVANCED_FACE('',(#1701),#1722,.T.);
#1701 = FACE_BOUND('',#1702,.F.);
#1702 = EDGE_LOOP('',(#1703,#1711,#1718,#1719,#1720,#1721));
#1703 = ORIENTED_EDGE('',*,*,#1704,.T.);
#1704 = EDGE_CURVE('',#1538,#1705,#1707,.T.);
#1705 = VERTEX_POINT('',#1706);
#1706 = CARTESIAN_POINT('',(90.775,65.,7.6));
#1707 = LINE('',#1708,#1709);
#1708 = CARTESIAN_POINT('',(90.775,65.,0.));
#1709 = VECTOR('',#1710,1.);
#1710 = DIRECTION('',(0.,0.,1.));
#1711 = ORIENTED_EDGE('',*,*,#1712,.T.);
#1712 = EDGE_CURVE('',#1705,#1705,#1713,.T.);
#1713 = CIRCLE('',#1714,2.775);
#1714 = AXIS2_PLACEMENT_3D('',#1715,#1716,#1717);
#1715 = CARTESIAN_POINT('',(88.,65.,7.6));
#1716 = DIRECTION('',(0.,0.,1.));
#1717 = DIRECTION('',(1.,0.,0.));
#1718 = ORIENTED_EDGE('',*,*,#1704,.F.);
#1719 = ORIENTED_EDGE('',*,*,#1545,.F.);
#1720 = ORIENTED_EDGE('',*,*,#854,.F.);
#1721 = ORIENTED_EDGE('',*,*,#1587,.F.);
#1722 = CYLINDRICAL_SURFACE('',#1723,2.775);
#1723 = AXIS2_PLACEMENT_3D('',#1724,#1725,#1726);
#1724 = CARTESIAN_POINT('',(88.,65.,0.));
#1725 = DIRECTION('',(-0.,-0.,-1.));
#1726 = DIRECTION('',(1.,0.,0.));
#1727 = ADVANCED_FACE('',(#1728,#1731),#1742,.T.);
#1728 = FACE_BOUND('',#1729,.T.);
#1729 = EDGE_LOOP('',(#1730));
#1730 = ORIENTED_EDGE('',*,*,#1135,.T.);
#1731 = FACE_BOUND('',#1732,.F.);
#1732 = EDGE_LOOP('',(#1733));
#1733 = ORIENTED_EDGE('',*,*,#1734,.T.);
#1734 = EDGE_CURVE('',#1735,#1735,#1737,.T.);
#1735 = VERTEX_POINT('',#1736);
#1736 = CARTESIAN_POINT('',(1.275,0.,7.6));
#1737 = CIRCLE('',#1738,1.275);
#1738 = AXIS2_PLACEMENT_3D('',#1739,#1740,#1741);
#1739 = CARTESIAN_POINT('',(0.,0.,7.6));
#1740 = DIRECTION('',(0.,0.,1.));
#1741 = DIRECTION('',(1.,0.,0.));
#1742 = PLANE('',#1743);
#1743 = AXIS2_PLACEMENT_3D('',#1744,#1745,#1746);
#1744 = CARTESIAN_POINT('',(44.,32.5,7.6));
#1745 = DIRECTION('',(0.,0.,1.));
#1746 = DIRECTION('',(1.,0.,0.));
#1747 = ADVANCED_FACE('',(#1748),#1758,.F.);
#1748 = FACE_BOUND('',#1749,.F.);
#1749 = EDGE_LOOP('',(#1750,#1751,#1756,#1757));
#1750 = ORIENTED_EDGE('',*,*,#1734,.F.);
#1751 = ORIENTED_EDGE('',*,*,#1752,.F.);
#1752 = EDGE_CURVE('',#1236,#1735,#1753,.T.);
#1753 = B_SPLINE_CURVE_WITH_KNOTS('',1,(#1754,#1755),.UNSPECIFIED.,.F.,
  .F.,(2,2),(-2.,7.6),.PIECEWISE_BEZIER_KNOTS.);
#1754 = CARTESIAN_POINT('',(1.275,-3.122849337826E-16,-2.));
#1755 = CARTESIAN_POINT('',(1.275,-3.122849337826E-16,7.6));
#1756 = ORIENTED_EDGE('',*,*,#1235,.T.);
#1757 = ORIENTED_EDGE('',*,*,#1752,.T.);
#1758 = CYLINDRICAL_SURFACE('',#1759,1.275);
#1759 = AXIS2_PLACEMENT_3D('',#1760,#1761,#1762);
#1760 = CARTESIAN_POINT('',(0.,0.,0.));
#1761 = DIRECTION('',(0.,0.,1.));
#1762 = DIRECTION('',(1.,0.,0.));
#1763 = ADVANCED_FACE('',(#1764),#1782,.F.);
#1764 = FACE_BOUND('',#1765,.F.);
#1765 = EDGE_LOOP('',(#1766,#1775,#1780,#1781));
#1766 = ORIENTED_EDGE('',*,*,#1767,.F.);
#1767 = EDGE_CURVE('',#1768,#1768,#1770,.T.);
#1768 = VERTEX_POINT('',#1769);
#1769 = CARTESIAN_POINT('',(89.275,0.,7.6));
#1770 = CIRCLE('',#1771,1.275);
#1771 = AXIS2_PLACEMENT_3D('',#1772,#1773,#1774);
#1772 = CARTESIAN_POINT('',(88.,0.,7.6));
#1773 = DIRECTION('',(0.,0.,1.));
#1774 = DIRECTION('',(1.,0.,0.));
#1775 = ORIENTED_EDGE('',*,*,#1776,.F.);
#1776 = EDGE_CURVE('',#1247,#1768,#1777,.T.);
#1777 = B_SPLINE_CURVE_WITH_KNOTS('',1,(#1778,#1779),.UNSPECIFIED.,.F.,
  .F.,(2,2),(-2.,7.6),.PIECEWISE_BEZIER_KNOTS.);
#1778 = CARTESIAN_POINT('',(89.275,-3.122849337826E-16,-2.));
#1779 = CARTESIAN_POINT('',(89.275,-3.122849337826E-16,7.6));
#1780 = ORIENTED_EDGE('',*,*,#1246,.T.);
#1781 = ORIENTED_EDGE('',*,*,#1776,.T.);
#1782 = CYLINDRICAL_SURFACE('',#1783,1.275);
#1783 = AXIS2_PLACEMENT_3D('',#1784,#1785,#1786);
#1784 = CARTESIAN_POINT('',(88.,0.,0.));
#1785 = DIRECTION('',(0.,0.,1.));
#1786 = DIRECTION('',(1.,0.,0.));
#1787 = ADVANCED_FACE('',(#1788),#1806,.F.);
#1788 = FACE_BOUND('',#1789,.F.);
#1789 = EDGE_LOOP('',(#1790,#1799,#1804,#1805));
#1790 = ORIENTED_EDGE('',*,*,#1791,.F.);
#1791 = EDGE_CURVE('',#1792,#1792,#1794,.T.);
#1792 = VERTEX_POINT('',#1793);
#1793 = CARTESIAN_POINT('',(1.275,65.,7.6));
#1794 = CIRCLE('',#1795,1.275);
#1795 = AXIS2_PLACEMENT_3D('',#1796,#1797,#1798);
#1796 = CARTESIAN_POINT('',(0.,65.,7.6));
#1797 = DIRECTION('',(0.,0.,1.));
#1798 = DIRECTION('',(1.,0.,0.));
#1799 = ORIENTED_EDGE('',*,*,#1800,.F.);
#1800 = EDGE_CURVE('',#1258,#1792,#1801,.T.);
#1801 = B_SPLINE_CURVE_WITH_KNOTS('',1,(#1802,#1803),.UNSPECIFIED.,.F.,
  .F.,(2,2),(-2.,7.6),.PIECEWISE_BEZIER_KNOTS.);
#1802 = CARTESIAN_POINT('',(1.275,65.,-2.));
#1803 = CARTESIAN_POINT('',(1.275,65.,7.6));
#1804 = ORIENTED_EDGE('',*,*,#1257,.T.);
#1805 = ORIENTED_EDGE('',*,*,#1800,.T.);
#1806 = CYLINDRICAL_SURFACE('',#1807,1.275);
#1807 = AXIS2_PLACEMENT_3D('',#1808,#1809,#1810);
#1808 = CARTESIAN_POINT('',(0.,65.,0.));
#1809 = DIRECTION('',(0.,0.,1.));
#1810 = DIRECTION('',(1.,0.,0.));
#1811 = ADVANCED_FACE('',(#1812),#1830,.F.);
#1812 = FACE_BOUND('',#1813,.F.);
#1813 = EDGE_LOOP('',(#1814,#1823,#1828,#1829));
#1814 = ORIENTED_EDGE('',*,*,#1815,.F.);
#1815 = EDGE_CURVE('',#1816,#1816,#1818,.T.);
#1816 = VERTEX_POINT('',#1817);
#1817 = CARTESIAN_POINT('',(89.275,65.,7.6));
#1818 = CIRCLE('',#1819,1.275);
#1819 = AXIS2_PLACEMENT_3D('',#1820,#1821,#1822);
#1820 = CARTESIAN_POINT('',(88.,65.,7.6));
#1821 = DIRECTION('',(0.,0.,1.));
#1822 = DIRECTION('',(1.,0.,0.));
#1823 = ORIENTED_EDGE('',*,*,#1824,.F.);
#1824 = EDGE_CURVE('',#1275,#1816,#1825,.T.);
#1825 = B_SPLINE_CURVE_WITH_KNOTS('',1,(#1826,#1827),.UNSPECIFIED.,.F.,
  .F.,(2,2),(-2.,7.6),.PIECEWISE_BEZIER_KNOTS.);
#1826 = CARTESIAN_POINT('',(89.275,65.,-2.));
#1827 = CARTESIAN_POINT('',(89.275,65.,7.6));
#1828 = ORIENTED_EDGE('',*,*,#1274,.T.);
#1829 = ORIENTED_EDGE('',*,*,#1824,.T.);
#1830 = CYLINDRICAL_SURFACE('',#1831,1.275);
#1831 = AXIS2_PLACEMENT_3D('',#1832,#1833,#1834);
#1832 = CARTESIAN_POINT('',(88.,65.,0.));
#1833 = DIRECTION('',(0.,0.,1.));
#1834 = DIRECTION('',(1.,0.,0.));
#1835 = ADVANCED_FACE('',(#1836),#1854,.T.);
#1836 = FACE_BOUND('',#1837,.F.);
#1837 = EDGE_LOOP('',(#1838,#1846,#1852,#1853));
#1838 = ORIENTED_EDGE('',*,*,#1839,.F.);
#1839 = EDGE_CURVE('',#1840,#1292,#1842,.T.);
#1840 = VERTEX_POINT('',#1841);
#1841 = CARTESIAN_POINT('',(-5.504621934877,-31.01,34.951333079981));
#1842 = LINE('',#1843,#1844);
#1843 = CARTESIAN_POINT('',(-6.1079876063,-33.45315264781,28.85794316428
    ));
#1844 = VECTOR('',#1845,1.);
#1845 = DIRECTION('',(-9.152158166706E-02,-0.370589851515,
    -0.924276453256));
#1846 = ORIENTED_EDGE('',*,*,#1847,.T.);
#1847 = EDGE_CURVE('',#1840,#1392,#1848,.T.);
#1848 = LINE('',#1849,#1850);
#1849 = CARTESIAN_POINT('',(-5.504621934877,-31.01,34.951333079981));
#1850 = VECTOR('',#1851,1.);
#1851 = DIRECTION('',(0.995133307998,2.522375557213E-16,
    -9.853780651529E-02));
#1852 = ORIENTED_EDGE('',*,*,#1401,.T.);
#1853 = ORIENTED_EDGE('',*,*,#1291,.F.);
#1854 = PLANE('',#1855);
#1855 = AXIS2_PLACEMENT_3D('',#1856,#1857,#1858);
#1856 = CARTESIAN_POINT('',(-5.997310967454,-33.005,29.97566653999));
#1857 = DIRECTION('',(3.651711108516E-02,-0.928796620339,0.368786304849)
  );
#1858 = DIRECTION('',(-0.995133307998,-1.665334536938E-16,
    9.853780651529E-02));
#1859 = ADVANCED_FACE('',(#1860),#1871,.F.);
#1860 = FACE_BOUND('',#1861,.F.);
#1861 = EDGE_LOOP('',(#1862,#1868,#1869,#1870));
#1862 = ORIENTED_EDGE('',*,*,#1863,.T.);
#1863 = EDGE_CURVE('',#1342,#1840,#1864,.T.);
#1864 = LINE('',#1865,#1866);
#1865 = CARTESIAN_POINT('',(-5.504621934877,-27.,34.951333079981));
#1866 = VECTOR('',#1867,1.);
#1867 = DIRECTION('',(-2.522375557213E-16,-1.,-5.107151932283E-15));
#1868 = ORIENTED_EDGE('',*,*,#1839,.T.);
#1869 = ORIENTED_EDGE('',*,*,#1317,.T.);
#1870 = ORIENTED_EDGE('',*,*,#1349,.F.);
#1871 = PLANE('',#1872);
#1872 = AXIS2_PLACEMENT_3D('',#1873,#1874,#1875);
#1873 = CARTESIAN_POINT('',(-6.49000000003,-27.,25.));
#1874 = DIRECTION('',(0.995133307998,2.522375557213E-16,
    -9.853780651529E-02));
#1875 = DIRECTION('',(-2.522375557213E-16,-1.,-5.107151932283E-15));
#1876 = ADVANCED_FACE('',(#1877),#1883,.T.);
#1877 = FACE_BOUND('',#1878,.T.);
#1878 = EDGE_LOOP('',(#1879,#1880,#1881,#1882));
#1879 = ORIENTED_EDGE('',*,*,#1863,.T.);
#1880 = ORIENTED_EDGE('',*,*,#1847,.T.);
#1881 = ORIENTED_EDGE('',*,*,#1391,.T.);
#1882 = ORIENTED_EDGE('',*,*,#1341,.T.);
#1883 = PLANE('',#1884);
#1884 = AXIS2_PLACEMENT_3D('',#1885,#1886,#1887);
#1885 = CARTESIAN_POINT('',(44.990378065127,-31.,29.951333079981));
#1886 = DIRECTION('',(9.853780651529E-02,-5.080296551758E-15,
    0.995133307998));
#1887 = DIRECTION('',(0.995133307998,0.,-9.853780651529E-02));
#1888 = ADVANCED_FACE('',(#1889,#1892),#1895,.T.);
#1889 = FACE_BOUND('',#1890,.T.);
#1890 = EDGE_LOOP('',(#1891));
#1891 = ORIENTED_EDGE('',*,*,#1372,.T.);
#1892 = FACE_BOUND('',#1893,.F.);
#1893 = EDGE_LOOP('',(#1894));
#1894 = ORIENTED_EDGE('',*,*,#1791,.T.);
#1895 = PLANE('',#1896);
#1896 = AXIS2_PLACEMENT_3D('',#1897,#1898,#1899);
#1897 = CARTESIAN_POINT('',(44.,32.5,7.6));
#1898 = DIRECTION('',(0.,0.,1.));
#1899 = DIRECTION('',(1.,0.,0.));
#1900 = ADVANCED_FACE('',(#1901,#1904),#1907,.T.);
#1901 = FACE_BOUND('',#1902,.T.);
#1902 = EDGE_LOOP('',(#1903));
#1903 = ORIENTED_EDGE('',*,*,#1685,.T.);
#1904 = FACE_BOUND('',#1905,.F.);
#1905 = EDGE_LOOP('',(#1906));
#1906 = ORIENTED_EDGE('',*,*,#1767,.T.);
#1907 = PLANE('',#1908);
#1908 = AXIS2_PLACEMENT_3D('',#1909,#1910,#1911);
#1909 = CARTESIAN_POINT('',(44.,32.5,7.6));
#1910 = DIRECTION('',(0.,0.,1.));
#1911 = DIRECTION('',(1.,0.,0.));
#1912 = ADVANCED_FACE('',(#1913,#1916),#1919,.T.);
#1913 = FACE_BOUND('',#1914,.T.);
#1914 = EDGE_LOOP('',(#1915));
#1915 = ORIENTED_EDGE('',*,*,#1712,.T.);
#1916 = FACE_BOUND('',#1917,.F.);
#1917 = EDGE_LOOP('',(#1918));
#1918 = ORIENTED_EDGE('',*,*,#1815,.T.);
#1919 = PLANE('',#1920);
#1920 = AXIS2_PLACEMENT_3D('',#1921,#1922,#1923);
#1921 = CARTESIAN_POINT('',(44.,32.5,7.6));
#1922 = DIRECTION('',(0.,0.,1.));
#1923 = DIRECTION('',(1.,0.,0.));
#1924 = ( GEOMETRIC_REPRESENTATION_CONTEXT(3) 
GLOBAL_UNCERTAINTY_ASSIGNED_CONTEXT((#1928)) 
GLOBAL_UNIT_ASSIGNED_CONTEXT((#1925,#1926,#1927)) REPRESENTATION_CONTEXT
('Context #1','3D Context with UNIT and UNCERTAINTY') );
#1925 = ( LENGTH_UNIT() NAMED_UNIT(*) SI_UNIT(.MILLI.,.METRE.) );
#1926 = ( NAMED_UNIT(*) PLANE_ANGLE_UNIT() SI_UNIT($,.RADIAN.) );
#1927 = ( NAMED_UNIT(*) SI_UNIT($,.STERADIAN.) SOLID_ANGLE_UNIT() );
#1928 = UNCERTAINTY_MEASURE_WITH_UNIT(LENGTH_MEASURE(2.E-05),#1925,
  'distance_accuracy_value','confusion accuracy');
#1929 = PRODUCT_RELATED_PRODUCT_CATEGORY('part',$,(#7));
#1930 = MECHANICAL_DESIGN_GEOMETRIC_PRESENTATION_REPRESENTATION('',(
    #1931),#1924);
#1931 = STYLED_ITEM('color',(#1932),#15);
#1932 = PRESENTATION_STYLE_ASSIGNMENT((#1933,#1939));
#1933 = SURFACE_STYLE_USAGE(.BOTH.,#1934);
#1934 = SURFACE_SIDE_STYLE('',(#1935));
#1935 = SURFACE_STYLE_FILL_AREA(#1936);
#1936 = FILL_AREA_STYLE('',(#1937));
#1937 = FILL_AREA_STYLE_COLOUR('',#1938);
#1938 = COLOUR_RGB('',0.447058818107,0.474509808674,0.501960817233);
#1939 = CURVE_STYLE('',#1940,POSITIVE_LENGTH_MEASURE(0.1),#1941);
#1940 = DRAUGHTING_PRE_DEFINED_CURVE_FONT('continuous');
#1941 = COLOUR_RGB('',9.803921802644E-02,9.803921802644E-02,
  9.803921802644E-02);
ENDSEC;
END-ISO-10303-21;
