ISO-10303-21;
HEADER;
FILE_DESCRIPTION(('FreeCAD Model'),'2;1');
FILE_NAME('Open CASCADE Shape Model','2025-03-13T21:08:51',('Author'),(
    ''),'Open CASCADE STEP processor 7.8','FreeCAD','Unknown');
FILE_SCHEMA(('AUTOMOTIVE_DESIGN { 1 0 10303 214 1 1 1 1 }'));
ENDSEC;
DATA;
#1 = APPLICATION_PROTOCOL_DEFINITION('international standard',
  'automotive_design',2000,#2);
#2 = APPLICATION_CONTEXT(
  'core data for automotive mechanical design processes');
#3 = SHAPE_DEFINITION_REPRESENTATION(#4,#10);
#4 = PRODUCT_DEFINITION_SHAPE('','',#5);
#5 = PRODUCT_DEFINITION('design','',#6,#9);
#6 = PRODUCT_DEFINITION_FORMATION('','',#7);
#7 = PRODUCT('LED ring holder','LED ring holder','',(#8));
#8 = PRODUCT_CONTEXT('',#2,'mechanical');
#9 = PRODUCT_DEFINITION_CONTEXT('part definition',#2,'design');
#10 = ADVANCED_BREP_SHAPE_REPRESENTATION('',(#11,#15),#366);
#11 = AXIS2_PLACEMENT_3D('',#12,#13,#14);
#12 = CARTESIAN_POINT('',(0.,0.,0.));
#13 = DIRECTION('',(0.,0.,1.));
#14 = DIRECTION('',(1.,0.,-0.));
#15 = MANIFOLD_SOLID_BREP('',#16);
#16 = CLOSED_SHELL('',(#17,#100,#131,#149,#180,#220,#260,#277,#301,#326,
    #342,#354));
#17 = ADVANCED_FACE('',(#18,#37,#73,#84),#95,.F.);
#18 = FACE_BOUND('',#19,.F.);
#19 = EDGE_LOOP('',(#20,#30));
#20 = ORIENTED_EDGE('',*,*,#21,.T.);
#21 = EDGE_CURVE('',#22,#24,#26,.T.);
#22 = VERTEX_POINT('',#23);
#23 = CARTESIAN_POINT('',(151.,-21.0905365064,0.));
#24 = VERTEX_POINT('',#25);
#25 = CARTESIAN_POINT('',(151.,1.090536506409,0.));
#26 = LINE('',#27,#28);
#27 = CARTESIAN_POINT('',(151.,-4.454731746795,0.));
#28 = VECTOR('',#29,1.);
#29 = DIRECTION('',(0.,1.,0.));
#30 = ORIENTED_EDGE('',*,*,#31,.T.);
#31 = EDGE_CURVE('',#24,#22,#32,.T.);
#32 = CIRCLE('',#33,22.);
#33 = AXIS2_PLACEMENT_3D('',#34,#35,#36);
#34 = CARTESIAN_POINT('',(132.,-10.,0.));
#35 = DIRECTION('',(0.,0.,1.));
#36 = DIRECTION('',(1.,0.,0.));
#37 = FACE_BOUND('',#38,.F.);
#38 = EDGE_LOOP('',(#39,#49,#58,#66));
#39 = ORIENTED_EDGE('',*,*,#40,.T.);
#40 = EDGE_CURVE('',#41,#43,#45,.T.);
#41 = VERTEX_POINT('',#42);
#42 = CARTESIAN_POINT('',(118.,-10.,0.));
#43 = VERTEX_POINT('',#44);
#44 = CARTESIAN_POINT('',(126.5,-10.,0.));
#45 = LINE('',#46,#47);
#46 = CARTESIAN_POINT('',(129.25,-10.,0.));
#47 = VECTOR('',#48,1.);
#48 = DIRECTION('',(1.,-2.017065316243E-16,0.));
#49 = ORIENTED_EDGE('',*,*,#50,.T.);
#50 = EDGE_CURVE('',#43,#51,#53,.T.);
#51 = VERTEX_POINT('',#52);
#52 = CARTESIAN_POINT('',(137.5,-10.,0.));
#53 = CIRCLE('',#54,5.5);
#54 = AXIS2_PLACEMENT_3D('',#55,#56,#57);
#55 = CARTESIAN_POINT('',(132.,-10.,0.));
#56 = DIRECTION('',(0.,0.,1.));
#57 = DIRECTION('',(1.,0.,0.));
#58 = ORIENTED_EDGE('',*,*,#59,.F.);
#59 = EDGE_CURVE('',#60,#51,#62,.T.);
#60 = VERTEX_POINT('',#61);
#61 = CARTESIAN_POINT('',(146.,-10.,0.));
#62 = LINE('',#63,#64);
#63 = CARTESIAN_POINT('',(134.75,-10.,0.));
#64 = VECTOR('',#65,1.);
#65 = DIRECTION('',(-1.,2.449293598295E-16,0.));
#66 = ORIENTED_EDGE('',*,*,#67,.F.);
#67 = EDGE_CURVE('',#41,#60,#68,.T.);
#68 = CIRCLE('',#69,14.);
#69 = AXIS2_PLACEMENT_3D('',#70,#71,#72);
#70 = CARTESIAN_POINT('',(132.,-10.,0.));
#71 = DIRECTION('',(0.,0.,1.));
#72 = DIRECTION('',(1.,0.,0.));
#73 = FACE_BOUND('',#74,.F.);
#74 = EDGE_LOOP('',(#75));
#75 = ORIENTED_EDGE('',*,*,#76,.F.);
#76 = EDGE_CURVE('',#77,#77,#79,.T.);
#77 = VERTEX_POINT('',#78);
#78 = CARTESIAN_POINT('',(135.65,-10.,0.));
#79 = CIRCLE('',#80,3.65);
#80 = AXIS2_PLACEMENT_3D('',#81,#82,#83);
#81 = CARTESIAN_POINT('',(132.,-10.,0.));
#82 = DIRECTION('',(0.,0.,1.));
#83 = DIRECTION('',(1.,0.,0.));
#84 = FACE_BOUND('',#85,.F.);
#85 = EDGE_LOOP('',(#86));
#86 = ORIENTED_EDGE('',*,*,#87,.F.);
#87 = EDGE_CURVE('',#88,#88,#90,.T.);
#88 = VERTEX_POINT('',#89);
#89 = CARTESIAN_POINT('',(145.775,0.,0.));
#90 = CIRCLE('',#91,1.275);
#91 = AXIS2_PLACEMENT_3D('',#92,#93,#94);
#92 = CARTESIAN_POINT('',(144.5,0.,0.));
#93 = DIRECTION('',(0.,0.,1.));
#94 = DIRECTION('',(1.,0.,0.));
#95 = PLANE('',#96);
#96 = AXIS2_PLACEMENT_3D('',#97,#98,#99);
#97 = CARTESIAN_POINT('',(132.,-10.,0.));
#98 = DIRECTION('',(0.,0.,1.));
#99 = DIRECTION('',(1.,0.,0.));
#100 = ADVANCED_FACE('',(#101),#126,.F.);
#101 = FACE_BOUND('',#102,.F.);
#102 = EDGE_LOOP('',(#103,#113,#119,#120));
#103 = ORIENTED_EDGE('',*,*,#104,.F.);
#104 = EDGE_CURVE('',#105,#107,#109,.T.);
#105 = VERTEX_POINT('',#106);
#106 = CARTESIAN_POINT('',(151.,1.090536506409,5.25));
#107 = VERTEX_POINT('',#108);
#108 = CARTESIAN_POINT('',(151.,-21.0905365064,5.25));
#109 = LINE('',#110,#111);
#110 = CARTESIAN_POINT('',(151.,1.090536506409,5.25));
#111 = VECTOR('',#112,1.);
#112 = DIRECTION('',(0.,-1.,0.));
#113 = ORIENTED_EDGE('',*,*,#114,.T.);
#114 = EDGE_CURVE('',#105,#24,#115,.T.);
#115 = LINE('',#116,#117);
#116 = CARTESIAN_POINT('',(151.,1.090536506409,5.25));
#117 = VECTOR('',#118,1.);
#118 = DIRECTION('',(-0.,-0.,-1.));
#119 = ORIENTED_EDGE('',*,*,#21,.F.);
#120 = ORIENTED_EDGE('',*,*,#121,.F.);
#121 = EDGE_CURVE('',#107,#22,#122,.T.);
#122 = LINE('',#123,#124);
#123 = CARTESIAN_POINT('',(151.,-21.0905365064,5.25));
#124 = VECTOR('',#125,1.);
#125 = DIRECTION('',(-0.,-0.,-1.));
#126 = PLANE('',#127);
#127 = AXIS2_PLACEMENT_3D('',#128,#129,#130);
#128 = CARTESIAN_POINT('',(151.,1.090536506409,5.25));
#129 = DIRECTION('',(-1.,0.,0.));
#130 = DIRECTION('',(0.,-1.,0.));
#131 = ADVANCED_FACE('',(#132),#144,.T.);
#132 = FACE_BOUND('',#133,.F.);
#133 = EDGE_LOOP('',(#134,#135,#136,#143));
#134 = ORIENTED_EDGE('',*,*,#31,.F.);
#135 = ORIENTED_EDGE('',*,*,#114,.F.);
#136 = ORIENTED_EDGE('',*,*,#137,.T.);
#137 = EDGE_CURVE('',#105,#107,#138,.T.);
#138 = CIRCLE('',#139,22.);
#139 = AXIS2_PLACEMENT_3D('',#140,#141,#142);
#140 = CARTESIAN_POINT('',(132.,-10.,5.25));
#141 = DIRECTION('',(0.,0.,1.));
#142 = DIRECTION('',(1.,0.,0.));
#143 = ORIENTED_EDGE('',*,*,#121,.T.);
#144 = CYLINDRICAL_SURFACE('',#145,22.);
#145 = AXIS2_PLACEMENT_3D('',#146,#147,#148);
#146 = CARTESIAN_POINT('',(132.,-10.,0.));
#147 = DIRECTION('',(-0.,-0.,-1.));
#148 = DIRECTION('',(1.,0.,0.));
#149 = ADVANCED_FACE('',(#150),#175,.F.);
#150 = FACE_BOUND('',#151,.F.);
#151 = EDGE_LOOP('',(#152,#162,#168,#169));
#152 = ORIENTED_EDGE('',*,*,#153,.F.);
#153 = EDGE_CURVE('',#154,#156,#158,.T.);
#154 = VERTEX_POINT('',#155);
#155 = CARTESIAN_POINT('',(126.5,-10.,1.5));
#156 = VERTEX_POINT('',#157);
#157 = CARTESIAN_POINT('',(118.,-10.,1.5));
#158 = LINE('',#159,#160);
#159 = CARTESIAN_POINT('',(126.5,-10.,1.5));
#160 = VECTOR('',#161,1.);
#161 = DIRECTION('',(-1.,2.017065316243E-16,0.));
#162 = ORIENTED_EDGE('',*,*,#163,.T.);
#163 = EDGE_CURVE('',#154,#43,#164,.T.);
#164 = LINE('',#165,#166);
#165 = CARTESIAN_POINT('',(126.5,-10.,1.5));
#166 = VECTOR('',#167,1.);
#167 = DIRECTION('',(-0.,-0.,-1.));
#168 = ORIENTED_EDGE('',*,*,#40,.F.);
#169 = ORIENTED_EDGE('',*,*,#170,.F.);
#170 = EDGE_CURVE('',#156,#41,#171,.T.);
#171 = LINE('',#172,#173);
#172 = CARTESIAN_POINT('',(118.,-10.,1.5));
#173 = VECTOR('',#174,1.);
#174 = DIRECTION('',(-0.,-0.,-1.));
#175 = PLANE('',#176);
#176 = AXIS2_PLACEMENT_3D('',#177,#178,#179);
#177 = CARTESIAN_POINT('',(126.5,-10.,1.5));
#178 = DIRECTION('',(2.017065316243E-16,1.,0.));
#179 = DIRECTION('',(-1.,2.017065316243E-16,0.));
#180 = ADVANCED_FACE('',(#181),#215,.F.);
#181 = FACE_BOUND('',#182,.F.);
#182 = EDGE_LOOP('',(#183,#192,#199,#206,#207,#208,#214));
#183 = ORIENTED_EDGE('',*,*,#184,.F.);
#184 = EDGE_CURVE('',#185,#185,#187,.T.);
#185 = VERTEX_POINT('',#186);
#186 = CARTESIAN_POINT('',(146.,-10.,5.25));
#187 = CIRCLE('',#188,14.);
#188 = AXIS2_PLACEMENT_3D('',#189,#190,#191);
#189 = CARTESIAN_POINT('',(132.,-10.,5.25));
#190 = DIRECTION('',(0.,0.,1.));
#191 = DIRECTION('',(1.,0.,0.));
#192 = ORIENTED_EDGE('',*,*,#193,.F.);
#193 = EDGE_CURVE('',#194,#185,#196,.T.);
#194 = VERTEX_POINT('',#195);
#195 = CARTESIAN_POINT('',(146.,-10.,1.5));
#196 = B_SPLINE_CURVE_WITH_KNOTS('',1,(#197,#198),.UNSPECIFIED.,.F.,.F.,
  (2,2),(0.,3.75),.PIECEWISE_BEZIER_KNOTS.);
#197 = CARTESIAN_POINT('',(146.,-10.,1.5));
#198 = CARTESIAN_POINT('',(146.,-10.,5.25));
#199 = ORIENTED_EDGE('',*,*,#200,.T.);
#200 = EDGE_CURVE('',#194,#156,#201,.T.);
#201 = CIRCLE('',#202,14.);
#202 = AXIS2_PLACEMENT_3D('',#203,#204,#205);
#203 = CARTESIAN_POINT('',(132.,-10.,1.5));
#204 = DIRECTION('',(0.,0.,1.));
#205 = DIRECTION('',(1.,0.,0.));
#206 = ORIENTED_EDGE('',*,*,#170,.T.);
#207 = ORIENTED_EDGE('',*,*,#67,.T.);
#208 = ORIENTED_EDGE('',*,*,#209,.F.);
#209 = EDGE_CURVE('',#194,#60,#210,.T.);
#210 = LINE('',#211,#212);
#211 = CARTESIAN_POINT('',(146.,-10.,1.5));
#212 = VECTOR('',#213,1.);
#213 = DIRECTION('',(-0.,-0.,-1.));
#214 = ORIENTED_EDGE('',*,*,#193,.T.);
#215 = CYLINDRICAL_SURFACE('',#216,14.);
#216 = AXIS2_PLACEMENT_3D('',#217,#218,#219);
#217 = CARTESIAN_POINT('',(132.,-10.,1.5));
#218 = DIRECTION('',(0.,0.,1.));
#219 = DIRECTION('',(1.,0.,0.));
#220 = ADVANCED_FACE('',(#221),#255,.T.);
#221 = FACE_BOUND('',#222,.T.);
#222 = EDGE_LOOP('',(#223,#232,#239,#246,#247,#248,#254));
#223 = ORIENTED_EDGE('',*,*,#224,.F.);
#224 = EDGE_CURVE('',#225,#225,#227,.T.);
#225 = VERTEX_POINT('',#226);
#226 = CARTESIAN_POINT('',(137.5,-10.,5.25));
#227 = CIRCLE('',#228,5.5);
#228 = AXIS2_PLACEMENT_3D('',#229,#230,#231);
#229 = CARTESIAN_POINT('',(132.,-10.,5.25));
#230 = DIRECTION('',(0.,0.,1.));
#231 = DIRECTION('',(1.,0.,0.));
#232 = ORIENTED_EDGE('',*,*,#233,.F.);
#233 = EDGE_CURVE('',#234,#225,#236,.T.);
#234 = VERTEX_POINT('',#235);
#235 = CARTESIAN_POINT('',(137.5,-10.,1.5));
#236 = B_SPLINE_CURVE_WITH_KNOTS('',1,(#237,#238),.UNSPECIFIED.,.F.,.F.,
  (2,2),(0.,3.75),.PIECEWISE_BEZIER_KNOTS.);
#237 = CARTESIAN_POINT('',(137.5,-10.,1.5));
#238 = CARTESIAN_POINT('',(137.5,-10.,5.25));
#239 = ORIENTED_EDGE('',*,*,#240,.T.);
#240 = EDGE_CURVE('',#234,#154,#241,.T.);
#241 = CIRCLE('',#242,5.5);
#242 = AXIS2_PLACEMENT_3D('',#243,#244,#245);
#243 = CARTESIAN_POINT('',(132.,-10.,1.5));
#244 = DIRECTION('',(0.,0.,1.));
#245 = DIRECTION('',(1.,0.,0.));
#246 = ORIENTED_EDGE('',*,*,#163,.T.);
#247 = ORIENTED_EDGE('',*,*,#50,.T.);
#248 = ORIENTED_EDGE('',*,*,#249,.F.);
#249 = EDGE_CURVE('',#234,#51,#250,.T.);
#250 = LINE('',#251,#252);
#251 = CARTESIAN_POINT('',(137.5,-10.,1.5));
#252 = VECTOR('',#253,1.);
#253 = DIRECTION('',(-0.,-0.,-1.));
#254 = ORIENTED_EDGE('',*,*,#233,.T.);
#255 = CYLINDRICAL_SURFACE('',#256,5.5);
#256 = AXIS2_PLACEMENT_3D('',#257,#258,#259);
#257 = CARTESIAN_POINT('',(132.,-10.,1.5));
#258 = DIRECTION('',(0.,0.,1.));
#259 = DIRECTION('',(1.,0.,0.));
#260 = ADVANCED_FACE('',(#261),#272,.T.);
#261 = FACE_BOUND('',#262,.T.);
#262 = EDGE_LOOP('',(#263,#269,#270,#271));
#263 = ORIENTED_EDGE('',*,*,#264,.F.);
#264 = EDGE_CURVE('',#234,#194,#265,.T.);
#265 = LINE('',#266,#267);
#266 = CARTESIAN_POINT('',(137.5,-10.,1.5));
#267 = VECTOR('',#268,1.);
#268 = DIRECTION('',(1.,-2.449293598295E-16,0.));
#269 = ORIENTED_EDGE('',*,*,#249,.T.);
#270 = ORIENTED_EDGE('',*,*,#59,.F.);
#271 = ORIENTED_EDGE('',*,*,#209,.F.);
#272 = PLANE('',#273);
#273 = AXIS2_PLACEMENT_3D('',#274,#275,#276);
#274 = CARTESIAN_POINT('',(137.5,-10.,1.5));
#275 = DIRECTION('',(-2.449293598295E-16,-1.,0.));
#276 = DIRECTION('',(1.,-2.449293598295E-16,0.));
#277 = ADVANCED_FACE('',(#278),#296,.F.);
#278 = FACE_BOUND('',#279,.T.);
#279 = EDGE_LOOP('',(#280,#281,#288,#295));
#280 = ORIENTED_EDGE('',*,*,#76,.F.);
#281 = ORIENTED_EDGE('',*,*,#282,.F.);
#282 = EDGE_CURVE('',#283,#77,#285,.T.);
#283 = VERTEX_POINT('',#284);
#284 = CARTESIAN_POINT('',(135.65,-10.,5.25));
#285 = B_SPLINE_CURVE_WITH_KNOTS('',1,(#286,#287),.UNSPECIFIED.,.F.,.F.,
  (2,2),(-5.25,0.),.PIECEWISE_BEZIER_KNOTS.);
#286 = CARTESIAN_POINT('',(135.65,-10.,5.25));
#287 = CARTESIAN_POINT('',(135.65,-10.,0.));
#288 = ORIENTED_EDGE('',*,*,#289,.T.);
#289 = EDGE_CURVE('',#283,#283,#290,.T.);
#290 = CIRCLE('',#291,3.65);
#291 = AXIS2_PLACEMENT_3D('',#292,#293,#294);
#292 = CARTESIAN_POINT('',(132.,-10.,5.25));
#293 = DIRECTION('',(0.,0.,1.));
#294 = DIRECTION('',(1.,0.,0.));
#295 = ORIENTED_EDGE('',*,*,#282,.T.);
#296 = CYLINDRICAL_SURFACE('',#297,3.65);
#297 = AXIS2_PLACEMENT_3D('',#298,#299,#300);
#298 = CARTESIAN_POINT('',(132.,-10.,0.));
#299 = DIRECTION('',(-0.,-0.,-1.));
#300 = DIRECTION('',(1.,0.,0.));
#301 = ADVANCED_FACE('',(#302),#321,.F.);
#302 = FACE_BOUND('',#303,.F.);
#303 = EDGE_LOOP('',(#304,#312,#319,#320));
#304 = ORIENTED_EDGE('',*,*,#305,.F.);
#305 = EDGE_CURVE('',#306,#88,#308,.T.);
#306 = VERTEX_POINT('',#307);
#307 = CARTESIAN_POINT('',(145.775,0.,5.25));
#308 = LINE('',#309,#310);
#309 = CARTESIAN_POINT('',(145.775,0.,5.25));
#310 = VECTOR('',#311,1.);
#311 = DIRECTION('',(-0.,-0.,-1.));
#312 = ORIENTED_EDGE('',*,*,#313,.F.);
#313 = EDGE_CURVE('',#306,#306,#314,.T.);
#314 = CIRCLE('',#315,1.275);
#315 = AXIS2_PLACEMENT_3D('',#316,#317,#318);
#316 = CARTESIAN_POINT('',(144.5,0.,5.25));
#317 = DIRECTION('',(0.,0.,1.));
#318 = DIRECTION('',(1.,0.,0.));
#319 = ORIENTED_EDGE('',*,*,#305,.T.);
#320 = ORIENTED_EDGE('',*,*,#87,.T.);
#321 = CYLINDRICAL_SURFACE('',#322,1.275);
#322 = AXIS2_PLACEMENT_3D('',#323,#324,#325);
#323 = CARTESIAN_POINT('',(144.5,0.,5.25));
#324 = DIRECTION('',(0.,0.,1.));
#325 = DIRECTION('',(1.,0.,0.));
#326 = ADVANCED_FACE('',(#327,#331,#334),#337,.T.);
#327 = FACE_BOUND('',#328,.T.);
#328 = EDGE_LOOP('',(#329,#330));
#329 = ORIENTED_EDGE('',*,*,#104,.F.);
#330 = ORIENTED_EDGE('',*,*,#137,.T.);
#331 = FACE_BOUND('',#332,.T.);
#332 = EDGE_LOOP('',(#333));
#333 = ORIENTED_EDGE('',*,*,#184,.F.);
#334 = FACE_BOUND('',#335,.T.);
#335 = EDGE_LOOP('',(#336));
#336 = ORIENTED_EDGE('',*,*,#313,.F.);
#337 = PLANE('',#338);
#338 = AXIS2_PLACEMENT_3D('',#339,#340,#341);
#339 = CARTESIAN_POINT('',(132.,-10.,5.25));
#340 = DIRECTION('',(0.,0.,1.));
#341 = DIRECTION('',(1.,0.,0.));
#342 = ADVANCED_FACE('',(#343),#349,.T.);
#343 = FACE_BOUND('',#344,.T.);
#344 = EDGE_LOOP('',(#345,#346,#347,#348));
#345 = ORIENTED_EDGE('',*,*,#264,.T.);
#346 = ORIENTED_EDGE('',*,*,#200,.T.);
#347 = ORIENTED_EDGE('',*,*,#153,.F.);
#348 = ORIENTED_EDGE('',*,*,#240,.F.);
#349 = PLANE('',#350);
#350 = AXIS2_PLACEMENT_3D('',#351,#352,#353);
#351 = CARTESIAN_POINT('',(132.,-10.,1.5));
#352 = DIRECTION('',(0.,0.,1.));
#353 = DIRECTION('',(1.,0.,0.));
#354 = ADVANCED_FACE('',(#355,#358),#361,.T.);
#355 = FACE_BOUND('',#356,.T.);
#356 = EDGE_LOOP('',(#357));
#357 = ORIENTED_EDGE('',*,*,#224,.T.);
#358 = FACE_BOUND('',#359,.F.);
#359 = EDGE_LOOP('',(#360));
#360 = ORIENTED_EDGE('',*,*,#289,.T.);
#361 = PLANE('',#362);
#362 = AXIS2_PLACEMENT_3D('',#363,#364,#365);
#363 = CARTESIAN_POINT('',(132.,-10.,5.25));
#364 = DIRECTION('',(0.,0.,1.));
#365 = DIRECTION('',(1.,0.,0.));
#366 = ( GEOMETRIC_REPRESENTATION_CONTEXT(3) 
GLOBAL_UNCERTAINTY_ASSIGNED_CONTEXT((#370)) GLOBAL_UNIT_ASSIGNED_CONTEXT
((#367,#368,#369)) REPRESENTATION_CONTEXT('Context #1',
  '3D Context with UNIT and UNCERTAINTY') );
#367 = ( LENGTH_UNIT() NAMED_UNIT(*) SI_UNIT(.MILLI.,.METRE.) );
#368 = ( NAMED_UNIT(*) PLANE_ANGLE_UNIT() SI_UNIT($,.RADIAN.) );
#369 = ( NAMED_UNIT(*) SI_UNIT($,.STERADIAN.) SOLID_ANGLE_UNIT() );
#370 = UNCERTAINTY_MEASURE_WITH_UNIT(LENGTH_MEASURE(2.E-06),#367,
  'distance_accuracy_value','confusion accuracy');
#371 = PRODUCT_RELATED_PRODUCT_CATEGORY('part',$,(#7));
#372 = MECHANICAL_DESIGN_GEOMETRIC_PRESENTATION_REPRESENTATION('',(#373)
  ,#366);
#373 = STYLED_ITEM('color',(#374),#15);
#374 = PRESENTATION_STYLE_ASSIGNMENT((#375,#381));
#375 = SURFACE_STYLE_USAGE(.BOTH.,#376);
#376 = SURFACE_SIDE_STYLE('',(#377));
#377 = SURFACE_STYLE_FILL_AREA(#378);
#378 = FILL_AREA_STYLE('',(#379));
#379 = FILL_AREA_STYLE_COLOUR('',#380);
#380 = COLOUR_RGB('',0.447059003357,0.474510015008,0.501960993452);
#381 = CURVE_STYLE('',#382,POSITIVE_LENGTH_MEASURE(0.1),#383);
#382 = DRAUGHTING_PRE_DEFINED_CURVE_FONT('continuous');
#383 = COLOUR_RGB('',9.803921802644E-02,9.803921802644E-02,
  9.803921802644E-02);
ENDSEC;
END-ISO-10303-21;
