ISO-10303-21;
HEADER;
FILE_DESCRIPTION(('FreeCAD Model'),'2;1');
FILE_NAME('Open CASCADE Shape Model','2025-03-23T11:17:53',('Author'),(
    ''),'Open CASCADE STEP processor 7.8','FreeCAD','Unknown');
FILE_SCHEMA(('AUTOMOTIVE_DESIGN { 1 0 10303 214 1 1 1 1 }'));
ENDSEC;
DATA;
#1 = APPLICATION_PROTOCOL_DEFINITION('international standard',
  'automotive_design',2000,#2);
#2 = APPLICATION_CONTEXT(
  'core data for automotive mechanical design processes');
#3 = SHAPE_DEFINITION_REPRESENTATION(#4,#10);
#4 = PRODUCT_DEFINITION_SHAPE('','',#5);
#5 = PRODUCT_DEFINITION('design','',#6,#9);
#6 = PRODUCT_DEFINITION_FORMATION('','',#7);
#7 = PRODUCT('Controller mounting velcro ties',
  'Controller mounting velcro ties','',(#8));
#8 = PRODUCT_CONTEXT('',#2,'mechanical');
#9 = PRODUCT_DEFINITION_CONTEXT('part definition',#2,'design');
#10 = ADVANCED_BREP_SHAPE_REPRESENTATION('',(#11,#15),#723);
#11 = AXIS2_PLACEMENT_3D('',#12,#13,#14);
#12 = CARTESIAN_POINT('',(0.,0.,0.));
#13 = DIRECTION('',(0.,0.,1.));
#14 = DIRECTION('',(1.,0.,-0.));
#15 = MANIFOLD_SOLID_BREP('',#16);
#16 = CLOSED_SHELL('',(#17,#59,#192,#325,#379,#397,#409,#431,#448,#465,
    #477,#499,#516,#533,#545,#567,#584,#601,#613,#645,#669,#693,#711));
#17 = ADVANCED_FACE('',(#18),#54,.T.);
#18 = FACE_BOUND('',#19,.F.);
#19 = EDGE_LOOP('',(#20,#30,#39,#47));
#20 = ORIENTED_EDGE('',*,*,#21,.T.);
#21 = EDGE_CURVE('',#22,#24,#26,.T.);
#22 = VERTEX_POINT('',#23);
#23 = CARTESIAN_POINT('',(177.,1.5,0.));
#24 = VERTEX_POINT('',#25);
#25 = CARTESIAN_POINT('',(177.,1.5,12.));
#26 = LINE('',#27,#28);
#27 = CARTESIAN_POINT('',(177.,1.5,0.));
#28 = VECTOR('',#29,1.);
#29 = DIRECTION('',(0.,0.,1.));
#30 = ORIENTED_EDGE('',*,*,#31,.T.);
#31 = EDGE_CURVE('',#24,#32,#34,.T.);
#32 = VERTEX_POINT('',#33);
#33 = CARTESIAN_POINT('',(177.,-1.5,12.));
#34 = CIRCLE('',#35,1.5);
#35 = AXIS2_PLACEMENT_3D('',#36,#37,#38);
#36 = CARTESIAN_POINT('',(177.,0.,12.));
#37 = DIRECTION('',(0.,0.,1.));
#38 = DIRECTION('',(1.,0.,0.));
#39 = ORIENTED_EDGE('',*,*,#40,.F.);
#40 = EDGE_CURVE('',#41,#32,#43,.T.);
#41 = VERTEX_POINT('',#42);
#42 = CARTESIAN_POINT('',(177.,-1.5,0.));
#43 = LINE('',#44,#45);
#44 = CARTESIAN_POINT('',(177.,-1.5,0.));
#45 = VECTOR('',#46,1.);
#46 = DIRECTION('',(0.,0.,1.));
#47 = ORIENTED_EDGE('',*,*,#48,.F.);
#48 = EDGE_CURVE('',#22,#41,#49,.T.);
#49 = CIRCLE('',#50,1.5);
#50 = AXIS2_PLACEMENT_3D('',#51,#52,#53);
#51 = CARTESIAN_POINT('',(177.,0.,0.));
#52 = DIRECTION('',(0.,0.,1.));
#53 = DIRECTION('',(1.,0.,0.));
#54 = CYLINDRICAL_SURFACE('',#55,1.5);
#55 = AXIS2_PLACEMENT_3D('',#56,#57,#58);
#56 = CARTESIAN_POINT('',(177.,0.,0.));
#57 = DIRECTION('',(-0.,-0.,-1.));
#58 = DIRECTION('',(1.,0.,0.));
#59 = ADVANCED_FACE('',(#60,#85,#119,#153),#187,.T.);
#60 = FACE_BOUND('',#61,.T.);
#61 = EDGE_LOOP('',(#62,#63,#71,#79));
#62 = ORIENTED_EDGE('',*,*,#21,.T.);
#63 = ORIENTED_EDGE('',*,*,#64,.T.);
#64 = EDGE_CURVE('',#24,#65,#67,.T.);
#65 = VERTEX_POINT('',#66);
#66 = CARTESIAN_POINT('',(264.87,1.5,12.));
#67 = LINE('',#68,#69);
#68 = CARTESIAN_POINT('',(177.,1.5,12.));
#69 = VECTOR('',#70,1.);
#70 = DIRECTION('',(1.,0.,0.));
#71 = ORIENTED_EDGE('',*,*,#72,.F.);
#72 = EDGE_CURVE('',#73,#65,#75,.T.);
#73 = VERTEX_POINT('',#74);
#74 = CARTESIAN_POINT('',(264.87,1.5,0.));
#75 = LINE('',#76,#77);
#76 = CARTESIAN_POINT('',(264.87,1.5,0.));
#77 = VECTOR('',#78,1.);
#78 = DIRECTION('',(0.,0.,1.));
#79 = ORIENTED_EDGE('',*,*,#80,.F.);
#80 = EDGE_CURVE('',#22,#73,#81,.T.);
#81 = LINE('',#82,#83);
#82 = CARTESIAN_POINT('',(177.,1.5,0.));
#83 = VECTOR('',#84,1.);
#84 = DIRECTION('',(1.,0.,0.));
#85 = FACE_BOUND('',#86,.T.);
#86 = EDGE_LOOP('',(#87,#97,#105,#113));
#87 = ORIENTED_EDGE('',*,*,#88,.F.);
#88 = EDGE_CURVE('',#89,#91,#93,.T.);
#89 = VERTEX_POINT('',#90);
#90 = CARTESIAN_POINT('',(182.,1.5,5.75));
#91 = VERTEX_POINT('',#92);
#92 = CARTESIAN_POINT('',(182.,1.5,9.25));
#93 = LINE('',#94,#95);
#94 = CARTESIAN_POINT('',(182.,1.5,4.625));
#95 = VECTOR('',#96,1.);
#96 = DIRECTION('',(0.,0.,1.));
#97 = ORIENTED_EDGE('',*,*,#98,.F.);
#98 = EDGE_CURVE('',#99,#89,#101,.T.);
#99 = VERTEX_POINT('',#100);
#100 = CARTESIAN_POINT('',(194.99999999999,1.5,5.75));
#101 = LINE('',#102,#103);
#102 = CARTESIAN_POINT('',(179.5,1.5,5.75));
#103 = VECTOR('',#104,1.);
#104 = DIRECTION('',(-1.,0.,0.));
#105 = ORIENTED_EDGE('',*,*,#106,.F.);
#106 = EDGE_CURVE('',#107,#99,#109,.T.);
#107 = VERTEX_POINT('',#108);
#108 = CARTESIAN_POINT('',(194.99999999999,1.5,9.25));
#109 = LINE('',#110,#111);
#110 = CARTESIAN_POINT('',(194.99999999999,1.5,2.875));
#111 = VECTOR('',#112,1.);
#112 = DIRECTION('',(0.,0.,-1.));
#113 = ORIENTED_EDGE('',*,*,#114,.F.);
#114 = EDGE_CURVE('',#91,#107,#115,.T.);
#115 = LINE('',#116,#117);
#116 = CARTESIAN_POINT('',(185.99999999999,1.5,9.25));
#117 = VECTOR('',#118,1.);
#118 = DIRECTION('',(1.,0.,0.));
#119 = FACE_BOUND('',#120,.T.);
#120 = EDGE_LOOP('',(#121,#131,#139,#147));
#121 = ORIENTED_EDGE('',*,*,#122,.F.);
#122 = EDGE_CURVE('',#123,#125,#127,.T.);
#123 = VERTEX_POINT('',#124);
#124 = CARTESIAN_POINT('',(214.435,1.5,5.75));
#125 = VERTEX_POINT('',#126);
#126 = CARTESIAN_POINT('',(214.435,1.5,9.25));
#127 = LINE('',#128,#129);
#128 = CARTESIAN_POINT('',(214.435,1.5,4.625));
#129 = VECTOR('',#130,1.);
#130 = DIRECTION('',(0.,0.,1.));
#131 = ORIENTED_EDGE('',*,*,#132,.F.);
#132 = EDGE_CURVE('',#133,#123,#135,.T.);
#133 = VERTEX_POINT('',#134);
#134 = CARTESIAN_POINT('',(227.435,1.5,5.75));
#135 = LINE('',#136,#137);
#136 = CARTESIAN_POINT('',(195.7175,1.5,5.75));
#137 = VECTOR('',#138,1.);
#138 = DIRECTION('',(-1.,0.,0.));
#139 = ORIENTED_EDGE('',*,*,#140,.F.);
#140 = EDGE_CURVE('',#141,#133,#143,.T.);
#141 = VERTEX_POINT('',#142);
#142 = CARTESIAN_POINT('',(227.435,1.5,9.25));
#143 = LINE('',#144,#145);
#144 = CARTESIAN_POINT('',(227.435,1.5,2.875));
#145 = VECTOR('',#146,1.);
#146 = DIRECTION('',(0.,0.,-1.));
#147 = ORIENTED_EDGE('',*,*,#148,.F.);
#148 = EDGE_CURVE('',#125,#141,#149,.T.);
#149 = LINE('',#150,#151);
#150 = CARTESIAN_POINT('',(202.2175,1.5,9.25));
#151 = VECTOR('',#152,1.);
#152 = DIRECTION('',(1.,0.,0.));
#153 = FACE_BOUND('',#154,.T.);
#154 = EDGE_LOOP('',(#155,#165,#173,#181));
#155 = ORIENTED_EDGE('',*,*,#156,.F.);
#156 = EDGE_CURVE('',#157,#159,#161,.T.);
#157 = VERTEX_POINT('',#158);
#158 = CARTESIAN_POINT('',(246.87000000003,1.5,5.75));
#159 = VERTEX_POINT('',#160);
#160 = CARTESIAN_POINT('',(246.87000000003,1.5,9.25));
#161 = LINE('',#162,#163);
#162 = CARTESIAN_POINT('',(246.87000000003,1.5,4.625));
#163 = VECTOR('',#164,1.);
#164 = DIRECTION('',(0.,0.,1.));
#165 = ORIENTED_EDGE('',*,*,#166,.F.);
#166 = EDGE_CURVE('',#167,#157,#169,.T.);
#167 = VERTEX_POINT('',#168);
#168 = CARTESIAN_POINT('',(259.87,1.5,5.75));
#169 = LINE('',#170,#171);
#170 = CARTESIAN_POINT('',(211.93500000001,1.5,5.75));
#171 = VECTOR('',#172,1.);
#172 = DIRECTION('',(-1.,0.,0.));
#173 = ORIENTED_EDGE('',*,*,#174,.F.);
#174 = EDGE_CURVE('',#175,#167,#177,.T.);
#175 = VERTEX_POINT('',#176);
#176 = CARTESIAN_POINT('',(259.87,1.5,9.25));
#177 = LINE('',#178,#179);
#178 = CARTESIAN_POINT('',(259.87,1.5,2.875));
#179 = VECTOR('',#180,1.);
#180 = DIRECTION('',(0.,0.,-1.));
#181 = ORIENTED_EDGE('',*,*,#182,.F.);
#182 = EDGE_CURVE('',#159,#175,#183,.T.);
#183 = LINE('',#184,#185);
#184 = CARTESIAN_POINT('',(218.435,1.5,9.25));
#185 = VECTOR('',#186,1.);
#186 = DIRECTION('',(1.,0.,0.));
#187 = PLANE('',#188);
#188 = AXIS2_PLACEMENT_3D('',#189,#190,#191);
#189 = CARTESIAN_POINT('',(177.,1.5,0.));
#190 = DIRECTION('',(0.,1.,0.));
#191 = DIRECTION('',(1.,0.,0.));
#192 = ADVANCED_FACE('',(#193,#218,#252,#286),#320,.F.);
#193 = FACE_BOUND('',#194,.F.);
#194 = EDGE_LOOP('',(#195,#196,#204,#212));
#195 = ORIENTED_EDGE('',*,*,#40,.T.);
#196 = ORIENTED_EDGE('',*,*,#197,.T.);
#197 = EDGE_CURVE('',#32,#198,#200,.T.);
#198 = VERTEX_POINT('',#199);
#199 = CARTESIAN_POINT('',(264.87,-1.5,12.));
#200 = LINE('',#201,#202);
#201 = CARTESIAN_POINT('',(177.,-1.5,12.));
#202 = VECTOR('',#203,1.);
#203 = DIRECTION('',(1.,0.,0.));
#204 = ORIENTED_EDGE('',*,*,#205,.F.);
#205 = EDGE_CURVE('',#206,#198,#208,.T.);
#206 = VERTEX_POINT('',#207);
#207 = CARTESIAN_POINT('',(264.87,-1.5,0.));
#208 = LINE('',#209,#210);
#209 = CARTESIAN_POINT('',(264.87,-1.5,0.));
#210 = VECTOR('',#211,1.);
#211 = DIRECTION('',(0.,0.,1.));
#212 = ORIENTED_EDGE('',*,*,#213,.F.);
#213 = EDGE_CURVE('',#41,#206,#214,.T.);
#214 = LINE('',#215,#216);
#215 = CARTESIAN_POINT('',(177.,-1.5,0.));
#216 = VECTOR('',#217,1.);
#217 = DIRECTION('',(1.,0.,0.));
#218 = FACE_BOUND('',#219,.F.);
#219 = EDGE_LOOP('',(#220,#230,#238,#246));
#220 = ORIENTED_EDGE('',*,*,#221,.T.);
#221 = EDGE_CURVE('',#222,#224,#226,.T.);
#222 = VERTEX_POINT('',#223);
#223 = CARTESIAN_POINT('',(194.99999999999,-1.5,9.25));
#224 = VERTEX_POINT('',#225);
#225 = CARTESIAN_POINT('',(182.,-1.5,9.25));
#226 = LINE('',#227,#228);
#227 = CARTESIAN_POINT('',(194.99999999999,-1.5,9.25));
#228 = VECTOR('',#229,1.);
#229 = DIRECTION('',(-1.,0.,0.));
#230 = ORIENTED_EDGE('',*,*,#231,.T.);
#231 = EDGE_CURVE('',#224,#232,#234,.T.);
#232 = VERTEX_POINT('',#233);
#233 = CARTESIAN_POINT('',(182.,-1.5,5.75));
#234 = LINE('',#235,#236);
#235 = CARTESIAN_POINT('',(182.,-1.5,9.25));
#236 = VECTOR('',#237,1.);
#237 = DIRECTION('',(0.,-2.22044604925E-16,-1.));
#238 = ORIENTED_EDGE('',*,*,#239,.T.);
#239 = EDGE_CURVE('',#232,#240,#242,.T.);
#240 = VERTEX_POINT('',#241);
#241 = CARTESIAN_POINT('',(194.99999999999,-1.5,5.75));
#242 = LINE('',#243,#244);
#243 = CARTESIAN_POINT('',(182.,-1.5,5.75));
#244 = VECTOR('',#245,1.);
#245 = DIRECTION('',(1.,0.,0.));
#246 = ORIENTED_EDGE('',*,*,#247,.T.);
#247 = EDGE_CURVE('',#240,#222,#248,.T.);
#248 = LINE('',#249,#250);
#249 = CARTESIAN_POINT('',(194.99999999999,-1.5,5.75));
#250 = VECTOR('',#251,1.);
#251 = DIRECTION('',(0.,2.22044604925E-16,1.));
#252 = FACE_BOUND('',#253,.F.);
#253 = EDGE_LOOP('',(#254,#264,#272,#280));
#254 = ORIENTED_EDGE('',*,*,#255,.T.);
#255 = EDGE_CURVE('',#256,#258,#260,.T.);
#256 = VERTEX_POINT('',#257);
#257 = CARTESIAN_POINT('',(227.435,-1.5,9.25));
#258 = VERTEX_POINT('',#259);
#259 = CARTESIAN_POINT('',(214.435,-1.5,9.25));
#260 = LINE('',#261,#262);
#261 = CARTESIAN_POINT('',(227.435,-1.5,9.25));
#262 = VECTOR('',#263,1.);
#263 = DIRECTION('',(-1.,0.,0.));
#264 = ORIENTED_EDGE('',*,*,#265,.T.);
#265 = EDGE_CURVE('',#258,#266,#268,.T.);
#266 = VERTEX_POINT('',#267);
#267 = CARTESIAN_POINT('',(214.435,-1.5,5.75));
#268 = LINE('',#269,#270);
#269 = CARTESIAN_POINT('',(214.435,-1.5,9.25));
#270 = VECTOR('',#271,1.);
#271 = DIRECTION('',(0.,-2.22044604925E-16,-1.));
#272 = ORIENTED_EDGE('',*,*,#273,.T.);
#273 = EDGE_CURVE('',#266,#274,#276,.T.);
#274 = VERTEX_POINT('',#275);
#275 = CARTESIAN_POINT('',(227.435,-1.5,5.75));
#276 = LINE('',#277,#278);
#277 = CARTESIAN_POINT('',(214.435,-1.5,5.75));
#278 = VECTOR('',#279,1.);
#279 = DIRECTION('',(1.,0.,0.));
#280 = ORIENTED_EDGE('',*,*,#281,.T.);
#281 = EDGE_CURVE('',#274,#256,#282,.T.);
#282 = LINE('',#283,#284);
#283 = CARTESIAN_POINT('',(227.435,-1.5,5.75));
#284 = VECTOR('',#285,1.);
#285 = DIRECTION('',(0.,2.22044604925E-16,1.));
#286 = FACE_BOUND('',#287,.F.);
#287 = EDGE_LOOP('',(#288,#298,#306,#314));
#288 = ORIENTED_EDGE('',*,*,#289,.T.);
#289 = EDGE_CURVE('',#290,#292,#294,.T.);
#290 = VERTEX_POINT('',#291);
#291 = CARTESIAN_POINT('',(259.87,-1.5,9.25));
#292 = VERTEX_POINT('',#293);
#293 = CARTESIAN_POINT('',(246.87000000003,-1.5,9.25));
#294 = LINE('',#295,#296);
#295 = CARTESIAN_POINT('',(259.87,-1.5,9.25));
#296 = VECTOR('',#297,1.);
#297 = DIRECTION('',(-1.,0.,0.));
#298 = ORIENTED_EDGE('',*,*,#299,.T.);
#299 = EDGE_CURVE('',#292,#300,#302,.T.);
#300 = VERTEX_POINT('',#301);
#301 = CARTESIAN_POINT('',(246.87000000003,-1.5,5.75));
#302 = LINE('',#303,#304);
#303 = CARTESIAN_POINT('',(246.87000000003,-1.5,9.25));
#304 = VECTOR('',#305,1.);
#305 = DIRECTION('',(0.,-2.22044604925E-16,-1.));
#306 = ORIENTED_EDGE('',*,*,#307,.T.);
#307 = EDGE_CURVE('',#300,#308,#310,.T.);
#308 = VERTEX_POINT('',#309);
#309 = CARTESIAN_POINT('',(259.87,-1.5,5.75));
#310 = LINE('',#311,#312);
#311 = CARTESIAN_POINT('',(246.87000000003,-1.5,5.75));
#312 = VECTOR('',#313,1.);
#313 = DIRECTION('',(1.,0.,0.));
#314 = ORIENTED_EDGE('',*,*,#315,.T.);
#315 = EDGE_CURVE('',#308,#290,#316,.T.);
#316 = LINE('',#317,#318);
#317 = CARTESIAN_POINT('',(259.87,-1.5,5.75));
#318 = VECTOR('',#319,1.);
#319 = DIRECTION('',(0.,2.22044604925E-16,1.));
#320 = PLANE('',#321);
#321 = AXIS2_PLACEMENT_3D('',#322,#323,#324);
#322 = CARTESIAN_POINT('',(177.,-1.5,0.));
#323 = DIRECTION('',(0.,1.,0.));
#324 = DIRECTION('',(1.,0.,0.));
#325 = ADVANCED_FACE('',(#326,#362),#374,.T.);
#326 = FACE_BOUND('',#327,.T.);
#327 = EDGE_LOOP('',(#328,#339,#347,#356));
#328 = ORIENTED_EDGE('',*,*,#329,.F.);
#329 = EDGE_CURVE('',#330,#332,#334,.T.);
#330 = VERTEX_POINT('',#331);
#331 = CARTESIAN_POINT('',(177.,-4.,0.));
#332 = VERTEX_POINT('',#333);
#333 = CARTESIAN_POINT('',(177.,4.,0.));
#334 = CIRCLE('',#335,4.);
#335 = AXIS2_PLACEMENT_3D('',#336,#337,#338);
#336 = CARTESIAN_POINT('',(177.,0.,0.));
#337 = DIRECTION('',(0.,0.,-1.));
#338 = DIRECTION('',(1.,0.,0.));
#339 = ORIENTED_EDGE('',*,*,#340,.T.);
#340 = EDGE_CURVE('',#330,#341,#343,.T.);
#341 = VERTEX_POINT('',#342);
#342 = CARTESIAN_POINT('',(264.87,-4.,0.));
#343 = LINE('',#344,#345);
#344 = CARTESIAN_POINT('',(177.,-4.,0.));
#345 = VECTOR('',#346,1.);
#346 = DIRECTION('',(1.,-2.021573733243E-17,0.));
#347 = ORIENTED_EDGE('',*,*,#348,.F.);
#348 = EDGE_CURVE('',#349,#341,#351,.T.);
#349 = VERTEX_POINT('',#350);
#350 = CARTESIAN_POINT('',(264.87,4.,0.));
#351 = CIRCLE('',#352,4.);
#352 = AXIS2_PLACEMENT_3D('',#353,#354,#355);
#353 = CARTESIAN_POINT('',(264.87,0.,0.));
#354 = DIRECTION('',(0.,0.,-1.));
#355 = DIRECTION('',(1.,0.,0.));
#356 = ORIENTED_EDGE('',*,*,#357,.F.);
#357 = EDGE_CURVE('',#332,#349,#358,.T.);
#358 = LINE('',#359,#360);
#359 = CARTESIAN_POINT('',(177.,4.,0.));
#360 = VECTOR('',#361,1.);
#361 = DIRECTION('',(1.,0.,0.));
#362 = FACE_BOUND('',#363,.T.);
#363 = EDGE_LOOP('',(#364,#365,#366,#373));
#364 = ORIENTED_EDGE('',*,*,#48,.F.);
#365 = ORIENTED_EDGE('',*,*,#80,.T.);
#366 = ORIENTED_EDGE('',*,*,#367,.F.);
#367 = EDGE_CURVE('',#206,#73,#368,.T.);
#368 = CIRCLE('',#369,1.5);
#369 = AXIS2_PLACEMENT_3D('',#370,#371,#372);
#370 = CARTESIAN_POINT('',(264.87,0.,0.));
#371 = DIRECTION('',(0.,0.,1.));
#372 = DIRECTION('',(1.,0.,0.));
#373 = ORIENTED_EDGE('',*,*,#213,.F.);
#374 = PLANE('',#375);
#375 = AXIS2_PLACEMENT_3D('',#376,#377,#378);
#376 = CARTESIAN_POINT('',(220.935,-7.114676436969E-16,0.));
#377 = DIRECTION('',(0.,0.,1.));
#378 = DIRECTION('',(1.,0.,0.));
#379 = ADVANCED_FACE('',(#380),#392,.T.);
#380 = FACE_BOUND('',#381,.T.);
#381 = EDGE_LOOP('',(#382,#383,#384,#391));
#382 = ORIENTED_EDGE('',*,*,#31,.T.);
#383 = ORIENTED_EDGE('',*,*,#197,.T.);
#384 = ORIENTED_EDGE('',*,*,#385,.T.);
#385 = EDGE_CURVE('',#198,#65,#386,.T.);
#386 = CIRCLE('',#387,1.5);
#387 = AXIS2_PLACEMENT_3D('',#388,#389,#390);
#388 = CARTESIAN_POINT('',(264.87,0.,12.));
#389 = DIRECTION('',(0.,0.,1.));
#390 = DIRECTION('',(1.,0.,0.));
#391 = ORIENTED_EDGE('',*,*,#64,.F.);
#392 = PLANE('',#393);
#393 = AXIS2_PLACEMENT_3D('',#394,#395,#396);
#394 = CARTESIAN_POINT('',(220.935,0.,12.));
#395 = DIRECTION('',(0.,0.,1.));
#396 = DIRECTION('',(1.,0.,0.));
#397 = ADVANCED_FACE('',(#398),#404,.T.);
#398 = FACE_BOUND('',#399,.F.);
#399 = EDGE_LOOP('',(#400,#401,#402,#403));
#400 = ORIENTED_EDGE('',*,*,#205,.T.);
#401 = ORIENTED_EDGE('',*,*,#385,.T.);
#402 = ORIENTED_EDGE('',*,*,#72,.F.);
#403 = ORIENTED_EDGE('',*,*,#367,.F.);
#404 = CYLINDRICAL_SURFACE('',#405,1.5);
#405 = AXIS2_PLACEMENT_3D('',#406,#407,#408);
#406 = CARTESIAN_POINT('',(264.87,0.,0.));
#407 = DIRECTION('',(-0.,-0.,-1.));
#408 = DIRECTION('',(1.,0.,0.));
#409 = ADVANCED_FACE('',(#410),#426,.F.);
#410 = FACE_BOUND('',#411,.F.);
#411 = EDGE_LOOP('',(#412,#413,#419,#420));
#412 = ORIENTED_EDGE('',*,*,#231,.F.);
#413 = ORIENTED_EDGE('',*,*,#414,.T.);
#414 = EDGE_CURVE('',#224,#91,#415,.T.);
#415 = LINE('',#416,#417);
#416 = CARTESIAN_POINT('',(182.,-1.5,9.25));
#417 = VECTOR('',#418,1.);
#418 = DIRECTION('',(0.,1.,-2.22044604925E-16));
#419 = ORIENTED_EDGE('',*,*,#88,.F.);
#420 = ORIENTED_EDGE('',*,*,#421,.F.);
#421 = EDGE_CURVE('',#232,#89,#422,.T.);
#422 = LINE('',#423,#424);
#423 = CARTESIAN_POINT('',(182.,-1.5,5.75));
#424 = VECTOR('',#425,1.);
#425 = DIRECTION('',(0.,1.,-2.22044604925E-16));
#426 = PLANE('',#427);
#427 = AXIS2_PLACEMENT_3D('',#428,#429,#430);
#428 = CARTESIAN_POINT('',(182.,-1.5,9.25));
#429 = DIRECTION('',(-1.,0.,0.));
#430 = DIRECTION('',(0.,-2.22044604925E-16,-1.));
#431 = ADVANCED_FACE('',(#432),#443,.F.);
#432 = FACE_BOUND('',#433,.F.);
#433 = EDGE_LOOP('',(#434,#435,#441,#442));
#434 = ORIENTED_EDGE('',*,*,#221,.F.);
#435 = ORIENTED_EDGE('',*,*,#436,.T.);
#436 = EDGE_CURVE('',#222,#107,#437,.T.);
#437 = LINE('',#438,#439);
#438 = CARTESIAN_POINT('',(194.99999999999,-1.5,9.25));
#439 = VECTOR('',#440,1.);
#440 = DIRECTION('',(0.,1.,-2.22044604925E-16));
#441 = ORIENTED_EDGE('',*,*,#114,.F.);
#442 = ORIENTED_EDGE('',*,*,#414,.F.);
#443 = PLANE('',#444);
#444 = AXIS2_PLACEMENT_3D('',#445,#446,#447);
#445 = CARTESIAN_POINT('',(194.99999999999,-1.5,9.25));
#446 = DIRECTION('',(0.,2.22044604925E-16,1.));
#447 = DIRECTION('',(-1.,0.,0.));
#448 = ADVANCED_FACE('',(#449),#460,.F.);
#449 = FACE_BOUND('',#450,.F.);
#450 = EDGE_LOOP('',(#451,#452,#458,#459));
#451 = ORIENTED_EDGE('',*,*,#247,.F.);
#452 = ORIENTED_EDGE('',*,*,#453,.T.);
#453 = EDGE_CURVE('',#240,#99,#454,.T.);
#454 = LINE('',#455,#456);
#455 = CARTESIAN_POINT('',(194.99999999999,-1.5,5.75));
#456 = VECTOR('',#457,1.);
#457 = DIRECTION('',(0.,1.,-2.22044604925E-16));
#458 = ORIENTED_EDGE('',*,*,#106,.F.);
#459 = ORIENTED_EDGE('',*,*,#436,.F.);
#460 = PLANE('',#461);
#461 = AXIS2_PLACEMENT_3D('',#462,#463,#464);
#462 = CARTESIAN_POINT('',(194.99999999999,-1.5,5.75));
#463 = DIRECTION('',(1.,0.,0.));
#464 = DIRECTION('',(0.,2.22044604925E-16,1.));
#465 = ADVANCED_FACE('',(#466),#472,.F.);
#466 = FACE_BOUND('',#467,.F.);
#467 = EDGE_LOOP('',(#468,#469,#470,#471));
#468 = ORIENTED_EDGE('',*,*,#239,.F.);
#469 = ORIENTED_EDGE('',*,*,#421,.T.);
#470 = ORIENTED_EDGE('',*,*,#98,.F.);
#471 = ORIENTED_EDGE('',*,*,#453,.F.);
#472 = PLANE('',#473);
#473 = AXIS2_PLACEMENT_3D('',#474,#475,#476);
#474 = CARTESIAN_POINT('',(182.,-1.5,5.75));
#475 = DIRECTION('',(0.,-2.22044604925E-16,-1.));
#476 = DIRECTION('',(1.,0.,0.));
#477 = ADVANCED_FACE('',(#478),#494,.F.);
#478 = FACE_BOUND('',#479,.F.);
#479 = EDGE_LOOP('',(#480,#481,#487,#488));
#480 = ORIENTED_EDGE('',*,*,#265,.F.);
#481 = ORIENTED_EDGE('',*,*,#482,.T.);
#482 = EDGE_CURVE('',#258,#125,#483,.T.);
#483 = LINE('',#484,#485);
#484 = CARTESIAN_POINT('',(214.435,-1.5,9.25));
#485 = VECTOR('',#486,1.);
#486 = DIRECTION('',(0.,1.,-2.22044604925E-16));
#487 = ORIENTED_EDGE('',*,*,#122,.F.);
#488 = ORIENTED_EDGE('',*,*,#489,.F.);
#489 = EDGE_CURVE('',#266,#123,#490,.T.);
#490 = LINE('',#491,#492);
#491 = CARTESIAN_POINT('',(214.435,-1.5,5.75));
#492 = VECTOR('',#493,1.);
#493 = DIRECTION('',(0.,1.,-2.22044604925E-16));
#494 = PLANE('',#495);
#495 = AXIS2_PLACEMENT_3D('',#496,#497,#498);
#496 = CARTESIAN_POINT('',(214.435,-1.5,9.25));
#497 = DIRECTION('',(-1.,0.,0.));
#498 = DIRECTION('',(0.,-2.22044604925E-16,-1.));
#499 = ADVANCED_FACE('',(#500),#511,.F.);
#500 = FACE_BOUND('',#501,.F.);
#501 = EDGE_LOOP('',(#502,#503,#509,#510));
#502 = ORIENTED_EDGE('',*,*,#255,.F.);
#503 = ORIENTED_EDGE('',*,*,#504,.T.);
#504 = EDGE_CURVE('',#256,#141,#505,.T.);
#505 = LINE('',#506,#507);
#506 = CARTESIAN_POINT('',(227.435,-1.5,9.25));
#507 = VECTOR('',#508,1.);
#508 = DIRECTION('',(0.,1.,-2.22044604925E-16));
#509 = ORIENTED_EDGE('',*,*,#148,.F.);
#510 = ORIENTED_EDGE('',*,*,#482,.F.);
#511 = PLANE('',#512);
#512 = AXIS2_PLACEMENT_3D('',#513,#514,#515);
#513 = CARTESIAN_POINT('',(227.435,-1.5,9.25));
#514 = DIRECTION('',(0.,2.22044604925E-16,1.));
#515 = DIRECTION('',(-1.,0.,0.));
#516 = ADVANCED_FACE('',(#517),#528,.F.);
#517 = FACE_BOUND('',#518,.F.);
#518 = EDGE_LOOP('',(#519,#520,#526,#527));
#519 = ORIENTED_EDGE('',*,*,#281,.F.);
#520 = ORIENTED_EDGE('',*,*,#521,.T.);
#521 = EDGE_CURVE('',#274,#133,#522,.T.);
#522 = LINE('',#523,#524);
#523 = CARTESIAN_POINT('',(227.435,-1.5,5.75));
#524 = VECTOR('',#525,1.);
#525 = DIRECTION('',(0.,1.,-2.22044604925E-16));
#526 = ORIENTED_EDGE('',*,*,#140,.F.);
#527 = ORIENTED_EDGE('',*,*,#504,.F.);
#528 = PLANE('',#529);
#529 = AXIS2_PLACEMENT_3D('',#530,#531,#532);
#530 = CARTESIAN_POINT('',(227.435,-1.5,5.75));
#531 = DIRECTION('',(1.,0.,0.));
#532 = DIRECTION('',(0.,2.22044604925E-16,1.));
#533 = ADVANCED_FACE('',(#534),#540,.F.);
#534 = FACE_BOUND('',#535,.F.);
#535 = EDGE_LOOP('',(#536,#537,#538,#539));
#536 = ORIENTED_EDGE('',*,*,#273,.F.);
#537 = ORIENTED_EDGE('',*,*,#489,.T.);
#538 = ORIENTED_EDGE('',*,*,#132,.F.);
#539 = ORIENTED_EDGE('',*,*,#521,.F.);
#540 = PLANE('',#541);
#541 = AXIS2_PLACEMENT_3D('',#542,#543,#544);
#542 = CARTESIAN_POINT('',(214.435,-1.5,5.75));
#543 = DIRECTION('',(0.,-2.22044604925E-16,-1.));
#544 = DIRECTION('',(1.,0.,0.));
#545 = ADVANCED_FACE('',(#546),#562,.F.);
#546 = FACE_BOUND('',#547,.F.);
#547 = EDGE_LOOP('',(#548,#549,#555,#556));
#548 = ORIENTED_EDGE('',*,*,#299,.F.);
#549 = ORIENTED_EDGE('',*,*,#550,.T.);
#550 = EDGE_CURVE('',#292,#159,#551,.T.);
#551 = LINE('',#552,#553);
#552 = CARTESIAN_POINT('',(246.87000000003,-1.5,9.25));
#553 = VECTOR('',#554,1.);
#554 = DIRECTION('',(0.,1.,-2.22044604925E-16));
#555 = ORIENTED_EDGE('',*,*,#156,.F.);
#556 = ORIENTED_EDGE('',*,*,#557,.F.);
#557 = EDGE_CURVE('',#300,#157,#558,.T.);
#558 = LINE('',#559,#560);
#559 = CARTESIAN_POINT('',(246.87000000003,-1.5,5.75));
#560 = VECTOR('',#561,1.);
#561 = DIRECTION('',(0.,1.,-2.22044604925E-16));
#562 = PLANE('',#563);
#563 = AXIS2_PLACEMENT_3D('',#564,#565,#566);
#564 = CARTESIAN_POINT('',(246.87000000003,-1.5,9.25));
#565 = DIRECTION('',(-1.,0.,0.));
#566 = DIRECTION('',(0.,-2.22044604925E-16,-1.));
#567 = ADVANCED_FACE('',(#568),#579,.F.);
#568 = FACE_BOUND('',#569,.F.);
#569 = EDGE_LOOP('',(#570,#571,#577,#578));
#570 = ORIENTED_EDGE('',*,*,#289,.F.);
#571 = ORIENTED_EDGE('',*,*,#572,.T.);
#572 = EDGE_CURVE('',#290,#175,#573,.T.);
#573 = LINE('',#574,#575);
#574 = CARTESIAN_POINT('',(259.87,-1.5,9.25));
#575 = VECTOR('',#576,1.);
#576 = DIRECTION('',(0.,1.,-2.22044604925E-16));
#577 = ORIENTED_EDGE('',*,*,#182,.F.);
#578 = ORIENTED_EDGE('',*,*,#550,.F.);
#579 = PLANE('',#580);
#580 = AXIS2_PLACEMENT_3D('',#581,#582,#583);
#581 = CARTESIAN_POINT('',(259.87,-1.5,9.25));
#582 = DIRECTION('',(0.,2.22044604925E-16,1.));
#583 = DIRECTION('',(-1.,0.,0.));
#584 = ADVANCED_FACE('',(#585),#596,.F.);
#585 = FACE_BOUND('',#586,.F.);
#586 = EDGE_LOOP('',(#587,#588,#594,#595));
#587 = ORIENTED_EDGE('',*,*,#315,.F.);
#588 = ORIENTED_EDGE('',*,*,#589,.T.);
#589 = EDGE_CURVE('',#308,#167,#590,.T.);
#590 = LINE('',#591,#592);
#591 = CARTESIAN_POINT('',(259.87,-1.5,5.75));
#592 = VECTOR('',#593,1.);
#593 = DIRECTION('',(0.,1.,-2.22044604925E-16));
#594 = ORIENTED_EDGE('',*,*,#174,.F.);
#595 = ORIENTED_EDGE('',*,*,#572,.F.);
#596 = PLANE('',#597);
#597 = AXIS2_PLACEMENT_3D('',#598,#599,#600);
#598 = CARTESIAN_POINT('',(259.87,-1.5,5.75));
#599 = DIRECTION('',(1.,0.,0.));
#600 = DIRECTION('',(0.,2.22044604925E-16,1.));
#601 = ADVANCED_FACE('',(#602),#608,.F.);
#602 = FACE_BOUND('',#603,.F.);
#603 = EDGE_LOOP('',(#604,#605,#606,#607));
#604 = ORIENTED_EDGE('',*,*,#307,.F.);
#605 = ORIENTED_EDGE('',*,*,#557,.T.);
#606 = ORIENTED_EDGE('',*,*,#166,.F.);
#607 = ORIENTED_EDGE('',*,*,#589,.F.);
#608 = PLANE('',#609);
#609 = AXIS2_PLACEMENT_3D('',#610,#611,#612);
#610 = CARTESIAN_POINT('',(246.87000000003,-1.5,5.75));
#611 = DIRECTION('',(0.,-2.22044604925E-16,-1.));
#612 = DIRECTION('',(1.,0.,0.));
#613 = ADVANCED_FACE('',(#614),#640,.T.);
#614 = FACE_BOUND('',#615,.F.);
#615 = EDGE_LOOP('',(#616,#624,#633,#639));
#616 = ORIENTED_EDGE('',*,*,#617,.T.);
#617 = EDGE_CURVE('',#330,#618,#620,.T.);
#618 = VERTEX_POINT('',#619);
#619 = CARTESIAN_POINT('',(177.,-4.,-3.));
#620 = LINE('',#621,#622);
#621 = CARTESIAN_POINT('',(177.,-4.,0.));
#622 = VECTOR('',#623,1.);
#623 = DIRECTION('',(0.,0.,-1.));
#624 = ORIENTED_EDGE('',*,*,#625,.T.);
#625 = EDGE_CURVE('',#618,#626,#628,.T.);
#626 = VERTEX_POINT('',#627);
#627 = CARTESIAN_POINT('',(177.,4.,-3.));
#628 = CIRCLE('',#629,4.);
#629 = AXIS2_PLACEMENT_3D('',#630,#631,#632);
#630 = CARTESIAN_POINT('',(177.,0.,-3.));
#631 = DIRECTION('',(0.,0.,-1.));
#632 = DIRECTION('',(1.,0.,0.));
#633 = ORIENTED_EDGE('',*,*,#634,.F.);
#634 = EDGE_CURVE('',#332,#626,#635,.T.);
#635 = LINE('',#636,#637);
#636 = CARTESIAN_POINT('',(177.,4.,0.));
#637 = VECTOR('',#638,1.);
#638 = DIRECTION('',(0.,0.,-1.));
#639 = ORIENTED_EDGE('',*,*,#329,.F.);
#640 = CYLINDRICAL_SURFACE('',#641,4.);
#641 = AXIS2_PLACEMENT_3D('',#642,#643,#644);
#642 = CARTESIAN_POINT('',(177.,0.,0.));
#643 = DIRECTION('',(0.,0.,1.));
#644 = DIRECTION('',(1.,0.,0.));
#645 = ADVANCED_FACE('',(#646),#664,.T.);
#646 = FACE_BOUND('',#647,.T.);
#647 = EDGE_LOOP('',(#648,#649,#657,#663));
#648 = ORIENTED_EDGE('',*,*,#617,.T.);
#649 = ORIENTED_EDGE('',*,*,#650,.T.);
#650 = EDGE_CURVE('',#618,#651,#653,.T.);
#651 = VERTEX_POINT('',#652);
#652 = CARTESIAN_POINT('',(264.87,-4.,-3.));
#653 = LINE('',#654,#655);
#654 = CARTESIAN_POINT('',(177.,-4.,-3.));
#655 = VECTOR('',#656,1.);
#656 = DIRECTION('',(1.,-2.021573733243E-17,0.));
#657 = ORIENTED_EDGE('',*,*,#658,.F.);
#658 = EDGE_CURVE('',#341,#651,#659,.T.);
#659 = LINE('',#660,#661);
#660 = CARTESIAN_POINT('',(264.87,-4.,0.));
#661 = VECTOR('',#662,1.);
#662 = DIRECTION('',(0.,0.,-1.));
#663 = ORIENTED_EDGE('',*,*,#340,.F.);
#664 = PLANE('',#665);
#665 = AXIS2_PLACEMENT_3D('',#666,#667,#668);
#666 = CARTESIAN_POINT('',(177.,-4.,0.));
#667 = DIRECTION('',(-2.021573733243E-17,-1.,-0.));
#668 = DIRECTION('',(1.,-2.021573733243E-17,0.));
#669 = ADVANCED_FACE('',(#670),#688,.F.);
#670 = FACE_BOUND('',#671,.F.);
#671 = EDGE_LOOP('',(#672,#673,#681,#687));
#672 = ORIENTED_EDGE('',*,*,#634,.T.);
#673 = ORIENTED_EDGE('',*,*,#674,.T.);
#674 = EDGE_CURVE('',#626,#675,#677,.T.);
#675 = VERTEX_POINT('',#676);
#676 = CARTESIAN_POINT('',(264.87,4.,-3.));
#677 = LINE('',#678,#679);
#678 = CARTESIAN_POINT('',(177.,4.,-3.));
#679 = VECTOR('',#680,1.);
#680 = DIRECTION('',(1.,0.,0.));
#681 = ORIENTED_EDGE('',*,*,#682,.F.);
#682 = EDGE_CURVE('',#349,#675,#683,.T.);
#683 = LINE('',#684,#685);
#684 = CARTESIAN_POINT('',(264.87,4.,0.));
#685 = VECTOR('',#686,1.);
#686 = DIRECTION('',(0.,0.,-1.));
#687 = ORIENTED_EDGE('',*,*,#357,.F.);
#688 = PLANE('',#689);
#689 = AXIS2_PLACEMENT_3D('',#690,#691,#692);
#690 = CARTESIAN_POINT('',(177.,4.,0.));
#691 = DIRECTION('',(0.,-1.,0.));
#692 = DIRECTION('',(1.,0.,0.));
#693 = ADVANCED_FACE('',(#694),#706,.T.);
#694 = FACE_BOUND('',#695,.F.);
#695 = EDGE_LOOP('',(#696,#697,#704,#705));
#696 = ORIENTED_EDGE('',*,*,#682,.T.);
#697 = ORIENTED_EDGE('',*,*,#698,.T.);
#698 = EDGE_CURVE('',#675,#651,#699,.T.);
#699 = CIRCLE('',#700,4.);
#700 = AXIS2_PLACEMENT_3D('',#701,#702,#703);
#701 = CARTESIAN_POINT('',(264.87,0.,-3.));
#702 = DIRECTION('',(0.,0.,-1.));
#703 = DIRECTION('',(1.,0.,0.));
#704 = ORIENTED_EDGE('',*,*,#658,.F.);
#705 = ORIENTED_EDGE('',*,*,#348,.F.);
#706 = CYLINDRICAL_SURFACE('',#707,4.);
#707 = AXIS2_PLACEMENT_3D('',#708,#709,#710);
#708 = CARTESIAN_POINT('',(264.87,0.,0.));
#709 = DIRECTION('',(0.,0.,1.));
#710 = DIRECTION('',(1.,0.,0.));
#711 = ADVANCED_FACE('',(#712),#718,.F.);
#712 = FACE_BOUND('',#713,.T.);
#713 = EDGE_LOOP('',(#714,#715,#716,#717));
#714 = ORIENTED_EDGE('',*,*,#625,.T.);
#715 = ORIENTED_EDGE('',*,*,#674,.T.);
#716 = ORIENTED_EDGE('',*,*,#698,.T.);
#717 = ORIENTED_EDGE('',*,*,#650,.F.);
#718 = PLANE('',#719);
#719 = AXIS2_PLACEMENT_3D('',#720,#721,#722);
#720 = CARTESIAN_POINT('',(220.935,-7.114676436969E-16,-3.));
#721 = DIRECTION('',(0.,0.,1.));
#722 = DIRECTION('',(1.,0.,0.));
#723 = ( GEOMETRIC_REPRESENTATION_CONTEXT(3) 
GLOBAL_UNCERTAINTY_ASSIGNED_CONTEXT((#727)) GLOBAL_UNIT_ASSIGNED_CONTEXT
((#724,#725,#726)) REPRESENTATION_CONTEXT('Context #1',
  '3D Context with UNIT and UNCERTAINTY') );
#724 = ( LENGTH_UNIT() NAMED_UNIT(*) SI_UNIT(.MILLI.,.METRE.) );
#725 = ( NAMED_UNIT(*) PLANE_ANGLE_UNIT() SI_UNIT($,.RADIAN.) );
#726 = ( NAMED_UNIT(*) SI_UNIT($,.STERADIAN.) SOLID_ANGLE_UNIT() );
#727 = UNCERTAINTY_MEASURE_WITH_UNIT(LENGTH_MEASURE(2.E-05),#724,
  'distance_accuracy_value','confusion accuracy');
#728 = PRODUCT_RELATED_PRODUCT_CATEGORY('part',$,(#7));
#729 = MECHANICAL_DESIGN_GEOMETRIC_PRESENTATION_REPRESENTATION('',(#730)
  ,#723);
#730 = STYLED_ITEM('color',(#731),#15);
#731 = PRESENTATION_STYLE_ASSIGNMENT((#732,#738));
#732 = SURFACE_STYLE_USAGE(.BOTH.,#733);
#733 = SURFACE_SIDE_STYLE('',(#734));
#734 = SURFACE_STYLE_FILL_AREA(#735);
#735 = FILL_AREA_STYLE('',(#736));
#736 = FILL_AREA_STYLE_COLOUR('',#737);
#737 = COLOUR_RGB('',0.447058818107,0.474509808674,0.501960817233);
#738 = CURVE_STYLE('',#739,POSITIVE_LENGTH_MEASURE(0.1),#740);
#739 = DRAUGHTING_PRE_DEFINED_CURVE_FONT('continuous');
#740 = COLOUR_RGB('',9.803921802644E-02,9.803921802644E-02,
  9.803921802644E-02);
ENDSEC;
END-ISO-10303-21;
